<svg xmlns="http://www.w3.org/2000/svg" xmlns:xlink="http://www.w3.org/1999/xlink" version="1.1" width="256" height="256" viewBox="0 0 256 256" xml:space="preserve">

<defs>
</defs>
<g style="stroke: none; stroke-width: 0; stroke-dasharray: none; stroke-linecap: butt; stroke-linejoin: miter; stroke-miterlimit: 10; fill: none; fill-rule: nonzero; opacity: 1;" transform="translate(1.4065934065934016 1.4065934065934016) scale(2.81 2.81)" >
	<path d="M 89 75.036 h -5.341 c -0.553 0 -1 -0.447 -1 -1 V 59.013 H 7.341 v 15.023 c 0 0.553 -0.448 1 -1 1 H 1 c -0.552 0 -1 -0.447 -1 -1 V 15.964 c 0 -0.552 0.448 -1 1 -1 h 5.341 c 0.552 0 1 0.448 1 1 v 28.521 H 89 c 0.553 0 1 0.448 1 1 v 28.551 C 90 74.589 89.553 75.036 89 75.036 z M 84.659 73.036 H 88 V 46.485 H 6.341 c -0.552 0 -1 -0.448 -1 -1 V 16.964 H 2 v 56.072 h 3.341 V 58.013 c 0 -0.553 0.448 -1 1 -1 h 77.318 c 0.553 0 1 0.447 1 1 V 73.036 z" style="stroke: none; stroke-width: 1; stroke-dasharray: none; stroke-linecap: butt; stroke-linejoin: miter; stroke-miterlimit: 10; fill: rgb(0,0,0); fill-rule: nonzero; opacity: 1;" transform=" matrix(1 0 0 1 0 0) " stroke-linecap="round" />
	<path d="M 89 46.484 H 27.542 c -0.552 0 -1 -0.447 -1 -1 v -8.067 c 0 -4.44 3.612 -8.052 8.052 -8.052 h 39.287 C 82.769 29.366 90 36.597 90 45.485 C 90 46.037 89.553 46.484 89 46.484 z M 28.542 44.485 h 59.423 c -0.515 -7.321 -6.635 -13.119 -14.084 -13.119 H 34.594 c -3.337 0 -6.052 2.715 -6.052 6.052 V 44.485 z" style="stroke: none; stroke-width: 1; stroke-dasharray: none; stroke-linecap: butt; stroke-linejoin: miter; stroke-miterlimit: 10; fill: rgb(0,0,0); fill-rule: nonzero; opacity: 1;" transform=" matrix(1 0 0 1 0 0) " stroke-linecap="round" />
	<path d="M 27.542 46.484 h -7.56 c -4.72 0 -8.56 -3.839 -8.56 -8.559 s 3.84 -8.56 8.56 -8.56 s 8.56 3.84 8.56 8.56 v 7.56 C 28.542 46.037 28.094 46.484 27.542 46.484 z M 19.982 31.366 c -3.617 0 -6.56 2.942 -6.56 6.56 s 2.942 6.56 6.56 6.56 h 6.56 v -6.56 C 26.542 34.308 23.6 31.366 19.982 31.366 z" style="stroke: none; stroke-width: 1; stroke-dasharray: none; stroke-linecap: butt; stroke-linejoin: miter; stroke-miterlimit: 10; fill: rgb(0,0,0); fill-rule: nonzero; opacity: 1;" transform=" matrix(1 0 0 1 0 0) " stroke-linecap="round" />
</g>
</svg>