<svg xmlns="http://www.w3.org/2000/svg" xmlns:xlink="http://www.w3.org/1999/xlink" version="1.1" width="256" height="256" viewBox="0 0 256 256" xml:space="preserve">

<defs>
</defs>
<g style="stroke: none; stroke-width: 0; stroke-dasharray: none; stroke-linecap: butt; stroke-linejoin: miter; stroke-miterlimit: 10; fill: none; fill-rule: nonzero; opacity: 1;" transform="translate(1.4065934065934016 1.4065934065934016) scale(2.81 2.81)" >
	<path d="M 26.572 56.685 H 13.066 c -2.232 0 -4.048 -1.817 -4.048 -4.049 v -5.47 c 0 -2.232 1.816 -4.048 4.048 -4.048 h 13.506 c 2.232 0 4.048 1.816 4.048 4.048 v 5.47 C 30.62 54.868 28.804 56.685 26.572 56.685 z M 13.066 46.084 c -0.596 0 -1.081 0.486 -1.081 1.082 v 5.47 c 0 0.597 0.485 1.082 1.081 1.082 h 13.506 c 0.596 0 1.081 -0.485 1.081 -1.082 v -5.47 c 0 -0.596 -0.485 -1.082 -1.081 -1.082 H 13.066 z" style="stroke: none; stroke-width: 1; stroke-dasharray: none; stroke-linecap: butt; stroke-linejoin: miter; stroke-miterlimit: 10; fill: rgb(0,0,0); fill-rule: nonzero; opacity: 1;" transform=" matrix(1 0 0 1 0 0) " stroke-linecap="round" />
	<path d="M 76.934 56.685 H 63.428 c -2.232 0 -4.048 -1.817 -4.048 -4.049 v -5.47 c 0 -2.232 1.816 -4.048 4.048 -4.048 h 13.506 c 2.232 0 4.048 1.816 4.048 4.048 v 5.47 C 80.982 54.868 79.166 56.685 76.934 56.685 z M 63.428 46.084 c -0.596 0 -1.081 0.486 -1.081 1.082 v 5.47 c 0 0.597 0.485 1.082 1.081 1.082 h 13.506 c 0.596 0 1.081 -0.485 1.081 -1.082 v -5.47 c 0 -0.596 -0.485 -1.082 -1.081 -1.082 H 63.428 z" style="stroke: none; stroke-width: 1; stroke-dasharray: none; stroke-linecap: butt; stroke-linejoin: miter; stroke-miterlimit: 10; fill: rgb(0,0,0); fill-rule: nonzero; opacity: 1;" transform=" matrix(1 0 0 1 0 0) " stroke-linecap="round" />
	<path d="M 51.652 51.384 H 38.348 c -0.82 0 -1.484 -0.664 -1.484 -1.484 c 0 -0.819 0.664 -1.484 1.484 -1.484 h 13.303 c 0.819 0 1.484 0.664 1.484 1.484 C 53.135 50.72 52.471 51.384 51.652 51.384 z" style="stroke: none; stroke-width: 1; stroke-dasharray: none; stroke-linecap: butt; stroke-linejoin: miter; stroke-miterlimit: 10; fill: rgb(0,0,0); fill-rule: nonzero; opacity: 1;" transform=" matrix(1 0 0 1 0 0) " stroke-linecap="round" />
	<path d="M 89.096 42.458 l -3.568 -5.667 c -0.892 -1.416 -2.313 -2.351 -3.92 -2.642 l -7.867 -20.245 c -0.981 -2.522 -3.362 -4.151 -6.067 -4.151 H 22.327 c -2.706 0 -5.087 1.629 -6.067 4.151 L 8.393 34.149 c -1.607 0.291 -3.029 1.226 -3.921 2.642 l -3.568 5.667 C 0.312 43.397 0 44.481 0 45.592 V 54.7 v 4.444 v 14.303 c 0 3.749 3.051 6.8 6.8 6.8 h 10.352 c 3.75 0 6.8 -3.051 6.8 -6.8 v -8.422 h 42.094 v 8.422 c 0 3.749 3.051 6.8 6.8 6.8 H 83.2 c 3.749 0 6.8 -3.051 6.8 -6.8 V 59.144 V 54.7 v -9.108 C 90 44.482 89.687 43.399 89.096 42.458 z M 19.025 14.979 c 0.534 -1.372 1.829 -2.259 3.302 -2.259 h 45.347 c 1.472 0 2.768 0.887 3.301 2.259 l 7.408 19.065 h -8.212 c -0.741 -6.676 -6.412 -11.887 -13.284 -11.887 s -12.543 5.211 -13.284 11.887 H 11.617 L 19.025 14.979 z M 67.173 34.044 H 46.602 c 0.724 -5.035 5.054 -8.92 10.286 -8.92 S 66.449 29.009 67.173 34.044 z M 20.986 73.447 c 0 2.114 -1.72 3.833 -3.833 3.833 H 6.8 c -2.114 0 -3.833 -1.719 -3.833 -3.833 v -9.202 c 0.86 0.493 1.853 0.78 2.914 0.78 h 15.105 V 73.447 z M 83.2 77.28 H 72.848 c -2.114 0 -3.833 -1.719 -3.833 -3.833 v -8.422 h 15.105 c 1.061 0 2.054 -0.286 2.914 -0.78 v 9.202 C 87.033 75.561 85.314 77.28 83.2 77.28 z M 87.033 59.144 c 0 1.607 -1.307 2.914 -2.914 2.914 H 5.881 c -1.607 0 -2.914 -1.307 -2.914 -2.914 V 54.7 v -9.108 c 0 -0.551 0.155 -1.087 0.448 -1.553 l 3.567 -5.667 c 0.537 -0.852 1.458 -1.361 2.464 -1.362 c 0 0 0.001 0 0.001 0 c 0.001 0 0.002 0 0.003 0 h 71.1 c 1.007 0 1.929 0.509 2.466 1.362 l 3.568 5.666 c 0.293 0.466 0.448 1.003 0.448 1.553 V 54.7 V 59.144 z" style="stroke: none; stroke-width: 1; stroke-dasharray: none; stroke-linecap: butt; stroke-linejoin: miter; stroke-miterlimit: 10; fill: rgb(0,0,0); fill-rule: nonzero; opacity: 1;" transform=" matrix(1 0 0 1 0 0) " stroke-linecap="round" />
</g>
</svg>