<?xml version="1.0"?>
<svg xmlns:rdf="http://www.w3.org/1999/02/22-rdf-syntax-ns#" xmlns="http://www.w3.org/2000/svg" xmlns:cc="http://web.resource.org/cc/" xmlns:dc="http://purl.org/dc/elements/1.1/" xmlns:svg="http://www.w3.org/2000/svg" id="svg2" viewBox="0 0 543 919" version="1.0">
  <g id="layer1" transform="translate(825.62 -11.067)">
    <g id="g2697" transform="translate(-475.7 -23.719)">
      <path id="path2713" fill="#fefefd" d="m-349.91 494.29v-459.5l271.5-0.004h271.5v919h-543v-459.5z"/>
      <path id="path2711" fill="#ede6a0" d="m-66.413 949.26c-5.5-1.29-13.29-3.49-17.31-4.87-6.688-2.31-8.687-2.52-23.497-2.45-18.18 0.08-30.36-1.86-44.86-7.16-24.95-9.1-45.72-27.07-57.23-49.5-3.65-7.11-4.34-9.92-2.68-10.95 0.51-0.31 5.06 0.14 10.1 1.01 10.24 1.77 15.73 1.3 20.79-1.78 3.89-2.37 8.93-9.46 7.6-10.69-0.5-0.46-5.64-3.87-11.41-7.59-32.13-20.67-54.12-42.62-66.25-66.11-5.91-11.45-10.3-24.24-8.82-25.72 1.18-1.17 1.08-1.19 27.07 4.77 18.28 4.19 26.94 4.62 30.06 1.5 1.13-1.13 1.92-2.75 1.75-3.61-0.17-0.85-5.92-4.44-12.77-7.96-35.62-18.34-68.35-47.38-85.5-75.85-4.06-6.75-4.38-9-1.51-10.53 5.87-3.14 15.49-2.33 38.22 3.22 7.02 1.71 13.02 2.86 13.33 2.54 1.19-1.18-1.87-4.68-18-20.54-22.57-22.2-33.42-35.45-45.47-55.47-5.82-9.68-14.25-26.96-19.06-39.09-3.87-9.75-3.28-11.11 4.38-10.13 9.04 1.16 12.83 2.47 27.93 9.73 16.48 7.91 21.42 8.81 27.85 5.07 4.99-2.9 4.96-3.86-1.73-55.31-4.35-33.49-4.48-43-0.6-43 4.76 0 17.11 11.31 36.58 33.5 18.45 21.02 28.89 30.48 31.16 28.21 0.26-0.26 1.35-4.16 2.42-8.66 3.79-15.85 11.31-28.06 17.28-28.05 3.32 0.01 8.27 3.46 11.78 8.21 12.16 16.47 24.13 61.5 22.35 84.06-0.72 9.06 0.83 23.08 3.17 28.68 1.92 4.6 5.23 8.05 7.71 8.05 3.44 0 9.25-7.31 12.48-15.69 3.44-8.94 5-9.83 10.83-6.23 8.62 5.33 16.39 23.99 18.851 45.28 0.373 3.23 1.015 5.48 1.428 5 0.412-0.47 1.765-4.69 3.005-9.36 2.736-10.31 5.713-16 8.37-16 3.165 0 15.603 13.59 25.164 27.5 8.492 12.35 17.829 23.5 19.684 23.5 1.43 0 0.954-29.76-0.688-43.02-4.567-36.89-15.414-65.57-49.925-131.98-7.574-14.58-13.949-26.7-14.179-26.94-0.22-0.25-1.07 0.51-1.88 1.67-1.95 2.79-7.66 4.6-11.69 3.72-4.48-0.98-10.73-5.33-11.29-7.85-0.25-1.16-0.58-15.02-0.73-30.81-0.2-21.33-0.58-29.02-1.51-29.95-0.69-0.68-1.26-0.82-1.28-0.29-0.01 0.52-2.22 14.21-4.91 30.43-4.61 27.72-5.05 29.61-7.54 31.75-4.57 3.93-14.8 2.36-17.49-2.68-1.65-3.07-1.24-8.21 2.49-30.96 1.93-11.77 3.33-21.58 3.11-21.79-0.35-0.36-3.51 7.93-12.75 33.56-3.75 10.37-5.99 13.25-11.63 14.94-7.61 2.28-16.25-2.82-16.25-9.58 0-1.93 2.93-12.07 6.53-22.53 3.59-10.46 6.36-19.5 6.17-20.08-0.19-0.59-5 7.18-10.68 17.25-8.63 15.31-10.88 18.58-13.69 19.92-3.18 1.52-3.6 1.48-7.86-0.58-5.28-2.57-8.79-7.53-7.93-11.2 0.32-1.38 3.75-8.27 7.62-15.32s6.85-13 6.63-13.23c-0.23-0.22-4.97 5.1-10.54 11.84-5.57 6.73-11.17 13.2-12.44 14.38-6.5 6.03-15.27 1.17-18.73-10.36-2.45-8.19-2.17-9 7.56-21.09 4.15-5.15 7.36-9.56 7.13-9.78-0.23-0.23-5.69 4.07-12.13 9.56s-12.83 10.26-14.2 10.6c-8.4 2.11-17.15-11.53-11.67-18.21 0.95-1.16 12.75-11.46 26.23-22.89 28.39-24.09 27.74-23.5 26.4-23.5-0.57 0-14.92 8.1-31.9 18-22.15 12.91-31.76 18-34 18-4.84 0-10.5-6.83-10.5-12.65 0-2.93 2.64-10.94 4.35-13.17 0.55-0.72 11.61-7.64 24.57-15.36 28.64-17.06 28.35-16.88 27.82-17.41-0.23-0.24-11.86 3.9-25.84 9.19-33.3 12.6-33.7 12.73-37.19 11.28-6.09-2.52-8.93-14.78-4.46-19.2 1.34-1.33 13.97-6.63 31.25-13.11 26.44-9.93 32.75-12.57 29.92-12.57-4.34 0-52.95 9.75-64.6 12.96-8.06 2.22-15.73 4.04-17.02 4.04-7.73 0-12.69-14.05-7.13-20.19 0.9-1 4.84-2.74 8.74-3.85 3.9-1.12 8.21-2.65 9.59-3.41s5.43-1.89 9-2.51c6.52-1.14 50.07-12.78 50.89-13.61 0.87-0.86-6.29-0.39-39.06 2.57-40.41 3.64-39.98 3.64-43.46 0.64-2.44-2.1-2.83-3.32-3.59-11.25-0.46-4.89-1.09-11.2-1.4-14.03-0.63-5.83 1.29-10.81 4.59-11.85 1.96-0.63 1.96-0.68-0.24-3.66-1.78-2.41-2.17-4.08-1.9-8.19 0.4-6.26 0.35-7.88-0.36-13.66-0.4-3.24-0.06-5.49 1.23-8 3.43-6.68 2.63-6.68 47.81-0.01 39.52 5.83 45.37 6.56 44.32 5.5-0.28-0.27-18.21-6.57-39.84-13.98-24.93-8.55-40.19-14.29-41.67-15.68-1.75-1.64-2.32-3.27-2.32-6.57 0-8.01 4.2-13.26 10.61-13.26 3.91 0 4.44-0.32 6.45-3.9 2.14-3.81 5.39-6.1 8.67-6.1 0.9 0 15.29 7.7 31.99 17.12s30.56 16.93 30.8 16.68c0.25-0.24-11.58-10.31-26.29-22.37-14.7-12.06-27.75-23.01-28.98-24.33-7.12-7.58 3.85-22.87 12.92-18.01 1.12 0.6 14.6 11.4 29.96 24s28.19 22.91 28.52 22.91c1.82 0-11.37-14.65-35.85-39.84-15.86-16.32-23.9-25.31-24.31-27.2-0.73-3.34 1.13-7.354 5.17-11.101 4.14-3.845 6.72-4.317 11.08-2.027 2.07 1.082 5.16 2.491 6.87 3.131 2.14 0.799 8.93 7.957 21.69 22.847 18.52 21.63 31.96 35.78 28.2 29.69-1.02-1.65-11.9-17.57-24.18-35.38-15.47-22.442-22.31-33.188-22.29-35.003 0.12-8.384 12.01-15.32 17.79-10.371 1.12 0.963 12.65 17.142 25.63 35.954 12.97 18.81 24.02 34.47 24.55 34.8 1.11 0.68 0.36-1.01-20.37-45.747-15.94-34.409-17.18-38.107-14.17-42.404 3.38-4.82 12.54-6.83 16.42-3.603 1.16 0.963 6.88 12.1 12.72 24.75 5.85 12.65 11.09 23.45 11.66 24 0.7 0.677 0.88 0.515 0.55-0.5-0.26-0.825-2.88-9.724-5.82-19.776-5.18-17.743-5.29-18.373-3.76-21.593 2.82-5.917 13-8.688 17.76-4.834 1.72 1.387 4.37 9.062 11.63 33.687 5.18 17.539 9.63 32.11 9.9 32.37 0.89 0.89 0.47-3.29-3.52-34.854-2.19-17.325-3.99-32.28-3.99-33.234-0.01-0.954 1.25-3.149 2.8-4.878 2.26-2.533 3.79-3.239 7.85-3.63 4.5-0.432 5.4-0.174 8.23 2.379l3.17 2.863 4.44 35.384c2.43 19.46 4.62 35.58 4.86 35.82 0.56 0.56 1.42-14.03 2.67-45.704 0.56-14.025 1.52-26.757 2.13-28.295 2.91-7.292 21.27-7.684 23.2-0.495 0.33 1.26 0.65 17.815 0.7 36.79 0.06 20.879 0.44 33.514 0.96 32.004 0.48-1.38 3.16-16.625 5.96-33.884 2.8-17.26 5.557-32.26 6.132-33.335s2.601-2.604 4.502-3.398c6.15-2.57 14.456 1.074 15.942 6.994 0.336 1.337-1.933 18.013-5.042 37.057-3.108 19.046-5.509 35.366-5.335 36.266 0.175 0.9 5.493-13.6 11.818-32.214 6.325-18.616 12.311-34.881 13.303-36.145 2.667-3.396 8.737-4.949 13.623-3.485 4.412 1.322 9.071 6.181 9.078 9.467 0.003 1.196-5.206 16.921-11.576 34.945-6.369 18.022-11.434 33.202-11.254 33.722 0.179 0.52 7.526-12.2 16.326-28.275 8.8-16.07 17.203-30.456 18.673-31.969 3.286-3.381 7.696-3.612 12.483-0.653 3.523 2.178 6.3437 6.465 6.3437 9.644 0 1.012-7.9177 16.222-17.596 33.803-9.678 17.57-18.048 32.8-18.6 33.83-2.578 4.8 2.785-1.4 23.103-26.72 22.805-28.413 24.224-30 27.793-31.087 4.983-1.517 13.3 6.036 13.3 12.08 0 4.282-0.585 5.137-24.869 36.307-10.478 13.45-18.838 24.67-18.576 24.93 0.261 0.27 1.93-0.89 3.71-2.57 17.922-16.89 43.554-39.67 45.451-40.4 7.043-2.67 16.637 8.79 13.719 16.39-0.31 0.81-12.024 11.94-26.029 24.72-14.006 12.79-25.266 23.45-25.024 23.69s12.635-7.26 27.54-16.66c14.905-9.41 28.303-17.57 29.773-18.13 3.204-1.22 7.861 0.38 9.378 3.21 1.377 2.58 2.663 2.38 10.268-1.59 5.829-3.04 6.997-3.32 9.708-2.38 6.377 2.23 10.3 12.64 6.764 17.96-0.888 1.34-17.243 11.42-37.477 23.11-19.746 11.4-36.787 21.4-37.869 22.22-1.8375 1.38-1.7694 1.43 1.0327 0.63 1.65-0.47 19.817-6.98 40.372-14.47s38.252-13.61 39.327-13.61c2.914 0 7.488 5.12 8.748 9.8 1.361 5.05 0.556 8.66-2.463 11.03-1.26 0.99-19.997 8.24-41.638 16.11-36.929 13.42-43.391 16.03-39.796 16.07 0.797 0.01 19.751-3.01 42.119-6.72 31.599-5.23 41.3-6.52 43.5-5.75 5.394 1.87 8.194 12.57 4.834 18.46-0.79 1.37-1.45 3.98-1.47 5.8-0.05 4.8-2.5 8.81-6.152 10.09-2.078 0.72-15.693 1.14-39.28 1.21-19.856 0.05-37.226 0.42-38.601 0.81l-2.5 0.71 2.5 0.6c1.375 0.34 19.375 3.44 40 6.9 35.943 6.04 37.619 6.42 40.367 9.13 2.646 2.61 2.836 3.28 2.439 8.75-0.444 6.13-2.368 9.51-6.246 10.96-1.632 0.61-1.905 1.58-1.722 6.13 0.133 3.31-0.372 6.51-1.304 8.26-1.405 2.63-1.369 3.04 0.473 5.38 4.892 6.22 0.856 17.16-7.257 19.66-1.168 0.36-1.75 1.56-1.75 3.61 0 6.48-4.657 13-9.296 13-1.017 0-15.341-5-31.831-11.12-16.489-6.11-30.215-10.88-30.501-10.59-0.9826 0.98 20.145 15.83 37.02 26.01 18.328 11.06 19.608 12.41 19.608 20.71 0 4.86-1.972 9.03-5.615 11.9-5.394 4.24-6.851 3.58-30.273-13.75-11.491-8.5-32.77-21.84-33.563-21.04-0.2073 0.21 10.141 11.38 22.996 24.82s23.928 25.79 24.608 27.43c1.092 2.63 0.948 3.49-1.251 7.43-2.981 5.34-8.324 8.81-12.103 7.86-1.663-0.42-12.506-11-29.877-29.15-14.997-15.68-27.463-28.31-27.703-28.07-0.509 0.51-1.499-0.91 24.024 34.41 10.873 15.04 20.047 28.45 20.386 29.81 0.34 1.35 0.38 4.57 0.089 7.15-0.443 3.94-1.203 5.29-4.751 8.44-4.6208 4.1-8.9047 4.88-12.597 2.29-1.1411-0.8-11.149-14.95-22.24-31.45s-20.593-30.26-21.114-30.58c-0.521-0.33 5.619 12.82 13.646 29.2 20.048 40.92 18.956 38.18 16.929 42.45-1.904 4.01-7.9 7.84-12.29 7.84-4.581 0-7.409-3.93-16.806-23.35-4.75-9.82-8.867-17.61-9.15-17.33s2.073 7.64 5.237 16.34c3.163 8.71 5.767 17.29 5.785 19.07 0.022 2.19-0.845 4.16-2.667 6.06-1.485 1.55-2.7 3.94-2.7 5.32 0 5.49-9.767 10.91-15.84 8.79-4.123-1.43-4.977-3.2-10.545-21.82-6.427-21.49-7.251-21.56-3.189-0.27 1.293 6.78 2.114 13.31 1.824 14.5-0.664 2.76-4.167 6.69-5.956 6.69-0.746 0-1.585 0.59-1.864 1.32-0.279 0.72 7.075 16.36 16.342 34.75 21.118 41.89 28.186 59.11 38.123 92.83 0.59 2.01 1.172 1 3.477-6 3.366-10.22 5.692-15.12 7.456-15.69 2.071-0.67 10.358 8.66 13.578 15.3 1.5991 3.29 5.1137 11.84 7.8106 18.99 4.7834 12.68 6.1844 15.43 7.2924 14.32 0.831-0.83 3.253-15.82 4.969-30.76 4.118-35.85 14.371-67.67 31.798-98.68 9.549-16.99 10.625-17.52 15.547-7.68 4.205 8.41 5.801 14.14 8.152 29.3 2.541 16.37 4.573 21.06 10.687 24.64 3.945 2.32 4.754 2.47 6.895 1.33 1.334-0.72 12.666-11.19 25.186-23.27 37.13-35.84 41.06-38.97 44.03-35.08 2.61 3.43 0.86 21.09-4.81 48.38-5.2 25.03-7.28 43.06-5.12 44.4 0.62 0.38 5.52-0.96 10.89-2.98 15.53-5.84 26.42-5.76 29.14 0.19 2.34 5.14 0.46 16.87-4.16 25.97-6.52 12.85-23.74 35.34-35 45.72-2.87 2.64-9.1 7.49-13.84 10.77-17.62 12.21-25.94 24.93-19.88 30.42 2.8 2.54 10.46 3.02 17.89 1.11 10.64-2.72 11.12-2.43 11.12 6.97 0 11.07-7.99 24.61-23.48 39.79-9.7 9.51-21.94 18.84-32.324 24.64-4.235 2.37-12.561 7.12-18.502 10.56-5.942 3.43-14.604 7.95-19.25 10.05-4.646 2.09-8.447 4.16-8.447 4.59 0 1.41 13.104 0.84 29-1.26 17.605-2.32 23.057-1.98 26.723 1.69 2.09 2.09 2.37 3.06 1.8 6.17-1.18 6.47-5.345 12-20.365 27.04-15.379 15.39-26.179 23.75-42.816 33.14-8.687 4.9-10.185 6.2-15.964 13.87-6.475 8.58-7.604 11.88-4.845 14.17 2.446 2.03 10.404 2.29 17.738 0.58 8.446-1.98 13.733-4.63 17.038-8.56 1.409-1.67 3.032-3.04 3.607-3.04 1.693 0 2.541 4.89 2.516 14.5-0.029 11.04-2.165 16.3-11.284 27.75-6.074 7.62-6.405 7.86-20.91 15.11-18.589 9.28-30.664 14.04-43.572 17.17-14.229 3.45-36.408 3.42-51.166-0.06zm-36.917-534.2c-1.76-9.48-3.57-17.58-4.01-18-0.45-0.43-0.59 4.4-0.33 10.73 0.43 10.22 0.83 12.26 3.64 18.39 1.74 3.79 3.33 6.72 3.54 6.5s-1.07-8.15-2.84-17.62z"/>
      <path id="path2709" fill="#e2d75d" d="m-54.985 950.26c-10.371-1.62-23.243-4.84-30.014-7.51-4.249-1.67-7.441-1.96-21.541-1.96-12.7 0-18.88-0.48-26.52-2.03-34.99-7.13-62.27-27.19-76.45-56.2-1.53-3.14-2.47-6.04-2.07-6.44s4.45-0.19 9 0.47c10.86 1.57 13.98 1.51 18.45-0.36 5.63-2.35 12.22-9.49 12.22-13.23 0-0.49-4.39-3.62-9.75-6.96-29.57-18.4-53.06-40.57-65.47-61.79-7.36-12.58-13.87-30.46-11.09-30.46 0.52 0 8.57 1.83 17.88 4.07 10.87 2.62 20.33 4.27 26.43 4.6 8.72 0.48 9.68 0.35 11.75-1.61 2.27-2.17 2.83-4.65 1.48-6.67-0.4-0.6-6.27-3.91-13.03-7.35-21.9-11.13-41.33-25.23-58.12-42.16-10.44-10.53-23.69-27.21-28.08-35.38-2.4-4.45-2.43-4.7-0.68-5.99 4.82-3.55 14.97-2.85 36.16 2.47 22.59 5.68 22.44 4.56-2.81-20.39-20.79-20.54-28.16-29.17-38.9-45.59-10.29-15.75-26.77-49.37-26.77-54.63 0-1.85 7.77-1.8 15 0.09 3.02 0.8 11.48 4.48 18.79 8.19 15.2 7.71 20.36 8.6 27.71 4.75 3.88-2.03 4.01-2.26 4.3-7.79 0.16-3.14-0.88-14.8-2.31-25.91-7.89-60.95-8.09-66.66-2.24-64 5.02 2.29 15.96 12.76 29.76 28.48 18.38 20.95 23.53 26.33 28.67 29.9 4.37 3.05 6.76 3.62 7.84 1.88 0.35-0.57 1.74-5.18 3.08-10.25 4.32-16.32 10.18-25.71 16.05-25.71 6.75 0 17.06 15.91 23.65 36.5 6.55 20.46 8.87 34.59 9.18 56 0.3 19.98 1.48 26.82 5.65 32.69 5.63 7.91 13.44 2.84 19.79-12.86 3.46-8.56 5.22-9.09 11.39-3.4 7.84 7.22 13.21 21.49 15.97 42.34 0.691 5.25 1.648 9.07 2.217 8.87 0.55-0.2 1.577-2.45 2.282-5 3.687-13.35 6.359-21.02 7.717-22.14 3.493-2.9 12.357 6.25 28.068 28.97 8.769 12.68 16.192 21.03 18.704 21.03 2.659 0 3.108-5.95 1.885-24.93-2.999-46.54-10.609-69.92-44.942-138.07-11.221-22.28-20.791-40.91-21.261-41.41-0.5-0.53-2.09 0.41-3.81 2.25-2.47 2.65-3.68 3.16-7.49 3.16-4.89 0-11-2.92-12.68-6.05-0.56-1.05-0.98-13.16-0.98-28.64 0-15.33-0.45-28.4-1.04-30.53-0.98-3.55-2.55-5.52-3.57-4.5-0.26 0.26-2.7 14.14-5.43 30.85-4.69 28.78-5.09 30.49-7.63 32.72-2.15 1.89-3.45 2.26-6.54 1.84-5.01-0.67-8.59-3.07-9.4-6.31-0.37-1.45 1.17-13.85 3.49-28.23 4.31-26.7 4.8-31.22 3.18-29.6-0.52 0.52-4.95 11.92-9.83 25.33-5.26 14.45-9.79 25.33-11.13 26.72-6.05 6.29-20.09 2.66-20.09-5.2 0-1.19 3.6-12.87 8-25.97 4.4-13.09 8-24.49 8-25.33 0-2.91-2.55 0.98-14.02 21.4-6.17 11-11.92 20.78-12.76 21.75-3.11 3.55-12.47 0.89-15.27-4.34-1.94-3.62-0.5-7.76 7.59-21.91 13.95-24.4 13.4-25.38-3.07-5.5-19.65 23.72-21.09 24.65-28.01 18.25-3.84-3.56-7.18-12.8-6.12-16.95 0.32-1.27 5.33-8.15 11.12-15.3 15.32-18.9 14.58-19.26-4.96-2.44-16.85 14.49-18.59 15.56-22.67 13.87-3.64-1.51-7.83-7.45-7.83-11.11 0-1.49 1.01-3.82 2.25-5.17 1.23-1.36 14.91-13.27 30.39-26.47 15.47-13.21 28.44-24.5 28.8-25.1 0.37-0.6 0.2-1.08-0.37-1.08-0.58 0-16.19 8.83-34.69 19.63s-34.91 20.12-36.46 20.7c-2.1 0.8-3.43 0.74-5.24-0.24-2.68-1.43-6.68-7.84-6.68-10.7 0-2.53 3.03-10.53 4.77-12.58 0.78-0.93 14.44-9.42 30.33-18.86 15.9-9.44 29.16-17.57 29.46-18.06 1.26-2.04-4.05-0.32-34.3 11.1-17.47 6.6-33 12-34.51 12-3.51 0.01-6.32-2.81-7.83-7.85-1.45-4.86-0.62-8.65 2.34-10.57 1.23-0.81 16.49-6.85 33.9-13.44 32.95-12.46 37.1-14.21 35.17-14.85-2.4-0.81-58.54 9.97-74.73 14.34-18.7 5.05-20.19 5-23.12-0.65-2.2-4.27-2.17-10.56 0.07-13.04 0.99-1.09 4.31-2.67 7.37-3.52 3.07-0.85 7.6-2.37 10.08-3.38 2.47-1 8.06-2.55 12.42-3.44 11.17-2.28 55.88-14.57 57.03-15.68 1.59-1.53-6.48-1.09-47.53 2.62-21.53 1.94-39.93 3.28-40.9 2.97-3.91-1.24-5.44-4.38-5.57-11.41-0.09-4.54-0.68-7.58-1.79-9.16-0.97-1.38-1.66-4.31-1.66-6.98 0-5.15 2.39-8.28 7.25-9.49 1.51-0.37 2.75-0.82 2.75-0.99 0-0.18-1.37-1.69-3.04-3.36-2.93-2.93-3.03-3.34-2.99-11.82 0.03-4.84 0.05-10.59 0.03-12.79-0.02-5.43 2.69-8.92 7.23-9.31 1.95-0.16 22.04 2.42 44.65 5.75s42.33 6.06 43.82 6.06c6.69 0-2.46-3.78-41.26-17.04-43.05-14.71-45.44-15.84-45.44-21.5 0-3.93 2.92-10.09 5.43-11.43 1.37-0.73 3.57-0.97 5.35-0.58 2.77 0.61 3.22 0.31 5.36-3.49 2.86-5.09 6.71-7.35 10.23-6.01 1.37 0.52 16.86 9.07 34.43 19 17.56 9.92 32.48 18.05 33.15 18.05s1.06-0.42 0.88-0.92c-0.18-0.51-13.83-12.01-30.33-25.55-16.5-13.55-30.79-25.56-31.75-26.7-2.46-2.89-2.18-6.74 0.82-11.15 2.78-4.09 6.55-6.1 9.62-5.12 1.07 0.34 16.42 12.49 34.12 27.01 39.27 32.2 40.58 32.92 23.23 12.76-5.74-6.68-20.59-22.53-33-35.22-20.17-20.64-22.54-23.42-22.54-26.37 0-8.017 9.1-14.43 14.56-10.26 1.06 0.816 3.59 1.949 5.61 2.518 3.06 0.861 6.46 4.312 20.48 20.762 17.24 20.25 35.92 40.24 37.6 40.24 1.46 0-1.31-4.25-26.76-41.05-13.05-18.869-24.16-35.574-24.7-37.123-1.29-3.69 1.32-8.262 6.37-11.172 6.75-3.892 6.66-3.988 35.51 37.755 14.39 20.83 27.13 38.82 28.31 39.98l2.15 2.11-1.92-5c-1.05-2.75-10.31-23.08-20.56-45.166-10.26-22.09-18.65-41.372-18.65-42.849 0-5.912 10.34-11.459 15.3-8.208 1.53 1.002 6.76 11.086 15.64 30.143 17.78 38.15 18.5 38.56 8.56 4.804-6.68-22.68-7.28-25.907-5.42-29.378 1.22-2.287 6.65-4.85 10.27-4.85 5.44 0 6.23 1.788 17.15 38.768 5.73 19.396 10.87 36.046 11.43 36.996 1.86 3.2 1.17-5.27-3.35-41.193-2.63-20.86-4.08-35.764-3.6-37 2.73-7.146 15.21-8.367 17.94-1.756 0.61 1.477 3.31 20.161 6.01 41.52s5.16 39.099 5.48 39.419 0.81 0.36 1.07 0.09c0.27-0.27 1.18-17.55 2.02-38.414 0.84-20.861 1.76-39.781 2.05-42.044 0.75-5.805 4.03-8.604 10.76-9.161 4.6-0.382 5.72-0.102 8.25 2.079l2.94 2.522 0.28 40.587c0.18 25.291 0.65 40.591 1.25 40.591 0.53 0 0.97-0.22 0.97-0.49s2.7-17.15 6-37.514c3.297-20.364 5.997-37.491 5.997-38.058 0-0.568 1.104-2.137 2.454-3.487 4.32-4.319 14.46-2.44 16.554 3.067 0.67 1.762-0.85 13.296-5.543 42.076-3.556 21.806-6.465 40.586-6.465 41.726 0 5 2.822-2.1 15.023-37.814 7.097-20.775 13.65-38.596 14.562-39.603 5-5.526 16.244-3.952 19.007 2.659 0.763 1.828 1.189 3.91 0.945 4.629-0.243 0.718-6.313 18.063-13.49 38.545-7.176 20.484-13.047 37.794-13.047 38.464 0 2.79 3.567-3.12 20.921-34.7 9.974-18.154 19.272-34.016 20.663-35.254 3.145-2.8 5.723-2.841 10.06-0.16 8.3814 5.18 7.9686 6.672-11.733 42.414-17.397 31.56-22.911 41.93-22.911 43.09 0 1.7 5.11-4.31 27.283-32.09 13.167-16.5 24.84-30.791 25.939-31.754 3.3915-2.968 7.537-2.225 11.895 2.133 2.786 2.786 3.883 4.73 3.883 6.885 0 3.346-1.423 5.336-31.316 43.736-10.276 13.2-18.684 24.35-18.684 24.78-0.001 1.45 3.447-1.15 12.568-9.49 43.563-39.83 43.515-39.79 46.351-39.79 5.669 0 11.78 7.54 10.57 13.04-0.474 2.16-7.578 9.26-27.813 27.8-27.175 24.89-31.603 29.16-30.282 29.16 1.417 0 6.678-3.17 35.521-21.41 20.906-13.21 30.264-18.59 32.349-18.59 2.006 0 3.871 1 5.9 3.17l2.966 3.18 6.804-3.68c3.743-2.02 7.949-3.67 9.346-3.67 5.488 0 10.588 10.61 7.617 15.84-0.918 1.62-15.369 10.57-42.136 26.1-39.819 23.1-44.572 26.06-41.89 26.06 0.6994 0 20.027-6.81 42.95-15.14 48.478-17.6 46.056-16.82 48.932-15.76 5.884 2.18 8.442 14.02 3.814 17.66-1.338 1.06-21.363 8.8-44.5 17.21s-42.067 15.69-42.067 16.16c-0.0003 1.92 11.327 0.6 49.693-5.77 38.2-6.34 40.317-6.59 42.71-5.02 3.86 2.53 5.22 8.88 3.26 15.16-0.86 2.75-1.794 6.8-2.081 9-0.811 6.21-3.13 7.48-13.943 7.6-44.98 0.5-74.66 1.52-75.734 2.59-1.571 1.57-3.5809 1.15 44.085 9.27 39.097 6.66 40.572 6.99 42.86 9.65 3.323 3.86 2.659 11.69-1.278 15.08-1.476 1.27-3.361 2.31-4.189 2.31-1.217 0-1.377 0.86-0.835 4.47 0.476 3.18 0.158 5.9-1.097 9.39-1.744 4.85-1.738 4.96 0.39 7.66 2.544 3.24 2.717 6.21 0.648 11.16-1.764 4.22-4.092 6.24-7.239 6.28-1.903 0.03-2.25 0.58-2.25 3.57 0 7.22-3.885 12.83-8.785 12.69-1.493-0.05-16.215-5.12-32.715-11.27-34.07-12.7-35.5-13.17-35.5-11.88-0.0003 0.96 17.783 14.44 28.5 21.6 3.3 2.2 11.503 7.24 18.228 11.19 6.726 3.95 12.694 8.06 13.264 9.12 2.009 3.76 2.323 10.51 0.641 13.76-1.993 3.85-6.239 7.26-9.018 7.24-1.163-0.01-9.765-5.62-19.115-12.46-17.814-13.04-41.72-27.95-43.742-27.28-0.6506 0.22 9.1522 11.17 21.784 24.33 29.369 30.59 29.458 30.7 29.458 34.89 0 4.97-5.454 10.54-10.325 10.54-3.403 0-5.195-1.68-34.813-32.5-17.174-17.88-31.594-32.5-32.044-32.5s-0.81 0.33-0.799 0.75c0.01 0.41 11.597 16.72 25.75 36.25l25.731 35.5-0.184 5.99c-0.172 5.61-0.44 6.23-4.211 9.75-4.3353 4.04-7.3612 4.67-10.838 2.23-1.198-0.84-12.371-16.7-24.829-35.25-21.861-32.55-26.438-38.88-26.438-36.6 0 0.59 8.325 18.04 18.5 38.78 10.218 20.83 18.5 38.93 18.5 40.43 0 3.77-2.159 6.48-6.84 8.59-7.787 3.52-8.1 3.16-22.238-25.22-17.954-36.05-19.23-36.48-6.922-2.33 4.4 12.21 8 23.46 8 24.99 0 1.68-0.993 3.72-2.5 5.14-1.465 1.37-2.5 3.46-2.5 5.03 0 5.43-8.033 10.18-14.476 8.56-3.425-0.86-4.298-2.94-11.962-28.58-3.697-12.36-7.123-23.16-7.612-24-1.779-3.03-0.95 4.59 2.55 23.42 1.925 10.35 3.5 20.04 3.5 21.52 0 2.93-3.127 6.4-6.75 7.5-1.238 0.37-2.25 1.02-2.25 1.43 0 0.42 5.227 10.85 11.617 23.19 22.224 42.91 34.405 71.01 40.932 94.43 4.696 16.84 4.388 15.98 5.309 14.91 0.435-0.5 2.262-5.5 4.058-11.1 1.797-5.6 3.851-10.98 4.565-11.96 3.418-4.67 11.437 5.46 18.341 23.17 7.795 19.99 9.39 23.48 10.755 23.48 2.737 0 3.947-5.48 6.954-31.46 4.265-36.86 14.817-68.76 33.673-101.79 3.375-5.92 6.652-10.75 7.282-10.75 1.372 0 4.568 5.5 7.455 12.84 1.157 2.94 3.229 12.32 4.605 20.85 1.376 8.52 3.219 16.92 4.095 18.65 3.044 6.03 8.765 10.66 13.175 10.66 1.946 0 10.817-8.08 41.927-38.14 19.25-18.61 25.7-23.57 28.05-21.62 2.56 2.13 0.77 19.46-4.85 46.76-5.13 24.97-7.11 42.97-5.04 46 0.91 1.32 1.6 1.28 5.81-0.35 10-3.86 20.7-6.65 25.48-6.65 6.42 0 10.81 3.83 10.81 9.45 0 17.41-29.22 58.38-53.27 74.68-21.17 14.35-29.68 29.23-19.66 34.4 3.67 1.9 9.32 1.86 18.1-0.14 8.28-1.88 8.79-1.55 8.81 5.82 0.02 5.84-2.88 13.76-7.84 21.45-8.27 12.78-29.2 31.95-44.108 40.38-16.354 9.25-22.094 12.52-27.535 15.71-3.3 1.93-10.275 5.42-15.5 7.76-5.225 2.33-9.5 4.64-9.5 5.12 0 1.73 17.353 1.41 33.172-0.63 18.922-2.43 24.126-1.94 26.131 2.47 0.85 1.86 0.77 3.58-0.32 7.23-1.12 3.75-3.709 7.26-11.91 16.14-5.762 6.24-13.761 14.26-17.775 17.82-8.588 7.62-25.272 19.04-34.875 23.88-6.114 3.07-7.456 4.34-13.36 12.59-7.862 10.99-8.462 14.18-3.095 16.42 8.673 3.62 27.284-0.87 34.107-8.23 1.277-1.38 2.742-2.25 3.255-1.93 1.556 0.96 2.313 12.75 1.192 18.57-1.409 7.32-3.916 12.18-10.556 20.48-6.192 7.73-12.131 11.46-33.666 21.17-28.17 12.69-47.789 16.3-69.872 12.86zm-47.395-537.52c-2.5-13.4-5-24.82-5.54-25.36-0.66-0.66-0.99 4.27-0.99 14.53v15.53l4.03 9.31c2.22 5.11 4.57 10.26 5.209 11.42 2.399 4.34 1.803-1.26-2.709-25.43z"/>
      <path id="path2707" fill="#dacd2f" d="m-51.913 950.23c-10.577-1.4-21.721-4.08-33-7.94-6.865-2.35-8.389-2.51-17.997-1.92-36.18 2.21-72.88-12.91-93.69-38.61-8.57-10.57-16.64-26.03-13.56-25.96 0.41 0.01 4.58 0.65 9.26 1.42 10.24 1.68 16.72 0.77 21.73-3.05 3.78-2.89 7.25-7.94 7.25-10.59 0.01-1.09-4.78-4.84-13.24-10.37-33.79-22.1-54.61-43.46-66.24-67.96-4.05-8.53-7.76-19.25-7.07-20.38 0.28-0.45 7.61 0.89 16.28 2.97 27.53 6.59 36.85 7.29 40.71 3.02 1.01-1.12 1.58-3.06 1.39-4.74-0.27-2.4-1.39-3.37-7.32-6.33-39-19.5-69.72-45.82-89.49-76.68-6.49-10.13-5.98-10.84 7.77-10.79 7.84 0.02 12.56 0.75 24.4 3.74 20.03 5.07 21.9 4.05 12-6.55-3.19-3.42-11.56-11.85-18.59-18.72-21.07-20.61-34.93-39.15-46.96-62.83-6.14-12.09-14.63-31.41-14.63-33.29 0-0.49 1.5-0.88 3.34-0.88 6.7 0 18.8 4 30.56 10.11 14.12 7.33 20.08 8.46 26.74 5.07 6.78-3.46 6.74-3.3 4.97-19.9-0.87-8.13-2.95-25.36-4.62-38.28-3.06-23.69-4.09-38.24-2.79-39.54 2.69-2.69 14.83 7.75 32.58 28 21.65 24.71 32.7 34.71 36.05 32.64 0.67-0.42 2.35-4.99 3.74-10.18 6.56-24.57 14.34-31.62 23.85-21.65 7.59 7.96 14.76 25.41 20.64 50.23 2.75 11.57 3.17 15.47 3.87 35.5 0.67 19.28 1.08 23.27 2.88 27.89 6.28 16.12 16.44 12.7 24.19-8.14 1.18-3.17 2.62-5.75 3.2-5.75 2.4 0 8.02 4.46 10.91 8.66 5.91 8.59 10.66 24.57 12.37 41.58 0.37 3.7 1.071 6.98 1.557 7.28s1.611-2.06 2.501-5.24c6.369-22.77 7.457-25.05 11.337-23.82 3.32 1.05 13.173 12.44 22.118 25.57 9.105 13.36 19.964 25.48 22.159 24.74 1.761-0.6 1.729-28.74-0.05-43.77-4.179-35.32-13.616-61.1-45.385-124-18.487-36.62-21.467-41.83-22.407-39.3-0.25 0.66-1.35 2.34-2.45 3.75-3.49 4.44-13.39 2.91-17.3-2.67-1.32-1.88-1.56-6.31-1.56-28.47 0-24.09-0.17-26.69-2.08-31.78-1.18-3.16-2.68-5.53-3.5-5.53-0.78 0-1.42 0.26-1.42 0.59 0 2.92-10.22 61.94-10.97 63.34-1.35 2.53-5.34 3.33-10.12 2.04-6.92-1.86-6.93-2.16-1.41-36.52 6.67-41.6 5.46-42.09-8.52-3.45-5.08 14.02-9.64 26.28-10.13 27.24-1.23 2.35-6.11 4.76-9.66 4.76-3.99 0-9.62-3.97-9.98-7.04-0.16-1.35 3.78-14.52 8.75-29.26s9.04-27.23 9.04-27.75c0-0.53-0.62-0.95-1.36-0.95-0.75 0-7.01 10.01-13.91 22.25-14.63 25.95-15.9 27.75-19.59 27.75-4.9 0-10.15-4.63-10.14-8.94 0-1.41 4.47-10.55 9.94-20.32 5.46-9.76 10.21-18.65 10.56-19.75 1.7-5.36-3.5-0.45-18.02 17.03-9.26 11.14-16.73 19.25-18.04 19.58-2.39 0.6-7.28-1.49-9.37-4.01-1.3-1.57-2.86-6.64-3.76-12.18-0.44-2.75 0.86-4.78 12.1-18.78 6.92-8.63 12.59-16.13 12.59-16.67 0-2.51-3.77 0.09-19.49 13.48-9.33 7.94-17.72 14.64-18.65 14.88-3.76 0.98-10.86-5.86-10.86-10.46 0-2.89 3.63-6.33 34.99-33.15 27.25-23.3 34.2-30.26 27.81-27.83-1.29 0.49-18.17 10.15-37.5 21.47-19.33 11.31-36.31 20.86-37.72 21.22-2.06 0.51-3.17 0.01-5.51-2.49-3.97-4.25-4.48-7.51-2.23-14.08l1.89-5.5 32.33-19.5c17.78-10.73 32.51-20.07 32.72-20.75 0.21-0.69-0.38-1.25-1.3-1.25-0.93 0-17.28 5.87-36.33 13.04s-35.72 12.91-37.05 12.75c-4.9-0.6-8.99-10.98-5.93-15.06 0.75-1 17-7.68 37.33-15.36 35.17-13.26 40.5-15.67 37.42-16.85-2.49-0.96-62.44 10.31-79.74 14.99-15.4 4.16-16.72 4.37-18.91 2.93-2.77-1.81-4.27-5.28-4.27-9.82 0-4.88 1.78-6.44 10-8.74 4.12-1.16 8-2.51 8.62-3.01s5.49-1.83 10.83-2.96c14.13-3 62.48-16.45 63.78-17.74 0.8-0.81 0.65-1.28-0.56-1.75-0.91-0.35-21.95 1.19-46.74 3.42-29.25 2.62-45.91 3.74-47.41 3.16-2.99-1.13-4.95-6.93-4.11-12.16 0.59-3.71-1.21-8.71-2.63-7.29-0.96 0.95-1.93-6.62-1.25-9.71 0.36-1.64 0.91-2.74 1.21-2.43 0.31 0.31 1.08-0.16 1.73-1.04 0.72-0.99 3.42-1.84 7.1-2.24 3.26-0.35 5.86-1.08 5.77-1.63-0.08-0.55-2.1-1.57-4.5-2.25-2.39-0.69-4.84-1.93-5.45-2.75-0.66-0.9-1.12-6.68-1.15-14.59-0.06-14.81 0.81-16.92 7.01-16.91 1.78 0 23.02 2.93 47.2 6.5 26.47 3.91 44.31 6.13 44.86 5.58 1.37-1.37-0.14-3.11-4.19-4.81-1.99-0.84-20.95-7.47-42.12-14.73-21.18-7.26-39.51-13.74-40.74-14.4-2.93-1.57-3.81-5.38-2.35-10.24 1.51-5.04 4.77-7.24 9.43-6.37 3.24 0.61 3.63 0.41 5.2-2.69 2.57-5.06 4.5-6.84 7.41-6.84 1.56 0 14.64 6.76 32.09 16.59 35.88 20.21 38.76 21.7 40.67 20.96 1.28-0.49 1.3-0.83 0.16-2.21-0.74-0.89-14.97-12.83-31.62-26.53s-30.98-25.99-31.85-27.32c-2.23-3.41-1-7.76 3.25-11.49 2.58-2.27 4.09-2.91 5.68-2.42 2.49 0.76 1.76 0.18 40.17 31.77 15.95 13.11 29.58 24.08 30.29 24.37 2.22 0.9 2.55-0.55 0.74-3.31-3.55-5.43-21.29-25.39-35.46-39.91-31.24-32.03-32.07-32.98-32.07-36.47 0-2.34 0.93-4.171 3.4-6.634 3.98-3.983 5.54-4.151 11.6-1.245 2.47 1.188 5.17 2.46 6 2.828 0.82 0.367 8.83 9.181 17.8 19.591 26.82 31.13 41.1 45.86 42.81 44.15 0.92-0.92-1-3.87-28.44-43.6-28.22-40.87-28.71-41.797-24.24-46.551 3.66-3.897 7.59-5.118 10.44-3.248 1.31 0.86 14.42 19.026 29.14 40.369 27.71 40.21 30.22 43.59 31.61 42.73 1.24-0.76-0.98-5.9-22.48-52.19-10.81-23.25-19.64-43.309-19.64-44.578 0-3.5 6.41-8.656 10.76-8.656 1.04 0 2.8 1.013 3.93 2.25 1.12 1.238 7.99 15.159 15.28 30.935 13.63 29.519 15.57 33.209 16.99 32.339 1.13-0.7 0.04-5.14-7.54-30.627-3.67-12.359-6.41-23.362-6.23-25.102 0.35-3.518 3.67-6.452 8.34-7.365 6.15-1.203 6.68-0.065 18.53 40.09 11.59 39.304 12.32 41.484 13.92 41.484 1.64 0 1.26-4.61-3.52-42.004-2.49-19.525-4.58-37.495-4.63-39.935-0.12-5.823 2.45-8.065 9.25-8.065 3.96 0 5.14 0.423 6.31 2.25 0.92 1.434 3.3 17.125 6.55 43.25 2.81 22.554 5.35 41.784 5.65 42.754 0.56 1.81 1.94 2.31 2.76 0.98 0.26-0.42 1.2-19.43 2.09-42.247s2.06-43.147 2.61-45.176c0.6-2.247 1.77-3.937 2.98-4.322 1.1-0.348 1.77-1.001 1.49-1.451-0.74-1.195 6.15-2.269 9.63-1.503 1.65 0.361 2.73 0.914 2.42 1.229-0.32 0.316 0.21 1.445 1.17 2.509 1.61 1.77 1.78 5.605 2.05 44.831 0.25 36.8 0.5 42.9 1.75 42.9 0.8 0 1.46-0.2 1.46-0.44 0-2.85 13.282-80.801 14.114-82.826 1.283-3.121 4.433-4.277 9.104-3.343 4.667 0.933 6.779 3.321 6.779 7.666 0 2.063-2.925 21.594-6.5 43.401-6.72 40.992-7.161 44.542-5.535 44.542 1.569 0 2.263-1.83 15.558-41.004 7.001-20.625 13.33-38.978 14.067-40.786 3.514-8.629 19.41-6.847 19.41 2.176 0 1.694-6.3 20.964-14 42.822-7.7 21.862-14 40.202-14 40.762 0 1.57 1.517 1.22 3.215-0.72 0.838-0.97 10.246-17.66 20.905-37.11 10.774-19.656 20.376-36.024 21.622-36.86 4.395-2.947 13.258 2.29 13.258 7.833 0 1.938-6.423 14.583-18.874 37.157-23.673 42.93-24.161 43.86-23.485 44.95 0.964 1.56 4.041-1.95 28.648-32.72 13.194-16.5 25.364-31.466 27.046-33.254 4.1269-4.387 7.772-4.342 12.265 0.15 6.181 6.182 6.985 4.726-25.863 46.814-21.769 27.9-24.358 31.5-23.35 32.51 1.009 1.01 4.936-2.32 32.605-27.6 30.033-27.45 30.605-27.8 35.666-22.37 3.698 3.96 4.608 6.92 3.1 10.07-0.695 1.44-13.187 13.56-27.761 26.92-30.742 28.18-33.615 30.97-32.773 31.81 1.234 1.24 4.963-0.89 36.891-21.07 21.008-13.27 33.32-20.46 35.046-20.47 1.739-0.01 3.536 1.03 5.185 2.99 1.389 1.65 3.019 3 3.623 3 0.605 0 4.126-1.65 7.825-3.67 8.314-4.54 11.212-4.2 14.194 1.64 2.611 5.12 2.544 8.19-0.238 10.75-1.238 1.13-20.7 12.72-43.25 25.75-22.55 13.02-41.888 24.54-42.972 25.6-1.9594 1.91-1.955 1.93 0.637 1.93 1.4354 0 22.399-7.2 46.587-16 24.187-8.8 45.378-16 47.089-16 2.221 0 3.584 0.72 4.76 2.51 2.229 3.4 2.916 10.52 1.227 12.71-0.744 0.96-20.588 8.71-45.134 17.63-24.094 8.76-44.051 16.17-44.35 16.47-0.2997 0.3-0.2479 1.02 0.1146 1.61 1.3508 2.19 13.095 0.93 52.433-5.6l40.392-6.7 2.229 2.59c3.06 3.55 3.94 8.97 2.12 13.03-0.795 1.79-1.681 5.22-1.964 7.63-0.932 7.94 1.454 7.5-46.549 8.62-34.222 0.8-43.155 1.28-44.51 2.4-0.9698 0.81-1.3203 1.79-0.8191 2.29 0.4817 0.48 20.413 4.22 44.292 8.32 37.953 6.51 43.637 7.71 45.167 9.58 3.773 4.6 1.058 14.24-4.43 15.7-2.514 0.67-3.234 1.35-2.964 2.79 0.942 5.06 0.379 11.41-1.229 13.86-1.683 2.57-1.66 2.73 0.821 5.68 2.888 3.43 3.188 6.42 1.136 11.33-1.505 3.6-4.142 5.55-7.519 5.55-1.697 0-2.065 0.63-2.065 3.53 0 3.91-2.411 10.47-4.289 11.67-2.64 1.67-7.147 0.36-38.089-11.11-38.244-14.18-36.622-13.67-36.622-11.73-0.0003 2.84 23.632 20.11 44.78 32.74 7.546 4.51 14.686 9.06 15.868 10.12 6.986 6.28 0.675 23.23-7.499 20.14-1.457-0.55-9.624-6.19-18.149-12.52-18.597-13.83-44.581-29.66-46.128-28.12-1.249 1.25 2.7635 5.79 32.13 36.3 23.524 24.45 23.725 24.8 17.894 31.44-2.347 2.67-3.889 3.54-6.326 3.54-2.717 0-4.389-1.22-10.647-7.77-29.712-31.09-59.258-61.23-60.017-61.23-0.498 0-0.906 0.63-0.906 1.41s11.977 17.99 26.616 38.25c14.638 20.26 26.959 37.74 27.379 38.84 1.104 2.89-0.384 11.16-2.408 13.4-2.731 3.02-7.2886 4.55-9.9335 3.35-1.3146-0.6-12.009-15.58-25.624-35.89-12.853-19.18-24.68-36.55-26.283-38.61-3.024-3.9-4.746-4.75-4.746-2.37 0 0.76 9 19.48 20 41.59 11.332 22.78 20 41.39 20 42.94 0 3.21-3.211 6.57-7.81 8.17-5.691 1.98-6.958 0.25-21.484-29.33-7.361-14.99-14.342-28.38-15.512-29.75l-2.128-2.5-0.033 2.26c-0.018 1.24 4.242 14.11 9.467 28.61 5.225 14.49 9.5 27.28 9.5 28.41 0 1.14-1.125 3.4-2.5 5.03-1.375 1.64-2.5 3.73-2.5 4.65 0 2.99-2.093 5.68-5.549 7.12-4.628 1.93-7.815 1.78-9.865-0.49-0.948-1.05-5.269-13.8-9.601-28.33-8.117-27.24-9.706-31.76-11.146-31.76-1.458 0-0.965 3.87 3.734 29.37 2.547 13.81 4.308 25.97 3.962 27.34-0.426 1.7-1.873 2.97-4.579 4.04-2.176 0.85-3.956 1.83-3.956 2.16 0 0.34 4.567 9.38 10.15 20.1 22.968 44.09 36.705 75.59 43.386 99.49 1.999 7.15 3.818 13.59 4.042 14.31 0.696 2.24 2.319 0.29 3.421-4.11 1.61-6.43 6.101-18.03 7.607-19.64 1.155-1.24 1.905-0.85 5.3336 2.75 4.495 4.73 9.3514 14.23 14.417 28.21 4.8254 13.32 6.7634 17.1 8.5944 16.75 2.195-0.43 3.579-5.43 5.469-19.77 3.837-29.13 5.016-36.17 8.122-48.55 1.801-7.18 4.927-17.53 6.947-23 7.068-19.16 24.315-52.45 27.167-52.45 1.668 0 6.983 11.18 8.796 18.5 0.817 3.3 2.195 10.95 3.062 17 2.028 14.15 4.985 20.59 11.304 24.6 2.515 1.59 5.001 2.9 5.525 2.9 1.713 0 9.89-7.2 26.16-23.02 34.31-33.37 41.96-39.86 44.23-37.58 2.16 2.17 0.08 20.65-5.34 47.4-6.1 30.12-7.29 42.71-4.3 45.71 1.46 1.47 2.06 1.4 7.14-0.86 12.25-5.41 23.81-7.5 29.18-5.25 5.03 2.1 6.27 5.3 4.8 12.33-2.56 12.2-13.35 30.02-29.52 48.77-10 11.58-14.44 15.64-24.11 22.01-18.68 12.32-27.54 26.82-20.23 33.11 2.26 1.95 3.87 2.38 8.98 2.38 3.43 0 8.69-0.65 11.7-1.45 4.95-1.31 5.59-1.29 6.72 0.19 3.16 4.14-0.17 16.6-7.3 27.33-9.32 14.02-30.49 32.73-47.686 42.14-4.3 2.36-12.503 7.03-18.229 10.38-5.726 3.36-14.94 8.07-20.475 10.48s-10.063 4.95-10.063 5.65c0 1.79 19.519 1.64 32.5-0.24 20.244-2.93 27.503-1.67 27.503 4.76 0 6.11-4.015 11.73-19.411 27.19-15.962 16.02-26.688 24.3-42.845 33.09-8.47 4.6-9.796 5.75-16.006 13.88-8.383 10.98-9.047 13.08-5.191 16.39 2.689 2.32 3.375 2.43 11.902 1.96 10.046-0.55 18.764-3.68 23.845-8.54 3.984-3.81 4.875-1.85 4.443 9.79-0.428 11.54-2.008 15.46-10.549 26.19l-6.124 7.69-16.284 7.98c-20.532 10.05-27.455 12.73-41.783 16.18-14.13 3.4-23.627 4.03-36 2.4zm-44.014-507.69c-0.042-3.75-11.033-59.2-11.913-60.08-0.57-0.57-1.36-0.72-1.75-0.33s-0.59 8.65-0.44 18.35l0.27 17.64 4.34 9.08c2.39 5 5.04 10.77 5.877 12.84 1.466 3.6 3.645 5.1 3.616 2.5z"/>
      <path id="path2705" fill="#deba2f" d="m-51.913 950.23c-10.577-1.4-21.721-4.08-33-7.94-6.865-2.35-8.389-2.51-17.997-1.92-36.18 2.21-72.88-12.91-93.69-38.61-8.57-10.57-16.64-26.03-13.56-25.96 0.41 0.01 4.58 0.65 9.26 1.42 10.24 1.68 16.72 0.77 21.73-3.05 3.78-2.89 7.25-7.94 7.25-10.59 0.01-1.09-4.78-4.84-13.24-10.37-33.79-22.1-54.61-43.46-66.24-67.96-4.05-8.53-7.76-19.25-7.07-20.38 0.28-0.45 7.61 0.89 16.28 2.97 27.53 6.59 36.85 7.29 40.71 3.02 1.01-1.12 1.58-3.06 1.39-4.74-0.27-2.4-1.39-3.37-7.32-6.33-39-19.5-69.72-45.82-89.49-76.68-6.49-10.13-5.98-10.84 7.77-10.79 7.84 0.02 12.56 0.75 24.4 3.74 20.03 5.07 21.9 4.05 12-6.55-3.19-3.42-11.56-11.85-18.59-18.72-21.07-20.61-34.93-39.15-46.96-62.83-6.14-12.09-14.63-31.41-14.63-33.29 0-0.49 1.5-0.88 3.34-0.88 6.7 0 18.8 4 30.56 10.11 14.12 7.33 20.08 8.46 26.74 5.07 6.78-3.46 6.74-3.3 4.97-19.9-0.87-8.13-2.95-25.36-4.62-38.28-3.06-23.69-4.09-38.24-2.79-39.54 2.69-2.69 14.83 7.75 32.58 28 21.65 24.71 32.7 34.71 36.05 32.64 0.67-0.42 2.35-4.99 3.74-10.18 6.56-24.57 14.34-31.62 23.85-21.65 7.59 7.96 14.76 25.41 20.64 50.23 2.75 11.57 3.17 15.47 3.87 35.5 0.67 19.28 1.08 23.27 2.88 27.89 6.28 16.12 16.44 12.7 24.19-8.14 1.18-3.17 2.62-5.75 3.2-5.75 2.4 0 8.02 4.46 10.91 8.66 5.91 8.59 10.66 24.57 12.37 41.58 0.37 3.7 1.071 6.98 1.557 7.28s1.611-2.06 2.501-5.24c6.369-22.77 7.457-25.05 11.337-23.82 3.32 1.05 13.173 12.44 22.118 25.57 9.105 13.36 19.964 25.48 22.159 24.74 1.761-0.6 1.729-28.74-0.05-43.77-4.439-37.52-14.869-64.96-52.362-137.78l-14.56-28.28-0.73-22.97c-0.49-15.53-0.39-22.97 0.3-22.97 0.57 0 2.95 4.38 5.3 9.75 5.279 12.02 7.94 16.64 7.938 13.75-0.001-1.1-2.987-16.85-6.638-35-3.65-18.15-6.84-34.74-7.11-36.85-0.77-6.22 0.88-29.61 1.88-26.65 2.17 6.43 24.964 122.81 24.504 125.11-0.396 1.98 1.928 7.32 9.575 22 22.913 43.98 36.658 75.51 43.334 99.39 1.999 7.15 3.818 13.59 4.042 14.31 0.696 2.24 2.319 0.29 3.421-4.11 1.61-6.43 6.101-18.03 7.607-19.64 1.155-1.24 1.905-0.85 5.3336 2.75 4.495 4.73 9.3514 14.23 14.417 28.21 4.8254 13.32 6.7634 17.1 8.5944 16.75 2.195-0.43 3.579-5.43 5.469-19.77 3.837-29.13 5.016-36.17 8.122-48.55 1.801-7.18 4.927-17.53 6.947-23 7.068-19.16 24.315-52.45 27.167-52.45 1.668 0 6.983 11.18 8.796 18.5 0.817 3.3 2.195 10.95 3.062 17 2.028 14.15 4.985 20.59 11.304 24.6 2.515 1.59 5.001 2.9 5.525 2.9 1.713 0 9.89-7.2 26.16-23.02 34.31-33.37 41.96-39.86 44.23-37.58 2.16 2.17 0.08 20.65-5.34 47.4-6.1 30.12-7.29 42.71-4.3 45.71 1.46 1.47 2.06 1.4 7.14-0.86 12.25-5.41 23.81-7.5 29.18-5.25 5.03 2.1 6.27 5.3 4.8 12.33-2.56 12.2-13.35 30.02-29.52 48.77-10 11.58-14.44 15.64-24.11 22.01-18.68 12.32-27.54 26.82-20.23 33.11 2.26 1.95 3.87 2.38 8.98 2.38 3.43 0 8.69-0.65 11.7-1.45 4.95-1.31 5.59-1.29 6.72 0.19 3.16 4.14-0.17 16.6-7.3 27.33-9.32 14.02-30.49 32.73-47.686 42.14-4.3 2.36-12.503 7.03-18.229 10.38-5.726 3.36-14.94 8.07-20.475 10.48s-10.063 4.95-10.063 5.65c0 1.79 19.519 1.64 32.5-0.24 20.244-2.93 27.503-1.67 27.503 4.76 0 6.11-4.015 11.73-19.411 27.19-15.962 16.02-26.688 24.3-42.845 33.09-8.47 4.6-9.796 5.75-16.006 13.88-8.383 10.98-9.047 13.08-5.191 16.39 2.689 2.32 3.375 2.43 11.902 1.96 10.046-0.55 18.764-3.68 23.845-8.54 3.984-3.81 4.875-1.85 4.443 9.79-0.428 11.54-2.008 15.46-10.549 26.19l-6.124 7.69-16.284 7.98c-20.532 10.05-27.455 12.73-41.783 16.18-14.13 3.4-23.627 4.03-36 2.4zm-36.83-478.74c-0.59-0.71-1.754-3.97-2.586-7.25l-1.513-5.95 0.545 4.88c0.607 5.43 2.203 9.62 3.667 9.62 0.558 0 0.511-0.55-0.113-1.3zm-4.508-16.95c-0.277-0.69-0.504-0.13-0.504 1.25 0 1.37 0.227 1.93 0.504 1.25 0.277-0.69 0.277-1.82 0-2.5zm-29.739 21.39c-2.23-1.81-2.41-2.8-3.07-16.28-0.39-7.9-0.75-17.06-0.81-20.36-0.09-4.92-0.31-5.66-1.22-4.09-0.75 1.3-0.94 7.15-0.57 18.26 0.31 9.22 0.15 16.58-0.36 16.89-0.52 0.32-0.89-10.61-0.89-26.08 0-26.42-0.03-26.7-2.63-33.2l-2.62-6.56 1.71-10.61c0.93-5.84 2.4-13.06 3.25-16.06 1.35-4.76 1.39-7.95 0.34-25.45-0.67-11.01-1.38-29.6-1.6-41.32-0.4-21.6-1.08-25.69-4.21-25.09-0.89 0.17-27.25 31.7-58.57 70.06-59 72.26-59.67 72.99-59.67 64.68 0-2.11 3.11-6.75 12.25-18.26 29.73-37.46 49.37-63.39 48.6-64.16-0.22-0.21-18.81 15.35-41.32 34.57-36.37 31.05-41.1 34.78-42.43 33.45-3.22-3.22-0.16-6.54 29.53-32.03 16.01-13.75 31.36-27.03 34.11-29.5 2.75-2.48 10.56-7.52 17.37-11.21 6.81-3.7 13.82-7.75 15.58-9 4.66-3.34 21.19-25.25 19.97-26.47-0.3-0.29-31.46 17.54-69.25 39.63-66.37 38.8-70.29 40.86-70.4 37.01-0.01-0.3 0.82-3 1.85-6l1.86-5.46 31.42-19c17.27-10.45 32.97-20.01 34.88-21.25s7.08-3.43 11.48-4.89c12.43-4.1 19.1-7.4 37.14-18.39 17.15-10.45 22.49-12.97 27.44-12.97 4.27 0 7.74-1.98 10.06-5.73l2.09-3.39-2.29-2.44c-1.26-1.35-3.45-2.45-4.87-2.46-6.16-0.04-171.73 30.16-175.08 31.94-4.49 2.38-13.98 5.2-15.12 4.5-1.27-0.78-1.07-3.77 0.38-5.74 0.68-0.93 4.39-2.59 8.23-3.68 3.84-1.1 8.34-2.63 10-3.42 1.66-0.78 5.88-1.94 9.39-2.57 7.46-1.34 55.11-14.18 63.13-17 4.01-1.41 10.44-2.23 23.73-3 31.73-1.85 68.39-7.43 70.84-10.78 1.09-1.49 1.65-1.5 6.79-0.07 6.66 1.85 7.91 1.28 12.29-5.65 1.56-2.48 3.33-4.51 3.91-4.51s2.24 1.23 3.67 2.75l2.61 2.75-5.92 7.37c-3.26 4.05-5.92 7.95-5.92 8.66 0 1.48 5.14 6.06 7.74 6.89 0.97 0.3 2.32 1.45 3 2.54 0.9 1.43 2.08 26.75 4.29 91.69 3.13 92.12 3.26 101.43 1.37 102.05-0.61 0.2-2.17-0.5-3.48-1.56zm61.703-4c-0.971-1.08-5.348-13.98-9.729-28.68s-8.364-27.47-8.852-28.38c-1.717-3.21-27.902-88.66-28.972-94.55-1.14-6.26-0.36-25.25 0.98-23.83 0.75 0.79 51.501 171 52.12 174.8 0.449 2.75-3.251 3.17-5.547 0.64zm-101.84-2.72c-0.97-2.12-0.36-7.79 3.47-32.25 2.55-16.32 5.34-35.12 6.21-41.78 0.86-6.66 2.22-14.59 3.01-17.62 1.97-7.56 11.77-32.53 12.23-31.15 0.21 0.61-4.14 28.86-9.66 62.79-5.53 33.92-10.04 61.88-10.04 62.13s-0.91 0.46-2.02 0.46c-1.21 0-2.5-1.05-3.2-2.58zm-33.55-8.59c-0.68-0.68-1.24-2.16-1.24-3.28-0.01-1.13 4.01-14.2 8.93-29.05 10.12-30.56 23.64-74.25 24.61-79.5 0.59-3.25 0.54-3.36-0.81-1.5-0.8 1.1-13.48 23.37-28.19 49.5-14.7 26.12-27.12 47.9-27.59 48.4-1.35 1.44-3.94-1.34-3.94-4.23 0-1.42 4-9.81 8.89-18.63s12.03-22.12 15.87-29.54c11.43-22.15 16.47-29.8 29.15-44.29 6.64-7.59 12.71-15.01 13.49-16.5 1.74-3.32 12.35-14.8 13.04-14.11 0.99 1-48.14 143.39-49.57 143.68-0.78 0.15-1.97-0.28-2.64-0.95zm170.01-3.37c-1.262-0.89-7.963-13.14-15.721-28.75-7.437-14.97-16.667-33.06-20.511-40.21s-7.938-15.48-9.097-18.5c-2.513-6.56-8.903-30.66-8.882-33.5 0.008-1.1 7.113 12.4 15.788 30 44.845 90.97 44.661 90.58 43.135 91.54-1.94 1.23-2.157 1.2-4.712-0.58zm29.657-15.44c-0.8796-0.52-12.939-17.73-26.8-38.24-13.86-20.51-27.802-40.88-30.982-45.28-11.442-15.83-34.9-50.08-36.627-53.47-0.97-1.9-5.342-8.38-9.719-14.4-8.93-12.3-10.37-16.4-6.66-19 1.85-1.29 2.56-1.37 3.5-0.38 3.57 3.78 112.76 167.57 112.82 169.25 0.0754 2.24-2.9326 3.07-5.5324 1.52zm-254.26-11.52c-0.32-0.83-0.14-1.5 0.39-1.5s0.97 0.67 0.97 1.5c0 1.92-0.63 1.92-1.36 0zm264.29-32.75c-9.5745-10.04-25.791-26.8-36.036-37.25-14.819-15.12-19.891-21.02-24.805-28.88-3.398-5.43-5.959-10.09-5.691-10.36 1.459-1.45 12.965 9.91 61.955 61.18 30.543 31.97 31.71 33.56 24.693 33.56-2.21 0-5.913-3.36-20.116-18.25zm36.991-14.74c-8.217-5.56-9.456-7.11-2.838-3.55 3.62 1.94 8.008 3.54 9.75 3.54 3.344 0 4.251 1.37 1.585 2.39-2.715 1.04-3.942 0.7-8.497-2.38zm-54.387-49.08c-36.281-21.98-67.28-41.2-68.885-42.7-3.72-3.48-11.852-14.36-11.211-15 0.267-0.27 2.644 0.89 5.283 2.59 2.638 1.69 6.948 4.03 9.576 5.19 2.629 1.16 11.85 6.73 20.491 12.37 8.642 5.64 22.687 14.46 31.212 19.6 8.5247 5.13 26.525 16.16 40 24.51s27.712 17.07 31.638 19.39c3.925 2.32 7.897 5.05 8.825 6.08 1.769 1.95 1.795 7.17 0.037 7.67-0.55 0.15-30.685-17.71-66.966-39.7zm-308.03 4.08c-1.07-1.74 0.31-5.85 2.34-6.93 1-0.54 16.67-6.58 34.82-13.42 18.14-6.85 35.13-13.43 37.74-14.62 4.79-2.18 29.71-6.42 34.4-5.84 1.49 0.18-19.02 8.36-51.92 20.72-29.91 11.24-54.9 20.61-55.53 20.82-0.63 0.22-1.46-0.11-1.85-0.73zm317.56-27.57c-66.681-25.54-78.639-30.67-79.852-34.31-0.207-0.62 4.498 0.61 10.456 2.75 83.422 29.92 142.08 51.63 143.12 52.95 1.644 2.11 1.17 5.6-0.786 5.81-0.825 0.09-33.647-12.15-72.938-27.2zm-24.562-29.52c-58.3-21.94-106.65-39.79-107.44-39.66s-2.36 2.13-3.5 4.44c-1.36 2.77-2.75 4.23-4.06 4.28-4.66 0.18-208.08-19.36-208.88-20.06-1.51-1.33 0.32-5.95 2.71-6.86 1.44-0.55 17.28 0.4 42.73 2.55 59.05 5 60.02 4.13 4.44-3.94-25.85-3.76-47.79-7.05-48.75-7.32-2.35-0.65-2.23-4.03 0.18-5.32 3.02-1.62 4.9-1.42 51.47 5.46 28.16 4.17 44.32 6.15 45.04 5.55 1.25-1.03 14.14 3.01 31.06 9.73 5.5 2.19 13.24 4.71 17.19 5.6 7.72 1.74 20.31 2.2 20.31 0.74 0-0.49-2.82-3.48-6.25-6.65l-6.25-5.77-45-15.32c-100.95-34.37-98.5-33.49-98.5-35.46 0-2.52 3.49-4.18 7.1-3.39 1.78 0.39 3.56 0.17 4.41-0.54 1.15-0.95 3.65-0.26 12.36 3.42 12 5.06 64.73 24.64 67.13 24.92 4.24 0.5 0.99-3.07-14.43-15.82-43.55-36.01-47.07-39.08-48.01-41.77-0.72-2.08-0.6-3.12 0.49-4.21 1.26-1.27 6.67 2.83 42.58 32.32 22.63 18.58 42.2 34.46 43.5 35.28 3.91 2.49 15.6 7.13 16.89 6.7 0.68-0.23-3.31-5.81-9.2-12.86-5.72-6.86-11.5-14.04-12.84-15.96-4.85-6.95-21.57-25.8-35.91-40.5-30.91-31.69-32.07-33.01-32.07-36.32 0-3.78 1.55-4.895 3.89-2.78 0.97 0.88 3.08 1.61 4.69 1.63 2.61 0.03 8.81 6.95 59.92 66.93 61.91 72.68 57.75 68.51 69.75 69.73 6.42 0.65 7.59-0.73 3.62-4.29-1.17-1.05-4.74-5.28-7.92-9.4-3.18-4.13-13.03-15.6-21.89-25.5-9.62-10.77-19.2-22.69-23.83-29.67-4.25-6.41-19.85-29.31-34.65-50.88-27.23-39.676-29.03-42.908-25.74-46.198 0.9-0.904 1.61-0.721 3.01 0.783 1.01 1.079 18.41 26.035 38.67 55.465 49.83 72.37 54.61 79.2 55.12 78.69 0.61-0.62-4.04-12.07-13.69-33.69-4.54-10.18-9.47-21.65-10.96-25.5s-11.57-26.08-22.41-49.388c-12.73-27.395-19.58-43.273-19.39-44.899 0.29-2.343 3.15-5.225 4.16-4.181 0.25 0.255 19.94 42.539 43.76 93.968 23.82 51.42 43.77 93.84 44.35 94.26 2.66 1.94 5.87 2 7.15 0.13 3.33-4.86 4.68-5.52 10.82-5.27 3.88 0.16 6.08-0.17 6.34-0.94 0.22-0.66-0.54-1.18-1.71-1.18-2.1 0-2.11-0.14-1.57-20.75 0.3-11.42 0.76-24.48 1.03-29.03 0.49-8.15 6.62-46.39 8.53-53.22 0.55-1.93 3.9-21.28 7.46-43.004 3.557-21.725 6.971-40.722 7.585-42.216 1.168-2.841 4.494-4.591 5.953-3.132 0.468 0.468-4.714 35.05-11.518 76.852-6.8 41.8-12.18 76.18-11.96 76.4 0.68 0.69 4.36-8.38 12.1-29.83 4.08-11.32 8.947-24.4 10.815-29.07 1.867-4.68 9.039-25.15 15.938-45.504 8.849-26.103 13.169-37.515 14.669-38.75 2.103-1.73 7.49-2.505 6.521-0.938-0.52 0.842-60.613 177.23-60.613 177.91 0 2.21 16.58-16.16 22.764-25.22 2.251-3.3 12.468-15.9 22.704-28s29.455-35.5 42.709-52c27.87-34.7 29.471-36.504 32.393-36.504 6.358 0 5.754 0.845-54.688 76.394-34.686 43.35-58.812 74.34-58.512 75.15 0.81 2.11 8.615 5.69 11.288 5.18 1.312-0.25 2.633-0.06 2.933 0.43 0.687 1.11 9.955 5.85 11.442 5.85 1.303 0 13.418-7.25 23.859-14.28 9.481-6.38 15.925-9.22 35.605-15.68 8.8-2.89 35.854-12.4 60.121-21.15 24.266-8.74 45.513-15.89 47.214-15.89 2.113 0 3.448 0.66 4.211 2.08 0.613 1.15 0.879 2.32 0.589 2.61-0.444 0.45-150.6 55.31-151.37 55.31-0.147 0-0.265 0.45-0.265 1s1.45 1 3.222 1c6.11 0 45.293-6.06 51.933-8.03 3.8499-1.14 9.5404-1.97 13.5-1.95 3.855 0.01 24.421-2.9 47.088-6.66 39.041-6.49 40.304-6.63 42.25-4.87 5.12 4.63 6.87 4.21-71.743 17.39-40.563 6.8-76.338 12.8-79.5 13.35-3.163 0.54-5.75 1.29-5.75 1.67 0 1.53 26.852 12.73 49.5 20.66 2.1997 0.76 24.311 4.77 49.136 8.9s45.802 7.77 46.615 8.08c1.931 0.74 3.854 5.02 3.118 6.94-0.358 0.93-1.395 1.32-2.724 1.03-1.18-0.26-11.82-2.31-23.645-4.54-11.825-2.24-22.4-4.32-23.5-4.63-1.574-0.45-1.747-0.3-0.814 0.68 0.652 0.69 11.677 5.43 24.5 10.54 12.822 5.12 24.358 10.22 25.635 11.36 2.829 2.5 2.638 6.5-0.321 6.74-1.1 0.09-49.7-17.8-108-39.74zm59.177-9.41c-28.503-5.13-52.061-9.56-52.351-9.85-0.544-0.55 3.427-1.75 12.173-3.68 3.5668-0.79 6.146-0.8 9.0001-0.04 2.1999 0.58 22.451 4.2 45.001 8.04 36.208 6.16 41.209 7.23 42.792 9.16 2.531 3.08 1.802 5.32-1.8 5.53-1.646 0.1-26.313-4.03-54.815-9.16zm-384.67-3.49c0-1.99 0.74-3.46 2.25-4.42 3.06-1.97 79.07-9.63 95.41-9.61 11.66 0.01 33.65 2.37 37.84 4.07 1.1 0.45 1.48 0.84 0.84 0.87-0.63 0.04-31.2 2.77-67.93 6.07-36.72 3.3-67.14 6-67.59 6s-0.82-1.34-0.82-2.98zm-4-16.56c0-1.54 0.29-2.5 0.65-2.15 0.36 0.36 1.16-0.04 1.79-0.9 0.73-1 3.96-1.91 9.08-2.54 6.69-0.83 11.39-0.57 29.96 1.7 12.11 1.48 22.9 3.01 23.98 3.41s-7.92 1.02-20 1.38-27.25 0.93-33.71 1.27l-11.75 0.62v-2.79zm259.04-13.56c2.108-3.96 8.506-12.19 12.093-15.56 1.849-1.73 10.144-7.13 18.434-12 32.768-19.23 41.586-24.58 72.67-44.08 20.549-12.89 33.211-20.24 34.885-20.25 3.53-0.02 5.751 2.57 3.787 4.41-1.827 1.72-139.16 88.35-141.43 89.22-1.528 0.59-1.576 0.4-0.439-1.74zm-44.782-17.13c-1.62-2.01-5.92-11.02-6.58-13.78-0.33-1.38-2.56-5.95-4.96-10.16-5.46-9.58-6.02-12.3-9.26-44.83-1.45-14.58-4.65-42.85-7.11-62.829-4.91-39.804-5.18-43.475-3.35-45.68 1.27-1.531 5.02-2.093 4.97-0.745-0.08 1.992 18.27 147.94 18.76 149.25 0.95 2.54 1.98-5.58 3.22-25.5 0.64-10.45 1.59-23.9 2.09-29.88 0.51-5.99 1.62-28.71 2.47-50.502 0.86-21.792 2.01-41.305 2.56-43.362 0.73-2.741 1.67-3.908 3.51-4.37 1.38-0.346 2.65-0.463 2.83-0.26 0.48 0.562-7.14 182.93-7.67 183.45-0.25 0.26-0.92-0.11-1.48-0.81zm70.748-14.77c0.717-1.38 6.015-8.72 11.775-16.31 7.127-9.4 12.724-15.63 17.523-19.5 3.878-3.13 19.007-16.62 33.621-29.98 23.592-21.56 26.905-24.25 29.562-24 1.834 0.18 3.112 0.92 3.304 1.94 0.207 1.09-15.25 15.86-46.046 44-25.496 23.29-47.411 43.25-48.699 44.35l-2.342 2 1.302-2.5zm-18.452-25.5c1.656-7.41 7.914-27.38 9.716-31 1.093-2.2 3.458-6.25 5.256-9s11.667-20.3 21.931-39c17.523-31.928 21.092-37.526 23.899-37.488 4.802 0.064 4.222 1.307-27.361 58.638-17.222 31.27-31.943 57.75-32.713 58.85-1.301 1.86-1.352 1.79-0.728-1zm141.24-24.8l-1.589-3.33 7.184-3.85c5.495-2.94 7.821-3.69 9.895-3.17 4.876 1.23 3.34 3.93-4.959 8.72-4.219 2.43-7.956 4.55-8.306 4.7-0.349 0.14-1.35-1.24-2.225-3.07zm-227.64-8.95c-4.26-6.9-15.97-31.97-16.59-35.52-0.36-2.05-3.81-14.454-7.67-27.557-3.91-13.298-6.87-25.182-6.7-26.899 0.3-2.995 3.05-5.866 4.36-4.553 0.36 0.36 6.48 20.369 13.59 44.465 7.11 24.094 13.57 45.944 14.34 48.564 0.78 2.61 1.24 4.75 1.04 4.75s-1.26-1.47-2.37-3.25z"/>
      <path id="path2703" fill="#2eac27" d="m-51.913 950.23c-10.577-1.4-21.721-4.08-33-7.94-6.865-2.35-8.389-2.51-17.997-1.92-36.18 2.21-72.88-12.91-93.69-38.61-8.57-10.57-16.64-26.03-13.56-25.96 0.41 0.01 4.58 0.65 9.26 1.42 10.24 1.68 16.72 0.77 21.73-3.05 3.78-2.89 7.25-7.94 7.25-10.59 0.01-1.09-4.78-4.84-13.24-10.37-33.79-22.1-54.61-43.46-66.24-67.96-4.05-8.53-7.76-19.25-7.07-20.38 0.28-0.45 7.61 0.89 16.28 2.97 27.53 6.59 36.85 7.29 40.71 3.02 1.01-1.12 1.58-3.06 1.39-4.74-0.27-2.4-1.39-3.37-7.32-6.33-39-19.5-69.72-45.82-89.49-76.68-6.49-10.13-5.98-10.84 7.77-10.79 7.84 0.02 12.56 0.75 24.4 3.74 20.03 5.07 21.9 4.05 12-6.55-3.19-3.42-11.56-11.85-18.59-18.72-21.07-20.61-34.93-39.15-46.96-62.83-6.14-12.09-14.63-31.41-14.63-33.29 0-0.49 1.5-0.88 3.34-0.88 6.7 0 18.8 4 30.56 10.11 14.12 7.33 20.08 8.46 26.74 5.07 6.78-3.46 6.74-3.3 4.97-19.9-0.87-8.13-2.95-25.36-4.62-38.28-3.06-23.69-4.09-38.24-2.79-39.54 2.69-2.69 14.83 7.75 32.58 28 21.65 24.71 32.7 34.71 36.05 32.64 0.67-0.42 2.35-4.99 3.74-10.18 6.56-24.57 14.34-31.62 23.85-21.65 7.59 7.96 14.76 25.41 20.64 50.23 2.75 11.57 3.17 15.47 3.87 35.5 0.67 19.28 1.08 23.27 2.88 27.89 6.28 16.12 16.44 12.7 24.19-8.14 1.18-3.17 2.62-5.75 3.2-5.75 2.4 0 8.02 4.46 10.91 8.66 5.91 8.59 10.66 24.57 12.37 41.58 0.37 3.7 1.071 6.98 1.557 7.28s1.611-2.06 2.501-5.24c6.369-22.77 7.457-25.05 11.337-23.82 3.32 1.05 13.173 12.44 22.118 25.57 9.105 13.36 19.964 25.48 22.159 24.74 1.057-0.36 1.329-3.96 1.269-16.86-0.163-35.22-5.769-61.11-21.155-97.7-5.575-13.26-16.363-35.24-42.816-87.21l-4.32-8.5-0.25-22c-0.15-13.14 0.13-21.96 0.69-21.89 0.51 0.07 3.23 5.3 6.04 11.63 3.716 8.37 5.703 14.61 7.271 22.84 2.211 11.61 4.41 15.92 8.135 15.92 0.919 0 2.38 0.78 3.246 1.75 0.867 0.96 9.158 16.82 18.425 35.25 18.219 36.22 29.107 62 34.843 82.5 2.001 7.15 3.821 13.59 4.045 14.31 0.696 2.24 2.319 0.29 3.421-4.11 1.61-6.43 6.101-18.03 7.607-19.64 1.155-1.24 1.905-0.85 5.3336 2.75 4.495 4.73 9.3514 14.23 14.417 28.21 4.8254 13.32 6.7634 17.1 8.5944 16.75 2.195-0.43 3.579-5.43 5.469-19.77 3.837-29.13 5.016-36.17 8.122-48.55 1.801-7.18 4.927-17.53 6.947-23 7.068-19.16 24.315-52.45 27.167-52.45 1.668 0 6.983 11.18 8.796 18.5 0.817 3.3 2.195 10.95 3.062 17 2.028 14.15 4.985 20.59 11.304 24.6 2.515 1.59 5.001 2.9 5.525 2.9 1.713 0 9.89-7.2 26.16-23.02 34.31-33.37 41.96-39.86 44.23-37.58 2.16 2.17 0.08 20.65-5.34 47.4-6.1 30.12-7.29 42.71-4.3 45.71 1.46 1.47 2.06 1.4 7.14-0.86 12.25-5.41 23.81-7.5 29.18-5.25 5.03 2.1 6.27 5.3 4.8 12.33-2.56 12.2-13.35 30.02-29.52 48.77-10 11.58-14.44 15.64-24.11 22.01-18.68 12.32-27.54 26.82-20.23 33.11 2.26 1.95 3.87 2.38 8.98 2.38 3.43 0 8.69-0.65 11.7-1.45 4.95-1.31 5.59-1.29 6.72 0.19 3.16 4.14-0.17 16.6-7.3 27.33-9.32 14.02-30.49 32.73-47.686 42.14-4.3 2.36-12.503 7.03-18.229 10.38-5.726 3.36-14.94 8.07-20.475 10.48s-10.063 4.95-10.063 5.65c0 1.79 19.519 1.64 32.5-0.24 20.244-2.93 27.503-1.67 27.503 4.76 0 6.11-4.015 11.73-19.411 27.19-15.962 16.02-26.688 24.3-42.845 33.09-8.47 4.6-9.796 5.75-16.006 13.88-8.383 10.98-9.047 13.08-5.191 16.39 2.689 2.32 3.375 2.43 11.902 1.96 10.046-0.55 18.764-3.68 23.845-8.54 3.984-3.81 4.875-1.85 4.443 9.79-0.428 11.54-2.008 15.46-10.549 26.19l-6.124 7.69-16.284 7.98c-20.532 10.05-27.455 12.73-41.783 16.18-14.13 3.4-23.627 4.03-36 2.4zm-80.327-538.94l-2.83-6 1.72-11c3.15-20.25 4.6-18.17 4.21 6.03l-0.27 16.97-2.83-6z"/>
      <path id="path2701" fill="#22881d" d="m-33.867 947.54c-0.501-1.24-2.299-9.9-3.995-19.25s-3.318-18.05-3.604-19.32c-0.49-2.19-0.939-1.95-7.535 4-3.858 3.47-10.029 8.48-13.714 11.12-3.684 2.64-7.09 5.64-7.569 6.67-0.994 2.15-5.665 4.37-8.121 3.87-1.107-0.23-6.91-12.36-17.63-36.84-8.785-20.08-22.545-51.35-30.565-69.5s-42.66-90.46-76.97-160.68l-62.39-127.68-2.94-21.32c-1.61-11.73-3.65-26.13-4.54-32-1.22-8.06-1.35-11.19-0.5-12.77 0.84-1.57 1.53-1.85 2.82-1.16 3.82 2.07 18.94 17.13 31.05 30.93 20.14 22.95 30.11 31.56 34.59 29.84 0.8-0.31 1.95-2.5 2.54-4.86 3.04-12.1 7.31-23.9 10.01-27.63 2.55-3.51 3.58-4.17 6.49-4.17 9.08 0 19.44 19.81 27.2 52 3.26 13.5 3.55 16.08 4.27 37.5 0.68 20.16 1.05 23.7 2.98 28.72 3.89 10.1 10.92 12.77 17.18 6.53 2.73-2.73 7.85-12.24 10.22-19 0.34-0.97 1.09-1.75 1.67-1.75 2.37 0 10.2 8.65 13.01 14.37 3.56 7.26 7.51 23.99 8.52 36.06 0.48 5.82 1.28 9.34 2.44 10.77 1.67 2.06 1.83 1.67 5.452-13.29 4.324-17.86 5.041-19.91 6.949-19.91 2.38 0 12.617 11.87 23.752 27.55 15.01 21.13 22.774 27.71 24.515 20.78 0.852-3.4-0.246-32.17-1.654-43.33-4.474-35.48-13.698-60.4-46.087-124.53l-20.717-41.02-0.27-20.21c-0.15-11.11-0.04-20.44 0.25-20.73 1.36-1.36 10.051 22.21 11.892 32.23 2.195 11.95 3.758 15.07 7.978 15.91 1.612 0.32 3.351 1.1 3.863 1.72 0.511 0.62 8.305 15.75 17.319 33.63 21.432 42.5 30.123 63.44 36.942 89 1.688 6.32 3.427 11.95 3.866 12.5 1.481 1.86 5.928 36.61 5.978 46.73 0.007 1.46 0.673 1.64 4.34 1.13 12.108-1.65 18.508 11.16 17.297 34.64-0.6972 13.52-2.4066 20.56-7.2302 29.79-5.326 10.2-5.8288 18.84-1.2388 21.29 2.8122 1.51 8.6313-0.2 12.871-3.76 2.3679-1.99 15.27-26.93 53.538-103.46l50.415-100.83 22.36-22.52c25.19-25.37 26.66-26.29 26.65-16.76-0.01 7.84-2.22 21.96-7.18 45.75-4.78 22.97-5.74 37.98-2.62 41.11 1.59 1.59 2.25 1.48 11.01-1.87 12.11-4.64 20.75-6.24 25.36-4.72 1.89 0.62 3.44 1.57 3.44 2.11s0.45 0.71 1 0.37c2.24-1.39 1.49 8.66-1.06 14.24-1.07 2.33-1.94 4.6-1.94 5.05 0 0.44-2.48 4.99-5.5 10.11-10.82 18.31-29.68 39.79-42.47 48.39-18.49 12.42-27.54 23.87-25.45 32.2 1.53 6.06 12.16 8.28 24.44 5.09 6.13-1.59 6.94-1.13 6.96 3.98 0.03 4.81-2.74 12.91-6.72 19.71-7.79 13.32-34.36 36.75-51.263 45.22-3.025 1.51-9.565 5.17-14.534 8.12-4.968 2.96-14.377 7.83-20.908 10.84-12.735 5.86-14.154 6.77-13.112 8.46 0.99 1.6 24.231 1.33 35.554-0.41 12.065-1.86 22.041-1.93 24.461-0.16 1.472 1.08 1.732 2.2 1.272 5.58-0.77 5.76-4.193 10.37-18.233 24.57-15.972 16.15-30.122 26.73-47.359 35.44-5.075 2.56-6.947 4.37-13.034 12.63-4.24 5.75-7.107 10.63-7.107 12.08 0 1.35 1.163 3.61 2.584 5.03 2.502 2.5 2.893 2.57 12.307 2.12 10.675-0.52 19.027-3.44 24.329-8.51 2.396-2.29 2.798-2.4 3.371-0.91 0.357 0.94 0.462 5.63 0.233 10.43-0.496 10.37-2.207 14.44-10.445 24.85-5.62 7.1-5.769 7.2-22.269 15.17-18.504 8.93-29.721 13.13-41.585 15.58-4.385 0.9-8.413 2.08-8.95 2.62-0.536 0.54-2.47 0.98-4.297 0.98-2.508 0-3.544-0.55-4.232-2.25zm-67.123-213.13c5.823-9.64 11.089-21.47 11.05-24.82-0.044-3.82-6.677-28.42-7.229-26.8-0.865 2.53-3.641 19.97-4.771 30-0.59 5.22-1.95 13.53-3.02 18.45-1.98 9.07-2.3 11.55-1.52 11.55 0.24 0 2.71-3.77 5.49-8.38zm-31.36-325.77c-1.44-3.6-1.51-5.14-0.47-11.75 1.94-12.41 2.84-11.57 2.88 2.65 0.01 7.28-0.15 13.25-0.36 13.25-0.22 0-1.14-1.87-2.05-4.15z"/>
      <path id="path2699" fill="#1d7319" d="m-31.387 948.83c-0.325-0.53-2.339-10.54-4.475-22.25s-4.148-22.42-4.472-23.79c-0.634-2.7 2.648-8.11 4.06-6.7 0.426 0.43 2.896 12.34 5.489 26.48 4.732 25.8 4.79 27.15 1.181 27.2-0.655 0.01-1.457-0.41-1.783-0.94zm-48.428-19.29c-3.632-8.43-143.48-330.6-168-387.02-13.79-31.77-25.49-59.54-25.98-61.71-1.11-4.96 0.68-8.19 3.57-6.42 1.08 0.67 21.34 46.28 50.62 114 26.84 62.09 70.9 163.97 97.91 226.4 27.003 62.42 49.283 114.2 49.509 115.06 0.251 0.95-0.608 2.02-2.203 2.75-3.549 1.61-3.361 1.72-5.421-3.06zm113.99-9.5c-1.883-7.17-7.092-28.14-7.092-28.55 0-0.23 2.86-0.68 6.356-1.01 6.832-0.64 16.72-4.48 20.38-7.92 1.241-1.16 2.595-1.77 3.01-1.36 0.414 0.42 0.69 4.33 0.612 8.69-0.112 6.32-0.666 9-2.72 13.16-4.445 9.02-15.209 20.74-19.05 20.74-0.281 0-0.954-1.69-1.496-3.75zm-70.808-70.03c-11.049-22.65-11.954-24.16-14.499-24.19-1.696-0.02-3.13-0.81-3.82-2.1-0.848-1.58-1.417-1.8-2.449-0.95-1.025 0.85-1.812 0.62-3.319-1-2.714-2.92-3.367-7.08-2.6-16.59l0.654-8.1-15.735-32.23c-12.72-26.05-15.624-32.78-15.159-35.1 0.752-3.76 10.923-26.14 13.564-29.85l2.047-2.88-5.48-29.37c-3.014-16.15-5.482-31.07-5.484-33.14-0.005-4.27 2.462-6.17 4.457-3.45 0.645 0.89 3.589 15.13 6.544 31.66l5.372 30.06 3.731 4c2.883 3.09 4.078 5.53 5.264 10.75 2.979 13.12 4.725 24.87 5.236 35.26 0.956 19.41 1.756 19.35 7.472-0.53 4.875-16.96 8.698-37.23 9.581-50.78 0.468-7.19 1.096-10.51 2.131-11.27 1.197-0.89 1.44-4.1 1.318-17.47-0.456-49.92-9.017-77.54-47.549-153.45l-20.308-40-0.65-20c-0.54-16.84-0.43-19.74 0.7-18.31 2.84 3.59 8.701 20.74 10.284 30.08 1.822 10.75 3.722 14.2 8.382 15.22 3.491 0.77 5.244 3.8 24.853 43.01 15.013 30.01 25.58 55.47 30.719 74 1.983 7.15 4.216 15.02 4.962 17.5 2.036 6.75 4.516 24.92 5.18 37.94 0.324 6.36 1.012 12.09 1.529 12.75 0.623 0.79 2.61 1 5.908 0.61 4.486-0.54 5.253-0.32 7.8974 2.21 4.9017 4.7 6.4916 11.14 6.4173 25.99-0.07921 15.83-1.512 21.8-8.3591 34.85l-5.0196 9.57-0.967-3.71c-0.531-2.04-1.992-7.68-3.245-12.53-2.66-10.28-3.58-10.05-6.388 1.63-2.952 12.28-8.844 31.09-18.798 60.02l-9.578 27.84 1.559 7.66c0.858 4.22 1.944 8.07 2.414 8.57 1.188 1.26 11.354-6.6 14.931-11.54 2.875-3.97 5.287-9.63 6.505-15.27 0.528-2.45 0.832-2.68 1.918-1.5 1.699 1.85 4.991 10.47 7.797 20.41 3.223 11.41 3.038 27.02-0.495 41.91-1.93 8.14-3.234 11.57-5.115 13.45l-2.526 2.52-11.784-24.16zm56.851 15.2c-5.234-19.86-10.145-40.96-9.763-41.95 0.85-2.22 20.259-16.17 25.021-17.99 3.665-1.4 5.184-1.54 7.083-0.68 2.922 1.34 5.565 5.16 6.409 9.29 0.581 2.84 0.973 2.33 5.977-7.82l5.356-10.85 13.141-1.71c21.664-2.83 25.221-2.73 26.804 0.74 2.11 4.64-2.781 12.06-18.016 27.34-14.771 14.82-26.448 23.73-42.837 32.68-7.03 3.84-11.422 7.01-14.165 10.22l-3.976 4.65-1.034-3.92zm-22.004-86.67c-3.956-15.54-7.179-28.48-7.1621-28.76 0.0168-0.28 1.9774-0.35 4.3567-0.16 5.7149 0.45 12.705-2.86 18.553-8.79 3.359-3.4 12.016-18.12 34.447-58.54 73.217-131.97 102.03-183.2 104.49-185.79 2.85-3.02 6.46-3.31 6.98-0.56 0.17 0.9-30.08 55.94-67.239 122.3-37.155 66.36-67.552 120.96-67.55 121.35 0.002 0.38 1.127 2.91 2.5 5.62 6.432 12.67-0.252 37-15.075 54.85-3.0696 3.7-5.9237 6.73-6.3428 6.73-0.4192 0-3.9989-12.72-7.955-28.25zm93.977-47c11.065-22.14 20.255-40.41 20.425-40.6 0.18-0.19 1.01 1 1.86 2.65 2.7 5.21 12.39 6.71 23.95 3.7 3.16-0.83 6.01-1.5 6.32-1.5s0.39 2.85 0.17 6.34c-0.29 4.53-1.32 8.19-3.58 12.75-6.78 13.71-24.86 31.9-43.858 44.1-4.051 2.61-23.87 12.81-24.88 12.81-0.286 0 8.531-18.12 19.593-40.25zm-217.6-62.79c-11-22.59-20.15-41.49-20.34-42.01-0.18-0.53 1.58-0.95 3.91-0.95 3.63 0 4.77-0.57 7.98-3.94 2.23-2.35 5.08-7.19 7.04-12 1.82-4.44 3.82-8.06 4.45-8.06 2.46 0 8.88 7.68 12.06 14.42 8.14 17.29 12.113 55.81 7.9 76.58-0.84 4.12-1.86 9.64-2.27 12.26l-0.73 4.77-20-41.07zm269.98-42.16l21.39-43.3 4.34-1.65c2.39-0.91 6.89-1.97 10-2.36 5.19-0.65 5.87-0.5 8.17 1.8 1.57 1.57 2.69 2.08 2.99 1.36 0.26-0.63 0.47 1.55 0.48 4.85 0 3.87-0.27 5.29-0.77 4.01-0.64-1.63-0.9-1.28-1.51 1.94-1.71 9.11-13.26 27.63-27.33 43.83-10.11 11.63-15.36 16.38-24.74 22.45-3.85 2.49-8.67 5.84-10.71 7.44-3.48 2.74-2.39 0.25 17.69-40.37zm-322.26-64.71l-21.27-43.41 1.62-5.58c1.99-6.85 5.95-13.78 8.71-15.26 4.76-2.54 11.91 4.72 18.11 18.39 4.4 9.69 6.97 17.67 10.7 33.27 2.77 11.55 3.17 15.16 3.62 32.5 0.28 10.72 0.34 20.4 0.14 21.5-0.21 1.22-8.66-14.96-21.63-41.41zm45.78-154.27c-0.88-1.88-1.01-4.39-0.45-8.5l0.81-5.82 0.82 7.5c0.94 8.64 0.6 10.61-1.18 6.82z"/>
    </g>
  </g>
  <metadata>
    <rdf:RDF>
      <cc:Work>
        <dc:format>image/svg+xml</dc:format>
        <dc:type rdf:resource="http://purl.org/dc/dcmitype/StillImage"/>
        <cc:license rdf:resource="http://creativecommons.org/licenses/publicdomain/"/>
        <dc:publisher>
          <cc:Agent rdf:about="http://openclipart.org/">
            <dc:title>Openclipart</dc:title>
          </cc:Agent>
        </dc:publisher>
        <dc:title>flower - dandelion</dc:title>
        <dc:date>2007-01-02T12:07:56</dc:date>
        <dc:description>clip art, clipart, dandelion, dandelion, flower, flower, herb, herb, idea, image, media, nature, nature, plant, plant, png, public domain, season, season, spring, spring, spring2013, svg, yellow, yellow, </dc:description>
        <dc:source>http://openclipart.org/detail/6794/flower---dandelion-by-machovka-6794</dc:source>
        <dc:creator>
          <cc:Agent>
            <dc:title>Machovka</dc:title>
          </cc:Agent>
        </dc:creator>
        <dc:subject>
          <rdf:Bag>
            <rdf:li>clip art</rdf:li>
            <rdf:li>clipart</rdf:li>
            <rdf:li>dandelion</rdf:li>
            <rdf:li>flower</rdf:li>
            <rdf:li>herb</rdf:li>
            <rdf:li>idea</rdf:li>
            <rdf:li>image</rdf:li>
            <rdf:li>media</rdf:li>
            <rdf:li>nature</rdf:li>
            <rdf:li>plant</rdf:li>
            <rdf:li>png</rdf:li>
            <rdf:li>public domain</rdf:li>
            <rdf:li>season</rdf:li>
            <rdf:li>spring</rdf:li>
            <rdf:li>spring2013</rdf:li>
            <rdf:li>svg</rdf:li>
            <rdf:li>yellow</rdf:li>
          </rdf:Bag>
        </dc:subject>
      </cc:Work>
      <cc:License rdf:about="http://creativecommons.org/licenses/publicdomain/">
        <cc:permits rdf:resource="http://creativecommons.org/ns#Reproduction"/>
        <cc:permits rdf:resource="http://creativecommons.org/ns#Distribution"/>
        <cc:permits rdf:resource="http://creativecommons.org/ns#DerivativeWorks"/>
      </cc:License>
    </rdf:RDF>
  </metadata>
</svg>
