<svg xmlns="http://www.w3.org/2000/svg" viewBox="0 0 500 500"><g id="freepik--background-complete--inject-134"><path d="M57.91,63.09,71,62.82l6.66-.12c2.23,0,4.47,0,6.7-.05h.44v.44l.06,11.19v.51h-.5l-13.24-.06c-4.41,0-8.83-.11-13.24-.16h-.28v-.27c0-1.89.08-3.78.13-5.65Zm0,0,.14,5.66c.05,1.86.11,3.7.13,5.53L57.91,74c4.41-.05,8.83-.16,13.24-.16l13.24-.07-.5.5,0-11.19.45.45c-2.18,0-4.36,0-6.55,0l-6.58-.12Z" style="fill:#ebebeb"></path><path d="M72.68,49l13.13-.27,6.66-.12c2.22,0,4.46,0,6.69-.05h.44V49l0,11.19v.51h-.5l-13.24-.06c-4.41,0-8.83-.11-13.24-.16H72.4v-.27c0-1.89.08-3.78.13-5.65Zm0,0,.14,5.66c.05,1.86.11,3.7.13,5.53l-.27-.27c4.41,0,8.83-.16,13.24-.16l13.24-.06-.5.49L98.72,49l.44.45c-2.18,0-4.36,0-6.54,0L86,49.26Z" style="fill:#ebebeb"></path><path d="M294.9,199.13l13.12-.28,6.67-.11c2.22-.05,4.46,0,6.69-.05h.44v.45l.05,11.19v.5h-.5l-13.24-.06c-4.41,0-8.83-.12-13.24-.17h-.28v-.27c0-1.9.08-3.79.13-5.65Zm0,0,.14,5.65c0,1.87.11,3.71.13,5.54l-.27-.27c4.41-.05,8.83-.16,13.24-.17l13.24-.06-.5.5.05-11.19.45.45c-2.18,0-4.36,0-6.55-.06l-6.57-.11Z" style="fill:#ebebeb"></path><path d="M309.67,185l13.13-.28,6.66-.11c2.22,0,4.46,0,6.69,0h.45V185l0,11.19v.5h-.5l-13.24-.06c-4.41,0-8.83-.12-13.24-.17h-.27v-.27c0-1.9.08-3.79.13-5.65Zm0,0,.14,5.65c.05,1.87.12,3.71.13,5.54l-.27-.27c4.41-.05,8.83-.16,13.24-.17l13.24-.06-.5.5.06-11.19.44.45c-2.18,0-4.36,0-6.54-.06L323,185.3Z" style="fill:#ebebeb"></path><path d="M43.14,49l13.12-.27,6.66-.12c2.23,0,4.47,0,6.7-.05h.44V49l.06,11.19v.51h-.5l-13.24-.06c-4.42,0-8.83-.11-13.24-.16h-.28v-.27c0-1.89.09-3.78.13-5.65Zm0,0,.14,5.66c0,1.86.11,3.7.13,5.53l-.27-.27c4.41,0,8.82-.16,13.24-.16l13.24-.06-.5.49,0-11.19.45.45c-2.18,0-4.36,0-6.55,0l-6.58-.12Z" style="fill:#ebebeb"></path><path d="M223.51,147.81l-13.13.27-6.66.12c-2.22,0-4.46,0-6.69.05h-.45v-.45l-.05-11.19v-.51H197l13.24.06c4.41,0,8.82.11,13.24.16h.27v.27c0,1.9-.09,3.78-.13,5.65Zm0,0-.15-5.66c0-1.86-.11-3.7-.13-5.53l.28.27c-4.42.05-8.83.16-13.24.16l-13.24.07.5-.5-.06,11.19-.44-.45c2.18,0,4.35,0,6.54.06l6.58.11Z" style="fill:#ebebeb"></path><path d="M442.09,312l-13.12.28-6.66.11c-2.23,0-4.47,0-6.7.05h-.44V312l-.06-11.19v-.5h.5l13.24.06c4.41,0,8.83.11,13.24.16h.28v.27c0,1.9-.08,3.78-.13,5.65Zm0,0-.14-5.66c-.05-1.86-.11-3.7-.13-5.53l.27.27c-4.41.05-8.83.16-13.24.16l-13.24.07.5-.5L416.06,312l-.45-.45c2.18,0,4.36,0,6.55.06l6.58.11Z" style="fill:#ebebeb"></path><path d="M456.86,326.12l-13.12.28-6.66.11c-2.23,0-4.47,0-6.7.05h-.44v-.45l-.06-11.19v-.5h.5l13.24.06c4.42,0,8.83.11,13.24.16h.28v.27c0,1.9-.09,3.78-.13,5.65Zm0,0-.14-5.66c0-1.86-.11-3.7-.13-5.53l.27.27c-4.41.05-8.82.16-13.24.16l-13.24.07.5-.5-.05,11.19-.45-.45c2.18,0,4.36,0,6.55.06l6.58.11Z" style="fill:#ebebeb"></path><path d="M84.62,326.12l-13.13.28-6.66.11c-2.23,0-4.46,0-6.69.05h-.45v-.45l0-11.19v-.5h.51l13.24.06c4.41,0,8.82.11,13.24.16h.27v.27c0,1.9-.09,3.78-.13,5.65Zm0,0-.15-5.66c0-1.86-.11-3.7-.13-5.53l.28.27c-4.42.05-8.83.16-13.24.16l-13.24.07.49-.5-.05,11.19-.44-.45c2.18,0,4.35,0,6.54.06l6.58.11Z" style="fill:#ebebeb"></path><path d="M415.5,49l13.12-.27,6.66-.12c2.23,0,4.47,0,6.7-.05h.44V49l.06,11.19v.51H442l-13.24-.06c-4.42,0-8.83-.11-13.24-.16h-.28v-.27c0-1.89.09-3.78.14-5.65Zm0,0,.14,5.66c0,1.86.11,3.7.13,5.53l-.27-.27c4.41,0,8.82-.16,13.24-.16L442,59.68l-.5.49,0-11.19.45.45c-2.18,0-4.36,0-6.55,0l-6.58-.12Z" style="fill:#ebebeb"></path><rect x="261.3" width="1.2" height="105.03" style="fill:#ebebeb"></rect><rect x="258.56" y="99.68" width="6.67" height="4.51" style="fill:#dbdbdb"></rect><rect x="258.56" y="101.18" width="6.67" height="3.01" style="fill:#c7c7c7"></rect><path d="M267,134a5.14,5.14,0,1,1-5.14-5.13A5.14,5.14,0,0,1,267,134Z" style="fill:#ebebeb"></path><polygon points="278.62 134.04 245.19 134.04 251.24 123.31 256.18 103.39 267.62 103.39 272.56 123.31 278.62 134.04" style="fill:#dbdbdb"></polygon><rect x="199.14" width="1.2" height="94.48" style="fill:#ebebeb"></rect><rect x="196.4" y="89.13" width="6.67" height="4.51" style="fill:#dbdbdb"></rect><rect x="196.4" y="90.63" width="6.67" height="3.01" style="fill:#c7c7c7"></rect><path d="M204.88,123.49a5.14,5.14,0,1,1-5.14-5.13A5.14,5.14,0,0,1,204.88,123.49Z" style="fill:#ebebeb"></path><polygon points="216.46 123.49 183.03 123.49 189.08 112.76 194.02 92.84 205.46 92.84 210.4 112.76 216.46 123.49" style="fill:#dbdbdb"></polygon><rect x="139.51" width="1.2" height="83.46" style="fill:#ebebeb"></rect><rect x="136.78" y="78.11" width="6.67" height="4.51" style="fill:#dbdbdb"></rect><rect x="136.78" y="79.61" width="6.67" height="3.01" style="fill:#c7c7c7"></rect><path d="M145.25,112.47a5.14,5.14,0,1,1-5.13-5.14A5.14,5.14,0,0,1,145.25,112.47Z" style="fill:#ebebeb"></path><polygon points="156.83 112.47 123.4 112.47 129.46 101.74 134.4 81.82 145.84 81.82 150.78 101.74 156.83 112.47" style="fill:#dbdbdb"></polygon></g><g id="freepik--Shadow--inject-134"><ellipse cx="250" cy="449.15" rx="193.16" ry="12.38" style="fill:#ebebeb"></ellipse></g><g id="freepik--Floor--inject-134"><polygon points="40.24 375.68 92.68 375.44 145.12 375.35 250 375.18 354.88 375.35 407.32 375.44 459.76 375.68 407.32 375.93 354.88 376.02 250 376.18 145.12 376.01 92.68 375.93 40.24 375.68" style="fill:#263238"></polygon></g><g id="freepik--character-2--inject-134"><polygon points="283.83 322.3 286.5 338.28 304.55 435.75 307.46 435.75 294.33 338.28 292.39 322.3 283.83 322.3" style="fill:#dbdbdb"></polygon><polygon points="292.39 322.3 283.83 322.3 286.5 338.28 294.33 338.28 292.39 322.3" style="fill:#a6a6a6"></polygon><polygon points="227.16 435.75 230.07 435.75 248.12 338.28 250.78 322.3 242.22 322.3 240.28 338.28 227.16 435.75" style="fill:#dbdbdb"></polygon><polygon points="242.22 322.3 240.28 338.28 248.12 338.28 250.78 322.3 242.22 322.3" style="fill:#a6a6a6"></polygon><polygon points="173.02 435.75 175.93 435.75 193.98 338.28 196.65 322.3 188.09 322.3 186.15 338.28 173.02 435.75" style="fill:#dbdbdb"></polygon><polygon points="186.15 338.28 193.98 338.28 196.65 322.3 188.09 322.3 186.15 338.28" style="fill:#a6a6a6"></polygon><polygon points="177.64 329.81 309.89 329.81 309.89 315.87 260.38 315.87 243.74 219.07 182.68 219.07 177.64 329.81" style="fill:#dbdbdb"></polygon><polygon points="177.64 329.81 184.85 329.81 189.54 219.07 182.68 219.07 177.64 329.81" style="fill:#c7c7c7"></polygon><rect x="182.46" y="386.28" width="115.76" height="2.97" style="fill:#dbdbdb"></rect><path d="M294.86,388.19c-1.68.47-48.93-2.05-50.67-3.29-.66-.46-.7-7.36-.5-15.7,0-1.8.09-3.66.16-5.55.41-12.26,1.14-25.26,1.14-25.26l31.6,1.59-2,25.22-.44,5.53s17.66,9.06,19.43,10.62S296.54,387.73,294.86,388.19Z" style="fill:#d3766a"></path><path d="M294.86,388.19c-1.68.47-48.93-2.05-50.67-3.29-.8-.57-.69-10.64-.34-21.25l30.74,1.55-.44,5.53s17.66,9.06,19.43,10.62S296.54,387.73,294.86,388.19Z" style="fill:#fff"></path><path d="M294.86,388.19c-1.68.47-48.93-2.05-50.67-3.29-.66-.46-.7-7.36-.5-15.7l30.46,1.53s17.66,9.06,19.43,10.62S296.54,387.73,294.86,388.19Z" style="fill:#FFC727"></path><path d="M294.28,386.27c-7.91-.62-39.87-2.36-47.73-2.37-.07,0-.07.05,0,.05,7.83.78,39.8,2.26,47.73,2.45C294.44,386.4,294.45,386.28,294.28,386.27Z" style="fill:#263238"></path><path d="M290.63,379.48a6.36,6.36,0,0,0-4.84,1.69,6.11,6.11,0,0,0-2,4.13c0,.05.09.05.1,0a7.36,7.36,0,0,1,6.73-5.72A.05.05,0,0,0,290.63,379.48Z" style="fill:#263238"></path><path d="M277.18,371.68c-3.16-.21-6.9.71-9,3.2-.08.1.06.21.16.17a43.2,43.2,0,0,1,8.89-3A.2.2,0,0,0,277.18,371.68Z" style="fill:#263238"></path><path d="M279.58,372.77c-3.17-.22-6.9.71-9,3.2-.08.09.06.21.15.16a44.22,44.22,0,0,1,8.89-3A.2.2,0,0,0,279.58,372.77Z" style="fill:#263238"></path><path d="M282,373.85c-3.17-.21-6.91.71-9,3.2-.09.1,0,.21.15.17a44,44,0,0,1,8.89-3A.2.2,0,0,0,282,373.85Z" style="fill:#263238"></path><path d="M284.37,374.94c-3.17-.22-6.9.71-9,3.19-.08.1.06.21.15.17a44.1,44.1,0,0,1,8.9-3A.2.2,0,0,0,284.37,374.94Z" style="fill:#263238"></path><path d="M249,376.49c-3.55-.18-3.84,5.35-.27,5.52S252.53,376.67,249,376.49Z" style="fill:#263238"></path><path d="M281.06,363.41c-1.53-1.42-3.62-.23-4.69,1.1a16.64,16.64,0,0,0-3.31,7.95.08.08,0,0,0,.09.1c.06.23.32.44.56.29,2.34-1.44,5-2.69,6.85-4.81C281.63,366.8,282.51,364.75,281.06,363.41Zm-4.25,6.53c-1.13.73-2.3,1.41-3.4,2.19a48.36,48.36,0,0,1,2-4.6,17,17,0,0,1,1.27-2.08c.74-1,4-3.49,4.13,0C280.92,367.33,278.16,369.06,276.81,369.94Z" style="fill:#263238"></path><path d="M265.12,373.22c2.74.57,5.63-.06,8.36-.34a.38.38,0,0,0,.27-.56.1.1,0,0,0,0-.14,16.6,16.6,0,0,0-7.46-4.3c-1.66-.42-4-.09-4.4,2S263.52,372.89,265.12,373.22Zm-1.82-1.91c-2-2.83,2.1-2.83,3.3-2.48a16.4,16.4,0,0,1,2.27.88,49.82,49.82,0,0,1,4.42,2.42c-1.36.05-2.69.22-4,.32C267.64,372.57,264.41,372.88,263.3,371.31Z" style="fill:#263238"></path><path d="M276.58,363.19,265.21,363l-22.54-.31s2.68-29.54,1.42-34.18-25.16-12.67-28.86-17.69-4.33-21.38-4.33-21.38h25.71s1.58,3.72,1.92,4.68,30.84,14.4,35.83,22.65C279,324.55,276.58,363.19,276.58,363.19Z" style="fill:#455a64"></path><path d="M275.92,355.29c-2.12-.05-4.26,0-6.39-.05s-4.26,0-6.39,0c-4.26,0-8.51.08-12.77.14-2.4,0-4.81.05-7.21,0-.1,0-.09.15,0,.15,4.27.18,8.53.47,12.79.56s8.52,0,12.77-.19c2.4-.13,4.82-.24,7.21-.46A.06.06,0,0,0,275.92,355.29Z" style="fill:#263238"></path><path d="M267.21,399c-1.72.32-48.58-6.18-50.21-7.55-.62-.52-.07-7.4.82-15.7.2-1.79.41-3.64.63-5.51,1.45-12.19,3.26-25.08,3.26-25.08l31.37,4.25-4.13,25-.9,5.48s16.83,10.51,18.46,12.22S268.92,398.65,267.21,399Z" style="fill:#d3766a"></path><path d="M267.21,399c-1.72.32-48.58-6.18-50.21-7.55-.75-.64.21-10.66,1.45-21.21l30.5,4.13-.9,5.48s16.83,10.51,18.46,12.22S268.92,398.65,267.21,399Z" style="fill:#fff"></path><path d="M267.21,399c-1.72.32-48.58-6.18-50.21-7.55-.62-.52-.07-7.4.82-15.7l30.23,4.1s16.83,10.51,18.46,12.22S268.92,398.65,267.21,399Z" style="fill:#FFC727"></path><path d="M266.8,397c-7.83-1.28-39.53-5.71-47.37-6.38-.06,0-.07,0,0,.05,7.74,1.44,39.47,5.61,47.36,6.46C266.94,397.15,267,397,266.8,397Z" style="fill:#263238"></path><path d="M263.73,389.93a6.39,6.39,0,0,0-5,1.27,6.18,6.18,0,0,0-2.34,3.95c0,.05.09.06.1,0a7.35,7.35,0,0,1,7.19-5.13C263.78,390,263.79,389.94,263.73,389.93Z" style="fill:#263238"></path><path d="M251,381c-3.14-.48-6.94.12-9.25,2.42-.09.09,0,.22.14.18a43.88,43.88,0,0,1,9.11-2.21A.2.2,0,0,0,251,381Z" style="fill:#263238"></path><path d="M253.29,382.31c-3.14-.48-6.94.12-9.25,2.42-.09.09,0,.22.14.18a43.58,43.58,0,0,1,9.11-2.21A.2.2,0,0,0,253.29,382.31Z" style="fill:#263238"></path><path d="M255.58,383.59c-3.14-.48-6.94.13-9.25,2.43-.09.09,0,.21.14.18a44.55,44.55,0,0,1,9.11-2.22A.2.2,0,0,0,255.58,383.59Z" style="fill:#263238"></path><path d="M257.88,384.87c-3.14-.48-6.94.13-9.25,2.43-.09.09,0,.21.14.18a43.73,43.73,0,0,1,9.11-2.21A.2.2,0,0,0,257.88,384.87Z" style="fill:#263238"></path><path d="M222.47,383.43c-3.53-.48-4.28,5-.75,5.49S226,383.91,222.47,383.43Z" style="fill:#263238"></path><path d="M255.55,373.11c-1.41-1.54-3.59-.53-4.76.7a16.73,16.73,0,0,0-4,7.65.09.09,0,0,0,.09.1c0,.23.28.46.53.33,2.45-1.24,5.23-2.26,7.23-4.21C255.83,376.54,256.88,374.56,255.55,373.11Zm-4.78,6.14c-1.2.64-2.41,1.22-3.58,1.9a49.65,49.65,0,0,1,2.42-4.41,17.44,17.44,0,0,1,1.44-2c.83-.94,4.28-3.14,4.12.32C255.08,377,252.19,378.49,250.77,379.25Z" style="fill:#263238"></path><path d="M238.84,381.54c2.68.8,5.61.41,8.36.37a.38.38,0,0,0,.31-.54.09.09,0,0,0,0-.14,16.64,16.64,0,0,0-7.07-4.92c-1.61-.54-4-.42-4.54,1.59S237.28,381.07,238.84,381.54Zm-1.65-2.05c-1.75-3,2.32-2.65,3.5-2.2a17.6,17.6,0,0,1,2.18,1.07,46.94,46.94,0,0,1,4.2,2.78c-1.35-.06-2.7,0-4,0C241.41,381.11,238.16,381.14,237.19,379.49Z" style="fill:#263238"></path><path d="M197.29,289.48h39.32s-3.48,7.25-4.24,10.29c-.33,1.31-4.12,1.35-4.34,1.87,0,0,21.68,14.26,25.53,22.53s-1.79,47.47-1.79,47.47l-34.59-4s4.6-31.7,4-35.52c-.4-2.61-19.16-11-24.45-16.2S197.29,289.48,197.29,289.48Z" style="fill:#455a64"></path><path d="M254.18,325.12a13.82,13.82,0,0,0-2.2-4.43c-1-1.34-16.46-15.43-23.95-19-.12-.05-.22.1-.11.17,7,4.17,21.11,17,22.37,18.32a12.2,12.2,0,0,1,2.62,4.07c1.27,3.23,1.39,6.81,1.47,10.23.1,4.32-1.21,23.94-1.35,28.26,0,.11.16.13.17,0,.35-4,1.92-23.24,1.93-27.25C255.13,332,255.18,328.46,254.18,325.12Z" style="fill:#263238"></path><path d="M228.93,290.05c0,1.72,0,3.44-.07,5.16,0,.81-.05,1.63-.15,2.44a1.62,1.62,0,0,1-.37.94,1.84,1.84,0,0,1-1,.43,1.11,1.11,0,0,1-1.47-1,21.55,21.55,0,0,1,.06-2.41c0-.87,0-1.73,0-2.59,0-.37,0-.74-.07-1.1s-.14-.89-.16-1.34c0-.09-.15-.08-.15,0,0,.4-.1.79-.13,1.18s-.05.8-.07,1.2c0,.81-.05,1.61-.08,2.41s-.13,1.51-.13,2.27a2.26,2.26,0,0,0,.53,1.64,2.43,2.43,0,0,0,3.07-.16,2.15,2.15,0,0,0,.55-1.44c.06-.75,0-1.52,0-2.27,0-1.8,0-3.59-.07-5.38C229.2,289.88,228.93,289.89,228.93,290.05Z" style="fill:#263238"></path><path d="M227.26,299.19a3.76,3.76,0,0,0,.15.6l.15.61c0,.2.09.41.13.61s.09.4.14.6a.08.08,0,0,0,.15,0c0-.2,0-.41,0-.61s-.06-.43-.1-.64-.09-.4-.14-.61a3.05,3.05,0,0,0-.17-.61C227.48,299,227.24,299,227.26,299.19Z" style="fill:#263238"></path><path d="M250.16,364.57c-2-.24-3.92-.4-5.88-.62s-3.91-.41-5.87-.61c-3.91-.38-7.82-.68-11.74-1-2.21-.18-4.42-.38-6.63-.63-.09,0-.09.13,0,.14,3.91.54,7.79,1.19,11.71,1.65s7.82.79,11.74,1c2.22.1,4.45.21,6.67.22C250.22,364.67,250.22,364.57,250.16,364.57Z" style="fill:#263238"></path><path d="M223.87,358.65c.36-3.47.67-6.94.95-10.42s.56-7,.7-10.43c.07-1.74.11-3.48,0-5.2a8.14,8.14,0,0,0-.36-2.45,2.51,2.51,0,0,0-.79-.81c-.34-.26-.69-.5-1-.74-2.93-1.84-6-3.45-9.09-5.12s-6.12-3.37-9.1-5.2a45.35,45.35,0,0,1-4.35-3,8.13,8.13,0,0,1-1.87-2,7.38,7.38,0,0,1-.77-2.61,28.26,28.26,0,0,1-.08-5.28c.1-1.75.29-3.49.52-5.22.49-3.46,1.14-6.89,1.91-10.3-.65,3.43-1.17,6.88-1.54,10.34a44.5,44.5,0,0,0-.24,10.37,7,7,0,0,0,.74,2.37,7.55,7.55,0,0,0,1.74,1.79,45.48,45.48,0,0,0,4.29,2.91c3,1.8,6,3.46,9.1,5.12s6.14,3.31,9.11,5.21c.37.25.73.5,1.09.78a3.06,3.06,0,0,1,1,1.06,4.42,4.42,0,0,1,.31,1.37c0,.45.08.89.1,1.33.05,1.76,0,3.51-.12,5.26C225.67,344.81,224.82,351.74,223.87,358.65Z" style="fill:#263238"></path><path d="M225.47,251.86c5.19,5.91,25.45,21.82,31.89,19.48,6.07-2.21,11.58-11.93,18-22.43,2.34-3.84-14.94-14.79-17.16-11.39-3.81,5.82-6.79,13.77-7.82,14.47s-8-3.91-19.19-6.1C221.08,243.92,222.3,248.24,225.47,251.86Z" style="fill:#d3766a"></path><path d="M247.09,271.64l3.14-20.44s-12.5-5.15-21.14-6.89-11.32.51-2.76,10.18S247.09,271.64,247.09,271.64Z" style="fill:#FFC727"></path><path d="M222.37,244.42a1.31,1.31,0,0,0-.9.35,2,2,0,0,0-.35,1.5s0,0,0,0h0a1.35,1.35,0,1,0,1.24-1.89Zm0,2.29a.93.93,0,0,1-.93-.94.92.92,0,1,1,1.84,0A.93.93,0,0,1,222.37,246.71Zm13.07-.77a.92.92,0,0,1-1.82-.17,1,1,0,0,1,.06-.34l-.4-.11a1.13,1.13,0,0,0-.09.45,1.35,1.35,0,0,0,2.66.29Zm11.28,17a1.35,1.35,0,1,0,1.34,1.36A1.36,1.36,0,0,0,246.72,262.91Zm0,2.28a.92.92,0,1,1,0-1.84.92.92,0,0,1,0,1.84Zm-18.28-11.43a1.34,1.34,0,0,0-1.34,1.35,1.24,1.24,0,0,0,0,.27c.32.35.65.69,1,1h0a1.2,1.2,0,0,0,.33,0,1.35,1.35,0,1,0,0-2.7Zm0,2.28a.93.93,0,1,1,.93-.93A.92.92,0,0,1,228.44,256ZM242,254.9a1.29,1.29,0,0,0-.12-.38,1,1,0,0,0-.1-.17,1.63,1.63,0,0,0-.17-.2,1.35,1.35,0,0,0-.95-.39,1.33,1.33,0,0,0-1,.39,1.26,1.26,0,0,0-.29.43,1.32,1.32,0,0,0-.11.53,1.27,1.27,0,0,0,.11.52,1.09,1.09,0,0,0,.29.43,1.3,1.3,0,0,0,1,.4,1.31,1.31,0,0,0,.95-.4,1.63,1.63,0,0,0,.17-.2,1,1,0,0,0,.1-.17,1.23,1.23,0,0,0,.11-.34.09.09,0,0,0,0,0,1.21,1.21,0,0,0,0-.19C242,255,242,255,242,254.9Zm-.49.58a.84.84,0,0,1-.2.29.91.91,0,0,1-.65.27.93.93,0,0,1,0-1.85.91.91,0,0,1,.65.27.84.84,0,0,1,.2.29h0a1,1,0,0,1,.05.16.14.14,0,0,1,0,.09.07.07,0,0,1,0,.05v.05a.86.86,0,0,1-.07.36Zm.49-.58a1.29,1.29,0,0,0-.12-.38,1,1,0,0,0-.1-.17,1.63,1.63,0,0,0-.17-.2,1.35,1.35,0,0,0-.95-.39,1.33,1.33,0,0,0-1,.39,1.55,1.55,0,0,0-.29.43,1.51,1.51,0,0,0-.1.53,1.46,1.46,0,0,0,.1.52,1.42,1.42,0,0,0,.29.43,1.3,1.3,0,0,0,1,.4,1.31,1.31,0,0,0,.95-.4,1.63,1.63,0,0,0,.17-.2,1,1,0,0,0,.1-.17,1.23,1.23,0,0,0,.11-.34.09.09,0,0,0,0,0,1.23,1.23,0,0,0,0-.19A1.49,1.49,0,0,0,242,254.9Zm-.49.58a.84.84,0,0,1-.2.29.91.91,0,0,1-.65.27.93.93,0,0,1,0-1.85.91.91,0,0,1,.65.27.84.84,0,0,1,.2.29h0a1,1,0,0,1,.05.16.14.14,0,0,1,0,.09.07.07,0,0,1,0,.05v.05a.86.86,0,0,1-.07.36Zm.07-.42v.05a.86.86,0,0,1-.07.36.86.86,0,0,0,.08-.36A.11.11,0,0,0,241.54,255.06Z" style="opacity:0.1"></path><path d="M246,250.68c-.41,1.41-2.32,16-2.28,17.51a.07.07,0,0,0,.14,0c.42-1.43,2.27-16.06,2.22-17.53C246.1,250.64,246,250.64,246,250.68Z" style="fill:#263238"></path><path d="M249.22,257.71l-2.13,13.93s-12.2-7.49-20.76-17.15c-5.55-6.28-6.38-9.43-3.92-10.39Z" style="opacity:0.1"></path><path d="M195,295.42c0-.05,44.71-2.42,44.71-2.42.09-.19-4.15-38-9.15-47.35-1.7-3.17-7.23-5.27-12.25-1.14C204.65,255.73,195,295.47,195,295.42Z" style="fill:#FFC727"></path><path d="M222.37,244.42a1.35,1.35,0,1,0,1.34,1.35A1.36,1.36,0,0,0,222.37,244.42Zm0,2.29a.93.93,0,0,1-.93-.94.92.92,0,1,1,1.84,0A.93.93,0,0,1,222.37,246.71Zm-12.18,16.2a1.35,1.35,0,1,0,1.35,1.36A1.35,1.35,0,0,0,210.19,262.91Zm0,2.28a.92.92,0,1,1,.92-.92A.93.93,0,0,1,210.19,265.19Zm12.18-2.28a1.35,1.35,0,1,0,0,2.69,1.35,1.35,0,0,0,0-2.69Zm0,2.28a.92.92,0,1,1,.91-.92A.91.91,0,0,1,222.37,265.19Zm13-2a1.33,1.33,0,0,0-.85-.3,1.35,1.35,0,1,0,1.16,2C235.59,264.37,235.48,263.79,235.38,263.21Zm-.85,2a.92.92,0,0,1,0-1.84.92.92,0,1,1,0,1.84Zm-18.25-11.43a1.35,1.35,0,1,0,1.35,1.35A1.35,1.35,0,0,0,216.28,253.76Zm0,2.28a.93.93,0,1,1,.92-.93A.93.93,0,0,1,216.28,256Zm12.16-2.28a1.35,1.35,0,1,0,1.36,1.35A1.34,1.34,0,0,0,228.44,253.76Zm0,2.28a.93.93,0,1,1,.93-.93A.92.92,0,0,1,228.44,256Zm-29.51,25.73-.15.47a.89.89,0,0,1,.16.52.93.93,0,0,1-.6.86c0,.16-.09.31-.14.46a1.34,1.34,0,0,0,.73-2.31Zm11.26-.37a1.35,1.35,0,1,0,1.35,1.36A1.36,1.36,0,0,0,210.19,281.4Zm0,2.28a.93.93,0,0,1-.93-.92.93.93,0,0,1,1.85,0A.93.93,0,0,1,210.19,283.68Zm12.18-2.28a1.35,1.35,0,1,0,0,2.7,1.35,1.35,0,0,0,0-2.7Zm0,2.28a.92.92,0,0,1-.93-.92.92.92,0,1,1,1.84,0A.92.92,0,0,1,222.37,283.68Zm12.17-2.28a1.35,1.35,0,1,0,1.35,1.36A1.36,1.36,0,0,0,234.54,281.4Zm0,2.28a.92.92,0,0,1-.92-.92.93.93,0,0,1,1.85,0A.93.93,0,0,1,234.54,283.68Zm-30.45-11.43a1.35,1.35,0,1,0,1.36,1.36A1.35,1.35,0,0,0,204.09,272.25Zm0,2.28a.93.93,0,1,1,.93-.92A.93.93,0,0,1,204.09,274.53Zm12.19-2.28a1.35,1.35,0,1,0,1.35,1.36A1.36,1.36,0,0,0,216.28,272.25Zm0,2.28a.93.93,0,1,1,.92-.92A.94.94,0,0,1,216.28,274.53Zm12.16-2.28a1.35,1.35,0,1,0,1.36,1.36A1.34,1.34,0,0,0,228.44,272.25Zm0,2.28a.93.93,0,1,1,.93-.92A.93.93,0,0,1,228.44,274.53Zm-24.35,16.21a1.35,1.35,0,1,0,1.36,1.36A1.36,1.36,0,0,0,204.09,290.74Zm0,2.28a.93.93,0,1,1,.93-.92A.92.92,0,0,1,204.09,293Zm12.19-2.28a1.35,1.35,0,1,0,1.35,1.36A1.36,1.36,0,0,0,216.28,290.74Zm0,2.28a.93.93,0,1,1,.92-.92A.93.93,0,0,1,216.28,293Zm12.17-2.28a1.35,1.35,0,1,0,1.35,1.36A1.36,1.36,0,0,0,228.45,290.74Zm0,2.28a.93.93,0,1,1,.92-.92A.92.92,0,0,1,228.45,293Zm11.07-1.71a1.27,1.27,0,0,0-.26.79,1.31,1.31,0,0,0,.37.9h.05S239.64,292.37,239.52,291.31Z" style="opacity:0.1"></path><path d="M214.52,250.21c-5.71,13.17-11.19,44-6.75,48.37,8.2,8.13,38.24.88,44.25-.18,2.56-.46-5-22.84-7.78-22.41-2.4.38-17.25,6.4-18.56,4.79-.55-.66-.75-13.58-3.21-27.31C220.59,243,216.21,246.31,214.52,250.21Z" style="fill:#d3766a"></path><path d="M238.74,278.82a84.62,84.62,0,0,0,8.06-4.25A26.88,26.88,0,0,1,276,278.1c4.42,3.63,3.8,8.32-1.46,5.36-3.71-2.08-6.1-3.84-7.5-4.18,0,0,2.45,6,.43,9.21a69.94,69.94,0,0,1-5.89,7.95,14.18,14.18,0,0,1-1.58-1A8,8,0,0,1,252,298.4Z" style="fill:#d3766a"></path><path d="M251.62,272.8c2.73.57,8.49,1.89,12.83,4.6,4.81,3,13.28,10.12,11,13.65-1.66,2.59-5.13.16-5.13.16s2.88,3.68.87,5.69c-1.83,1.83-4.4-.21-4.4-.21s1.36,2.53-.74,4c-2.53,1.72-5-3.87-9-4.34C256.11,296.2,251.62,272.8,251.62,272.8Z" style="fill:#d3766a"></path><path d="M260.41,282a22.64,22.64,0,0,1,9.94,9.13c0,.11,0,.2-.07.12a56.14,56.14,0,0,0-9.9-9.21S260.39,282,260.41,282Z" style="fill:#263238"></path><path d="M257.51,286.91a25.4,25.4,0,0,1,9.37,9.71c.05.11,0,.2-.07.11a59.67,59.67,0,0,0-9.33-9.78S257.49,286.9,257.51,286.91Z" style="fill:#263238"></path><path d="M205.5,281l20.57-6.75s-1.06-13.48-3.41-22-5.58-9.86-10.33,2.15S205.5,281,205.5,281Z" style="fill:#FFC727"></path><path d="M216.28,272.25a1.35,1.35,0,1,0,1.35,1.36A1.36,1.36,0,0,0,216.28,272.25Zm0,2.28a.93.93,0,1,1,.92-.92A.94.94,0,0,1,216.28,274.53Zm0-20.77a1.35,1.35,0,1,0,1.35,1.35A1.35,1.35,0,0,0,216.28,253.76Zm0,2.28a.93.93,0,1,1,.92-.93A.93.93,0,0,1,216.28,256Zm6.09,6.87a1.35,1.35,0,1,0,0,2.69,1.35,1.35,0,0,0,0-2.69Zm0,2.28a.92.92,0,1,1,.91-.92A.91.91,0,0,1,222.37,265.19Zm-12.18-2.28a1.31,1.31,0,0,0-.8.27c-.16.53-.3,1.05-.45,1.58a1.35,1.35,0,0,0,2.6-.49A1.35,1.35,0,0,0,210.19,262.91Zm0,2.28a.92.92,0,1,1,.92-.92A.93.93,0,0,1,210.19,265.19Z" style="opacity:0.1"></path><path d="M224.67,270.61c-1.45.24-15.45,4.87-16.77,5.55-.06,0,0,.14,0,.12,1.47-.24,15.45-4.92,16.75-5.6A0,0,0,0,0,224.67,270.61Z" style="fill:#263238"></path><path d="M225.14,261.67c0,.63,0,1.26,0,1.9v.63c0-.25-.07-.5-.11-.74-.24-1.51-.56-3-.85-4.49a0,0,0,0,0-.07,0c.3,2.73.61,5.44.94,8.16l.51,4c.09.7.18,1.39.28,2.08,0,.25.22.74,0,.94a3.82,3.82,0,0,1-1,.47c-.06,0,0,.13,0,.11.35-.12.71-.19,1.06-.31a.58.58,0,0,0,.34-.25,1.3,1.3,0,0,0,0-.68c0-.38-.07-.76-.11-1.14-.15-1.48-.34-3-.55-4.44l-.39-2.79c0-.52.06-1,0-1.56s-.07-1.25-.14-1.87A0,0,0,1,0,225.14,261.67Z" style="fill:#263238"></path><path d="M206.93,280.5l-1.41.54-.11,0,0-.13c.18-1.65.45-3.29.72-4.92s.62-3.27,1-4.89.76-3.23,1.22-4.83.94-3.18,1.51-4.74l-1.16,4.83c-.36,1.62-.76,3.23-1.09,4.85-.71,3.23-1.38,6.48-2,9.73l-.09-.08Z" style="fill:#263238"></path><path d="M208.8,262.92a9.05,9.05,0,0,1,0,1.56,9.22,9.22,0,0,1-.22,1.54,9.68,9.68,0,0,1,.19-3.1Z" style="fill:#263238"></path><path d="M255.21,272a26.45,26.45,0,0,0-5.7,1.43,21.22,21.22,0,0,0-2.67,1.18,17.75,17.75,0,0,0-2.43,1.58l0,0-.06,0a29.25,29.25,0,0,1-3.15,1.08,21,21,0,0,1-3.28.67,23.84,23.84,0,0,1,3.07-1.35,32.36,32.36,0,0,1,3.19-.94l-.09,0a18.36,18.36,0,0,1,5.33-2.66A24.7,24.7,0,0,1,255.21,272Z" style="fill:#263238"></path><path d="M221.43,244.63c.22.85,4.49,6.29,8.4,6,1.27-.1,1-7.08,1-7.08l.1-.52,1.39-7.27-9.89-5.86S221.34,244.27,221.43,244.63Z" style="fill:#d3766a"></path><path d="M232.35,235.75,231,243l-.1.53s0,1.26,0,2.72c-5.37-.63-7.94-4.57-9.09-7.3.3-4.16.69-9.08.69-9.08Z" style="fill:#263238"></path><path d="M242.69,221c5.41,14.91-2.91,19.83-6.12,21-2.92,1.05-13,4.28-19.92-10s-1.7-21.5,4.85-24.27S237.28,206.07,242.69,221Z" style="fill:#d3766a"></path><path d="M240.26,221.31c-.37.06-.73.05-1.1.08a1.82,1.82,0,0,1-1.13-.14.56.56,0,0,1-.18-.66,1.39,1.39,0,0,1,1.23-.69,2,2,0,0,1,1.44.34A.6.6,0,0,1,240.26,221.31Z" style="fill:#263238"></path><path d="M230,224.76a8.82,8.82,0,0,0,1-.51,1.74,1.74,0,0,0,.89-.71.55.55,0,0,0-.19-.66,1.4,1.4,0,0,0-1.41.06,2,2,0,0,0-1,1.05A.6.6,0,0,0,230,224.76Z" style="fill:#263238"></path><path d="M234.69,235.06c.25.27.49.62.88.67a2.77,2.77,0,0,0,1.17-.22,0,0,0,0,1,0,.06,1.49,1.49,0,0,1-1.4.53,1.16,1.16,0,0,1-.8-1C234.57,235,234.66,235,234.69,235.06Z" style="fill:#263238"></path><path d="M238.34,230.36s.65,1.49.86,2.22c0,.07-.15.15-.4.24h0a3.63,3.63,0,0,1-3.74-.35.08.08,0,0,1,.08-.13,5.44,5.44,0,0,0,3.43,0c0-.21-1.2-2.54-1.08-2.56.51-.05,1.42-.08,1.76-.09-.4-1-1.67-3.7-2.4-5.48a.1.1,0,0,1,.18-.1,49.39,49.39,0,0,1,3.15,6C240.22,230.29,238.67,230.4,238.34,230.36Z" style="fill:#263238"></path><path d="M241.29,224.58a1.66,1.66,0,0,0-.54-.65,1.16,1.16,0,0,0-.91-.14,1,1,0,0,0-.68.64,1.84,1.84,0,0,0-.09.83,4.26,4.26,0,0,0,.1.49,2.3,2.3,0,0,0,.49.91,3.19,3.19,0,0,1-.16-.73,4,4,0,0,1,0-.69c0-.46.16-.89.51-1s.71.11,1,.5a8.3,8.3,0,0,1,.65,1.3A3.29,3.29,0,0,0,241.29,224.58Z" style="fill:#263238"></path><path d="M231.18,227.66a1.54,1.54,0,0,1,.13-.83,1.14,1.14,0,0,1,.71-.58,1,1,0,0,1,.91.19,2,2,0,0,1,.5.67,3,3,0,0,1,.16.48,2.25,2.25,0,0,1,0,1,3,3,0,0,0-.24-.72,4.3,4.3,0,0,0-.32-.6c-.25-.39-.6-.68-.93-.57s-.55.46-.58.93a7.3,7.3,0,0,0,.11,1.45A3.3,3.3,0,0,1,231.18,227.66Z" style="fill:#263238"></path><path d="M238.38,232.79a4,4,0,0,1-1.14,1.67,1.78,1.78,0,0,1-1,.4c-.81,0-1.05-.64-1.11-1.27a4.44,4.44,0,0,1,0-1A5.18,5.18,0,0,0,238.38,232.79Z" style="fill:#263238"></path><path d="M237.24,234.46a1.78,1.78,0,0,1-1,.4c-.81,0-1.05-.64-1.11-1.27A1.86,1.86,0,0,1,237.24,234.46Z" style="fill:#ff9cbd"></path><path d="M215.29,233.54c4.69-.47,6.17-6.41,4.33-10.67,0,0,12.6-.47,11.51-10.47a9.83,9.83,0,0,0,8.77,3.08l2,3.42c1.2-.59,1.94-4.41-1.64-6.7,0,0-1-4.9-5.19-7.24a6.85,6.85,0,0,0-7.43.22,10.35,10.35,0,0,0-7.74-.57,8.82,8.82,0,0,0-5.61,5.82s-5.91,2.21-6.21,6.72a9.14,9.14,0,0,0,2.44,7s-1.25,2,.16,5.53C211.59,232,213.88,233.68,215.29,233.54Z" style="fill:#263238"></path><path d="M230.7,211.57a11.87,11.87,0,0,1,.44,2.41,10.3,10.3,0,0,1,0,2.42,6.38,6.38,0,0,1-2.25,4,10.22,10.22,0,0,1-4.36,1.91c-.8.11-1.6.28-2.41.35s-1.64.09-2.46.17c.82.06,1.64.08,2.47.12s1.65-.14,2.49-.2a10,10,0,0,0,4.63-1.91,6.62,6.62,0,0,0,2.33-4.43A10,10,0,0,0,230.7,211.57Z" style="fill:#263238"></path><path d="M214.29,210.43a11.58,11.58,0,0,0-4.38,1.76A7,7,0,0,0,207,216a7.65,7.65,0,0,0-.19,2.42,7.29,7.29,0,0,0,.52,2.35,6.51,6.51,0,0,0,3.18,3.45,7.14,7.14,0,0,1-2.76-3.6,7.89,7.89,0,0,1-.19-4.46,5.83,5.83,0,0,1,1-2,9,9,0,0,1,1.62-1.59A14.89,14.89,0,0,1,214.29,210.43Z" style="fill:#263238"></path><path d="M227.64,205.18a12,12,0,0,1,3.5-1.32,6.68,6.68,0,0,1,6.61,2.22,12.51,12.51,0,0,1,2,3.13,9.39,9.39,0,0,0-1.7-3.42,6.92,6.92,0,0,0-3.15-2.3,6.78,6.78,0,0,0-3.89-.06A8.93,8.93,0,0,0,227.64,205.18Z" style="fill:#263238"></path><path d="M238,216.21a13.12,13.12,0,0,1-4.08-1.38,7.73,7.73,0,0,1-1.7-1.26,9.82,9.82,0,0,1-1.35-1.69,5.39,5.39,0,0,0,1,2,5.89,5.89,0,0,0,1.75,1.47,7.17,7.17,0,0,0,2.13.77A6.44,6.44,0,0,0,238,216.21Z" style="fill:#263238"></path><path d="M220,232.34s-4.62-3.89-6.47-2.12,2.52,8,5.32,8.3a2.68,2.68,0,0,0,3.1-2.32Z" style="fill:#d3766a"></path><path d="M214.8,232s0,.06,0,.07c2,.24,3.36,1.65,4.48,3.19a1.47,1.47,0,0,0-2.24.18.05.05,0,0,0,.07.08,1.66,1.66,0,0,1,1.9.09,8.07,8.07,0,0,1,1.22,1.19c.13.14.39,0,.28-.19l0,0C219.93,234.27,217.31,231.56,214.8,232Z" style="fill:#263238"></path><path d="M280.4,235.59c-.39,4.75-5,14.16-7,16s-18.24-5.46-18.89-8.16,1.92-18.6,5.26-22.14S280.81,230.67,280.4,235.59Z" style="fill:#d3766a"></path><path d="M254.49,240.65a39.25,39.25,0,0,0-5-10.39c-2.69-3.72-7.11-8.95-5.16-10.47,4-3.13,15,9.91,15,9.91s3.93,6.54.24,10A5,5,0,0,1,254.49,240.65Z" style="fill:#d3766a"></path><polygon points="262.58 247.92 270.78 238.8 258.53 227.05 245.05 233.14 262.58 247.92" style="fill:#FFC727"></polygon><polygon points="262.77 249.84 272.71 238.78 252.64 219.53 241.5 231.92 262.77 249.84" style="fill:#ebebeb;opacity:0.5"></polygon><path d="M255.74,227.77c1.12,2.26,3.15-.36,3.15-.36s-2,4.47.06,6.36,4.32-1.44,4.49-1.67c-.1.23-1.84,4.39.43,6.07s4.14-1.92,4.25-2.16c0,.26-.33,3.64,1.68,4.52,3.46,1.52,4.49-7.1,7-8.89,0,0,3.51,3.86,3.63,4s1.15-8.18-1.45-11.39a2.63,2.63,0,0,0-3.22-.75s.66-2.6-1.08-4c-.9-.71-2.83.1-2.83.1a3.29,3.29,0,0,0-1.18-3.23,3.18,3.18,0,0,0-3,0s-.51-2.21-2.13-2.71C262.2,212.67,253.33,222.92,255.74,227.77Z" style="fill:#d3766a"></path><path d="M267.32,216.49a0,0,0,0,0-.05-.05,23.49,23.49,0,0,0-8.51,11.1c-.05.14.17.28.25.13A48.09,48.09,0,0,1,267.32,216.49Z" style="fill:#263238"></path><path d="M271.85,219.5s0-.1-.07-.06a22,22,0,0,0-8.53,12.68c0,.18.11.38.17.18C264.42,228.87,268.71,222.56,271.85,219.5Z" style="fill:#263238"></path><path d="M268.17,236.41c1.26-5,4-9.07,7.39-12.86.05-.05,0-.11-.07-.07-2.18,1.39-4.09,4-5.41,6.22a13.45,13.45,0,0,0-2.08,6.66C268,236.46,268.14,236.51,268.17,236.41Z" style="fill:#263238"></path><path d="M258.8,227.43c-.05.18.26.07.21.24-.22.74-1.17,5.26.27,6.06,1.15.64,2.81-.47,3.28-1.14l1.19-1.7-.52,2a8.38,8.38,0,0,0-.28,2.73,3,3,0,0,0,1,2.25,1.73,1.73,0,0,0,2.18.07,5.12,5.12,0,0,0,1.58-2.09l1-2.23-.23,2.43a8.12,8.12,0,0,0,.06,2,3.34,3.34,0,0,0,.76,1.74,1.57,1.57,0,0,0,1.59.43,3.48,3.48,0,0,0,1.45-1.27,27.38,27.38,0,0,0,2.06-3.73c.32-.64.64-1.29,1-1.92a5.13,5.13,0,0,1,1.33-1.7,5.38,5.38,0,0,0-1.15,1.79c-.3.65-.57,1.31-.84,2a23.58,23.58,0,0,1-1.9,3.92,4.08,4.08,0,0,1-1.7,1.58,2.22,2.22,0,0,1-2.36-.55,4,4,0,0,1-1-2.13,8.56,8.56,0,0,1-.11-2.26l.79.2a5.91,5.91,0,0,1-1.85,2.49,2.48,2.48,0,0,1-1.62.5,2.84,2.84,0,0,1-1.56-.62,3.83,3.83,0,0,1-1.3-2.85,9.24,9.24,0,0,1,.35-3l.66.31c-.63.84-2.35,2.28-4.27,1.52C256.57,233.13,258.4,228.29,258.8,227.43Z" style="fill:#263238"></path><path d="M258.89,227.41a5.4,5.4,0,0,1-1.31.83,1.18,1.18,0,0,1-1.19-.11,2.42,2.42,0,0,1-.67-1.18c-.14-.49-.26-1-.37-1.55a4,4,0,0,0-.17,1.66,2.35,2.35,0,0,0,.78,1.63,1.67,1.67,0,0,0,1,.32,1.78,1.78,0,0,0,.92-.28A2.77,2.77,0,0,0,258.89,227.41Z" style="fill:#263238"></path></g><g id="freepik--character-3--inject-134"><polygon points="348.95 322.3 346.28 338.28 328.23 435.75 325.32 435.75 338.45 338.28 340.39 322.3 348.95 322.3" style="fill:#dbdbdb"></polygon><polygon points="340.39 322.3 348.95 322.3 346.28 338.28 338.45 338.28 340.39 322.3" style="fill:#a6a6a6"></polygon><polygon points="405.62 435.75 402.71 435.75 384.67 338.28 382 322.3 390.56 322.3 392.5 338.28 405.62 435.75" style="fill:#dbdbdb"></polygon><polygon points="390.56 322.3 392.5 338.28 384.67 338.28 382 322.3 390.56 322.3" style="fill:#a6a6a6"></polygon><polygon points="459.76 435.75 456.85 435.75 438.8 338.28 436.14 322.3 444.69 322.3 446.63 338.28 459.76 435.75" style="fill:#dbdbdb"></polygon><polygon points="446.63 338.28 438.8 338.28 436.14 322.3 444.69 322.3 446.63 338.28" style="fill:#a6a6a6"></polygon><polygon points="455.14 329.81 322.89 329.81 322.89 315.87 372.4 315.87 389.04 219.07 450.1 219.07 455.14 329.81" style="fill:#dbdbdb"></polygon><polygon points="455.14 329.81 447.94 329.81 443.24 219.07 450.1 219.07 455.14 329.81" style="fill:#c7c7c7"></polygon><rect x="334.56" y="386.28" width="115.76" height="2.97" transform="translate(784.88 775.53) rotate(180)" style="fill:#dbdbdb"></rect><path d="M404.36,210.1c.13-2.36.19-4.74.13-7.12a63.69,63.69,0,0,0-.21-10.24c-.61-5.6-1.72-12.35-7.38-15.4a21.91,21.91,0,0,0-8.54-2.21c-3.06-.26-6.31-.21-9,1.31a7.64,7.64,0,0,0-2.62,2.43,19,19,0,0,0-5.58,2.89c-2.13,1.13-3.4,3.51-4.18,5.63a29.88,29.88,0,0,0-1.5,8,18.29,18.29,0,0,0,.6,7.43,39.07,39.07,0,0,0,2.95,6.07,22.85,22.85,0,0,1,2.91,7.55c0,.09.16.09.15,0-.48-4.33-3.26-8-4.93-11.95a16.46,16.46,0,0,1-1.34-7.05,39.16,39.16,0,0,1,1-8.21,13.14,13.14,0,0,1,3.39-6.55l-.09.1c-2,2.24-2.71,5.28-3.11,8.16a32.19,32.19,0,0,0-.06,9.75,31.48,31.48,0,0,0,3,8.42,33.48,33.48,0,0,1,3.23,8.39,24.34,24.34,0,0,1-.57,9.27,35.55,35.55,0,0,0-1.09,8.95,13,13,0,0,0,3,7.56c3.32,4,10.08,6.91,14.72,3.42a16.56,16.56,0,0,0,3-3.11,40.15,40.15,0,0,0,2.62-3.76,49.16,49.16,0,0,0,4.21-8.74,91.2,91.2,0,0,0,4.43-18.68c.23-1.56.43-3.12.6-4.7a90.44,90.44,0,0,1-1.05,10.63c-1,6.34-2.55,12.79-5.5,18.55a40.87,40.87,0,0,1-2.56,4.32c-1,1.51-2.21,2.9-3.35,4.34a.09.09,0,0,0,.13.11,32.13,32.13,0,0,0,5.52-7.46,43.58,43.58,0,0,0,3.69-8.81A83.75,83.75,0,0,0,404.36,210.1Z" style="fill:#263238"></path><path d="M391.8,227.82c-4.31,20.64-11.56,38.88-16.29,41.55-6.11,3.46-48.5-.52-49.84-.42-3.33.23,5.57-23.08,7.91-25.77.54-.62,29.66,4.3,30.87,3.14s8.25-11.44,15.79-23.07C385.69,214.85,395,212.75,391.8,227.82Z" style="fill:#ad6359"></path><path d="M326.72,269c-3.08.08-17.26-.79-21.15-1.92s-14.85-5.17-14.3-8.24,3.87-2.13,3.87-2.13-4.36-2.45-3.52-5.48,5.94-1.43,5.94-1.43-4.29-2.83-3.24-5.8,5.91-.49,5.91-.49-4.05-2.4-2.14-4.48c2.28-2.5,9.24,2.78,13.63,3.7,1,.21,20.5,2.79,20.5,2.79Z" style="fill:#ad6359"></path><path d="M299.81,243.26c5.13,3.87,8,4.68,14.34,5.21.12,0,.14.2,0,.2-6.22,0-10-.45-14.55-5.17C299.39,243.27,299.57,243.07,299.81,243.26Z" style="fill:#263238"></path><path d="M297.16,249.44c5.67,3.56,8.82,4.46,15.38,5.5.1,0,.08.18,0,.17-6.52-.48-10.3-1.06-15.51-5.36C296.79,249.56,296.9,249.28,297.16,249.44Z" style="fill:#263238"></path><path d="M295.47,256.7c5.75,3.05,9.16,4.19,15.66,4.38a.12.12,0,0,1,0,.24c-6.64.45-10.91-.95-15.73-4.44C295.07,256.64,295.11,256.51,295.47,256.7Z" style="fill:#263238"></path><path d="M337,243.6s-6.54-6-9.75-7.68-17.45-3.6-18-.54c-.76,3.94,7.25,6.66,11.35,7.49,0,0-1.76,9.12,3.56,12.32S337,243.6,337,243.6Z" style="fill:#ad6359"></path><path d="M309.35,236.53c1.9,4.09,7.35,4.83,11.27,5.92a.37.37,0,0,1,.22.57c-.48,3.87,0,9.47,3,12.23a.1.1,0,0,1-.12.15c-3.68-2.51-4.57-8-3.77-12.19-4-1.06-9.46-2-10.67-6.67C309.3,236.52,309.34,236.5,309.35,236.53Z" style="fill:#263238"></path><path d="M381.38,271.06s36.63,2.15,54.26,2.05c0,0-21.43-43.42-35-55.13-6.19-5.33-11.51-3.84-15.69.47-1.05,1.08-11.92,20.23-11.94,26.67,0,7,5.87,11.75,5.87,11.75Z" style="fill:#FFC727"></path><path d="M383.7,255.09a42.35,42.35,0,0,1,6.13.81c1,.22,2,.49,3,.78.49.15,1,.27,1.47.4a6.59,6.59,0,0,0,1.58.25,0,0,0,1,1,0,.07,10.87,10.87,0,0,1-1.51,0,10.18,10.18,0,0,1-1.45-.23c-1-.21-2-.48-3-.7-2.05-.46-4.1-.92-6.17-1.23C383.58,255.25,383.6,255.08,383.7,255.09Z" style="fill:#263238"></path><path d="M380.07,256.84a28.61,28.61,0,0,1,4-.37,17.08,17.08,0,0,1,2,.1c.32,0,.64.06,1,.11s.7.15,1.05.19c0,0,0,.07,0,.07-.33,0-.67,0-1,0h-3c-1.35,0-2.69,0-4,0C380,257,380,256.85,380.07,256.84Z" style="fill:#263238"></path><path d="M386.46,222.64c-.56,3.1-1.09,6.2-1.62,9.3s-1,6.2-1.31,9.31a32.91,32.91,0,0,0-.22,4.63,14.37,14.37,0,0,0,1,4.42,24.83,24.83,0,0,0,5,7.72l.1.11,0,.13c.31,2.23.53,4.47.8,6.71s.48,4.48.67,6.72q-.66-3.31-1.23-6.64c-.36-2.22-.78-4.44-1.1-6.66l.12.24a25.84,25.84,0,0,1-5.3-8,14.26,14.26,0,0,1-1.06-4.74,34.38,34.38,0,0,1,.29-4.78c.36-3.14,1-6.24,1.61-9.33S385.63,225.68,386.46,222.64Z" style="fill:#263238"></path><path d="M381.11,233.67a.83.83,0,0,0,.82.8.76.76,0,0,0,.69-.86.82.82,0,0,0-.82-.79A.75.75,0,0,0,381.11,233.67Z" style="fill:#263238"></path><path d="M380,243.42a.83.83,0,0,0,.82.8.77.77,0,0,0,.69-.86.85.85,0,0,0-.82-.8A.76.76,0,0,0,380,243.42Z" style="fill:#263238"></path><path d="M381.7,252.66a.83.83,0,0,0,.82.8.77.77,0,0,0,.69-.86.84.84,0,0,0-.82-.8A.76.76,0,0,0,381.7,252.66Z" style="fill:#263238"></path><path d="M386,259.63a.84.84,0,0,0,.82.79.76.76,0,0,0,.69-.86.82.82,0,0,0-.82-.79A.77.77,0,0,0,386,259.63Z" style="fill:#263238"></path><path d="M387,268.12a.85.85,0,0,0,.82.8.76.76,0,0,0,.69-.86.83.83,0,0,0-.82-.8A.78.78,0,0,0,387,268.12Z" style="fill:#263238"></path><path d="M394.28,216.85c0,1.08-3.48,8.79-8.21,9.58-1.54.25-3.31-8.1-3.31-8.1l-.27-.58-3.8-8.22,8.74-8.69,1.28-1.18s.89,2.31,2,5.21l.15.41c.07.16.13.32.18.47.17.43.34.87.5,1.31s.24.67.36,1,.23.71.36,1.06A58.34,58.34,0,0,1,394.28,216.85Z" style="fill:#ad6359"></path><path d="M390.68,204.87a18.2,18.2,0,0,1-8.19,12.88l-3.8-8.22,8.74-8.69,1.28-1.18S389.6,202,390.68,204.87Z" style="fill:#263238"></path><path d="M364.91,195c-2.54,15.68,6.56,19,9.94,19.52,3.07.49,13.58,1.78,17.73-13.54s-2.33-21.47-9.29-23S367.46,179.33,364.91,195Z" style="fill:#ad6359"></path><path d="M367.28,192.22a10,10,0,0,0,1.1-.08,1.77,1.77,0,0,0,1.1-.29.56.56,0,0,0,.09-.68,1.39,1.39,0,0,0-1.32-.52,2.07,2.07,0,0,0-1.38.55A.6.6,0,0,0,367.28,192.22Z" style="fill:#263238"></path><path d="M378,194.85a9.74,9.74,0,0,1-1-.37,1.73,1.73,0,0,1-1-.58.56.56,0,0,1,.09-.68,1.41,1.41,0,0,1,1.42-.13,2.07,2.07,0,0,1,1.18.89A.6.6,0,0,1,378,194.85Z" style="fill:#263238"></path><path d="M375.32,197.64s.08.06.07.11c-.21,1.06-.27,2.31.64,2.82,0,0,0,.07,0,.06C374.86,200.27,375,198.61,375.32,197.64Z" style="fill:#263238"></path><path d="M376.46,196.68c1.73.15,1.3,3.62-.31,3.48S375,196.55,376.46,196.68Z" style="fill:#263238"></path><path d="M377.11,197c.28.23.53.61.9.7s.78-.23,1.09-.55c0,0,.06,0,.06.05-.07.66-.41,1.31-1.14,1.32s-1-.63-1.13-1.32C376.87,197,377,196.85,377.11,197Z" style="fill:#263238"></path><path d="M369.38,196.67s-.09.05-.09.09c-.09,1.08-.38,2.3-1.39,2.54,0,0,0,.06,0,.06C369.11,199.33,369.47,197.71,369.38,196.67Z" style="fill:#263238"></path><path d="M368.55,195.44c-1.71-.33-2.25,3.12-.66,3.43S370,195.72,368.55,195.44Z" style="fill:#263238"></path><path d="M367.8,195.56c-.3.14-.62.43-.95.4s-.6-.45-.79-.85c0,0-.05,0-.06,0-.12.66,0,1.38.61,1.6s1.07-.29,1.33-.92C368,195.7,367.92,195.5,367.8,195.56Z" style="fill:#263238"></path><path d="M374.35,206.46c-.27.24-.56.56-1,.57a2.89,2.89,0,0,1-1.14-.37,0,0,0,0,0-.05.06,1.46,1.46,0,0,0,1.32.69,1.14,1.14,0,0,0,.92-.89C374.47,206.46,374.39,206.43,374.35,206.46Z" style="fill:#263238"></path><path d="M370.4,202s-.44,1.57-.54,2.33c0,.07.17.13.42.18h0a3.62,3.62,0,0,0,3.67-.87c.06-.06,0-.15-.1-.12a5.42,5.42,0,0,1-3.4.5c0-.22.84-2.67.72-2.69a7,7,0,0,0-1.77.15c.82-3.29,2.16-6.43,2.92-9.73a.1.1,0,0,0-.19-.07A55.32,55.32,0,0,0,368.57,202C368.45,202.43,370.08,202.07,370.4,202Z" style="fill:#263238"></path><path d="M370.5,204.38A4.22,4.22,0,0,0,372,206a2,2,0,0,0,1.13.25c.86-.08,1-.83,1-1.51a4.77,4.77,0,0,0-.21-1.05A5.51,5.51,0,0,1,370.5,204.38Z" style="fill:#263238"></path><path d="M372,206a2,2,0,0,0,1.13.25c.86-.08,1-.83,1-1.51A2,2,0,0,0,372,206Z" style="fill:#ff9cbd"></path><path d="M391.6,203.78a6.62,6.62,0,0,1-2.85-5.89,17.27,17.27,0,0,1-6.09-6.68c0,.35.46,2.83.7,4.08-9.78-3.43-11.71-11.62-11.71-11.62a17.54,17.54,0,0,0-5.37,5.71s.87-6.19,4.69-9.84a10.09,10.09,0,0,1,9.82-2.69A14.42,14.42,0,0,1,394,183.27C399.48,191.41,391.6,203.78,391.6,203.78Z" style="fill:#263238"></path><path d="M376,192.45a18.93,18.93,0,0,0,4.88,2.69s0,0,0,0a15.93,15.93,0,0,1-6.71-5.61,15.27,15.27,0,0,1-1.71-3.37,10.46,10.46,0,0,1-.74-4,.08.08,0,0,0-.16,0,12.21,12.21,0,0,0,.19,4.09,11.08,11.08,0,0,0,1.72,3.68,12.94,12.94,0,0,0,2.52,2.6Z" style="fill:#263238"></path><path d="M391.67,206.76a3,3,0,0,1-.74.13,2.6,2.6,0,0,1-.75,0,2.12,2.12,0,0,1-.89-.37,2.33,2.33,0,0,1-.57-.5,3.24,3.24,0,0,1-.53-.94l1.19-4.16s3.83-4.69,6-3.29S394.38,206,391.67,206.76Z" style="fill:#ad6359"></path><path d="M394.41,199.58a0,0,0,0,1,0,.07c-1.9.61-3,2.25-3.81,4a1.47,1.47,0,0,1,2.24-.23s0,.1-.06.09a1.65,1.65,0,0,0-1.86.44,7.94,7.94,0,0,0-1,1.4c-.1.16-.39.05-.32-.14l0,0C389.79,202.78,391.87,199.63,394.41,199.58Z" style="fill:#263238"></path><path d="M391.5,206.08a.73.73,0,1,1-.51-.91A.74.74,0,0,1,391.5,206.08Z" style="fill:#fff"></path><path d="M393.09,205.08a.51.51,0,0,1-.64.36.52.52,0,1,1,.28-1A.51.51,0,0,1,393.09,205.08Z" style="fill:#fff"></path><path d="M382.58,218l3.33,6.85,8.13-9.54,2.69,2.68s-7.57,14.79-7.67,14.15l-3.34-5.87-3.89,4.53-.42-10.65Z" style="fill:#FFC727"></path><path d="M381.32,225.56c0-1.76-.06-3.53,0-5.29,0-.06.1-.1.12,0,.47,1.67.47,8.4.59,10l0,0c.16-.19,3.62-4,3.66-3.94.7.92,3.15,5.2,3.32,5.59,1.2-2.35,6.32-11.64,7.78-13.88a.06.06,0,0,1,.11.06c-1,2.46-7.64,14.7-7.74,14.68a69.22,69.22,0,0,1-3.5-6.21c-.57.81-4,5.07-4.07,4.81A55.61,55.61,0,0,1,381.32,225.56Z" style="fill:#263238"></path><path d="M307.09,232.35c-3,.35-1.95-3.47-4.66-3.9s-3.71,2.55-5.36,2-.27-3.47-3.6-3.7S289.1,231.09,287,232s-6.32-1.13-7.06,2.52,6.63,5.32,11.83,8.22,10.73,7.17,15.58,7.16c5.19,0,7.65-3.25,11.64-3.54s12.94,2.7,17-.53,10.51-5.65,10.84-9.4-4.72-2.41-6.3-2.69-1.17-4.42-4.17-5.18-3.88,1.08-6.54,1.11-3.48-5.19-7.25-4.5-2.93,2.86-4.6,3.68-4.65-1.45-6.88-.63S309.74,232,307.09,232.35Z" style="fill:#455a64"></path><path d="M318.94,235.53c3.05.34,2-3.48,4.77-3.91s3.82,2.52,5.52,2,.26-3.46,3.68-3.71,4.52,4.3,6.66,5.22,6.49-1.15,7.27,2.49-6.79,5.36-12.11,8.28-11,7.22-16,7.24c-5.34,0-7.88-3.21-12-3.48s-13.3,2.77-17.51-.45-10.84-5.6-11.19-9.35,4.84-2.43,6.46-2.71,1.18-4.43,4.26-5.21,4,1.06,6.73,1.08,3.55-5.2,7.43-4.53,3,2.84,4.74,3.65,4.78-1.47,7.07-.66S316.22,235.23,318.94,235.53Z" style="fill:#37474f"></path><path d="M285.2,234.06a5.73,5.73,0,0,0-1.91,7.35c1.41,3.1,5.44,2.94,7.44,1.75s3.81-4.35,2.35-7.23C291.81,233.44,288.8,232,285.2,234.06Z" style="fill:#FFC727"></path><path d="M285.2,234.06a5.73,5.73,0,0,0-1.91,7.35c1.41,3.1,5.44,2.94,7.44,1.75s3.81-4.35,2.35-7.23C291.81,233.44,288.8,232,285.2,234.06Z" style="opacity:0.1"></path><path d="M285.74,234.88a4.68,4.68,0,0,0-1.56,6c1.16,2.53,4.45,2.4,6.08,1.43a4.69,4.69,0,0,0,1.91-5.91C291.14,234.37,288.68,233.15,285.74,234.88Z" style="fill:#FFC727"></path><path d="M289,236.44c.14.12.67-.28.4-.5S288.84,236.28,289,236.44Z" style="fill:#fff"></path><path d="M290,239.3c-.08.16.43.57.58.26S290.15,239.09,290,239.3Z" style="fill:#fff"></path><path d="M291.3,238.28c0,.18.68.25.63-.09S291.27,238.05,291.3,238.28Z" style="fill:#fff"></path><path d="M289.06,235.21c.18,0,.25-.68-.09-.63S288.83,235.23,289.06,235.21Z" style="fill:#fff"></path><path d="M285.75,237.33c.05-.17-.52-.5-.62-.17S285.67,237.55,285.75,237.33Z" style="fill:#fff"></path><path d="M286.94,241.1c-.14-.11-.65.31-.38.51S287.12,241.25,286.94,241.1Z" style="fill:#fff"></path><path d="M288.12,241c-.18,0-.45.56-.11.62S288.35,241,288.12,241Z" style="fill:#fff"></path><path d="M287.05,238.26c.14-.12-.2-.69-.44-.45S286.88,238.42,287.05,238.26Z" style="fill:#fff"></path><path d="M283.45,238.51s3.26-.17,3.65.51-2.09,3.42-2.45,3.15S283,239.58,283.45,238.51Z" style="fill:#FFC727"></path><path d="M283.45,238.51s3.26-.17,3.65.51-2.09,3.42-2.45,3.15S283,239.58,283.45,238.51Z" style="opacity:0.1"></path><path d="M288.73,243.13s-.77-3.17-.17-3.68,3.74,1.42,3.54,1.83S289.86,243.34,288.73,243.13Z" style="fill:#FFC727"></path><path d="M288.73,243.13s-.77-3.17-.17-3.68,3.74,1.42,3.54,1.83S289.86,243.34,288.73,243.13Z" style="opacity:0.1"></path><path d="M293.19,237.64s-3.21.58-3.68,0,1.63-3.66,2-3.43S293.46,236.53,293.19,237.64Z" style="fill:#FFC727"></path><path d="M293.19,237.64s-3.21.58-3.68,0,1.63-3.66,2-3.43S293.46,236.53,293.19,237.64Z" style="opacity:0.1"></path><path d="M288.06,233.54s.58,3.21-.05,3.67-3.66-1.63-3.43-2S286.94,233.26,288.06,233.54Z" style="fill:#FFC727"></path><path d="M288.06,233.54s.58,3.21-.05,3.67-3.66-1.63-3.43-2S286.94,233.26,288.06,233.54Z" style="opacity:0.1"></path><path d="M304.65,228.58a5.74,5.74,0,0,0-6.64,3.69c-1.26,3.16,1.64,6,3.88,6.59s5.77-.25,6.84-3.3C309.66,232.93,308.66,229.72,304.65,228.58Z" style="fill:#FFC727"></path><path d="M304.65,228.58a5.74,5.74,0,0,0-6.64,3.69c-1.26,3.16,1.64,6,3.88,6.59s5.77-.25,6.84-3.3C309.66,232.93,308.66,229.72,304.65,228.58Z" style="opacity:0.1"></path><path d="M304.43,229.53a4.69,4.69,0,0,0-5.42,3c-1,2.58,1.34,4.87,3.17,5.38s4.71-.21,5.59-2.69C308.53,233.08,307.71,230.46,304.43,229.53Z" style="fill:#FFC727"></path><path d="M305.57,233c0,.18.66.29.63,0S305.56,232.74,305.57,233Z" style="fill:#fff"></path><path d="M304.21,235.69c-.18.05-.12.72.2.6S304.43,235.63,304.21,235.69Z" style="fill:#fff"></path><path d="M305.81,235.9c-.12.14.29.66.5.39S306,235.72,305.81,235.9Z" style="fill:#fff"></path><path d="M306.48,232.16c.14.12.67-.28.4-.5S306.31,232,306.48,232.16Z" style="fill:#fff"></path><path d="M302.66,231.23c.17-.08,0-.72-.3-.56S302.45,231.33,302.66,231.23Z" style="fill:#fff"></path><path d="M300.76,234.7c0-.18-.67-.27-.63.08S300.78,234.93,300.76,234.7Z" style="fill:#fff"></path><path d="M301.68,235.44c-.09-.15-.72.06-.53.35S301.81,235.64,301.68,235.44Z" style="fill:#fff"></path><path d="M302.89,232.82c.18,0,.36-.63,0-.64S302.66,232.8,302.89,232.82Z" style="fill:#fff"></path><path d="M300.23,230.38s2.37,2.24,2.14,3-3.91.86-4,.4S299.17,230.82,300.23,230.38Z" style="fill:#FFC727"></path><path d="M300.23,230.38s2.37,2.24,2.14,3-3.91.86-4,.4S299.17,230.82,300.23,230.38Z" style="opacity:0.1"></path><path d="M300.53,237.39s1.76-2.75,2.54-2.66,1.56,3.68,1.13,3.82S301.16,238.35,300.53,237.39Z" style="fill:#FFC727"></path><path d="M300.53,237.39s1.76-2.75,2.54-2.66,1.56,3.68,1.13,3.82S301.16,238.35,300.53,237.39Z" style="opacity:0.1"></path><path d="M307.57,236.83s-2.63-1.93-2.5-2.7,3.77-1.34,3.88-.9S308.57,236.26,307.57,236.83Z" style="fill:#FFC727"></path><path d="M307.57,236.83s-2.63-1.93-2.5-2.7,3.77-1.34,3.88-.9S308.57,236.26,307.57,236.83Z" style="opacity:0.1"></path><path d="M307,230.28s-1.92,2.63-2.69,2.51-1.34-3.78-.9-3.89S306.43,229.28,307,230.28Z" style="fill:#FFC727"></path><path d="M307,230.28s-1.92,2.63-2.69,2.51-1.34-3.78-.9-3.89S306.43,229.28,307,230.28Z" style="opacity:0.1"></path><path d="M311.45,244.4a5.73,5.73,0,0,0,7.59.14c2.68-2.09,1.59-6,0-7.64s-5.12-2.68-7.57-.59C309.3,238.12,308.55,241.4,311.45,244.4Z" style="fill:#FFC727"></path><path d="M311.45,244.4a5.73,5.73,0,0,0,7.59.14c2.68-2.09,1.59-6,0-7.64s-5.12-2.68-7.57-.59C309.3,238.12,308.55,241.4,311.45,244.4Z" style="opacity:0.1"></path><path d="M312.11,243.69a4.68,4.68,0,0,0,6.2.11c2.2-1.71,1.3-4.88,0-6.24a4.69,4.69,0,0,0-6.19-.48C310.35,238.56,309.75,241.24,312.11,243.69Z" style="fill:#FFC727"></path><path d="M312.86,240.14c.09-.16-.42-.59-.57-.28S312.75,240.34,312.86,240.14Z" style="fill:#fff"></path><path d="M315.4,238.47c.18.05.47-.55.13-.62S315.18,238.42,315.4,238.47Z" style="fill:#fff"></path><path d="M314.13,237.49c.17-.06.08-.72-.24-.59S313.91,237.57,314.13,237.49Z" style="fill:#fff"></path><path d="M311.66,240.38c-.06-.17-.72-.08-.59.24S311.74,240.61,311.66,240.38Z" style="fill:#fff"></path><path d="M314.5,243.11c-.18,0-.37.62,0,.64S314.73,243.13,314.5,243.11Z" style="fill:#fff"></path><path d="M317.89,241.07c-.08.16.44.56.58.25S318,240.85,317.89,241.07Z" style="fill:#fff"></path><path d="M317.46,240c0,.18.65.31.64,0S317.46,239.72,317.46,240Z" style="fill:#fff"></path><path d="M315.1,241.62c-.15-.1-.63.36-.34.54S315.29,241.75,315.1,241.62Z" style="fill:#fff"></path><path d="M316.18,245.06s-.93-3.12-.35-3.66,3.81,1.23,3.63,1.65S317.31,245.22,316.18,245.06Z" style="fill:#FFC727"></path><path d="M316.18,245.06s-.93-3.12-.35-3.66,3.81,1.23,3.63,1.65S317.31,245.22,316.18,245.06Z" style="opacity:0.1"></path><path d="M319.44,238.86s-2.9,1.49-3.54,1,.5-4,1-3.87S319.38,237.71,319.44,238.86Z" style="fill:#FFC727"></path><path d="M319.44,238.86s-2.9,1.49-3.54,1,.5-4,1-3.87S319.38,237.71,319.44,238.86Z" style="opacity:0.1"></path><path d="M313.06,235.8s1.31,3,.82,3.59-3.94-.74-3.81-1.17S311.92,235.79,313.06,235.8Z" style="fill:#FFC727"></path><path d="M313.06,235.8s1.31,3,.82,3.59-3.94-.74-3.81-1.17S311.92,235.79,313.06,235.8Z" style="opacity:0.1"></path><path d="M310.27,241.75s3-1.31,3.59-.81-.74,3.93-1.18,3.81S310.26,242.9,310.27,241.75Z" style="fill:#FFC727"></path><path d="M310.27,241.75s3-1.31,3.59-.81-.74,3.93-1.18,3.81S310.26,242.9,310.27,241.75Z" style="opacity:0.1"></path><path d="M339.28,233.9a5.72,5.72,0,0,0-6.74,3.49c-1.36,3.13,1.46,6,3.68,6.7S342,244,343.16,241C344.17,238.39,343.26,235.15,339.28,233.9Z" style="fill:#FFC727"></path><path d="M339.28,233.9a5.72,5.72,0,0,0-6.74,3.49c-1.36,3.13,1.46,6,3.68,6.7S342,244,343.16,241C344.17,238.39,343.26,235.15,339.28,233.9Z" style="opacity:0.1"></path><path d="M339,234.84a4.69,4.69,0,0,0-5.51,2.86c-1.11,2.55,1.19,4.91,3,5.47a4.7,4.7,0,0,0,5.67-2.53C343,238.51,342.29,235.87,339,234.84Z" style="fill:#FFC727"></path><path d="M340.07,238.32c0,.18.66.31.64,0S340.07,238.09,340.07,238.32Z" style="fill:#fff"></path><path d="M338.63,241c-.17,0-.14.71.19.61S338.86,240.93,338.63,241Z" style="fill:#fff"></path><path d="M340.22,241.25c-.12.13.27.67.49.4S340.38,241.08,340.22,241.25Z" style="fill:#fff"></path><path d="M341,237.53c.13.12.67-.27.41-.49S340.84,237.37,341,237.53Z" style="fill:#fff"></path><path d="M337.22,236.49c.16-.08,0-.73-.28-.58S337,236.58,337.22,236.49Z" style="fill:#fff"></path><path d="M335.21,239.9c0-.18-.66-.29-.63.06S335.23,240.13,335.21,239.9Z" style="fill:#fff"></path><path d="M336.12,240.67c-.09-.16-.72,0-.54.33S336.23,240.88,336.12,240.67Z" style="fill:#fff"></path><path d="M337.4,238.08c.18,0,.38-.61,0-.63S337.16,238.06,337.4,238.08Z" style="fill:#fff"></path><path d="M334.81,235.57s2.3,2.31,2.05,3.05-3.93.74-4,.28S333.74,236,334.81,235.57Z" style="fill:#FFC727"></path><path d="M334.81,235.57s2.3,2.31,2.05,3.05-3.93.74-4,.28S333.74,236,334.81,235.57Z" style="opacity:0.1"></path><path d="M334.9,242.58s1.84-2.69,2.62-2.59,1.46,3.73,1,3.86S335.5,243.56,334.9,242.58Z" style="fill:#FFC727"></path><path d="M334.9,242.58s1.84-2.69,2.62-2.59,1.46,3.73,1,3.86S335.5,243.56,334.9,242.58Z" style="opacity:0.1"></path><path d="M342,242.23s-2.57-2-2.42-2.77,3.81-1.23,3.91-.79S343,241.68,342,242.23Z" style="fill:#FFC727"></path><path d="M342,242.23s-2.57-2-2.42-2.77,3.81-1.23,3.91-.79S343,241.68,342,242.23Z" style="opacity:0.1"></path><path d="M341.58,235.67s-2,2.57-2.76,2.42-1.23-3.81-.79-3.91S341,234.65,341.58,235.67Z" style="fill:#FFC727"></path><path d="M341.58,235.67s-2,2.57-2.76,2.42-1.23-3.81-.79-3.91S341,234.65,341.58,235.67Z" style="opacity:0.1"></path><path d="M322.7,235.79a5.72,5.72,0,0,0,7.59.14c2.68-2.1,1.58-6,0-7.65s-5.12-2.68-7.58-.59C320.54,229.51,319.8,232.79,322.7,235.79Z" style="fill:#FFC727"></path><path d="M322.7,235.79a5.72,5.72,0,0,0,7.59.14c2.68-2.1,1.58-6,0-7.65s-5.12-2.68-7.58-.59C320.54,229.51,319.8,232.79,322.7,235.79Z" style="opacity:0.1"></path><path d="M323.36,235.07a4.67,4.67,0,0,0,6.2.12c2.19-1.72,1.3-4.89,0-6.25s-4.18-2.19-6.19-.48C321.6,229.94,321,232.62,323.36,235.07Z" style="fill:#FFC727"></path><path d="M324.11,231.52c.08-.16-.43-.59-.57-.28S324,231.73,324.11,231.52Z" style="fill:#fff"></path><path d="M326.65,229.86c.18,0,.46-.56.13-.63S326.42,229.8,326.65,229.86Z" style="fill:#fff"></path><path d="M325.37,228.87c.17-.06.09-.72-.23-.59S325.15,229,325.37,228.87Z" style="fill:#fff"></path><path d="M322.91,231.77c-.06-.17-.72-.09-.59.23S323,232,322.91,231.77Z" style="fill:#fff"></path><path d="M325.74,234.49c-.18,0-.37.63,0,.64S326,234.51,325.74,234.49Z" style="fill:#fff"></path><path d="M329.13,232.45c-.08.16.45.57.59.25S329.24,232.24,329.13,232.45Z" style="fill:#fff"></path><path d="M328.71,231.34c0,.18.65.31.63,0S328.7,231.11,328.71,231.34Z" style="fill:#fff"></path><path d="M326.35,233c-.15-.11-.63.35-.34.54S326.54,233.14,326.35,233Z" style="fill:#fff"></path><path d="M327.42,236.45s-.92-3.13-.35-3.66,3.81,1.23,3.63,1.64S328.56,236.6,327.42,236.45Z" style="fill:#FFC727"></path><path d="M327.42,236.45s-.92-3.13-.35-3.66,3.81,1.23,3.63,1.64S328.56,236.6,327.42,236.45Z" style="opacity:0.1"></path><path d="M330.69,230.24s-2.91,1.49-3.54,1,.5-4,1-3.88S330.62,229.1,330.69,230.24Z" style="fill:#FFC727"></path><path d="M330.69,230.24s-2.91,1.49-3.54,1,.5-4,1-3.88S330.62,229.1,330.69,230.24Z" style="opacity:0.1"></path><path d="M324.31,227.19s1.31,3,.81,3.58-3.93-.73-3.81-1.17S323.16,227.18,324.31,227.19Z" style="fill:#FFC727"></path><path d="M324.31,227.19s1.31,3,.81,3.58-3.93-.73-3.81-1.17S323.16,227.18,324.31,227.19Z" style="opacity:0.1"></path><path d="M321.51,233.13s3-1.31,3.59-.81-.73,3.94-1.17,3.81S321.51,234.28,321.51,233.13Z" style="fill:#FFC727"></path><path d="M321.51,233.13s3-1.31,3.59-.81-.73,3.94-1.17,3.81S321.51,234.28,321.51,233.13Z" style="opacity:0.1"></path><polygon points="276.57 240.03 291.38 263 333.7 262.9 348.41 239.85 276.57 240.03" style="fill:#c7c7c7"></polygon><path d="M393.82,237.2c-.64-5.07.43-16,5.33-17.54s9.32,9,9.87,17.43c.33,5-.77,12.31-6,12.86C397.59,250.52,394.39,241.78,393.82,237.2Z" style="fill:#ad6359"></path><path d="M404.75,227.24c4.07,21.86,2,43.8-2,47.1-7.65,6.3-51.87,1.17-60.81,1.39-3.86.09.34-29.28,4.45-29.7,4.79-.49,41.16,8.55,42.42,6.36.72-1.24,1.64-9.65,4.87-22.53C398.06,212.3,403.6,221.05,404.75,227.24Z" style="fill:#ad6359"></path><path d="M301,265.79a1.49,1.49,0,0,1,1-1c-1.84-1.66-2.91-3.44-2-5a2.76,2.76,0,0,1,2.86-1.16,2.1,2.1,0,0,1-.21-2.87c1.3-1.6,5.88-.6,10.3.9-2.87-1.51-5-3.23-3.87-4.72,3-3.94,12.51.46,19.4,2.53a22.87,22.87,0,0,0,6.57,1.14,5.19,5.19,0,0,0,1-.11c.9-.17,1.54-.57,1.68-1.31.26-1.31-2.47-2.7-4.5-3-3.85-.61-8.16-4.79-7.8-7.21.52-3.53,9.16-.94,12.39-.79,4.33.2,11.19,3,11.71,3.1,0,0,.39,2.67.71,6.41.63,7.12,1,18.1-1.78,21.7,0,0-14.06,4.59-28.3,4.59C315.33,278.88,299.32,270.44,301,265.79Z" style="fill:#ad6359"></path><path d="M328.84,262.16a17.61,17.61,0,0,1-8.08-1.15c-3.55-1.31-5.17-2.74-8.31-4.53a.07.07,0,1,1,.07-.13c1.49.85,6.61,3.46,8.15,4.13a17,17,0,0,0,8.17,1.63A0,0,0,0,1,328.84,262.16Z" style="fill:#263238"></path><path d="M327.3,268.4a39.67,39.67,0,0,1-9-1.12c-3.63-.9-6.8-3-9.9-5q-2.81-1.81-5.52-3.75c-.07-.06,0-.19.07-.13q4.74,3.14,9.67,6a26.53,26.53,0,0,0,9.86,3.42c2,.27,2.82.45,4.82.56C327.34,268.35,327.34,268.4,327.3,268.4Z" style="fill:#263238"></path><path d="M325.77,274.14c-3.24.09-6.12.25-9.25-.78a39.39,39.39,0,0,1-9.43-5c-1.7-1.14-3.37-2.33-5-3.55-.07-.05,0-.17.08-.12a107.44,107.44,0,0,0,11.67,7.18,16.67,16.67,0,0,0,5.5,1.87,37.45,37.45,0,0,0,6.44.38S325.78,274.14,325.77,274.14Z" style="fill:#263238"></path><path d="M345.3,244.72c1.44.4,2.87.84,4.3,1.27h0c2.21.37,4.42.7,6.62,1.11s4.41.78,6.6,1.23,4.39.85,6.58,1.34,4.37,1,6.55,1.5c-2.23-.29-4.44-.63-6.65-1s-4.41-.76-6.61-1.15-4.4-.84-6.59-1.27-4.38-.91-6.57-1.38h0C348.08,245.82,346.68,245.29,345.3,244.72Z" style="fill:#263238"></path><path d="M407,247.51c-.38-2.23-.59-4.46-.77-6.7s-.32-4.47-.36-6.73a34.42,34.42,0,0,1,1.11,6.67A42.38,42.38,0,0,1,407,247.51Z" style="fill:#263238"></path><path d="M406.93,234.74a9.21,9.21,0,0,1,.15,2.67,7.86,7.86,0,0,1-.63,2.6c0-.46,0-.89,0-1.33s.06-.88.09-1.31A21.54,21.54,0,0,1,406.93,234.74Z" style="fill:#263238"></path><path d="M264.09,416c2.17,1.27,69,15.23,71.84,14.15,1.1-.4,3.7-10,6.51-21.71.61-2.53,1.22-5.14,1.83-7.79C348.23,383.42,352,365,352,365l-44.64-9.47-6.53,35.89-1.44,7.88s-28,6.09-31,7.61S261.92,414.75,264.09,416Z" style="fill:#ad6359"></path><path d="M341.36,412.93c-2.38,9.59-4.48,16.89-5.43,17.24-2.88,1.08-69.67-12.89-71.84-14.16s1.3-7.53,4.32-9.06c1.87-.94,13.23-3.62,21.66-5.53-7.36,1.76-21.1,6.75,7.31,8.8C320.87,411.93,336.37,412.71,341.36,412.93Z" style="fill:#263238"></path><path d="M324.37,450.18c2.42.67,70.56-2.85,73.07-4.63,1-.67-1.67-28-2.38-30.65-2.42-8.91-13.93-35.76-13.93-35.76l-45.59,2.22L354.27,425s-25.49,13-28,15.26S322,449.5,324.37,450.18Z" style="fill:#ad6359"></path><path d="M397.44,445.55c-2.51,1.78-70.65,5.3-73.08,4.63s-.67-7.63,1.87-9.88c1.19-1,7.35-4.41,13.59-7.72-7.83,4.4-20.23,14.24,56.91-3.29C397.43,437.09,398,445.19,397.44,445.55Z" style="fill:#263238"></path><path d="M430.07,315.41c-13.58,15.13-59.21,3.18-61.93,9.2-2.41,5.31,28.73,90.58,28.73,90.58L347,420.56s-43-94.17-27.63-121.37c8.3-14.7,44.89-8.84,67-11.53,6.66-.81,9.79-14.55,9.79-14.55h39.46S445.6,298.12,430.07,315.41Z" style="fill:#263238"></path><path d="M333.26,290.76l41.84,32c13.89-.29,44.31,4.52,55-7.36,15.53-17.29,5.57-42.3,5.57-42.3H396.18s-3.13,13.74-9.79,14.55C370.89,289.54,348.26,287.23,333.26,290.76Z" style="fill:#37474f"></path><path d="M345.14,409.44c1.37-.43,14.29-1.87,17.14-2.17,5.71-.62,23.66-2.3,26.92-2.29a.08.08,0,0,1,0,.15c-2.82.6-14.28,1.93-17.13,2.23-5.71.58-25.33,2.49-26.92,2.33A.13.13,0,0,1,345.14,409.44Z" style="fill:#37474f"></path><path d="M362.09,319.62c3.21-1.59,27.49-.81,44.92-2.44,5.68-.53,11.37-1.74,15.7-5.46a25.86,25.86,0,0,0,7.76-12.78c1.68-5.95,1.5-12.16,1.22-18.26-.07-1.5-.18-3-.27-4.5,0-.08.15-.1.16,0,1.32,10.92,2.34,23.12-4.77,32.59a22.8,22.8,0,0,1-12.7,8.33c-10.51,2.77-50,2.08-51.42,3.15-1.66,1.27,23.89,79,24.39,80.52.1.28-.39.47-.51.19C384.05,395,359.3,321,362.09,319.62Z" style="fill:#37474f"></path><path d="M317.62,301.82c2.35-6,7.71-9.68,15.59-11.1.13,0,.12.17,0,.21-6.87,2-11.79,4.77-14.5,10.58-1.26,2.71-1.91,6.52-2.24,11.63-1.64,25.46,20.58,83.26,21,84.27a.08.08,0,0,1-.14.07C334.23,392.21,307.92,326.43,317.62,301.82Z" style="fill:#37474f"></path><path d="M299.6,389.18l37.73,8s-29.76-88.84-15.78-100.3c3.87-3.18,12.32-4.29,22.36.05,15,6.47,32.34,19.67,48.7,24.5,15.32,4.52,33.51.37,39.77-6.52,13.15-14.48,3.26-41.83,3.26-41.83l-54.26-2s.81.66-1.78,3c0,0-31.9-7.23-45.75,1.23C308.85,290.53,299.6,389.18,299.6,389.18Z" style="fill:#263238"></path><path d="M412.2,276.27a.1.1,0,0,1,.19,0,29.61,29.61,0,0,0,.47,6.09,10.46,10.46,0,0,0,2.72,5.05c3,3,7.25,4,11.15,5.27.2.06.16.42-.07.39-4.32-.67-8.87-1.76-12-5a10.5,10.5,0,0,1-2.79-5.45A12.86,12.86,0,0,1,412.2,276.27Z" style="fill:#37474f"></path><path d="M322.48,295.2c5.81-3.64,14.87-.87,19.21.79.1,0,.05.18,0,.15-4-1.44-13.93-3.61-19.24.15-12.28,8.7,4.15,68.17,14.92,100.91.17.51-.23.37-.46-.12-1.78-3.88-15.66-45.24-19.29-72.61C317,320.27,314.12,300.45,322.48,295.2Z" style="fill:#37474f"></path><path d="M303.9,379.14c1.14,0,10.92,2.13,13.08,2.61,4.31,1,14.29,3.56,16.62,4.45.06,0,0,.15,0,.15-2.24-.22-7.45-1.36-9.59-1.86-4.31-1-19.05-4.54-20.14-5.11C303.74,379.33,303.79,379.15,303.9,379.14Z" style="fill:#37474f"></path><path d="M324.33,293.66c3.9-2.14,8.55-2.48,12.88-2a45.14,45.14,0,0,1,13.17,4.12c8.82,4,17.23,9,26.07,13s18.16,7.11,27.85,7.41c8.27.26,18.75-1.2,24.07-8.65,8.2-11.47,3.43-31.25,3.33-32.53,0-.1.13-.09.15,0,6.36,24.32-1.82,33.76-7.35,37.73-4.38,3.15-10.69,4-14.85,4.3-9.63.81-19.29-1.55-28.22-5.1-9.15-3.65-17.73-8.56-26.5-13-8.4-4.3-17.77-8.73-27.37-6.27a23.51,23.51,0,0,0-3.19,1.09C324.31,293.77,324.28,293.68,324.33,293.66Z" style="fill:#37474f"></path></g><g id="freepik--character-1--inject-134"><polygon points="151.05 322.3 153.72 338.28 171.77 435.75 174.68 435.75 161.55 338.28 159.61 322.3 151.05 322.3" style="fill:#dbdbdb"></polygon><polygon points="159.61 322.3 151.05 322.3 153.72 338.28 161.55 338.28 159.61 322.3" style="fill:#a6a6a6"></polygon><polygon points="94.38 435.75 97.29 435.75 115.33 338.28 118 322.3 109.44 322.3 107.5 338.28 94.38 435.75" style="fill:#dbdbdb"></polygon><polygon points="109.44 322.3 107.5 338.28 115.33 338.28 118 322.3 109.44 322.3" style="fill:#a6a6a6"></polygon><polygon points="40.24 435.75 43.15 435.75 61.2 338.28 63.86 322.3 55.31 322.3 53.37 338.28 40.24 435.75" style="fill:#dbdbdb"></polygon><polygon points="53.37 338.28 61.2 338.28 63.86 322.3 55.31 322.3 53.37 338.28" style="fill:#a6a6a6"></polygon><polygon points="44.86 329.81 177.11 329.81 177.11 315.87 127.6 315.87 110.96 219.07 49.9 219.07 44.86 329.81" style="fill:#dbdbdb"></polygon><polygon points="44.86 329.81 52.06 329.81 56.76 219.07 49.9 219.07 44.86 329.81" style="fill:#c7c7c7"></polygon><rect x="49.68" y="386.28" width="115.76" height="2.97" style="fill:#dbdbdb"></rect><path d="M166.24,444c-2.35.3-67.13-13.11-69.22-15.14-.26-.22.83-6.11,2.45-14.13l0-.16c1-5.09,18.53-46.53,18.53-46.53l42,10.39-17.81,38.49s8,5.43,14.9,10.61l0,0a92.4,92.4,0,0,1,8.71,7C167.93,437,168.59,443.75,166.24,444Z" style="fill:#f7a9a0"></path><path d="M166.24,444c-2.35.3-67.13-13.11-69.23-15.14-.25-.23.85-6.1,2.46-14.13l0-.16c.37-1.89,3-8.85,6.25-16.82,6.92,1.64,31.71,7.55,40.72,10.05l-4.21,9.12s8,5.44,14.9,10.61v0a92.4,92.4,0,0,1,8.71,7C167.93,437,168.6,443.75,166.24,444Z" style="fill:#ebebeb"></path><path d="M166.46,444.32c-2.42.28-67.25-13.3-69.4-15.38-.81-.78.31-11,3.51-21.85l41.79,8.81S164,432,166.15,434.57,168.88,444,166.46,444.32Z" style="fill:#a6a6a6"></path><path d="M166.07,441.53c-10.81-2.54-54.65-11.78-65.53-13.47-.09,0-.1,0,0,.06,10.66,2.76,54.58,11.64,65.52,13.59C166.27,441.75,166.3,441.59,166.07,441.53Z" style="fill:#263238"></path><path d="M145.54,417.7c-4.34-1-9.7-.49-13.15,2.5-.14.11,0,.3.17.26a61.58,61.58,0,0,1,12.94-2.21A.28.28,0,0,0,145.54,417.7Z" style="fill:#263238"></path><path d="M148.62,419.71c-4.34-1-9.7-.49-13.15,2.5-.13.12,0,.3.18.27a60.86,60.86,0,0,1,12.93-2.22A.28.28,0,0,0,148.62,419.71Z" style="fill:#263238"></path><path d="M151.7,421.73c-4.33-1-9.7-.5-13.15,2.49-.13.12,0,.31.18.27a60.94,60.94,0,0,1,12.94-2.21A.28.28,0,0,0,151.7,421.73Z" style="fill:#263238"></path><path d="M154.79,423.74c-4.34-1-9.7-.49-13.15,2.5-.14.11,0,.3.17.26a61.69,61.69,0,0,1,12.94-2.21A.28.28,0,0,0,154.79,423.74Z" style="fill:#263238"></path><path d="M143.93,418,99.31,407.44s38.37-87.93,35.1-92.27c-1.63-2.18-43.18-2.82-56.39-14-17.17-14.56-5.65-36.81-5.65-36.81l46.4-1.38s-.56,9.71,1.25,11.17c1.19,1,56.47,5.63,62.55,24.29C190,321.28,143.93,418,143.93,418Z" style="fill:#37474f"></path><path d="M143.92,411.06c-1.17-.55-12.73-3.94-15.32-4.61-5.22-1.34-10.45-2.65-15.71-3.85-2.74-.62-8.61-2-9-1.93-.18,0-.21.33,0,.38,5.09,1.68,10.26,3.1,15.42,4.54s22.94,5.73,24.5,5.83C143.94,411.43,144.08,411.14,143.92,411.06Z" style="fill:#263238"></path><path d="M142.35,311.32c-.93-.8-2.33-.89-3.5-1.09l-20.09-3.37c-6.27-1.05-12.57-2-18.81-3.2-5.17-1-10.42-2.34-14.89-5.14a21.64,21.64,0,0,1-9.12-11.95,38.59,38.59,0,0,1-1.18-15.31c.12-1.25.35-2.5.58-3.73,0-.09-.13-.12-.15,0-1.7,9.52-1.85,20.56,5.28,28.14,3.47,3.7,8.24,5.87,13.11,7.28,5.5,1.59,11.24,2.34,16.88,3.28q10,1.68,20.09,3.36c3.22.54,6.5,1,9.69,1.62A3.26,3.26,0,0,1,142,312a2.48,2.48,0,0,1,.28,2.32c-.32,1.58-.75,3.14-1.2,4.69-3.66,12.49-31.78,78.68-32.5,80-.08.15.15.26.23.12,6.14-11,27.47-63.58,31.53-75.39a75.91,75.91,0,0,0,2.63-9.2C143.19,313.42,143.33,312.16,142.35,311.32Z" style="fill:#263238"></path><path d="M232.61,446.84c-2.25.75-68.4.51-70.85-1.06-.29-.17-.4-6.15-.41-14.34v-.16c0-5.19-1.61-49.52-1.61-49.52l41.4-.34,2.58,43.65s8.93,3.73,16.72,7.43v0a92.37,92.37,0,0,1,9.93,5.1C232.87,439.62,234.86,446.1,232.61,446.84Z" style="fill:#f7a9a0"></path><path d="M232.61,446.83c-2.25.76-68.4.52-70.85-1.05-.3-.17-.4-6.15-.41-14.34v-.16c0-.36,0-.73,0-1.1s0-.53,0-.79,0-.79,0-1.19c-.08-3.44-.26-9-.46-15.17l42.18-.27.72,12.31s8.93,3.73,16.72,7.43l0,0a91.84,91.84,0,0,1,9.92,5.1C232.87,439.62,234.87,446.1,232.61,446.83Z" style="fill:#ebebeb"></path><path d="M232.89,447.09c-2.32.76-68.56.35-71.07-1.26-1-.61-1.89-10.83-.92-22.11l42.71.31s24.46,11.5,27,13.56S235.2,446.33,232.89,447.09Z" style="fill:#a6a6a6"></path><path d="M232,444.43c-11.1-.34-55.91-.67-66.91-.16-.09,0-.09.07,0,.07,11,.58,55.81.54,66.91.27C232.19,444.61,232.19,444.44,232,444.43Z" style="fill:#263238"></path><path d="M207.08,425.16c-4.44-.09-9.6,1.45-12.39,5.07-.11.14.09.29.23.22a62.19,62.19,0,0,1,12.23-4.74A.28.28,0,0,0,207.08,425.16Z" style="fill:#263238"></path><path d="M210.5,426.52c-4.44-.09-9.6,1.45-12.39,5.07-.1.14.1.29.23.22a62,62,0,0,1,12.24-4.74A.28.28,0,0,0,210.5,426.52Z" style="fill:#263238"></path><path d="M213.93,427.88c-4.45-.09-9.61,1.45-12.39,5.07-.11.14.09.29.22.22A60.82,60.82,0,0,1,214,428.43.28.28,0,0,0,213.93,427.88Z" style="fill:#263238"></path><path d="M217.35,429.24c-4.45-.09-9.61,1.45-12.39,5.06-.11.14.09.3.22.23a60.82,60.82,0,0,1,12.24-4.74A.28.28,0,0,0,217.35,429.24Z" style="fill:#263238"></path><path d="M206,425.7H159.33s.59-86.49-3.07-91.17c-4.88-6.24-73.15-6.09-87.79-26.44-13.15-18.28-2-44.14-2-44.14l51.7-1.54a107,107,0,0,1-4.8,16.28s62.28,11.5,79.73,30.6C204.83,322.19,206,425.7,206,425.7Z" style="fill:#37474f"></path><path d="M122.42,275.16a24.82,24.82,0,0,0-4.38,1.4q-2.24.85-4.38,1.91a86.71,86.71,0,0,0-8.18,4.63c-.08,0,0,.16.08.12,2.8-1.45,5.69-2.76,8.58-4l4.18-1.8a45.37,45.37,0,0,0,4.22-1.86C122.72,275.45,122.62,275.12,122.42,275.16Z" style="fill:#263238"></path><path d="M119.32,262.4c-.59,2.36-1.11,4.74-1.79,7.07-.31,1.08-.61,2.17-1,3.21-.34.88-.86,1.88-1.88,2.08s-1.5-.78-1.41-1.75.39-2.16.6-3.22c.24-1.23.49-2.45.72-3.68l.33-1.85c0-.15.14-1.33.22-1.67,0,0,0,.06.07.05h0s.07,0,.07-.06,0-.12-.06-.18a.09.09,0,0,0-.11,0c-.22.12-.24.43-.31.66-.19.59-.38,1.19-.56,1.79-.32,1.13-.64,2.26-.93,3.4s-.56,2.27-.84,3.41a5.32,5.32,0,0,0-.23,2.62,2,2,0,0,0,1.85,1.51,2.53,2.53,0,0,0-.12.23c-.11.23-.18.48-.27.72s-.17.49-.24.74a2.29,2.29,0,0,0-.07.36c0,.14,0,.27,0,.41s.26.34.36.13.15-.21.22-.33a1.42,1.42,0,0,0,.17-.4c.08-.23.15-.47.21-.71s.13-.48.18-.72,0-.29,0-.43a2.75,2.75,0,0,0,1.36-.52,4.49,4.49,0,0,0,1.41-2.16c.36-1,.63-2,.91-3a44,44,0,0,0,1.5-7.61A.21.21,0,0,0,119.32,262.4Z" style="fill:#263238"></path><path d="M88.57,268.17c-.21,1.17-.35,2.36-.62,3.52s-.57,2.27-.94,3.38a12.28,12.28,0,0,1-1.44,3,11.76,11.76,0,0,1-2.29,2.33,19.77,19.77,0,0,1-5.55,3.09,24.75,24.75,0,0,1-3.08.9c-.54.12-1.09.22-1.64.29a3.37,3.37,0,0,0-1.33.31.27.27,0,0,0,0,.46,4.83,4.83,0,0,0,2.45.07,18,18,0,0,0,2.62-.46,19.05,19.05,0,0,0,5-2.08,15.7,15.7,0,0,0,4.13-3.39,11.74,11.74,0,0,0,2.22-4.85,24.41,24.41,0,0,0,.72-6.59C88.79,268.07,88.59,268,88.57,268.17Z" style="fill:#263238"></path><path d="M166.05,365.05q-.69-11-1.83-22c-.19-1.81-.37-3.61-.6-5.41a17,17,0,0,0-.9-4.12c-1.08-2.75-3.37-4.14-6.14-4.84-3.26-.82-6.64-1.32-10-1.86s-6.81-1-10.22-1.51c-6.9-1-13.81-1.85-20.69-3a165.87,165.87,0,0,1-20.3-4.57c-6.11-1.85-12.37-4.13-17.26-8.37-10.52-9.12-10.91-24.4-9.62-37.19.18-1.81.4-3.61.62-5.41,0-.09-.13-.13-.14,0-.84,7.2-1.81,14.45-1.09,21.7a35.51,35.51,0,0,0,5.75,16.81c3.56,5.11,8.84,8.41,14.54,10.71a114,114,0,0,0,19.36,5.59c13.65,2.85,27.57,4.07,41.3,6.42,1.69.29,3.38.59,5.07.92a20.58,20.58,0,0,1,4.57,1.23c3.12,1.39,4,4.43,4.36,7.57.9,7.28,1.51,14.61,2,21.93,1.06,14.75,1.62,29.58,1.59,44.37,0,1.83,0,10.09,0,11.92,0,.16.25.14.25,0C167.17,401.09,167,379.85,166.05,365.05Z" style="fill:#263238"></path><path d="M203.84,418.78a26.48,26.48,0,0,0-3.87-.33c-1.36-.08-2.72-.16-4.08-.21-2.68-.11-5.35-.17-8-.18-5.39,0-10.78,0-16.17.11-2.81.06-8.84.17-9.18.33-.16.07-.12.36.05.37,5.35.39,10.7.5,16.06.63s10.71.24,16.06.11c1.48,0,3-.12,4.44-.17a32,32,0,0,0,4.69-.29C204,419.13,204,418.81,203.84,418.78Z" style="fill:#263238"></path><path d="M159.19,383.64c.15-6.71.12-13.42,0-20.12s-.37-13.42-.87-20.12c-.15-1.68-.32-3.35-.57-5-.13-.84-.27-1.67-.48-2.52a5.58,5.58,0,0,0-.46-1.29,2.8,2.8,0,0,0-1.09-1,21.29,21.29,0,0,0-4.84-1.74c-1.64-.43-3.29-.77-4.94-1.07-6.62-1.21-13.28-2-20-2.58,3.32.49,6.64,1,9.94,1.53s6.61,1.11,9.88,1.8c1.63.36,3.26.73,4.87,1.16a20.24,20.24,0,0,1,4.59,1.68,1.84,1.84,0,0,1,.75.66,5,5,0,0,1,.37,1.07,24.18,24.18,0,0,1,.43,2.43c.23,1.64.38,3.31.52,5,.58,6.66.82,13.36,1.1,20.06Z" style="fill:#263238"></path><path d="M113.65,278.83a175.07,175.07,0,0,1,28.2,5.79,197.85,197.85,0,0,1,27.22,9.86c4.94,2.22,9.73,4.71,14.48,7.32.09.05,0,.19-.09.14A221.86,221.86,0,0,0,157,290.38a213.31,213.31,0,0,0-27.56-8c-5.27-1.15-10.58-2-15.89-2.92C113.2,279.4,113.29,278.79,113.65,278.83Z" style="fill:#263238"></path><path d="M116.5,206.87c2,7.35,19.73,42.63,37.16,49.16,3,1.11,11.93,5.48,18.54-1.5,8.93-9.42,16.62-28.86,17.18-39.76.47-9-24.8-6-27-1.1-1.65,3.66-5.43,15.93-6.18,15.61-4.91-2.07-18.16-17.48-32.1-27.85C117.65,196.62,114.92,201.21,116.5,206.87Z" style="fill:#f7a9a0"></path><path d="M153.91,234.54c.22-.77.49-1.53.78-2.27a25.57,25.57,0,0,1,2.2-4.09c0-.06.15,0,.11.06-.69,1.37-1.24,2.81-1.84,4.22-.29.69-.58,1.4-.85,2.1s-.59,1.45-.83,2.18c0,0-.09,0-.08,0C153.56,236,153.7,235.26,153.91,234.54Z" style="fill:#263238"></path><path d="M189.25,216.45s1.32-11.7-1.7-20c-2.09-5.78-8-17.84-26.06-21.23-4.28-.81-10.94,1.08-4.43,4.93,4.62,2.73,8.37,3.07,10.77,5.15,0,0-8.19,3.4-8.83,7.72a57.53,57.53,0,0,0-1.11,10.25,4.53,4.53,0,0,0,2.37,1.49s-.47,4.06,3.43,8.9Z" style="fill:#f7a9a0"></path><path d="M137.53,184a6.48,6.48,0,0,0-2.88,8.09c1.29,3.63,5.84,3.84,8.21,2.7s4.71-4.53,3.35-7.91C145,183.91,141.78,181.94,137.53,184Z" style="fill:#FFC727"></path><path d="M137.53,184a6.48,6.48,0,0,0-2.88,8.09c1.29,3.63,5.84,3.84,8.21,2.7s4.71-4.53,3.35-7.91C145,183.91,141.78,181.94,137.53,184Z" style="opacity:0.1"></path><path d="M138.05,184.93a5.3,5.3,0,0,0-2.34,6.61c1,3,4.77,3.14,6.71,2.2s3.84-3.69,2.73-6.46C144.18,184.88,141.53,183.27,138.05,184.93Z" style="fill:#FFC727"></path><path d="M141.59,187c.14.15.78-.25.5-.52S141.41,186.82,141.59,187Z" style="fill:#fff"></path><path d="M142.46,190.33c-.11.17.43.69.63.36S142.61,190.1,142.46,190.33Z" style="fill:#fff"></path><path d="M144,189.31c0,.21.74.35.72,0S144,189.05,144,189.31Z" style="fill:#fff"></path><path d="M141.76,185.63c.2,0,.35-.74,0-.72S141.49,185.63,141.76,185.63Z" style="fill:#fff"></path><path d="M137.82,187.69c.08-.18-.54-.62-.67-.25S137.71,187.94,137.82,187.69Z" style="fill:#fff"></path><path d="M138.8,192.06c-.15-.14-.77.28-.48.54S139,192.25,138.8,192.06Z" style="fill:#fff"></path><path d="M140.14,192c-.2-.06-.57.59-.19.69S140.39,192.08,140.14,192Z" style="fill:#fff"></path><path d="M139.2,188.87c.16-.12-.16-.8-.46-.55S139,189,139.2,188.87Z" style="fill:#fff"></path><path d="M135.12,188.79s3.69.14,4,.94-2.68,3.65-3.06,3.3S134.55,190,135.12,188.79Z" style="fill:#FFC727"></path><path d="M135.12,188.79s3.69.14,4,.94-2.68,3.65-3.06,3.3S134.55,190,135.12,188.79Z" style="opacity:0.1"></path><path d="M140.61,194.52s-.56-3.65.16-4.16,4.08,2,3.82,2.4S141.86,194.86,140.61,194.52Z" style="fill:#FFC727"></path><path d="M140.61,194.52s-.56-3.65.16-4.16,4.08,2,3.82,2.4S141.86,194.86,140.61,194.52Z" style="opacity:0.1"></path><path d="M146.17,188.78s-3.67.33-4.14-.42,2.2-4,2.62-3.66S146.59,187.55,146.17,188.78Z" style="fill:#FFC727"></path><path d="M146.17,188.78s-3.67.33-4.14-.42,2.2-4,2.62-3.66S146.59,187.55,146.17,188.78Z" style="opacity:0.1"></path><path d="M140.8,183.65s.33,3.67-.42,4.14-4-2.2-3.66-2.63S139.57,183.23,140.8,183.65Z" style="fill:#FFC727"></path><path d="M140.8,183.65s.33,3.67-.42,4.14-4-2.2-3.66-2.63S139.57,183.23,140.8,183.65Z" style="opacity:0.1"></path><path d="M147.36,190.7c-1.81.39-10.21.8-10.21.8l.21-.36,9.16-1.42a.27.27,0,0,0-.08-.54l-8.52,1,.35-.58,9.39-1.6a.27.27,0,0,0,.23-.31.28.28,0,0,0-.31-.23l-8.74,1.2.33-.56,9.63-1.79A.27.27,0,0,0,149,186a.26.26,0,0,0-.31-.22l-9,1.39.28-.47s9.11-2,10.16-2.1C152,184.55,150.09,190.1,147.36,190.7Z" style="fill:#455a64"></path><path d="M150,186.26c1.28-.37,6.51-1.81,7.13-1.95s25.88-5.88,26.83-5.77,0,3.31-.61,3.91-24.14,3.47-26.52,4-7.26,1.78-7.26,1.78Z" style="fill:#455a64"></path><path d="M186.34,195.6c-2.31-2.24-7.29-6.91-12.69-9.32-6-2.67-18.28-6.2-20.21-1.75-1.41,3.26,3.16,5,3.16,5s-5.38-.39-6,2.84c-.58,2.94,3,4.09,3,4.09s-3.31.32-3.32,3.26c0,3.54,6.92,2.27,10,5.86C161,206.41,186.34,195.6,186.34,195.6Z" style="fill:#f7a9a0"></path><path d="M171.88,193.09a26.21,26.21,0,0,0-15.17-3.62c-.13,0-.2.12-.07.14a64.53,64.53,0,0,1,15.22,3.54S171.91,193.11,171.88,193.09Z" style="fill:#263238"></path><path d="M169,199.07c-2.33-1.29-9.4-3.57-15.36-2.71-.14,0-.19.13-.06.14a69.38,69.38,0,0,1,15.4,2.63S169,199.09,169,199.07Z" style="fill:#263238"></path><path d="M128.51,232.36l25.6-9.14s-21.38-17.83-31.62-23.58c-10.68-6-15.43-3.46-7.08,10.44C123.63,223.77,128.51,232.36,128.51,232.36Z" style="fill:#FFC727"></path><path d="M128.66,227.34c.58-.29,1.21-.49,1.82-.73l1.87-.72c1.26-.48,2.53-.95,3.8-1.41,2.55-.92,5.09-1.85,7.65-2.72.7-.24,1.41-.48,2.12-.7s1.51-.41,2.25-.65c.05,0,.06.05,0,.07-.62.25-1.23.55-1.85.8l-1.92.74c-1.27.47-2.54.93-3.82,1.38-2.51.89-5,1.78-7.55,2.61l-2.12.69c-.74.25-1.49.53-2.24.71C128.65,227.42,128.62,227.36,128.66,227.34Z" style="fill:#263238"></path><path d="M115.41,210.08c8.22,13.69,13.1,22.28,13.1,22.28l8.18-2.92L112.36,197C110.19,198.19,110.8,202.4,115.41,210.08Z" style="opacity:0.1"></path><path d="M130.14,276.32c-1.69,1.3-69.4-.46-69.67-.93s21.21-71.52,46.31-79.47c4-1.26,14.18.15,15.23,1.67C130.75,210.3,131.21,275.5,130.14,276.32Z" style="fill:#FFC727"></path><path d="M128.86,229.46l-49-2.86c.4-.76.8-1.51,1.22-2.26l47.53,2.77C128.71,227.89,128.78,228.67,128.86,229.46Z" style="fill:#37474f"></path><path d="M129.16,233.05l-51-3c.18-.38.38-.76.57-1.14l50.39,2.94Z" style="fill:#37474f"></path><path d="M128.35,224.53l-45.88-2.68.66-1.13,45.09,2.63C128.27,223.74,128.32,224.14,128.35,224.53Z" style="fill:#37474f"></path><path d="M117.93,207.38c-3.81.11-8.89-6.74-10.41-11.75-.11-.34,1-3.49,2.26-7.39.73-2.36,1.48-5,2-7.48l14.71,7a40.23,40.23,0,0,0-3.47,9.17,6.58,6.58,0,0,0-.11,1,1,1,0,0,1,0,.17C122.8,200.11,121.61,207.28,117.93,207.38Z" style="fill:#f7a9a0"></path><path d="M112.78,181.23c-.21,3.67-.11,14.65,8.5,16.65a10.25,10.25,0,0,0,1.62.24.86.86,0,0,1,0-.17,4.81,4.81,0,0,1,.1-1,39.55,39.55,0,0,1,3.47-9.16Z" style="fill:#263238"></path><path d="M135.35,160.32s4.19,3.1,3.87,8.06-2.64,9.67-3.12,9.81S135.35,160.32,135.35,160.32Z" style="fill:#263238"></path><path d="M112.6,162.87c-2.71,5.2-2.77,21.67.49,26,4.73,6.2,14,8.43,19.6,2.41,5.47-5.84,5.16-27.31,1.38-31.35C128.5,153.93,116.6,155.18,112.6,162.87Z" style="fill:#f7a9a0"></path><path d="M126.67,175.77s-.08,0-.08.1c.06,1.1-.07,2.37-1.06,2.75,0,0,0,.07,0,.06C126.76,178.49,126.9,176.8,126.67,175.77Z" style="fill:#263238"></path><path d="M125.67,174.64c-1.77-.11-1.85,3.45-.21,3.55S127.16,174.72,125.67,174.64Z" style="fill:#263238"></path><path d="M133.15,175.9c0-.05.08,0,.08.1-.06,1.1.06,2.37,1.05,2.75,0,0,0,.07,0,.07C133.05,178.62,132.91,176.93,133.15,175.9Z" style="fill:#263238"></path><path d="M134.15,174.77c1.78-.1,1.84,3.46.2,3.55S132.67,174.85,134.15,174.77Z" style="fill:#263238"></path><path d="M124.3,173a13.3,13.3,0,0,0,1.39-.46,2.41,2.41,0,0,0,1.33-.73.74.74,0,0,0-.11-.91,1.82,1.82,0,0,0-1.87-.23,2.67,2.67,0,0,0-1.6,1.15A.8.8,0,0,0,124.3,173Z" style="fill:#263238"></path><path d="M135.57,173c-.49-.1-.93-.26-1.41-.4a2.33,2.33,0,0,1-1.35-.68.75.75,0,0,1,.06-.92,1.88,1.88,0,0,1,1.86-.31,2.72,2.72,0,0,1,1.65,1.09A.8.8,0,0,1,135.57,173Z" style="fill:#263238"></path><path d="M125.3,185.48c.2.31.38.71.77.83a2.9,2.9,0,0,0,1.21,0s.07,0,0,.07a1.49,1.49,0,0,1-1.5.28,1.17,1.17,0,0,1-.63-1.14C125.18,185.44,125.27,185.43,125.3,185.48Z" style="fill:#263238"></path><path d="M126.76,182.34a3.73,3.73,0,0,0,2.46,1.72,4.37,4.37,0,0,0,1.35.09l.5-.05a.29.29,0,0,0,.23-.24h0s0-2.36,0-2.36c.3.16,1.87.91,1.85.46a56.13,56.13,0,0,0-1.21-11.38.1.1,0,0,0-.2,0c0,3.54.61,7,.66,10.6a6.6,6.6,0,0,0-1.75-.57c-.07,0,.1,2.89.09,2.91a5.2,5.2,0,0,1-3.86-1.29C126.78,182.18,126.69,182.25,126.76,182.34Z" style="fill:#263238"></path><path d="M130.07,183.65a4.37,4.37,0,0,1-1.8,1.31,1.92,1.92,0,0,1-1.21,0c-.86-.25-.86-1.05-.68-1.73a5.08,5.08,0,0,1,.42-1A5.73,5.73,0,0,0,130.07,183.65Z" style="fill:#263238"></path><path d="M128.27,185a1.92,1.92,0,0,1-1.21,0c-.86-.25-.86-1.05-.68-1.73A2.05,2.05,0,0,1,128.27,185Z" style="fill:#ff9cbd"></path><path d="M112.84,176.41c2.83,0,3-6.92,3-6.92s4.35-.52,6.81-6.3c0,0,5.33,3.81,10,3.24,7.37-.9,7.73-10.37,5.12-12.46-3.7-3-10.82.61-10.82.61s-10.25-3.52-13.76,3.34a5.35,5.35,0,0,0-5.28,5C107.28,168.08,110.73,176.41,112.84,176.41Z" style="fill:#263238"></path><path d="M114.75,170.25a9.64,9.64,0,0,0,5.62-2.66,7.18,7.18,0,0,0,2-6.27.1.1,0,0,1,.19,0,8.25,8.25,0,0,1-1.56,6.84,6.7,6.7,0,0,1-6.28,2.32C114.64,170.43,114.62,170.26,114.75,170.25Z" style="fill:#263238"></path><path d="M107.71,159.94c1.54-1.74,3.75-1.89,5.91-1.69.12,0,.1.21,0,.19a6,6,0,0,0-5.56,2.61c-1.19,1.64-1.07,3.81-.74,5.72a15.14,15.14,0,0,0,5.51,9.37s0,.12-.06.08a15.15,15.15,0,0,1-6.2-10.27C106.3,163.94,106.29,161.54,107.71,159.94Z" style="fill:#263238"></path><path d="M126.64,154.91a7.08,7.08,0,0,1,4.18-2.83,8.48,8.48,0,0,1,6,1,4.8,4.8,0,0,1,2.28,4.24,8.54,8.54,0,0,1-2.22,5.26s-.1,0-.07-.05a8.45,8.45,0,0,0,1.77-4.79,4.42,4.42,0,0,0-2.37-4.07c-2.91-1.5-7.29-1.54-9.43,1.38C126.72,155.12,126.57,155,126.64,154.91Z" style="fill:#263238"></path><path d="M113.68,176.73s-2.76-5.77-5.32-4.87-1.08,8.85,1.51,10.33a2.84,2.84,0,0,0,4-.89Z" style="fill:#f7a9a0"></path><path d="M108.84,174.13s-.06.05,0,.07c1.8,1.1,2.52,3.06,2.92,5a1.57,1.57,0,0,0-2.24-.81.06.06,0,0,0,0,.11,1.75,1.75,0,0,1,1.8.92,8.35,8.35,0,0,1,.65,1.68c.07.19.39.15.36-.06V181C112.79,178.58,111.44,174.82,108.84,174.13Z" style="fill:#263238"></path><path d="M122.91,197.27l-4.16,9-10.9-12.26-3.44,3.59s10.31,19.12,10.42,18.29l4.2-7.77,5.22,5.81.24-13.93Z" style="fill:#ebebeb"></path><path d="M124.76,207.1c0-2.3,0-4.62-.15-6.92,0-.08-.13-.12-.16,0-.57,2.2-.38,11-.49,13.1l0,0c-.21-.25-4.85-5.13-4.9-5.05-.89,1.22-4,6.88-4.19,7.4-1.63-3-7.9-14.1-9.86-17a.08.08,0,1,0-.14.07c1.41,3.19,9.7,18.08,9.84,18a89,89,0,0,0,4.4-8.22c.77,1.05,5.42,6.53,5.45,6.19A70.71,70.71,0,0,0,124.76,207.1Z" style="fill:#263238"></path><path d="M93.16,203.67c-15,14-34.49,40.89-32.28,48.83,2.94,10.58,50.13,23.05,58,24.66,3.36.69,4.85-28.33,1.27-29.14-3.11-.7-29-9.18-30-10.87-.54-1,4.14-9.15,12-29.51C107.24,194.5,97.27,199.86,93.16,203.67Z" style="fill:#f7a9a0"></path><path d="M112.29,248.8s1.77,0,11.14-1.2c6.48-.86,22.81,1.17,31.71,17.24,3.41,6.16.58,11.24-4.1,5.47-3.3-4.06-5.23-7.16-6.68-8.18,0,0,.08,8-3.68,10.73a86.94,86.94,0,0,1-10.33,6.41,19.69,19.69,0,0,1-1.37-1.83,9.74,9.74,0,0,1-10.39-.25Z" style="fill:#f7a9a0"></path><path d="M129.74,247.76c2.86,1.9,8.84,6,12.57,11.07,4.14,5.63,10.6,17.58,6.41,20.6-3.07,2.21-5.93-2.14-5.93-2.14s1.63,5.5-1.58,6.89c-2.93,1.27-4.94-2.23-4.94-2.23s.41,3.51-2.64,4.19c-3.67.81-3.94-6.67-8.37-9.06C124.27,276.54,129.74,247.76,129.74,247.76Z" style="fill:#f7a9a0"></path><path d="M135.64,262.21a27.92,27.92,0,0,1,7.21,15c0,.14-.08.23-.13.1a68.34,68.34,0,0,0-7.14-15S135.61,262.19,135.64,262.21Z" style="fill:#263238"></path><path d="M130.08,266.56c1.87,2.13,5.84,8.95,6.31,15.35,0,.14-.1.22-.14.09A73.55,73.55,0,0,0,130,266.59S130.05,266.53,130.08,266.56Z" style="fill:#263238"></path><path d="M92,235.41l-26.47-6.24s19.27-20.09,28.81-26.95c9.94-7.14,15-5.15,8.2,9.59C95.9,226.33,92,235.41,92,235.41Z" style="fill:#FFC727"></path><path d="M91.31,230.44c-.61-.22-1.26-.36-1.89-.52l-1.94-.51c-1.31-.35-2.62-.67-3.94-1-2.63-.63-5.26-1.27-7.9-1.86-.73-.16-1.45-.32-2.18-.46s-1.55-.24-2.32-.39c0,0,0,.06,0,.07.65.18,1.28.41,1.93.58s1.33.36,2,.53c1.31.33,2.62.64,3.94.95,2.6.6,5.19,1.21,7.8,1.76.73.15,1.46.29,2.18.45s1.53.36,2.31.45C91.33,230.51,91.35,230.45,91.31,230.44Z" style="fill:#263238"></path><path d="M70.55,230.35a3.9,3.9,0,0,1-1.45-.09,3.7,3.7,0,0,1-1.33-.57,4.25,4.25,0,0,1,2.78.66Z" style="fill:#263238"></path><path d="M90.68,235.12l1.36.21-.1,0c1.37-3.62,2.87-7.19,4.46-10.72s3.23-7,5.06-10.45c-1.32,3.65-2.83,7.21-4.38,10.75s-3.21,7-5,10.49l0,.07-.06,0Z" style="fill:#263238"></path><path d="M98.88,220a23.48,23.48,0,0,1,1.33-2.06l.71-1c.25-.32.48-.66.76-1a6.65,6.65,0,0,1-1.06,2.25A7.18,7.18,0,0,1,98.88,220Z" style="fill:#263238"></path></g><g id="freepik--Table--inject-134"><rect x="51.45" y="274.5" width="397.09" height="16.51" style="fill:#455a64"></rect><polygon points="104.49 291.01 101.83 299.93 92.21 332.19 86.79 350.4 54.83 457.58 51.14 457.58 81.36 332.19 86.79 309.69 89.14 299.93 91.29 291.01 104.49 291.01" style="fill:#455a64"></polygon><polygon points="104.49 291.01 101.83 299.93 89.14 299.93 91.29 291.01 104.49 291.01" style="fill:#263238"></polygon><polygon points="448.86 457.58 445.16 457.58 414.93 356.18 413.21 350.4 407.78 332.19 405.76 325.41 398.15 299.93 395.5 291.01 408.7 291.01 410.85 299.93 412.26 305.79 413.21 309.69 418.62 332.19 420.37 339.44 448.86 457.58" style="fill:#455a64"></polygon><polygon points="408.7 291.01 410.85 299.93 398.15 299.93 395.5 291.01 408.7 291.01" style="fill:#263238"></polygon><rect x="70.79" y="390.55" width="358.42" height="4.69" style="fill:#455a64"></rect><path d="M442.33,274.5c-44.65,55.56-131.63,76-192.33,76s-147.68-20.48-192.33-76Z" style="fill:#FFC727"></path><path d="M442.33,274.5c-44.65,55.56-131.63,76-192.33,76s-147.68-20.48-192.33-76Z" style="fill:#fff;opacity:0.4"></path><path d="M79.63,274.5S138.94,334.58,250,334.58c111.67,0,170.37-60.08,170.37-60.08Z" style="fill:#fff;opacity:0.4"></path></g><g id="freepik--Food--inject-134"><polygon points="188.9 269.27 184.19 273.45 144.55 273.45 139.85 269.27 188.9 269.27" style="fill:#455a64"></polygon><rect x="144.55" y="273.45" width="39.52" height="1.06" style="fill:#37474f"></rect><polygon points="360.35 269.27 355.65 273.45 316.01 273.45 311.3 269.27 360.35 269.27" style="fill:#455a64"></polygon><rect x="316.01" y="273.45" width="39.52" height="1.06" style="fill:#37474f"></rect><polygon points="277.16 269.27 272.45 273.45 232.81 273.45 228.1 269.27 277.16 269.27" style="fill:#455a64"></polygon><rect x="232.81" y="273.45" width="39.52" height="1.06" style="fill:#37474f"></rect><polygon points="176.63 274.5 161.76 274.5 160.87 246.71 177.53 246.71 176.63 274.5" style="fill:#ebebeb;opacity:0.5"></polygon><polygon points="175.33 273.09 163.06 273.09 162.33 250.17 176.06 250.17 175.33 273.09" style="fill:#FFC727"></polygon><polygon points="336.29 274.5 321.42 274.5 320.53 246.71 337.19 246.71 336.29 274.5" style="fill:#ebebeb;opacity:0.5"></polygon><polygon points="334.99 273.09 322.73 273.09 322.13 254.48 335.59 254.48 334.99 273.09" style="fill:#FFC727"></polygon></g></svg>
