<svg xmlns="http://www.w3.org/2000/svg" viewBox="0 0 500 500"><g id="freepik--background-complete--inject-22"><path d="M287.24,195.9c-4.78,0-123.93-.83-157.58-.83-2.36,0,.62-4.07,1.91-4.36,4.14-.9,8.45-1,12.66-1.38a41.18,41.18,0,0,0,12.06-3c3.31-1.39,6.62-3,10.2-3.57,6.94-1.09,13,2.67,19.52,4.33a14.69,14.69,0,0,0,11.82-1.62c3-1.8,5.74-4,8.89-5.56a48.76,48.76,0,0,1,38.93-1.78,45.34,45.34,0,0,1,8.52,4.36c3.18,2.08,5.91,4.75,9.1,6.81,7.06,4.56,15.78,3.08,23.48,5.7C287.17,195.11,287.65,195.9,287.24,195.9Z" style="fill:#ebebeb"></path><path d="M164.22,100.91c-6.31,0-112.54.7-119.22.49-.48,0-.74-.72-.26-1,4.21-2.08,9-1.66,13.35-3.14,2.58-.86,4.16-2.55,5.94-4.48a12.36,12.36,0,0,1,5.53-3.6,11.61,11.61,0,0,1,6-.19c2.16.51,4,1.74,6.08,2.52,5.11,1.93,10.07.1,13.71-3.68,3-3.11,6-6.05,10-7.72A13.33,13.33,0,0,1,116.06,80c3.89,1.76,6.57,5.31,10.23,7.45,4.34,2.54,9.52,1.94,14.32,2.7s8.47,4.8,12.67,7.13a9,9,0,0,0,4.58,1.41,26.36,26.36,0,0,0,2.79-.39c1.45-.18,2.82-.14,3.8,1.07C164.68,99.66,164.63,100.91,164.22,100.91Z" style="fill:#ebebeb"></path><path d="M364.63,150.63c-4.61,0-82.17.52-87,.36-.35,0-.54-.53-.19-.7,3.07-1.52,6.55-1.21,9.75-2.29a10.28,10.28,0,0,0,4.33-3.27,9.11,9.11,0,0,1,4-2.64,8.49,8.49,0,0,1,4.39-.13,36.57,36.57,0,0,1,4.45,1.84c3.72,1.41,7.34.07,10-2.69,2.2-2.27,4.35-4.41,7.34-5.64a9.72,9.72,0,0,1,7.77-.1c2.84,1.28,4.79,3.88,7.46,5.44,3.17,1.85,7,1.41,10.46,2s6.18,3.5,9.25,5.2a6.57,6.57,0,0,0,3.35,1c.68,0,1.36-.21,2-.29a2.79,2.79,0,0,1,2.77.78C365,149.72,364.93,150.63,364.63,150.63Z" style="fill:#ebebeb"></path><path d="M196.81,64.24c-4.61,0-82.17.51-87,.36-.35,0-.54-.53-.19-.7,3.07-1.52,6.56-1.22,9.75-2.29a10.44,10.44,0,0,0,4.33-3.27,9,9,0,0,1,4-2.64,8.6,8.6,0,0,1,4.39-.14,38.3,38.3,0,0,1,4.45,1.85c3.72,1.4,7.34.07,10-2.69,2.2-2.27,4.35-4.42,7.34-5.64a9.72,9.72,0,0,1,7.77-.11c2.84,1.29,4.79,3.88,7.46,5.44,3.17,1.85,7,1.42,10.46,2s6.18,3.51,9.25,5.21a6.56,6.56,0,0,0,3.35,1,19.84,19.84,0,0,0,2-.29,2.79,2.79,0,0,1,2.77.78C197.15,63.33,197.11,64.24,196.81,64.24Z" style="fill:#ebebeb"></path><path d="M453.6,84.79H321.91c-.54,0-.73-.56-.2-.81,4.72-2.22,10-1.64,14.88-3.18,2.88-.9,4.67-2.73,6.69-4.83a13.71,13.71,0,0,1,6.22-3.87,12.93,12.93,0,0,1,6.68-.07c2.38.62,4.42,2,6.68,2.94,5.62,2.25,11.16.34,15.29-3.77,3.4-3.38,6.75-6.57,11.32-8.33a14.76,14.76,0,0,1,11.8.08c4.28,2,7.16,6,11.17,8.5,4.76,2.91,10.53,2.36,15.82,3.32S438,78,442.58,80.69a9.88,9.88,0,0,0,5.05,1.68,29.45,29.45,0,0,0,3.1-.37c1.61-.17,3.13-.09,4.18,1.27C455.17,83.6,456.7,84.79,453.6,84.79Z" style="fill:#ebebeb"></path></g><g id="freepik--Floor--inject-22"><path d="M40,471c134.56-.61,285.5-.62,420.06,0-134.56.62-285.5.61-420.06,0Z" style="fill:#263238"></path></g><g id="freepik--Water--inject-22"><path d="M40,254.81c134.56-.62,285.5-.62,420.06,0-134.56.61-285.5.61-420.06,0Z" style="fill:#dbdbdb"></path><path d="M72.05,358.26c34.47-.67,72.81-.65,107.31,0-34.51.64-72.83.66-107.31,0Z" style="fill:#dbdbdb"></path><path d="M321.55,378.74c34.47-.66,72.81-.64,107.31,0-34.51.65-72.83.67-107.31,0Z" style="fill:#dbdbdb"></path><path d="M88.7,409.3c34.48-.66,72.81-.65,107.31,0-34.51.65-72.83.67-107.31,0Z" style="fill:#dbdbdb"></path><path d="M41.64,400.77c23.38-.68,46.92-.68,70.31,0-23.4.67-46.93.67-70.31,0Z" style="fill:#dbdbdb"></path><path d="M402.89,367.88c23.38-.67,46.92-.67,70.31,0-23.39.67-46.93.67-70.31,0Z" style="fill:#dbdbdb"></path><path d="M250,347.69c76.52-.65,162.37-.66,238.9,0-76.53.65-162.38.65-238.9,0Z" style="fill:#dbdbdb"></path><path d="M31.64,313.58c58-.65,123-.66,180.94,0-58,.65-123,.65-180.94,0Z" style="fill:#dbdbdb"></path><path d="M274.25,313.58c58-.65,123-.66,181,0-58,.65-123,.65-180.95,0Z" style="fill:#dbdbdb"></path></g><g id="freepik--Mountains--inject-22"><polygon points="295.1 313.58 424.26 313.58 412.63 242.63 406.31 231.66 401.32 211.04 393.01 202.06 391.34 195.41 380.04 181.11 378.04 156.51 370.73 139.88 354.43 141.04 344.45 139.88 332.98 134.89 317.35 151.02 310.44 224.2 296.52 252.05 295.1 313.58" style="fill:#455a64"></polygon><polygon points="354.43 141.04 363.13 174.35 349 250.17 384.03 275 381.81 287.86 359.64 313.58 424.26 313.58 412.63 242.63 406.31 231.66 401.32 211.04 393.01 202.06 391.34 195.41 380.04 181.11 378.04 156.51 370.73 139.88 354.43 141.04" style="fill:#37474f"></polygon><polygon points="344.45 139.88 339.47 176.13 335.48 159.5 344.45 139.88" style="fill:#37474f"></polygon><polygon points="454.35 210.35 435.39 201.37 422.09 251.97 402.14 258.56 377.53 295.48 375.2 347.69 466.02 347.69 454.35 210.35" style="fill:#455a64"></polygon><polygon points="415.16 347.69 406.19 297.81 401.86 319.09 393.88 331.06 390.22 347.69 415.16 347.69" style="fill:#37474f"></polygon><polygon points="433.79 347.69 466.02 347.69 454.35 210.35 435.39 201.37 450.86 264.77 436.78 294.81 438.77 315.76 433.79 347.69" style="fill:#37474f"></polygon><polygon points="176.65 313.58 35 313.58 40.14 242.25 50.91 228.9 53.73 182.73 70.52 160.33 92.17 162.16 106.71 208.53 122.16 212.72 152.03 276.12 163.82 285.55 164.34 299.17 177.7 305.45 176.65 313.58" style="fill:#455a64"></polygon><polygon points="123.41 313.58 102.78 275.07 77.83 261.51 85.88 226.15 71.54 198.74 70.52 160.33 53.73 182.73 50.91 228.9 40.14 242.25 35 313.58 123.41 313.58" style="fill:#37474f"></polygon><polygon points="106.71 208.53 120.07 238.53 122.16 212.72 106.71 208.53" style="fill:#37474f"></polygon><polygon points="152.03 276.12 147.38 285.48 152.03 293.14 148.56 301.39 163.82 285.55 152.03 276.12" style="fill:#37474f"></polygon><polygon points="106.46 337.62 124.63 328.77 131.93 336.69 147.68 338.17 164.1 348.49 168.94 358.26 97.25 358.26 106.46 337.62" style="fill:#455a64"></polygon><polygon points="137.4 358.26 144.48 347.01 147.9 351.81 154.2 354.51 157.08 358.26 137.4 358.26" style="fill:#37474f"></polygon><polygon points="122.7 358.26 97.25 358.26 106.46 337.62 124.63 328.77 116.76 341.25 120.33 346.34 118.76 351.06 122.7 358.26" style="fill:#37474f"></polygon></g><g id="freepik--Plants--inject-22"><path d="M53.28,447.71c-3.26.12-6.89.3-9.59-1.81C41.2,444,39,441,39.3,437.7c.1-.95.32-1.54,1.34-1.13,1.55.62,2.75,2.33,3.83,3.54A32.12,32.12,0,0,0,49,444.39c1.16.89,2.41,1.66,3.59,2.52l.44.33a1.09,1.09,0,0,1,.17.13h.1a.14.14,0,0,1,.13.07l0,.06A.17.17,0,0,1,53.28,447.71Z" style="fill:#FFC727"></path><path d="M53.45,447.5c-2.87-.05-6,.08-8.26-1.87a13.57,13.57,0,0,1-2.66-3.23c-.33-.54-1.32-2.15-.91-2.79.75-1.15,4.16,3.56,4.63,4a14,14,0,0,0,6.33,3.28l.44.33a16,16,0,0,1-4.75-1.82c-2-1.22-3.16-3-4.75-4.68-.35-.37-1.39-1.59-1.78-.83-.25.5.71,2.08.91,2.41a13.59,13.59,0,0,0,2.52,3.08c2.28,2,5.36,1.92,8.25,2Z" style="fill:#fff"></path><path d="M55.08,449.7c0,.13,0,.25-.08.38h0a.09.09,0,0,1-.06.07.15.15,0,0,1-.17-.07.11.11,0,0,1,0-.08.43.43,0,0,0,0-.05l0-.11h0a.08.08,0,0,0,0,0c-.57-2.15-.8-4.4-1.41-6.55s-1.3-4.08-1.72-6.19c-.26-1.32-1.18-8,1.75-7.14,1.3.36,2.19,2.24,2.68,3.37a13.8,13.8,0,0,1,1.08,4.78C57.39,442.12,55.9,445.81,55.08,449.7Z" style="fill:#FFC727"></path><path d="M56,441.42a15.56,15.56,0,0,0-.47-4.51c-.13-.51-.77-3-1.6-2.9-.53,0-.62,1.09-.67,1.44a14.51,14.51,0,0,0,.58,4.43,62,62,0,0,1,1.08,8.89c0,.18-.06.38-.08.56l-.06.47a.78.78,0,0,1,0,.16s0,.09,0,.13a.14.14,0,0,0,.17.07c0-.13,0-.25.05-.37,0,.1,0,.2,0,.3h0l.06-.31s0,0,0-.07,0-.33,0-.49A64.2,64.2,0,0,0,56,441.42Zm-1,6.72c-.08-1.75-.25-3.49-.5-5.22-.2-1.39-.46-2.77-.75-4.14a14.51,14.51,0,0,1-.38-2.36c0-.61.06-2.85,1.22-1.46.84,1,1,3.16,1.14,4.4a23.77,23.77,0,0,1-.08,4.13C55.52,445,55.26,446.59,55,448.14Z" style="fill:#fff"></path><path d="M56.84,458.65h-.12c-3-.15-7,.13-9.44-1.84-1.83-1.46-3.63-4.34-3.05-6.78.66-2.75,4.38.55,5.36,1.35a91.78,91.78,0,0,1,7.31,7.1l0,.06h0C57,458.61,56.9,458.63,56.84,458.65Z" style="fill:#FFC727"></path><path d="M56.94,458.56l-.51-.32c-2-1.24-3.88-2.56-5.71-4-.46-.35-3.82-3.34-4.33-2.27-.3.65.81,2,1.16,2.41a9.3,9.3,0,0,0,2.27,2c2,1.24,4.39,1.5,6.64,2.1l.32.08,0,0h0C56.91,458.63,57,458.61,56.94,458.56Zm-5.9-1.7a9.11,9.11,0,0,1-2.57-1.74c-.5-.47-2.26-2.26-1.79-3,.24-.39.45-.18.93.05.21.11.43.24.63.37.5.33,1,.71,1.42,1.08.82.66,1.65,1.29,2.5,1.9,1.39,1,2.81,2,4.27,2.87A44.9,44.9,0,0,1,51,456.86Z" style="fill:#fff"></path><path d="M62.28,452.51a17.6,17.6,0,0,1-5.11,8.92.05.05,0,0,1-.05,0,.13.13,0,0,1-.15-.06.12.12,0,0,1,0-.17l.15-.15c.5-4.05,1-8.08,1.46-12.14.09-1,.84-7.06,2.72-6.06,1.15.61,1.23,3.11,1.33,4.23A17.83,17.83,0,0,1,62.28,452.51Z" style="fill:#FFC727"></path><path d="M61.2,447.07c-.1-.33-.28-.68-.66-.45-.72.46-1,3.32-1.13,4.12-.5,3.27-1.28,6.41-2.06,9.61-.07.27-.14.54-.2.81l-.18.25a.12.12,0,0,0,.15,0s0,0,0-.08l.25-.33h0a21.31,21.31,0,0,0,3-5.75,20.5,20.5,0,0,0,.87-4A11.51,11.51,0,0,0,61.2,447.07Zm-3.82,13.76-.12.16c0-.11.08-.22.11-.33a58.92,58.92,0,0,0,1.82-7.44c.22-1.27.35-2.56.62-3.83.11-.54.37-2.07.81-2.32s.44.35.48.7a7.23,7.23,0,0,1,0,.93A20.56,20.56,0,0,1,57.38,460.83Z" style="fill:#fff"></path><path d="M57.67,470.17h-.6l0-1.57c-.07-2.12-.16-4.24-.29-6.36-.07-1.2-.15-2.4-.28-3.59,0,0,0-.08,0-.12l0-.29c0-.1,0-.21,0-.32a25.82,25.82,0,0,0-2-7.78c-.38-.82-.79-1.63-1.23-2.42l-.13-.23,0-.06-.13-.24a1.62,1.62,0,0,1-.1-.18c-1.38-2.42-3-4.74-4.46-7.08-.43-.66-.86-1.34-1.27-2l-.08-.12a.78.78,0,0,1-.1-.15c-1.88-3-3.73-5.95-5.68-8.86-.07-.11.1-.21.18-.1,1.31,1.93,2.68,3.83,4,5.74l.54.76L47,436.7c.71,1,1.4,2,2.09,3.05a88,88,0,0,1,5.49,8.88l.33.7c.07.15.15.3.21.44l.23.51a27.57,27.57,0,0,1,2,9.39c0,.22,0,.45.05.68s0,.21,0,.31a1,1,0,0,0,0,.17,1.7,1.7,0,0,0,0,.22h0v.16l0,.58q.12,3.18.18,6.35C57.62,468.81,57.64,469.49,57.67,470.17Z" style="fill:#FFC727"></path><path d="M39.88,431.81c-1.64-2.19-3.73-6.72-1.32-9.08a2.57,2.57,0,0,1,3.41-.25c1.27.92,1.84,2.66,2.25,4.1,1.1,3.83,1.83,7.75,3.21,11.51,0,0,.11.32.15.4s-.1.11-.13,0l-.13-.37C44.72,436.28,41.81,434.41,39.88,431.81Z" style="fill:#FFC727"></path><path d="M47.45,438.1a.25.25,0,0,0,0-.07,27.71,27.71,0,0,1-1.53-2.84,55,55,0,0,1-2.34-6.28c-.26-.83-1.44-4.86-2.88-3.25a3.61,3.61,0,0,0-.42,2.7,10.35,10.35,0,0,0,1.25,3.78,18.64,18.64,0,0,0,5.42,5.66l.29.22.06.1,0,.06,0,0a.09.09,0,0,0,.13,0A0,0,0,0,0,47.45,438.1Zm-.64-.45a21.76,21.76,0,0,1-4.59-4.6,11.6,11.6,0,0,1-1.5-3.06,10.53,10.53,0,0,1-.32-1.48,6.12,6.12,0,0,1-.06-1.13c0-.83.36-1.73.85-1.82s.81.24,1.21.94a6.18,6.18,0,0,1,.36.73,18.87,18.87,0,0,1,.68,1.91c.34,1.07.68,2.13,1.06,3.18.26.71.54,1.42.84,2.11a28.57,28.57,0,0,0,1.79,3.48Z" style="fill:#fff"></path><path d="M402,447.71c3.26.12,6.9.3,9.6-1.81,2.49-1.95,4.72-4.86,4.39-8.2-.1-.95-.32-1.54-1.34-1.13-1.55.62-2.75,2.33-3.83,3.54a32.67,32.67,0,0,1-4.52,4.28c-1.16.89-2.41,1.66-3.59,2.52l-.45.33-.17.13H402a.14.14,0,0,0-.13.07l0,.06A.17.17,0,0,0,402,447.71Z" style="fill:#FFC727"></path><path d="M401.81,447.5c2.87-.05,6,.08,8.25-1.87a13.33,13.33,0,0,0,2.66-3.23c.34-.54,1.33-2.15.92-2.79-.75-1.15-4.16,3.56-4.63,4a14,14,0,0,1-6.33,3.28l-.45.33a15.91,15.91,0,0,0,4.76-1.82c2-1.22,3.16-3,4.75-4.68.35-.37,1.38-1.59,1.77-.83.26.5-.7,2.08-.9,2.41a13.59,13.59,0,0,1-2.52,3.08c-2.28,2-5.36,1.92-8.25,2Z" style="fill:#fff"></path><path d="M400.18,449.7c0,.13.05.25.07.38h0a.09.09,0,0,0,.06.07.15.15,0,0,0,.17-.07.11.11,0,0,0,0-.08l0-.05,0-.11h0s0,0,0,0c.58-2.15.81-4.4,1.42-6.55s1.3-4.08,1.72-6.19c.26-1.32,1.18-8-1.75-7.14-1.3.36-2.19,2.24-2.68,3.37a13.8,13.8,0,0,0-1.08,4.78C397.87,442.12,399.35,445.81,400.18,449.7Z" style="fill:#FFC727"></path><path d="M400.19,449.21c0,.16,0,.32,0,.49s0,.05,0,.07l.06.31h0c0-.1,0-.2,0-.3,0,.12,0,.24.05.37a.15.15,0,0,0,.17-.07s0-.09,0-.13l0-.16c0-.15,0-.31-.06-.47s-.05-.38-.07-.56a62,62,0,0,1,1.07-8.89,14.22,14.22,0,0,0,.59-4.43c-.05-.35-.14-1.4-.68-1.44-.82-.06-1.46,2.39-1.59,2.9a15.56,15.56,0,0,0-.47,4.51A64.2,64.2,0,0,0,400.19,449.21Zm-.61-5.72a21.94,21.94,0,0,1-.08-4.13c.1-1.24.3-3.39,1.14-4.4,1.15-1.39,1.24.85,1.21,1.46a13.48,13.48,0,0,1-.37,2.36c-.29,1.37-.56,2.75-.75,4.14-.25,1.73-.42,3.47-.5,5.22C400,446.59,399.74,445,399.58,443.49Z" style="fill:#fff"></path><path d="M398.42,458.65h.12c3-.15,6.95.13,9.43-1.84,1.83-1.46,3.63-4.34,3.06-6.78-.66-2.75-4.38.55-5.37,1.35a92.92,92.92,0,0,0-7.3,7.1l0,.06h0C398.29,458.61,398.35,458.63,398.42,458.65Z" style="fill:#FFC727"></path><path d="M398.42,458.65h0l.06,0,.32-.08c2.25-.6,4.66-.86,6.64-2.1a9.3,9.3,0,0,0,2.27-2c.35-.45,1.46-1.76,1.15-2.41-.5-1.07-3.86,1.92-4.32,2.27-1.84,1.41-3.75,2.73-5.71,4l-.51.32C398.29,458.61,398.35,458.63,398.42,458.65Zm.41-.25c1.46-.91,2.88-1.86,4.27-2.87.85-.61,1.68-1.24,2.49-1.9.47-.37.93-.75,1.43-1.08a6.5,6.5,0,0,1,.63-.37c.48-.23.68-.44.93-.05.47.73-1.29,2.52-1.79,3a9.16,9.16,0,0,1-2.58,1.74A44.22,44.22,0,0,1,398.83,458.4Z" style="fill:#fff"></path><path d="M393,452.51a17.58,17.58,0,0,0,5.1,8.92l.06,0a.13.13,0,0,0,.15-.06.12.12,0,0,0,0-.17l-.15-.15c-.5-4.05-1-8.08-1.46-12.14-.1-1-.85-7.06-2.72-6.06-1.16.61-1.23,3.11-1.33,4.23A17.52,17.52,0,0,0,393,452.51Z" style="fill:#FFC727"></path><path d="M394.05,451.29a19.8,19.8,0,0,0,.87,4,21,21,0,0,0,2.95,5.75h0l.25.33s0,.06,0,.08a.12.12,0,0,0,.15,0l-.18-.25c-.07-.27-.13-.54-.2-.81-.79-3.2-1.56-6.34-2.06-9.61-.12-.8-.41-3.66-1.14-4.12-.38-.23-.55.12-.65.45A11.51,11.51,0,0,0,394.05,451.29Zm.07-2.59c0-.24,0-.69,0-.93s.05-.94.48-.7.71,1.78.82,2.32c.26,1.27.4,2.56.62,3.83a58.92,58.92,0,0,0,1.82,7.44c0,.11.07.22.1.33l-.11-.16A20.56,20.56,0,0,1,394.12,448.7Z" style="fill:#fff"></path><path d="M397.59,470.17h.6l0-1.57q.11-3.18.28-6.36c.07-1.2.16-2.4.29-3.59,0,0,0-.08,0-.12l0-.29c0-.1,0-.21,0-.32a25.82,25.82,0,0,1,2.05-7.78c.38-.82.79-1.63,1.23-2.42l.12-.23,0-.06.13-.24a1.62,1.62,0,0,0,.1-.18c1.38-2.42,3-4.74,4.45-7.08.43-.66.86-1.34,1.28-2l.08-.12.09-.15c1.88-3,3.73-5.95,5.68-8.86.08-.11-.1-.21-.17-.1-1.32,1.93-2.68,3.83-4,5.74-.19.25-.36.51-.55.76-.35.51-.71,1-1.06,1.51-.71,1-1.41,2-2.09,3.05a86.19,86.19,0,0,0-5.49,8.88c-.11.23-.22.47-.34.7l-.2.44-.23.51a27.82,27.82,0,0,0-2,9.39c0,.22,0,.45,0,.68s0,.21,0,.31a1,1,0,0,1,0,.17,1.7,1.7,0,0,1,0,.22h0v.16l0,.58q-.12,3.18-.18,6.35C397.64,468.81,397.61,469.49,397.59,470.17Z" style="fill:#FFC727"></path><path d="M415.38,431.81c1.63-2.19,3.73-6.72,1.32-9.08a2.57,2.57,0,0,0-3.41-.25c-1.27.92-1.84,2.66-2.25,4.1-1.1,3.83-1.83,7.75-3.21,11.51,0,0-.12.32-.15.4s.1.11.13,0l.13-.37C410.54,436.28,413.45,434.41,415.38,431.81Z" style="fill:#FFC727"></path><path d="M407.8,438.16a.08.08,0,0,0,.12,0s0,0,0,0l0-.06.06-.1.29-.22a18.64,18.64,0,0,0,5.42-5.66,10.35,10.35,0,0,0,1.25-3.78,3.61,3.61,0,0,0-.43-2.7c-1.44-1.61-2.61,2.42-2.87,3.25a55,55,0,0,1-2.35,6.28,25.81,25.81,0,0,1-1.52,2.84.25.25,0,0,0,0,.07A0,0,0,0,0,407.8,438.16Zm.33-.25a30.06,30.06,0,0,0,1.79-3.48c.3-.69.58-1.4.83-2.11.39-1.05.73-2.11,1.07-3.18a18.87,18.87,0,0,1,.68-1.91,5,5,0,0,1,.36-.73c.4-.7.6-1.05,1.2-.94s.84,1,.86,1.82a6.12,6.12,0,0,1-.06,1.13,9.31,9.31,0,0,1-.33,1.48,11.58,11.58,0,0,1-1.49,3.06,21.57,21.57,0,0,1-4.6,4.6Z" style="fill:#fff"></path><path d="M81.53,422.89c-.4,3.2-1,6.36-1.65,9.5-.37,1.79-.75,3.57-1.11,5.36-.4,2-1,4-.45,6h0a1.37,1.37,0,0,1,0,.28l0,0a.24.24,0,0,1-.42-.07l0-.14,0,0a7.69,7.69,0,0,1-.69-1.65,43.39,43.39,0,0,1-1.59-4.62A40,40,0,0,1,74,427.67,33.54,33.54,0,0,1,75,418.8c.57-2.31,1.38-5.77,3.1-7.54,1.57-1.61,2.87,1,3.33,2.26C82.39,416.47,81.9,419.87,81.53,422.89Z" style="fill:#FFC727"></path><path d="M78.67,416.12c-1.16,0-2,3.76-2.42,5.38a32.82,32.82,0,0,0-1,7.83,42.21,42.21,0,0,0,2.41,13.91c.06.18.12.36.19.54l0,.05,0,.12a.25.25,0,0,0,.42.08c-.07-.4-.13-.78-.18-1.17s-.08-.71-.1-1.06a55.58,55.58,0,0,1,.71-11.51C79.32,425.84,80.21,416.13,78.67,416.12Zm-.84,26.43c.06.52.14,1,.24,1.54-.12-.37-.24-.74-.35-1.12a46.45,46.45,0,0,1-2.19-12.27A32.24,32.24,0,0,1,76.94,420c.17-.5,1-3.65,1.73-3.49.51.11.62,2.94.63,3,0,.57,0,1.14,0,1.71,0,1.17-.09,2.34-.19,3.5-.22,2.53-.59,5.05-.89,7.57A43.9,43.9,0,0,0,77.83,442.55Z" style="fill:#fff"></path><path d="M99.85,431.71c-2.13,4.17-5.73,7.36-9.45,10.09-2,1.47-4.05,2.84-6.07,4.25a32.81,32.81,0,0,0-5.25,4,2.09,2.09,0,0,0-.2.22,8.68,8.68,0,0,0-1.09,1.5.12.12,0,0,1-.1.06,1.07,1.07,0,0,1-.07.19s-.09,0-.08,0,0-.14,0-.21h0a.15.15,0,0,1,0-.16.43.43,0,0,1,0-.07l0-.2c.61-4.88,4-9.8,6.89-13.55s6.44-7.07,10.89-8.78c1.12-.43,3.66-1.62,4.8-.71S100.31,430.83,99.85,431.71Z" style="fill:#FFC727"></path><path d="M96.55,431.73c-1-1-4,1.49-4.75,2.07a50.22,50.22,0,0,0-6.18,6,44.36,44.36,0,0,0-7.9,11.42h0a1.13,1.13,0,0,1-.1.13,1.77,1.77,0,0,0,0,.21.16.16,0,0,0,0,.07.12.12,0,0,0,0,.16c.05-.06.09-.12.14-.17.38-.46.77-.91,1.17-1.34l.2-.22a97.09,97.09,0,0,1,9.24-8.16,45.82,45.82,0,0,0,6.16-6C94.94,435.38,97.41,432.58,96.55,431.73ZM95.62,434c-2.52,4.18-6.89,7.24-10.6,10.28a51.13,51.13,0,0,0-7,6.68,47.39,47.39,0,0,1,7.3-10.27,62.85,62.85,0,0,1,5-5.17,26.51,26.51,0,0,1,3-2.44,10.2,10.2,0,0,1,2.06-1.11C96.83,431.51,96.05,433.24,95.62,434Z" style="fill:#fff"></path><path d="M77.11,461.73a.25.25,0,0,1-.21.13l0,.07a.07.07,0,0,1,0,.1.07.07,0,0,1-.11,0c-4-4-7.75-8.9-9.72-14.22a22.09,22.09,0,0,1-1.41-7c0-1.64-.13-4.94,1.27-6.13,2.83-2.4,5.4,7.78,5.78,9.32.7,2.8,1.16,5.65,1.81,8.46.7,3.08,1.63,6.1,2.56,9.12A.18.18,0,0,1,77.11,461.73Z" style="fill:#FFC727"></path><path d="M77.11,461.73c-.15-.26-.3-.52-.44-.78a47.57,47.57,0,0,1-5.09-13.69,43.36,43.36,0,0,0-1.87-7.12c-.23-.57-.94-2.74-1.87-1.64-.48.57-.08,4.68.11,5.74a30.53,30.53,0,0,0,2.29,7,49.46,49.46,0,0,0,6.47,10.51c.08.1.15.2.23.29a.08.08,0,0,0,0-.11s0,0,0-.07A.24.24,0,0,0,77.11,461.73ZM71.38,453a35.33,35.33,0,0,1-2.71-6.8,24.83,24.83,0,0,1-.59-2.85,16,16,0,0,1-.2-2.28c0-1.86.17-2.34.48-2.4s.46.16,1,1.27a12.11,12.11,0,0,1,.79,2.26c.29,1.1.54,2.2.78,3.32.48,2.21.93,4.44,1.58,6.62a36.6,36.6,0,0,0,3.92,8.9A57.54,57.54,0,0,1,71.38,453Z" style="fill:#fff"></path><path d="M89.78,452a14,14,0,0,1-2.59,5.38c-2.34,3.24-5.34,5.93-7.9,9-.38.46-.76.92-1.12,1.4,0,.05-.33.73-.33.67s0-.27.13-.7h0c.41-2.14,1.75-8.61,3.43-11.92a29.15,29.15,0,0,1,3.74-5.86c.73-.82,2.43-2.59,3.72-2.21S90,450.94,89.78,452Z" style="fill:#FFC727"></path><path d="M87.69,450.66c-1.37-.86-4.9,5.46-5.38,6.27a40.16,40.16,0,0,0-4,9.64c-.11.37-.21.75-.31,1.14s-.13.69-.13.7.3-.61.33-.67.13-.17.19-.25c.3-.39.62-.78.93-1.15,1.53-2.3,3.11-4.57,4.6-6.91a36,36,0,0,0,2.85-5.25C86.92,453.77,88.29,451,87.69,450.66Zm-.39,1.77c-2,5.5-5.93,9.83-9,14.71l-.15.23c0-.14.08-.29.13-.43a46.33,46.33,0,0,1,3.22-8,42.3,42.3,0,0,1,2.72-4.52,21.48,21.48,0,0,1,1.69-2.35c.28-.31,1.09-1.14,1.36-1S87.43,452.07,87.3,452.43Z" style="fill:#fff"></path><path d="M103.55,406.62c-4.07,9.36-14.77,13.73-19.4,22.75l0,.05c-.14.27-.27.55-.4.84a.19.19,0,0,1-.31.05.13.13,0,0,1,0-.16,1.24,1.24,0,0,1,.1-.2,48.67,48.67,0,0,1,5.72-16.39c2.34-4.32,5.55-8.36,10-10.63,1.09-.56,3.23-1.75,4.45-.82S104.05,405.47,103.55,406.62Z" style="fill:#FFC727"></path><path d="M99.88,407c-.52-.39-1.3.08-1.75.31A15.49,15.49,0,0,0,95,409.45a25.89,25.89,0,0,0-4.93,5.86,53.57,53.57,0,0,0-5.81,11.78c-.31,1-.59,1.9-.81,2.86,0,.12,0,.24-.08.35a.19.19,0,0,0,.31,0c.12-.28.25-.54.39-.82,0,0,0,0,0-.07A31.09,31.09,0,0,1,87.05,424a73.8,73.8,0,0,1,6.1-7.23C94,415.88,101.68,408.34,99.88,407Zm-.65,2.16a35.18,35.18,0,0,1-4.83,5.86c-1.7,1.9-3.41,3.76-5.07,5.68a34.94,34.94,0,0,0-3.56,4.87,27.35,27.35,0,0,0-2.24,4.5,41,41,0,0,1,1.6-4.68s0,0,0-.05a69.84,69.84,0,0,1,4-7.88s0-.06,0-.09a32.17,32.17,0,0,1,4.51-6.3,18.57,18.57,0,0,1,3.21-2.72c1.34-.87,2.51-1.44,2.85-1S99.6,408.55,99.23,409.19Z" style="fill:#fff"></path><path d="M89.32,417.6c-1.23,2.64-2.4,5.31-3.55,8-.55,1.26-1.09,2.52-1.63,3.77,0,0,0,.05,0,.07l-.59,1.37a83.72,83.72,0,0,0-4.78,12.66,37.43,37.43,0,0,0-1,7c0,.24,0,.49,0,.73h0c0,.13,0,.27,0,.4v.22c-.08,2.05,0,4.12,0,6.12,0,2.79.29,5.57.56,8.33a1.1,1.1,0,0,0,0,.25l0,.37a1.36,1.36,0,0,0,0,.2l0,.35c.09.89.17,1.78.24,2.68h-.85a56.71,56.71,0,0,1-1-8.25,1,1,0,0,1,0-.17c0-.26,0-.54,0-.8s0-.66,0-1c0-.8-.05-1.59-.06-2.38a58.58,58.58,0,0,1,1-13.8l.09-.37a.9.9,0,0,1,0-.16l.06-.27.11-.42c.07-.25.14-.5.22-.75l.06-.22a91.13,91.13,0,0,1,4.71-11.36c.31-.68.63-1.35.94-2l.54-1.12.83-1.67s0,0,0-.05c1.3-2.63,2.66-5.24,4-7.88C89.17,417.38,89.38,417.47,89.32,417.6Z" style="fill:#FFC727"></path></g><g id="freepik--Rocks--inject-22"><path d="M268.94,471.76H401.16s.49-16.12-4.18-21.93-9.18-7.26-10.7-8.52a96.92,96.92,0,0,1-10-11.3c-3.41-4.54-8.33-11.36-10.86-12s-14.14-3.17-16.54-2.16-15.38,12.78-16.77,13.29-26.42,13.15-28.7,13.64-15.25,4.31-21,7.81C274.62,455.39,268.94,471.76,268.94,471.76Z" style="fill:#dbdbdb"></path><path d="M268.94,471.76H401.16s.49-16.12-4.18-21.93-9.18-7.26-10.7-8.52a96.92,96.92,0,0,1-10-11.3c-3.41-4.54-8.33-11.36-10.86-12s-14.14-3.17-16.54-2.16-15.38,12.78-16.77,13.29-26.42,13.15-28.7,13.64-15.25,4.31-21,7.81C274.62,455.39,268.94,471.76,268.94,471.76Z" style="opacity:0.1"></path><path d="M307.88,440.88c5.8.33,14.4,6.76,16.11,7.75,2.5,1.45,17.55-3.8,23.49-4.43s7.82-9.85,7.46-11.33,6.49-4.14,5.64-7.7c-.5-2.08-15.95-6.23-15.95-6.23-4.74,3.83-11.53,9.85-12.52,10.21S315.76,437.22,307.88,440.88Z" style="fill:#dbdbdb"></path><path d="M370.52,441.33c-.11-2.45-6.63-6.68-8.33-6.29s-5,3.9-5.5,5.27-2.65,8-.56,8.05,6.06-3.75,8.24-3.89S370.62,443.35,370.52,441.33Z" style="fill:#dbdbdb"></path><path d="M321.53,450.8c.41-1.53-5.64-4.51-7.21-4.23s-3.09,3.51-1.7,4.36,3.43-.35,4.49,0S321.21,452,321.53,450.8Z" style="fill:#dbdbdb"></path><path d="M177.7,470.83H46.19s6.17-8.64,13-10.49,22.21-7.4,25-10.49,26.22-14.5,35.17-14.19,23.75,10.49,25.91,13,9.72,11.72,12.18,12.49S171.62,463.73,177.7,470.83Z" style="fill:#dbdbdb"></path><path d="M177.7,470.83H46.19s6.17-8.64,13-10.49,22.21-7.4,25-10.49,26.22-14.5,35.17-14.19,23.75,10.49,25.91,13,9.72,11.72,12.18,12.49S171.62,463.73,177.7,470.83Z" style="opacity:0.1"></path><path d="M72.05,456.36a30.83,30.83,0,0,0,7.59.67c1.06-.12,11.37-5.18,15.16-5.69s24.34-1.39,25.84-3.65c1.13-1.7-6.71-7.06-11.87-9.85-10.23,3.41-22.65,9.81-24.63,12-1.43,1.58-6.2,3.82-11.43,5.87Z" style="fill:#dbdbdb"></path><path d="M106.48,455.76c0-1.14-6.82-2-8.4-1.75s-8.34,3.18-7,3.74a17.84,17.84,0,0,0,6.63.85C99.91,458.43,106.47,457,106.48,455.76Z" style="fill:#dbdbdb"></path><path d="M408.84,474.62h34.75c3.74,0-4.27-11.57-7.55-13.26s-11.83-.73-14,1.13-11,7.78-12.11,8.77A3.73,3.73,0,0,0,408.84,474.62Z" style="fill:#dbdbdb"></path></g><g id="freepik--Route--inject-22"><path d="M39.57,144c-.26-2.61-2.07-5.22-5.23-5.22s-5,2.61-5.23,5.22c-.39,4,2.32,7.7,5.23,11C37.25,151.7,40,148,39.57,144Zm-5.23,2.9A2.86,2.86,0,1,1,37.21,144,2.85,2.85,0,0,1,34.34,146.9Z" style="fill:#FFC727"></path><path d="M269.26,224.63c-.27-2.61-2.07-5.22-5.24-5.22s-5,2.61-5.22,5.22c-.4,4,2.32,7.7,5.22,11C266.93,232.33,269.66,228.67,269.26,224.63ZM264,227.54a2.87,2.87,0,1,1,2.88-2.87A2.86,2.86,0,0,1,264,227.54Z" style="fill:#FFC727"></path><path d="M352.76,107.57c-.26-2.62-2.06-5.22-5.23-5.22s-5,2.6-5.22,5.22c-.4,4,2.32,7.69,5.22,11C350.44,115.26,353.17,111.6,352.76,107.57Zm-5.23,2.9a2.86,2.86,0,1,1,2.87-2.87A2.86,2.86,0,0,1,347.53,110.47Z" style="fill:#FFC727"></path><path d="M130.89,191c-.27-2.62-2.07-5.22-5.24-5.22s-5,2.6-5.22,5.22c-.4,4,2.32,7.69,5.22,11C128.56,198.69,131.29,195,130.89,191Zm-4.66,2.85a2.87,2.87,0,1,1,2.24-2.25A2.86,2.86,0,0,1,126.23,193.85Z" style="fill:#FFC727"></path><path d="M470.89,180.55c-.27-2.62-2.07-5.22-5.24-5.22s-5,2.6-5.22,5.22c-.4,4,2.32,7.69,5.22,11C468.56,188.24,471.29,184.58,470.89,180.55Zm-5.24,2.9a2.86,2.86,0,1,1,2.88-2.86A2.84,2.84,0,0,1,465.65,183.45Z" style="fill:#FFC727"></path><rect x="32.45" y="153.88" width="2" height="1" style="fill:#FFC727"></rect><path d="M281,240.87H280v-1H281a16.84,16.84,0,0,0,2.84-.24l.17,1A17.82,17.82,0,0,1,281,240.87Zm-5,0h-4v-1h4Zm-8,0h-4v-1h4Zm-8,0h-4v-1h4Zm-8,0h-4v-1h4Zm-8,0a17.94,17.94,0,0,1-4.07-.45l.23-1a16.3,16.3,0,0,0,3.76.43Zm43.85-1.42-.39-.92a16.54,16.54,0,0,0,3.34-1.92l.6.8A17.39,17.39,0,0,1,287.94,239.45ZM236.17,239a17.52,17.52,0,0,1-3.42-2.24l.64-.77a16.82,16.82,0,0,0,3.23,2.12Zm58.3-4.43-.77-.64a16.8,16.8,0,0,0,2.13-3.22l.89.45A17.21,17.21,0,0,1,294.47,234.6Zm-64.54-.78a17.28,17.28,0,0,1-2.05-3.53l.91-.4a17,17,0,0,0,1.94,3.33Zm68.19-6.48-1-.23a16.76,16.76,0,0,0,.44-3.82h1A17.74,17.74,0,0,1,298.12,227.34Zm-71.42-1a17.35,17.35,0,0,1-.27-3.07c0-.32,0-.64,0-.95l1-.06c0,.34,0,.67,0,1a17.46,17.46,0,0,0,.25,2.9Zm71.89-7.07h-1v-4h1Zm-72.85-.75a16.92,16.92,0,0,0-1.53-3.55l.86-.5a17.39,17.39,0,0,1,1.63,3.76Zm-3.84-6.64a17,17,0,0,0-3-2.47l.54-.84a17.19,17.19,0,0,1,3.14,2.63Zm76.69-.58h-1v-4h1Zm-83.11-3.62a16.63,16.63,0,0,0-3.75-.88l.11-1a17,17,0,0,1,4,.93Zm-7.68-1h-4v-1h4Zm-8,0h-4v-1h4Zm-8,0h-4v-1h4Zm-8,0h-4v-1h4Zm-8,0h-4v-1h4Zm-8,0h-4v-1h4Zm-8,0h-4v-1h4Zm-8,0h-4v-1h4Zm-8,0h-4v-1h4Zm-8,0h-4v-1h4Zm-8,0a17.74,17.74,0,0,1-4-.65l.27-1a16.37,16.37,0,0,0,3.81.61Zm-7.82-2.22a17.68,17.68,0,0,1-3.31-2.4l.68-.74a16.48,16.48,0,0,0,3.12,2.27Zm178.35-1.13h-1v-4h1ZM114.26,199a17.44,17.44,0,0,1-1.88-3.64l.93-.35a17.18,17.18,0,0,0,1.78,3.43Zm184.33-3.6h-1v-4h1Zm162.09-2.13h-4v-1h4Zm-8,0h-4v-1h4Zm-8,0h-4v-1h4Zm-8,0h-4v-1h4Zm-8,0h-4v-1h4Zm-8,0h-4v-1h4Zm-8,0a17.14,17.14,0,0,1-4-.72l.29-1a16.23,16.23,0,0,0,3.79.69Zm-301.43-1.84a18.29,18.29,0,0,1-.14-2.23v-1.81h1v1.81a16.22,16.22,0,0,0,.14,2.1Zm293.66-.52a17.83,17.83,0,0,1-3.27-2.46l.69-.72a16.58,16.58,0,0,0,3.08,2.32ZM298.59,187.4h-1v-4h1Zm100.58-2.16a17.43,17.43,0,0,1-1.82-3.67l.94-.33A16.87,16.87,0,0,0,400,184.7Zm-286.92-1.9h-1v-4h1Zm186.34-3.91h-1v-4h1Zm97.85-1.85a17.46,17.46,0,0,1-.1-1.91v-2.13h1v2.13a17.93,17.93,0,0,0,.09,1.8ZM111,175.46a24.7,24.7,0,0,0-.9-3.8l1-.31a26.8,26.8,0,0,1,.93,4Zm187.61-4h-1v-4h1Zm98.75-1.9h-1v-4h1Zm-288.75-1.5a23.13,23.13,0,0,0-2.06-3.31l.81-.6a26.08,26.08,0,0,1,2.14,3.45Zm190-4.57h-1v-4h1ZM104,161.8a24.62,24.62,0,0,0-3-2.49l.58-.82a25.75,25.75,0,0,1,3.12,2.6Zm293.36-.21h-1v-4h1ZM97.62,157.32A24,24,0,0,0,94,155.9l.29-1a26,26,0,0,1,3.78,1.48Zm201-1.8h-1v-4h1Zm-208.41-.44a25.82,25.82,0,0,0-3.17-.2h-.75v-1H87a25.72,25.72,0,0,1,3.29.21Zm-7.9-.2h-4v-1h4Zm-8,0h-4v-1h4Zm-8,0h-4v-1h4Zm-8,0h-4v-1h4Zm-8,0h-4v-1h4Zm-8,0h-4v-1h4Zm354.92-1.26h-1v-4h1Zm-98.74-6.06-1,0a24.71,24.71,0,0,1,.43-4l1,.18A24,24,0,0,0,298.6,147.56Zm97.61-1.86a23.72,23.72,0,0,0-.72-3.83l1-.27a25.84,25.84,0,0,1,.74,4Zm-96.16-5.78-.94-.34a25.18,25.18,0,0,1,1.71-3.69l.87.49A25.18,25.18,0,0,0,300.05,139.92Zm94.12-1.72a25.74,25.74,0,0,0-1.91-3.4l.83-.56a25.7,25.7,0,0,1,2,3.55Zm-90.29-5-.78-.63a25.05,25.05,0,0,1,2.79-2.95l.67.75A23.13,23.13,0,0,0,303.88,133.16Zm85.95-1.4a24,24,0,0,0-2.9-2.62l.61-.79a25.15,25.15,0,0,1,3,2.72ZM309.66,128l-.54-.84a24.64,24.64,0,0,1,3.59-1.9l.39.92A23.55,23.55,0,0,0,309.66,128Zm74-.94a24.7,24.7,0,0,0-3.58-1.56l.32-.94a24.17,24.17,0,0,1,3.73,1.62Zm-66.86-2.13-.24-1a24.47,24.47,0,0,1,4-.65l.08,1A24.73,24.73,0,0,0,316.8,124.89Zm59.5-.38a23.9,23.9,0,0,0-3.88-.32v-1a23.81,23.81,0,0,1,4.05.34Zm-7.87-.32h-4v-1h4Zm-8,0h-4v-1h4Zm-8,0h-4v-1h4Zm-8,0h-4v-1h4Zm-8,0h-4v-1h4Zm-8,0h-4v-1h4Z" style="fill:#FFC727"></path><rect x="464.83" y="192.25" width="2" height="1" style="fill:#FFC727"></rect></g><g id="freepik--Character--inject-22"><path d="M249.88,202.62c-.61,1-61,11.15-64,10.67a2.3,2.3,0,0,1-.42-.12c-3.78-1.24-22.18-14.41-23.58-15.53-3.45-2.77,6.53-26.43,10.11-30.57,2.39-2.76,7.26-4.32,7.26-4.32s9.1-42.28,16.72-51.83c1.92-2.4,39.45-7.83,46.55-5.59,3,1,10.91,7.26,11.26,8.52h0C254.23,115.71,250.49,201.6,249.88,202.62Z" style="fill:#37474f"></path><path d="M249.88,202.62c-.61,1-61,11.15-64,10.67a2.3,2.3,0,0,1-.42-.12c3.89-16.43,22.21-93.55,22.93-94.12s36.7-4.75,45.39-5.19C254.23,115.71,250.49,201.6,249.88,202.62Z" style="fill:#455a64"></path><path d="M255.19,101.29c-.27,5.49-2.17,9.91-4.41,10.34v.05l-50.89,4.48,1-21.14,49.68-4.37a1.87,1.87,0,0,1,.77-.13,1.18,1.18,0,0,1,.27,0h.18v0C253.93,91.24,255.43,95.82,255.19,101.29Z" style="fill:#FFC727"></path><path d="M255.19,101.29c-.27,5.49-2.17,9.91-4.41,10.34v.05l-50.89,4.48,1-21.14,49.68-4.37a1.87,1.87,0,0,1,.77-.13,1.18,1.18,0,0,1,.27,0h.18v0C253.93,91.24,255.43,95.82,255.19,101.29Z" style="opacity:0.1"></path><ellipse cx="200.37" cy="105.59" rx="10.59" ry="4.36" transform="translate(85.71 300.91) rotate(-87.37)" style="fill:#FFC727"></ellipse><path d="M167.85,192.29s.77,4.13,3.65,5.47a12.53,12.53,0,0,0,6.2.9l5.78-22,10.8-23.61s-4.82-3.94-6-4.05a55,55,0,0,0-6.26.65s-5.1,22.42-5.38,23S167.85,192.29,167.85,192.29Z" style="fill:#ebebeb"></path><path d="M182,149.65c.44,1.46,4.1,3.29,5.27,3.62a40.09,40.09,0,0,0,5.93.22l-1.07,4.3,2.17-4.74s-4.94-4.07-6-4.05S182,149.65,182,149.65Z" style="fill:#dbdbdb"></path><path d="M172.56,169.14a53.65,53.65,0,0,0,6,4.88c2.44,1.55,12.09,2.66,12.09,2.66l-7.87,30.54s-7.9-1.89-13.38-5.54c-3.34-2.23-6.8-7.09-6.8-7.09s2.41-10,3.66-13.16S172.56,169.14,172.56,169.14Z" style="fill:#455a64"></path><path d="M309.28,322l-46.2,1s.52-23.39.14-25.51c-.48-2.7-47.43-104.66-47.43-104.66h43.82s46.27,84.55,47.6,96C308.75,302,309.28,322,309.28,322Z" style="fill:#f7a9a0"></path><path d="M255.31,292.85s48.88-13.7,49.7-14.32-45.4-85.77-45.4-85.77H215.79Z" style="fill:#37474f"></path><path d="M257.21,282.23c13.13-4.41,26.45-8.32,39.9-11.62a.13.13,0,0,1,.08.25c-13.12,4.45-26.45,8.31-39.89,11.66A.15.15,0,0,1,257.21,282.23Z" style="fill:#263238"></path><polygon points="252.49 192.77 249.35 277.75 215.79 192.75 252.49 192.77" style="fill:#263238"></polygon><path d="M337.39,445.55c-2.54.73-74-2.19-76.7-4-.73-.5-.84-21-.69-32.82a9.2,9.2,0,0,1,5-8.51c8.48-3.73,28.37-4.53,37,1.26,2.2,1.47,4.29,9.69,4.29,9.69l-.55,8.38s26.88,13.37,29.57,15.69S339.92,444.82,337.39,445.55Z" style="fill:#c7c7c7"></path><path d="M337.6,445.66c-2.54.73-74.45-2.21-77.12-4.05-1.24-.85-1.25-16.17-.92-32.33l46.78,1.78-.56,8.43s27,13.44,29.74,15.77S340.15,444.92,337.6,445.66Z" style="fill:#FFC727"></path><path d="M336.69,442.74C324.65,442,276,439.9,264,440c-.1,0-.1.06,0,.07,11.92,1.05,60.57,2.7,72.64,2.82C336.94,442.94,336.94,442.75,336.69,442.74Z" style="fill:#263238"></path><path d="M307.59,416.88c-4.71-1.08-10.54-.59-14.3,2.64-.15.13,0,.33.19.29a66.28,66.28,0,0,1,14.07-2.33A.3.3,0,0,0,307.59,416.88Z" style="fill:#263238"></path><path d="M310.93,419.08c-4.71-1.08-10.54-.59-14.3,2.64-.15.13,0,.33.19.29a66.92,66.92,0,0,1,14.07-2.33A.3.3,0,0,0,310.93,419.08Z" style="fill:#263238"></path><path d="M314.27,421.28c-4.71-1.08-10.54-.58-14.3,2.65-.15.12,0,.33.19.29a66.3,66.3,0,0,1,14.07-2.34A.3.3,0,0,0,314.27,421.28Z" style="fill:#263238"></path><path d="M317.61,423.49c-4.71-1.08-10.54-.59-14.3,2.64-.15.13,0,.33.19.29a66.92,66.92,0,0,1,14.07-2.33A.3.3,0,0,0,317.61,423.49Z" style="fill:#263238"></path><path d="M316.8,406.27c-1.76-2.65-5.28-1.63-7.32,0a25.26,25.26,0,0,0-7.75,10.57c0,.09,0,.15.1.17,0,.36.31.76.72.62,4-1.29,8.39-2.17,11.85-4.65C316.42,411.49,318.46,408.77,316.8,406.27Zm-8.62,8.12c-1.94.69-3.9,1.27-5.82,2,1.52-2.05,2.94-4.17,4.66-6.07a28.16,28.16,0,0,1,2.63-2.61c1.46-1.23,7.16-3.73,6.11,1.44C315.18,412,310.49,413.58,308.18,414.39Z" style="fill:#263238"></path><path d="M289.72,415.05c3.84,1.83,8.34,1.93,12.48,2.5.43.06.66-.38.6-.74a.13.13,0,0,0,.07-.19,25.32,25.32,0,0,0-9.48-9c-2.29-1.2-5.94-1.58-7.2,1.33C285,411.66,287.48,414,289.72,415.05Zm-2-3.47c-1.94-4.9,4.11-3.44,5.76-2.49a28.1,28.1,0,0,1,3,2.12,74.63,74.63,0,0,1,5.65,5.16c-2-.41-4.05-.64-6.08-1C293.68,415,288.79,414.29,287.72,411.58Z" style="fill:#263238"></path><rect x="279.5" y="336.59" width="9.7" height="61.71" transform="translate(553.82 745.95) rotate(-177.71)" style="fill:#dbdbdb"></rect><path d="M293.68,349.48c.52.36-2.75,6.19-4,6.75s-7.3.91-9.67-.1c-1.14-.49-3.68-6.48-3.65-6.93S289.13,346.34,293.68,349.48Z" style="fill:#c7c7c7"></path><path d="M274.31,399c-.52-.37,2.84-6.15,4.13-6.69s7.31-.81,9.67.24c1.13.5,3.59,6.53,3.55,7S278.81,402.18,274.31,399Z" style="fill:#c7c7c7"></path><path d="M309.85,317c2.54-.6.9,22.2-1.72,25.33-3.48,4.16-13.39,8.07-23.58,8.19-8.8.1-17.82-4.84-21.2-7.81s-1.79-27.29-.63-26.79C267.74,318.13,277.88,324.54,309.85,317Z" style="fill:#a6a6a6"></path><path d="M265.09,472.21c-2.52.83-76.27.3-79-1.46-1-.65,1.8-70.58,1.8-70.58l46.15.22-1.55,46.79s27.39,12.5,30.18,14.75S267.6,471.4,265.09,472.21Z" style="fill:#f7a9a0"></path><path d="M265.09,472.21c-2.51.82-76.27.3-79-1.45-.57-.37,0-21.61.68-40.7l46.26.73-.54,16.39s27.39,12.49,30.18,14.75S267.61,471.39,265.09,472.21Z" style="fill:#ebebeb"></path><path d="M265.23,472.22c-2.53.81-76.41.31-79.13-1.47-1.26-.82.25-16.67.15-32.83l46.81.54-.33,8.44s27.37,12.72,30.14,15S267.75,471.42,265.23,472.22Z" style="fill:#FFC727"></path><path d="M264.24,469.33c-12.06-.47-60.74-1.23-72.7-.78-.1,0-.1.07,0,.07,11.94.73,60.63,1.1,72.69.9C264.49,469.52,264.49,469.34,264.24,469.33Z" style="fill:#263238"></path><path d="M234.47,444.25c-4.74-1-10.55-.31-14.23,3-.14.12,0,.32.2.28a67.18,67.18,0,0,1,14-2.71A.3.3,0,0,0,234.47,444.25Z" style="fill:#263238"></path><path d="M237.86,446.36c-4.73-.95-10.55-.31-14.22,3-.15.13,0,.33.19.28a66.64,66.64,0,0,1,14-2.7A.3.3,0,0,0,237.86,446.36Z" style="fill:#263238"></path><path d="M241.26,448.47c-4.74-1-10.55-.31-14.23,3-.14.13.05.33.2.29a66.53,66.53,0,0,1,14-2.71A.3.3,0,0,0,241.26,448.47Z" style="fill:#263238"></path><path d="M244.65,450.59c-4.73-1-10.55-.31-14.22,3-.14.13,0,.33.2.28a66.52,66.52,0,0,1,14-2.7A.3.3,0,0,0,244.65,450.59Z" style="fill:#263238"></path><path d="M243.39,433.39c-1.83-2.59-5.32-1.49-7.32.15a25.31,25.31,0,0,0-7.47,10.77.12.12,0,0,0,.11.17c0,.36.33.75.73.6,3.95-1.39,8.33-2.39,11.73-5C243.15,438.63,245.12,435.85,243.39,433.39Zm-8.4,8.36c-1.92.73-3.87,1.37-5.76,2.17a71.82,71.82,0,0,1,4.5-6.19,25.82,25.82,0,0,1,2.55-2.68c1.43-1.27,7.06-3.92,6.15,1.27C241.93,439.19,237.28,440.87,235,441.75Z" style="fill:#263238"></path><path d="M216.55,442.89c3.89,1.73,8.39,1.71,12.54,2.17a.58.58,0,0,0,.58-.75c.08,0,.13-.11.07-.2a25.4,25.4,0,0,0-9.72-8.79c-2.32-1.13-6-1.42-7.16,1.53C211.73,439.63,214.28,441.89,216.55,442.89Zm-2.09-3.41c-2.07-4.85,4-3.55,5.7-2.64a26.54,26.54,0,0,1,3.09,2,74.79,74.79,0,0,1,5.79,5c-2-.35-4.06-.53-6.1-.81C220.51,442.74,215.6,442.15,214.46,439.48Z" style="fill:#263238"></path><path d="M257.35,192.75s-1,20.47-5.74,37.08c-.38,1.38-.8,2.73-1.25,4a78.61,78.61,0,0,0-12.61,6.52s-2,80.18-1.87,85.15c.47,18.62-3,109.36-3,109.36l-46.3.23s3.32-102.61,3.24-109.43c-.12-11,8-132.92,8-132.92Z" style="fill:#f7a9a0"></path><path d="M257.35,192.75s-1,20.47-5.74,37.08c-.38,1.38-.79,2.73-1.24,4a78.68,78.68,0,0,0-12.63,6.52s.92,61.21.76,68.38c0,0-47.86-.59-51.57-1.56,1.13-18.29,3.39-42,6.11-69,0,0-2.41-4.55-2.48-12.73-.07-8.56,2.58-23.55,7.26-32.68Z" style="fill:#37474f"></path><path d="M231.2,243.29c2-1.43,4.14-2.63,6.26-3.87s4.35-2.47,6.61-3.56a109.18,109.18,0,0,1,13.69-5.2c.12,0,.2.16.08.21-4.46,2-8.78,4.26-13.21,6.31-2.23,1-4.48,2-6.72,3s-4.41,2.18-6.66,3.15C231.19,243.4,231.14,243.32,231.2,243.29Z" style="fill:#263238"></path><path d="M242.83,220.41c0-2.21.15-4.41.22-6.61.19-5.19.31-10.42.72-15.6a.16.16,0,0,1,.32,0c.13,4,0,8.05,0,12.07,0,2,0,4-.07,6a55.13,55.13,0,0,0,0,5.75c.13,1.45.49,4.26,2.38,4.41s3.12-1.51,3.54-2.93a54.68,54.68,0,0,0,1.73-11.18c.19-2.2.36-11.46.21-13.69,0-.14.21-.14.22,0,.16,2.27.5,4.52.61,6.8s.15,4.53,0,6.79-.26,4.35-.56,6.51a23.15,23.15,0,0,1-1.31,5.76,5.09,5.09,0,0,1-3.44,3.31,3.58,3.58,0,0,1-.64.07c0,.47-.07.94-.09,1.4,0,.73-.12,1.45-.21,2.18a16.76,16.76,0,0,1-.42,2.11,7.71,7.71,0,0,1-.71,2,.11.11,0,0,1-.2-.06,9.71,9.71,0,0,1,.14-2.08c.09-.7.18-1.42.31-2.12s.25-1.38.38-2.07c.09-.46.15-.94.23-1.41a3.35,3.35,0,0,1-2.55-2A12.2,12.2,0,0,1,242.83,220.41Z" style="fill:#263238"></path><path d="M192.34,296.83c13.85-.11,27.72.3,41.54,1.34a.13.13,0,0,1,0,.25c-13.86.17-27.73-.29-41.55-1.28A.16.16,0,0,1,192.34,296.83Z" style="fill:#263238"></path><path d="M200.48,220a50.24,50.24,0,0,0,9.42.11,16.4,16.4,0,0,0,8.15-3.33c5.14-4.11,7.32-10.73,8.64-16.94a.11.11,0,0,1,.22,0c-.51,5.37-1.59,10.94-5,15.3a16.68,16.68,0,0,1-5.45,4.64,16.5,16.5,0,0,1-7.28,1.61,35.48,35.48,0,0,1-8.76-1.06A.18.18,0,0,1,200.48,220Z" style="fill:#263238"></path><polygon points="276.07 472.59 274.68 466.08 268.22 320.16 272.51 300.89 268.45 224.23 267.97 163.7 276.68 161.25 279.67 162.69 276.68 224.23 280.53 300.89 276.02 322.49 276.07 472.59" style="fill:#FFC727"></polygon><polygon points="276.07 472.59 274.68 466.08 268.22 320.16 272.51 300.89 268.45 224.23 267.97 163.7 276.68 161.25 279.67 162.69 276.68 224.23 280.53 300.89 276.02 322.49 276.07 472.59" style="opacity:0.4"></polygon><path d="M239,132c24.16,5.08,68.63.9,69.51-10.42.61-7.85-4.72-32.89-19.35-45.55C287,74.15,268,97.48,270.78,100.35a36.21,36.21,0,0,1,6.59,11.21c.45,1.49-24.8,5.69-34.8,8.16C224.07,124.27,232.3,130.56,239,132Z" style="fill:#f7a9a0"></path><path d="M263.22,137.75,259.65,113s-17.24,2.87-26.71,7.47-5.59,9.63,4.29,12.4S263.22,137.75,263.22,137.75Z" style="fill:#FFC727"></path><path d="M260.65,137.39a217.44,217.44,0,0,1-23.42-4.53c-9.88-2.77-13.77-7.79-4.29-12.4l.58-.28Z" style="opacity:0.1"></path><path d="M254.42,114.83a158.57,158.57,0,0,0,2.67,21.09s.18,0,.18,0c-.39-5.79-2-17.26-2.61-21.09C254.65,114.73,254.41,114.76,254.42,114.83Z" style="fill:#263238"></path><path d="M241.45,126.39a0,0,0,0,0-.06,0c.09,3.51.06,11.65-5.42,11-2.2-.28-4.17-1.74-5.8-3.16a30.7,30.7,0,0,1-4.49-4.9c-1.47-2-2.78-4.16-4.12-6.23-.05-.09-.18,0-.13.09a50.3,50.3,0,0,0,3.66,6.53,27.07,27.07,0,0,0,4.83,5.42c1.76,1.46,3.85,2.92,6.19,3.1a4.43,4.43,0,0,0,4.63-3.17A19.54,19.54,0,0,0,241.45,126.39Z" style="fill:#263238"></path><path d="M196.41,208.89c.18.18,66.26-6.94,66.88-7.74.86-1.14-18-68.39-23.85-79.43-2.49-4.7-14.45-5.38-19.17-.93-11.83,11.12-20.06,47.09-21.79,57.88C195.6,196.44,195.75,208.23,196.41,208.89Z" style="fill:#fff"></path><path d="M238.15,119.71l16.21,92.94,12.48-6.42s-20.7-68.44-22-73.18S240.67,121.49,238.15,119.71Z" style="fill:#FFC727"></path><path d="M224.16,117.8c.82-.35,1.54,36.67,1.63,42.77s.69,54.25.69,54.25l-36.54-4.74s6.47-42.86,18.07-69C214.55,126.27,218.11,120.32,224.16,117.8Z" style="fill:#FFC727"></path><path d="M237.23,131.17c-4,.24-10.26-7.35-12-12.51-.12-.36,1-3.69,2.1-7.79.67-2.49,1.36-5.29,1.81-7.88l15.59,6.77a42.11,42.11,0,0,0-3.3,9.69,5.71,5.71,0,0,0-.07,1.08s0,.11,0,.18C241.31,122.79,241.07,130.94,237.23,131.17Z" style="fill:#f7a9a0"></path><path d="M241.33,120.53a1,1,0,0,1,0,.17,9.71,9.71,0,0,1-1.69-.19c-9.37-1.84-9.6-13.74-9.46-17.06l3.89,1.69,10.64,4.62a41.59,41.59,0,0,0-3.3,9.69A6.79,6.79,0,0,0,241.33,120.53Z" style="fill:#263238"></path><path d="M223.92,88.78c-.58,6.22,6,22.5,10.92,25.41,7.16,4.23,17.16,2.72,20.31-5.49,3.06-8-5.88-29-11.23-31.49C236,73.57,224.79,79.59,223.92,88.78Z" style="fill:#f7a9a0"></path><path d="M226.12,99.64c2.24,6.29,5.77,12.82,8.73,14.55,7.15,4.23,17.14,2.72,20.3-5.49,1.12-2.93.63-7.64-.73-12.54,0,.24.12,4-1.86,4.86a3,3,0,0,1-3.39-.79l-1.45,0a10.19,10.19,0,0,1-6.42,3.3,12.07,12.07,0,0,1-9.76-2.69c-1.79-1.69-1.92-2.48-1.92-2.48Z" style="fill:#263238;opacity:0.2"></path><path d="M242.3,95.53s-.06.09,0,.13c.47,1.09.83,2.41,0,3.17,0,0,0,.08,0,.06C243.42,98.23,242.92,96.48,242.3,95.53Z" style="fill:#263238"></path><path d="M240.87,94.78c-1.82.56-.55,4.16,1.13,3.64S242.39,94.3,240.87,94.78Z" style="fill:#263238"></path><path d="M248.71,93.26s.1,0,.12.07c.35,1.13.95,2.36,2.09,2.37,0,0,.06.06,0,.07C249.65,96,248.86,94.39,248.71,93.26Z" style="fill:#263238"></path><path d="M249.29,91.75c1.74-.77,3.16,2.78,1.54,3.49S247.83,92.39,249.29,91.75Z" style="fill:#263238"></path><path d="M238.87,93.63c.44-.3.8-.64,1.22-1a2.54,2.54,0,0,0,1-1.24.8.8,0,0,0-.45-.88,2,2,0,0,0-2,.48,2.88,2.88,0,0,0-1.17,1.76A.86.86,0,0,0,238.87,93.63Z" style="fill:#263238"></path><path d="M250.36,90.24c-.45.28-.91.47-1.39.71a2.53,2.53,0,0,1-1.56.46.81.81,0,0,1-.62-.77A2,2,0,0,1,248,89a2.94,2.94,0,0,1,2.09-.35A.87.87,0,0,1,250.36,90.24Z" style="fill:#263238"></path><path d="M245.38,106.12a1.85,1.85,0,0,0,1.17.33,3.06,3.06,0,0,0,1.1-.71s.08,0,.07,0a1.59,1.59,0,0,1-1.2,1.11,1.24,1.24,0,0,1-1.22-.68C245.26,106.15,245.33,106.1,245.38,106.12Z" style="fill:#263238"></path><path d="M245.38,102.37a4,4,0,0,0,3.13.8,5.42,5.42,0,0,0,1.39-.42l.25-.13.23-.12a.3.3,0,0,0,.13-.33h0l0-.11h0l0-.09c-.28-.87-.83-2.15-.83-2.15.37,0,2.23.21,2-.23a59.68,59.68,0,0,0-5.53-11,.11.11,0,0,0-.19.1c1.33,3.55,3.28,6.84,4.68,10.39a6.71,6.71,0,0,0-2,.09c-.11.07,1.09,2.44,1.19,2.84a.12.12,0,0,1,0,0,5.57,5.57,0,0,1-4.36.16C245.34,102.2,245.28,102.31,245.38,102.37Z" style="fill:#263238"></path><path d="M249.35,102.75a4.63,4.63,0,0,1-1.41,1.9,2.06,2.06,0,0,1-1.21.42c-1,0-1.21-.8-1.24-1.54a4.92,4.92,0,0,1,.1-1.18A6.08,6.08,0,0,0,249.35,102.75Z" style="fill:#263238"></path><path d="M247.94,104.65a2.06,2.06,0,0,1-1.21.42c-1,0-1.21-.8-1.24-1.54A2.18,2.18,0,0,1,247.94,104.65Z" style="fill:#ff98b9"></path><path d="M228.08,102.11c4.15-1.1,4.62-6.66,2.34-10.22,0,0,11.27-2.25,8.83-11.08a10.38,10.38,0,0,0,8.85,1.48l1.77,2.79c1-.7,1.1-4.24-2.44-5.79a11.17,11.17,0,0,0-5.78-5,6.31,6.31,0,0,0-6.6,1.07,8.41,8.41,0,0,0-11.23,6.09s-4.55,3-4.16,7.09a8.22,8.22,0,0,0,2.77,5.83s-.83,1.95,1,5C224.54,101.29,226.84,102.44,228.08,102.11Z" style="fill:#263238"></path><path d="M238.75,80.12a10.57,10.57,0,0,1,.74,2.11,8.88,8.88,0,0,1,.31,2.17,5.75,5.75,0,0,1-1.44,4,9.2,9.2,0,0,1-3.63,2.35c-.7.22-1.4.49-2.12.67s-1.46.32-2.19.51c.75-.07,1.49-.17,2.24-.26s1.47-.36,2.21-.53a9.33,9.33,0,0,0,3.89-2.39,6,6,0,0,0,1.44-4.32A9.14,9.14,0,0,0,238.75,80.12Z" style="fill:#263238"></path><path d="M246,83.22a11.55,11.55,0,0,1-3.87-.64,7,7,0,0,1-1.71-.89A9.09,9.09,0,0,1,239,80.37,5,5,0,0,0,240.18,82,5.11,5.11,0,0,0,242,83.07a6.15,6.15,0,0,0,2,.39A6,6,0,0,0,246,83.22Z" style="fill:#263238"></path><path d="M230.37,101.82s-5-4.58-7.21-2.67,2.49,9.17,5.64,9.59a3,3,0,0,0,3.59-2.48Z" style="fill:#f7a9a0"></path><path d="M224.55,101.2c-.05,0,0,.07,0,.08,2.22.36,3.72,2,4.91,3.79a1.66,1.66,0,0,0-2.53.11c-.05,0,0,.12.08.09a1.87,1.87,0,0,1,2.14.19,9.16,9.16,0,0,1,1.32,1.39c.13.17.44,0,.32-.2l0,0C230.23,104,227.39,100.83,224.55,101.2Z" style="fill:#263238"></path><path d="M220,94.15,217.9,82.84s6.47-7.31,8.18-8.65,9.45-4.81,9.45-4.81L244,75.14Z" style="fill:#FFC727"></path><path d="M220,94.15,217.9,82.84s6.47-7.31,8.18-8.65,9.45-4.81,9.45-4.81L244,75.14Z" style="opacity:0.1"></path><path d="M253.45,75.65S236,84,219.61,103.48l.41-9.33s10.45-14,24-19Z" style="fill:#FFC727"></path><path d="M253.45,75.65S236,84,219.61,103.48l.41-9.33s10.45-14,24-19Z" style="opacity:0.2"></path><path d="M219.58,120.29c-1.1-1.05,4.12-4.31,5.95-3.21s12.05,18.64,11.26,40.25-44.93,43.18-46.92,40.15c-.83-1.28-.65-4.52.36-5.82,1.42-1.84,33.56-18.31,35.59-31.86C227.63,147.76,224.3,124.82,219.58,120.29Z" style="fill:#263238"></path><path d="M210.7,132.17c-13,25.52-16,57.09-12.22,61,10.29,10.51,47.23,11.21,56.42,11.05,3.71-.07,3.46-30.79-.5-31.07-9.4-.65-30.69-3.16-31.08-3.44-.83-.61.55-13.67.18-34.51C223.2,117.75,216,121.73,210.7,132.17Z" style="fill:#f7a9a0"></path><path d="M291,177.32c-.41,2-2.94,2.42-2.94,2.42a6.77,6.77,0,0,1,2.08,4.08c.22,2.77-4,4.32-4,4.32a8.33,8.33,0,0,1,1.51,4.66c-.06,2.67-4.13,4.84-4.13,4.84a7.54,7.54,0,0,1-1.25,4.93c-4.56,6.31-24.45,3-29.92.82l-2.68-29.68s18.47-7.91,26.6-6.85C280.74,167.44,292.11,171.85,291,177.32Z" style="fill:#f7a9a0"></path><path d="M288,179.62c-4.47-2.17-9.45-3.27-14.27-4.28-.1,0-.14.14,0,.16,4.8.95,9.47,3.21,14.23,4.35C288.05,179.88,288.11,179.68,288,179.62Z" style="fill:#263238"></path><path d="M286,187.75a12.76,12.76,0,0,0-3.3-.75q-1.78-.28-3.57-.51c-2.38-.29-4.78-.54-7.18-.71-.1,0-.14.15,0,.17,2.38.3,4.75.63,7.11,1,1.19.2,2.37.42,3.55.63a15.2,15.2,0,0,0,3.36.47A.18.18,0,0,0,286,187.75Z" style="fill:#263238"></path><path d="M283.38,197.63a9,9,0,0,0-3-.53l-3.26-.35c-2.18-.25-4.36-.5-6.52-.83-.11,0-.15.15,0,.17,2.2.34,4.4.71,6.6,1,1.08.16,2.17.32,3.25.46a8.33,8.33,0,0,0,3,.16A.06.06,0,0,0,283.38,197.63Z" style="fill:#263238"></path><path d="M199.62,153.55l24.83,3s1.75-17.39-.22-27.74-7.83-7.91-13.08.9S199.62,153.55,199.62,153.55Z" style="fill:#FFC727"></path><path d="M224,151a158.19,158.19,0,0,0-21.05-2.94s-.07.16,0,.17c5.69,1.14,17.19,2.56,21,3C224,151.25,224,151,224,151Z" style="fill:#263238"></path><path d="M223.35,156.45l1.11,0-.11.09c0-1.39.05-2.77.08-4.15.15-3.86.46-8.56.73-12.41a65.24,65.24,0,0,1-.61,16.57l0,.11c-.4-.07-.79-.16-1.18-.25Z" style="fill:#263238"></path><path d="M292.17,78.79s-14.7-15.64-26-19.73c-4.74-1.72-25.94-4.42-26.77.68-.75,4.62,17.71,4.87,17.71,4.87s-18.61-1.9-18.49,3.83,21,3.24,21,3.24-19.16-1.53-18.1,4.36c.79,4.45,19.85,3.26,19.85,3.26s-16.48-1.19-15.86,3.42c.69,5.09,18.34,5.1,18.34,5.1,1.16,8.58,4.35,12.66,9.23,15C274.25,103.34,292.17,78.79,292.17,78.79Z" style="fill:#f7a9a0"></path><path d="M263.56,64.85c-2.17-.3-4.38-.62-6.57-.73s-4.4-.13-6.6,0a36.65,36.65,0,0,0-8.51,1.2c5-.92,12.9-.66,15.1-.55s4.39.1,6.58.21C263.62,64.94,263.62,64.86,263.56,64.85Z" style="fill:#263238"></path><path d="M263.32,72.79c-2.8-.26-5.56-.63-8.37-.77s-5.47,0-8.26,0c-.22,0-.15.12.07.12,2.8.06,5.38.34,8.18.43s5.6.08,8.38.27C263.36,72.86,263.36,72.8,263.32,72.79Z" style="fill:#263238"></path><path d="M264.34,79.65a62.49,62.49,0,0,0-12.9-.21c-.21,0-.1.15.12.15,4.28,0,7.65,0,12.75.2C264.39,79.8,264.43,79.66,264.34,79.65Z" style="fill:#263238"></path><path d="M252.19,86.7c-2.37-.18-8.36-1.45-6.68-4.92,1.67-1.89,4.41-2.26,6.76-2.68l0,.69a27.57,27.57,0,0,1-8.54-1.63c-.85-.39-1.87-.88-2.17-1.84a3.7,3.7,0,0,0,2.28,1.56,35.41,35.41,0,0,0,8.46,1.21l3.43.14c-2.91.55-6.48.79-9,2.32a1.57,1.57,0,0,0-.89,1.36,2.22,2.22,0,0,0,.84,1.54,13.6,13.6,0,0,0,5.53,2.25Z" style="fill:#263238"></path></g></svg>
