<svg xmlns="http://www.w3.org/2000/svg" viewBox="0 0 500 500"><g id="freepik--background-complete--inject-94"><path d="M42.91,353.24s75.57-43.44,122.43-43.44c56.28,0,111,19.36,131.7,25.75,54.49,16.79,160,17.69,160,17.69Z" style="fill:#dbdbdb"></path><path d="M457.09,353.24S414.18,328,365.71,328c-33.84,0-82.4,5.23-128.13,13.81-17.42,3.27-108.07,11.46-108.07,11.46Z" style="fill:#c7c7c7"></path><path d="M454.92,100.19H359.34s9.48-25.88,24.06-25.88,19.16,17.86,19.16,17.86,9.84-9.71,17.92-9.71,15.11,12.83,15.11,12.83S447,88.39,454.92,100.19Z" style="fill:#ebebeb"></path><path d="M326,86.33H281.33s10-14.46,17.84-14.46,10.19,9.64,10.19,9.64,5.55-4.49,10.69-3.69S326,86.33,326,86.33Z" style="fill:#ebebeb"></path><path d="M132.08,147h-87S57,120.4,69.74,118.74,88.58,138.5,88.58,138.5s8.22-7.57,14.69-7.57,11.45,10,11.45,10S127.65,134.07,132.08,147Z" style="fill:#ebebeb"></path><path d="M187.47,61.73H128.7s10.09-19.27,21.05-19.55,16.7,14.59,16.7,14.59S183.49,43.1,187.47,61.73Z" style="fill:#ebebeb"></path><path d="M204,158.39H164.3s6.81-13,14.21-13.2S189.78,155,189.78,155,201.28,145.8,204,158.39Z" style="fill:#ebebeb"></path><path d="M351,154.06H311.35s6.82-13,14.21-13.19,11.28,9.84,11.28,9.84S348.33,141.48,351,154.06Z" style="fill:#ebebeb"></path></g><g id="freepik--Trees--inject-94"><path d="M216.21,329.29c-1.72,1.72-21.74,2.49-29,2.49s-27.3-.77-29-2.49,22.53-134.79,29-134.79S217.93,327.58,216.21,329.29Z" style="fill:#455a64"></path><path d="M216.61,295.38c-4.94,1.89-23.27,9.35-27.22,11.53,0-.84,0-1.67,0-2.5,4.43-2.61,8.86-5.18,13.29-7.76,4.76-2.77,9.87-5.24,14.31-8.5.21-.16.09-.6-.21-.48-4.89,2-9.43,5.06-14,7.73s-9,5.36-13.4,8.11q0-9.57-.08-19.13a151.68,151.68,0,0,0,20.88-10.62c.23-.13.08-.55-.19-.44a153.43,153.43,0,0,0-20.7,10.2c0-3.32,0-6.63-.07-9.95-.18-17.07-.21-34.17-.65-51.24,4.35-2.2,8.82-4.13,13.16-6.33.29-.15.09-.65-.22-.53-4.4,1.72-8.65,3.76-13,5.67-.24-8.82-.57-17.62-1.11-26.42a.23.23,0,0,0-.45,0c-.61,16.36-.56,32.73-.36,49.1-4.5-3.59-9.3-6.77-13.88-10.25-.18-.14-.35.16-.17.29,4.79,3.65,9.27,7.69,14.07,11.32l0,2.77c-4.88-2.23-9.83-4.3-14.76-6.42-.39-.16-.73.39-.34.58,5,2.41,10,4.87,15.12,7.14.12,8.11.26,16.22.36,24.32.19,14.16.5,28.32.8,42.47Q174,309,160,302.45c-.36-.17-.67.33-.31.53a290.69,290.69,0,0,0,28.17,14.15c.25,11.77.5,23.53.65,35.29a.56.56,0,0,0,1.11,0c-.17-15-.19-30-.23-45,4.86-1.2,23.21-9.06,27.57-11.21C217.41,296,217.09,295.2,216.61,295.38Z" style="fill:#37474f"></path><path d="M181.4,325.14c2,2,25.56,2.91,34.12,2.91s32.1-.89,34.12-2.91-26.49-158.48-34.12-158.48S179.38,323.12,181.4,325.14Z" style="fill:#37474f"></path><path d="M180.93,285.27c5.81,2.22,27.36,11,32,13.55,0-1,0-2,0-2.94q-7.78-4.59-15.62-9.12c-5.59-3.26-11.6-6.16-16.81-10-.26-.18-.12-.71.23-.56,5.75,2.39,11.09,5.95,16.45,9.09s10.54,6.3,15.76,9.53q0-11.25.09-22.49a179.7,179.7,0,0,1-24.55-12.48c-.27-.16-.09-.66.22-.53a180.78,180.78,0,0,1,24.34,12c0-3.9,0-7.8.08-11.7.22-20.07.26-40.17.77-60.25-5.11-2.57-10.37-4.85-15.47-7.44-.34-.17-.1-.75.25-.61,5.19,2,10.18,4.42,15.26,6.65.28-10.36.67-20.71,1.3-31.05a.27.27,0,0,1,.54,0c.71,19.23.65,38.48.41,57.73,5.29-4.23,10.94-8,16.32-12.06.21-.16.41.19.21.35-5.63,4.28-10.9,9-16.55,13.3,0,1.09,0,2.18,0,3.26,5.74-2.62,11.56-5.06,17.36-7.54.45-.2.86.45.4.67-5.91,2.84-11.8,5.72-17.78,8.4-.14,9.53-.3,19.07-.42,28.59-.22,16.65-.59,33.29-.94,49.94q16.25-8.22,32.73-16c.42-.2.78.39.37.63a342.88,342.88,0,0,1-33.13,16.64c-.29,13.83-.58,27.66-.76,41.49a.65.65,0,0,1-1.3,0c.19-17.64.22-35.28.27-52.92-5.71-1.41-27.29-10.65-32.42-13.18C180,286,180.37,285.05,180.93,285.27Z" style="fill:#455a64"></path><path d="M113.14,343.2c2.46,2.46,31.11,3.55,41.53,3.55s39.06-1.09,41.52-3.55S164,150.34,154.67,150.34,110.68,340.74,113.14,343.2Z" style="fill:#37474f"></path><path d="M112.57,294.68c7.07,2.7,33.29,13.38,39,16.49,0-1.19,0-2.38,0-3.58q-9.48-5.58-19-11.09c-6.81-4-14.12-7.5-20.47-12.17-.31-.22-.14-.86.29-.68,7,2.91,13.5,7.23,20,11.06s12.82,7.67,19.18,11.6q0-13.69.11-27.38a218.3,218.3,0,0,1-29.88-15.18c-.33-.2-.11-.8.27-.64a219.36,219.36,0,0,1,29.62,14.6c0-4.75.05-9.49.1-14.24.26-24.43.31-48.89.93-73.32-6.21-3.14-12.62-5.9-18.83-9.06-.41-.2-.12-.92.32-.75,6.3,2.46,12.38,5.39,18.56,8.1.34-12.6.82-25.2,1.59-37.79a.33.33,0,0,1,.65,0c.87,23.4.8,46.83.5,70.26,6.44-5.15,13.31-9.69,19.87-14.68.25-.19.5.24.24.43-6.85,5.21-13.26,11-20.13,16.19,0,1.32,0,2.64-.05,4,7-3.19,14.07-6.16,21.12-9.19.56-.23,1.05.56.49.83-7.19,3.45-14.36,7-21.64,10.21-.16,11.61-.36,23.21-.51,34.8-.26,20.26-.71,40.52-1.14,60.77q19.77-10,39.83-19.45c.51-.24,1,.48.45.77a416.91,416.91,0,0,1-40.31,20.24c-.36,16.84-.71,33.67-.93,50.5a.79.79,0,0,1-1.58,0c.23-21.47.27-42.94.32-64.4-7-1.72-33.21-13-39.45-16C111.43,295.54,111.88,294.42,112.57,294.68Z" style="fill:#455a64"></path><path d="M226.19,343.2c2.46,2.46,31.1,3.55,41.52,3.55s39.07-1.09,41.52-3.55S277,150.34,267.71,150.34,223.73,340.74,226.19,343.2Z" style="fill:#37474f"></path><path d="M225.61,294.68c7.08,2.7,33.3,13.38,39,16.49,0-1.19,0-2.38,0-3.58q-9.49-5.58-19-11.09c-6.81-4-14.12-7.5-20.46-12.17-.31-.22-.14-.86.29-.68,7,2.91,13.49,7.23,20,11.06s12.82,7.67,19.17,11.6q0-13.69.12-27.38a217.73,217.73,0,0,1-29.88-15.18c-.33-.2-.11-.8.27-.64a219.94,219.94,0,0,1,29.62,14.6c0-4.75,0-9.49.1-14.24.26-24.43.31-48.89.93-73.32-6.22-3.14-12.62-5.9-18.83-9.06-.41-.2-.13-.92.31-.75,6.31,2.46,12.38,5.39,18.57,8.1.33-12.6.81-25.2,1.58-37.79a.33.33,0,0,1,.65,0c.88,23.4.8,46.83.51,70.26,6.44-5.15,13.3-9.69,19.86-14.68.25-.19.5.24.25.43-6.85,5.21-13.26,11-20.14,16.19,0,1.32,0,2.64-.05,4,7-3.19,14.07-6.16,21.13-9.19.55-.23,1.05.56.48.83-7.19,3.45-14.35,7-21.63,10.21-.17,11.61-.37,23.21-.52,34.8-.26,20.26-.71,40.52-1.14,60.77q19.77-10,39.84-19.45c.51-.24.95.48.45.77a418.23,418.23,0,0,1-40.32,20.24c-.36,16.84-.71,33.67-.92,50.5a.8.8,0,0,1-1.59,0c.23-21.47.27-42.94.33-64.4-6.95-1.72-33.21-13-39.45-16C224.48,295.54,224.93,294.42,225.61,294.68Z" style="fill:#455a64"></path><path d="M393.72,344.94c-3.54,3.54-44.79,5.11-59.8,5.11s-56.26-1.57-59.8-5.11,46.42-277.76,59.8-277.76S397.26,341.4,393.72,344.94Z" style="fill:#455a64"></path><path d="M394.55,275.06c-10.19,3.89-47.95,19.27-56.11,23.75,0-1.72,0-3.44,0-5.16q13.66-8,27.39-16c9.8-5.71,20.33-10.8,29.47-17.52.45-.33.2-1.25-.42-1-10.07,4.2-19.43,10.42-28.83,15.93s-18.46,11-27.61,16.71q-.06-19.71-.17-39.43c14.72-5.9,29.5-13.78,43-21.87.47-.28.16-1.15-.39-.92-14.36,5.93-29.28,12.92-42.65,21-.05-6.84-.08-13.67-.15-20.5-.38-35.19-.45-70.42-1.34-105.61,8.95-4.51,18.17-8.5,27.12-13,.59-.29.17-1.32-.45-1.08-9.09,3.55-17.83,7.75-26.74,11.67-.49-18.16-1.18-36.3-2.29-54.43a.47.47,0,0,0-.93,0c-1.26,33.7-1.15,67.44-.73,101.18-9.28-7.4-19.16-13.95-28.6-21.13-.37-.28-.73.34-.36.61,9.87,7.51,19.1,15.83,29,23.32,0,1.9,0,3.81.07,5.71-10.06-4.59-20.26-8.87-30.43-13.23-.79-.34-1.5.81-.69,1.19,10.35,5,20.67,10,31.15,14.72.24,16.71.53,33.42.74,50.12.39,29.17,1,58.34,1.65,87.51q-28.47-14.4-57.37-28c-.74-.35-1.37.68-.65,1.1a602.2,602.2,0,0,0,58.07,29.16c.51,24.24,1,48.48,1.32,72.72a1.15,1.15,0,0,0,2.29,0c-.34-30.91-.39-61.83-.47-92.75,10-2.47,47.83-18.67,56.81-23.1C396.19,276.29,395.53,274.69,394.55,275.06Z" style="fill:#37474f"></path><path d="M40.76,343.45c3.65,3.65,46.17,5.27,61.64,5.27s58-1.62,61.63-5.27S116.18,57.18,102.4,57.18,37.11,339.8,40.76,343.45Z" style="fill:#455a64"></path><path d="M39.91,271.43c10.5,4,49.42,19.85,57.82,24.47l0-5.31q-14.08-8.28-28.22-16.47c-10.11-5.88-21-11.12-30.38-18.05-.46-.34-.2-1.28.43-1,10.39,4.33,20,10.74,29.72,16.42s19,11.39,28.46,17.22q.06-20.32.17-40.64c-15.17-6.08-30.41-14.2-44.35-22.54-.49-.29-.16-1.18.4-.95,14.79,6.12,30.18,13.32,44,21.67,0-7,.08-14.08.15-21.12.39-36.26.46-72.57,1.38-108.84-9.22-4.65-18.73-8.76-27.95-13.44-.6-.31-.18-1.36.47-1.11,9.36,3.65,18.37,8,27.56,12,.5-18.71,1.21-37.41,2.35-56.09a.48.48,0,0,1,1,0c1.3,34.73,1.19,69.51.76,104.27,9.55-7.63,19.75-14.37,29.47-21.78.38-.28.75.35.37.64-10.17,7.74-19.68,16.31-29.88,24,0,2,0,3.92-.08,5.89,10.37-4.74,20.89-9.15,31.36-13.63.82-.36,1.55.82.72,1.22-10.68,5.12-21.31,10.33-32.12,15.16-.24,17.23-.53,34.45-.76,51.66-.39,30.07-1,60.13-1.69,90.19q29.34-14.83,59.13-28.87c.75-.36,1.41.71.66,1.14A620.49,620.49,0,0,1,101,317.62c-.53,25-1,50-1.37,74.95a1.18,1.18,0,0,1-2.36,0c.35-31.86.4-63.73.49-95.59-10.32-2.55-49.29-19.24-58.55-23.81C38.22,272.7,38.9,271,39.91,271.43Z" style="fill:#37474f"></path><path d="M350,348.4c3.29,3.29,41.62,4.75,55.56,4.75s52.27-1.46,55.56-4.75-43.13-258-55.56-258S346.71,345.11,350,348.4Z" style="fill:#37474f"></path><path d="M349.23,283.48c9.47,3.62,44.55,17.9,52.13,22.06,0-1.59,0-3.19,0-4.78-8.46-5-17-9.91-25.44-14.85-9.11-5.3-18.89-10-27.38-16.27-.42-.31-.19-1.16.38-.92,9.37,3.9,18.06,9.68,26.79,14.8s17.15,10.26,25.65,15.52q.06-18.32.16-36.63a290.91,290.91,0,0,1-40-20.32c-.44-.26-.14-1.06.36-.85a293.69,293.69,0,0,1,39.63,19.53c.05-6.35.07-12.7.14-19,.35-32.69.41-65.42,1.24-98.11-8.32-4.2-16.88-7.9-25.19-12.12-.55-.27-.17-1.23.42-1,8.43,3.29,16.56,7.2,24.84,10.84.45-16.87,1.09-33.73,2.12-50.57a.44.44,0,0,1,.87,0c1.17,31.31,1.07,62.66.68,94,8.61-6.88,17.8-13,26.57-19.63.34-.26.67.31.33.57-9.17,7-17.74,14.71-26.94,21.66l-.06,5.31c9.34-4.27,18.82-8.24,28.26-12.29.74-.32,1.4.74.65,1.1-9.62,4.62-19.21,9.32-29,13.67-.22,15.53-.48,31.05-.69,46.57-.35,27.1-.95,54.2-1.52,81.3q26.44-13.38,53.3-26c.68-.32,1.27.64.6,1a557.05,557.05,0,0,1-54,27.09c-.48,22.52-.94,45-1.23,67.56a1.07,1.07,0,0,1-2.13,0c.32-28.72.37-57.44.44-86.17-9.3-2.3-44.43-17.34-52.78-21.46C347.71,284.62,348.32,283.13,349.23,283.48Z" style="fill:#455a64"></path></g><g id="freepik--Floor--inject-94"><polygon points="38.64 353.24 91.48 353 144.32 352.91 250 352.74 355.68 352.91 408.52 353 461.36 353.24 408.52 353.49 355.68 353.57 250 353.74 144.32 353.57 91.48 353.48 38.64 353.24" style="fill:#263238"></polygon></g><g id="freepik--Character--inject-94"><path d="M257.23,208.55c-.58,1-58.73,10.74-61.61,10.28a1.69,1.69,0,0,1-.41-.11c-3.64-1.19-21.37-13.88-22.72-15-3.32-2.66,6.29-25.45,9.75-29.45,2.3-2.66,7-4.16,7-4.16s8.76-40.73,16.11-49.93c1.84-2.31,38-7.55,44.84-5.39,2.93.93,10.52,7,10.86,8.21h0C261.43,124.82,257.82,207.57,257.23,208.55Z" style="fill:#FFC727"></path><path d="M257.23,208.55c-.58,1-58.73,10.74-61.61,10.28a1.69,1.69,0,0,1-.41-.11c-3.64-1.19-21.37-13.88-22.72-15-3.32-2.66,6.29-25.45,9.75-29.45,2.3-2.66,7-4.16,7-4.16s8.76-40.73,16.11-49.93c1.84-2.31,38-7.55,44.84-5.39,2.93.93,10.52,7,10.86,8.21h0C261.43,124.82,257.82,207.57,257.23,208.55Z" style="opacity:0.4"></path><path d="M257.23,208.55c-.58,1-58.73,10.74-61.61,10.28a1.69,1.69,0,0,1-.41-.11c3.75-15.83,21.4-90.13,22.09-90.68s35.37-4.58,43.73-5C261.43,124.82,257.82,207.57,257.23,208.55Z" style="opacity:0.4"></path><path d="M262.35,110.93c-.25,5.28-2.09,9.55-4.24,10v0l-49,4.32.93-20.37,47.87-4.21a1.7,1.7,0,0,1,.74-.13l.26,0h.17v.05C261.14,101.25,262.58,105.66,262.35,110.93Z" style="fill:#FFC727"></path><path d="M213.74,115.27c-.26,5.62-2.35,10.1-4.67,10s-4-4.75-3.73-10.38,2.35-10.1,4.67-10S214,109.64,213.74,115.27Z" style="fill:#FFC727"></path><path d="M213.63,110.07a16,16,0,0,0-1.15-2.44,3.94,3.94,0,0,0-1.67-1.8c-.09,0-.19.07-.11.14,1.23,1.08,1.85,3,2.33,4.53a15.42,15.42,0,0,1,.72,5.18,13.1,13.1,0,0,1-3.54,8.72c-.08.07,0,.19.13.12a11.33,11.33,0,0,0,3.15-4,12.64,12.64,0,0,0,1.11-5A15.5,15.5,0,0,0,213.63,110.07Z" style="fill:#263238"></path><path d="M250.1,137.06C267.34,152.29,304.71,171,311,163.57c7.8-9.14.55-37.15-.81-40.19-1.53-3.43-29.87,4.76-27.89,8.25,1.18,2.06,1.93,4.26,1.73,4.26-2,0-7-3.1-26.27-9.24C247.06,123.23,238.69,127,250.1,137.06Z" style="fill:#eb9481"></path><path d="M284.08,135.81c.88,2.15,1.61,4.32,2.41,6.46s1.65,4.26,2.49,6.43a26.17,26.17,0,0,1-3.19-6.17A32.49,32.49,0,0,1,284.08,135.81Z" style="fill:#263238"></path><path d="M303.53,104.38c3.69,5,7.22,18.17,6.85,21.68s-22.57,10.26-25.52,8.17S270.81,114.34,271.07,108,299.71,99.2,303.53,104.38Z" style="fill:#eb9481"></path><path d="M271.39,93.7c-1.87-2.2-9.07-7.8-11-6.15s2.15,6.68,3.86,8.67c3.52,4.1,6,11.14,7.17,14.57s7.87-2.81,7.87-2.81S276.23,99.39,271.39,93.7Z" style="fill:#eb9481"></path><path d="M275.41,114.78s1.87,6.1,5.51,6.19,3-5.12,3-5.49c.11.32,2,5.88,5.63,5.59,3.81-.31,2.41-5.43,2.32-5.76.19.28,2.79,3.86,5.52,3,4.69-1.47-1.68-10.81-.78-14.69,0,0,6.75.78,6.95.76,0,0-5.88-9-11.18-9.93a3.43,3.43,0,0,0-3.8,2s-1.58-3.11-4.47-3c-1.49.08-2.68,2.52-2.68,2.52a4.3,4.3,0,0,0-3.93-2.15c-2.05.22-3.21,2.69-3.38,3.66C272.77,105,275.41,114.78,275.41,114.78Z" style="fill:#eb9481"></path><path d="M274.33,96.85a0,0,0,1,0-.09,0A30.68,30.68,0,0,0,275.4,115c.08.18.41.14.36-.07A62.85,62.85,0,0,1,274.33,96.85Z" style="fill:#263238"></path><path d="M281.36,95.92c0-.06-.11-.07-.13,0a28.69,28.69,0,0,0,2.5,19.75c.12.21.43.28.32,0C282.09,111.48,280.9,101.61,281.36,95.92Z" style="fill:#263238"></path><path d="M292.23,115.65c-3-6-3.86-12.3-3.76-18.94,0-.08-.12-.08-.14,0-.93,3.23-.55,7.46,0,10.73a17.7,17.7,0,0,0,3.67,8.32C292.1,115.86,292.29,115.78,292.23,115.65Z" style="fill:#263238"></path><path d="M275.41,114.78a21,21,0,0,0,1.7,3.26,6.74,6.74,0,0,0,2.52,2.46,2.17,2.17,0,0,0,1.58.15,3.22,3.22,0,0,0,1.39-.85,3.92,3.92,0,0,0,.85-3.09l-.29-2.68,1.21,2.41a11,11,0,0,0,2.07,2.92,3.92,3.92,0,0,0,2.94,1.33,2.25,2.25,0,0,0,2.2-1.79,7,7,0,0,0-.24-3.42l-.91-3.06,1.85,2.59a10.66,10.66,0,0,0,1.8,1.94,4.33,4.33,0,0,0,2.23,1,2,2,0,0,0,1.93-.93,4.45,4.45,0,0,0,.34-2.5,36.35,36.35,0,0,0-1.17-5.41c-.24-.91-.48-1.82-.68-2.74a6.78,6.78,0,0,1-.15-2.8,7.11,7.11,0,0,0,.41,2.74c.26.89.56,1.78.87,2.66a31.07,31.07,0,0,1,1.49,5.47,5.33,5.33,0,0,1-.31,3,2.9,2.9,0,0,1-2.79,1.49,5.26,5.26,0,0,1-2.81-1.23,11.77,11.77,0,0,1-2-2.13l1-.48a7.9,7.9,0,0,1,.32,4,3.26,3.26,0,0,1-1.17,1.89,3.73,3.73,0,0,1-2.06.73,5,5,0,0,1-3.72-1.69,12.05,12.05,0,0,1-2.23-3.25l.92-.26a4.69,4.69,0,0,1-1.25,3.76,4,4,0,0,1-1.78,1,2.8,2.8,0,0,1-2-.27,6.88,6.88,0,0,1-2.54-2.82A17.36,17.36,0,0,1,275.41,114.78Z" style="fill:#263238"></path><path d="M282.44,131.53s-22.72-13.35-13.15-19.67c2.84-1.88,16.76-6.21,17.68-3.43,1.2,3.59-4.28,6.48-8,7.75,0,0,8.36,3.45,7.7,10A6.53,6.53,0,0,1,282.44,131.53Z" style="fill:#eb9481"></path><path d="M268.53,112.43a13.93,13.93,0,0,1,3.41-2.12,29.49,29.49,0,0,1,3.76-1.45,46.41,46.41,0,0,1,7.87-1.84,8.06,8.06,0,0,1,2.14,0,2.84,2.84,0,0,1,1.14.45,1.89,1.89,0,0,1,.8,1,3.37,3.37,0,0,1-.12,2.35,6.28,6.28,0,0,1-1.23,1.82,12.17,12.17,0,0,1-3.41,2.39,27.88,27.88,0,0,1-3.77,1.54l0-.88a16.86,16.86,0,0,1,2.68,1.55,14.75,14.75,0,0,1,2.32,2,10.09,10.09,0,0,1,1.73,2.52,7.9,7.9,0,0,1,.8,2.92,8.83,8.83,0,0,0-1.08-2.76,11,11,0,0,0-1.87-2.27,14.88,14.88,0,0,0-2.32-1.78,16.24,16.24,0,0,0-2.6-1.31l-1.12-.42,1.14-.45a28.07,28.07,0,0,0,3.58-1.6,11.54,11.54,0,0,0,3.09-2.22,3.32,3.32,0,0,0,1.11-3c-.22-.88-1.69-.92-2.93-.81a37.81,37.81,0,0,0-3.89.61c-1.31.25-2.6.52-3.89.85A26,26,0,0,0,268.53,112.43Z" style="fill:#263238"></path><path d="M283.23,133.48l-12.92,21.08s-16-10.65-24.32-18.72-8.09-14,8.51-10.36A246.55,246.55,0,0,1,283.23,133.48Z" style="fill:#FFC727"></path><path d="M283.23,133.48l-12.92,21.08s-16-10.65-24.32-18.72-8.09-14,8.51-10.36A246.55,246.55,0,0,1,283.23,133.48Z" style="fill:#455a64"></path><path d="M267.44,151.17q2.31-4.68,4.84-9.25c.83-1.5,1.64-3,2.5-4.5s1.89-3,2.78-4.54c.06-.11.23,0,.17.08-.8,1.51-1.5,3.08-2.29,4.6s-1.7,3.1-2.56,4.65q-2.53,4.57-5.3,9A.08.08,0,0,1,267.44,151.17Z" style="fill:#263238"></path><path d="M225.13,184.43S249,304.36,250.69,313.21c.39,2-1,109.36-1,109.36h44.38s4.27-93.77,2.13-111.45S267,184.43,267,184.43Z" style="fill:#eb9481"></path><path d="M225.13,184.44s11.62,58.36,19.23,96.67L267,184.44Z" style="fill:#263238"></path><polygon points="282.08 244.4 234.9 250.07 225.13 184.43 267.03 184.43 282.08 244.4" style="fill:#FFC727"></polygon><polygon points="282.08 244.4 234.9 250.07 225.13 184.43 267.03 184.43 282.08 244.4" style="opacity:0.2"></polygon><path d="M236.66,241c5.05-1,10.16-1.63,15.27-2.21s10.12-1.12,15.18-1.64c2.89-.29,5.8-.59,8.71-.74a.14.14,0,1,1,0,.27c-5,.94-10.17,1.54-15.26,2.21s-10.1,1.29-15.16,1.83c-2.9.31-5.8.56-8.72.67A.2.2,0,1,1,236.66,241Z" style="fill:#263238"></path><path d="M231.66,188.26q5.26,18.86,10,37.83c.45,1.78.87,3.56,1.3,5.34a51.41,51.41,0,0,1,1.18,5.51.08.08,0,0,1-.16,0,92.3,92.3,0,0,1-2.76-9.51c-.85-3.13-1.65-6.28-2.47-9.43-1.62-6.29-3.24-12.59-4.77-18.9q-1.31-5.41-2.59-10.82A.12.12,0,0,1,231.66,188.26Z" style="fill:#263238"></path><path d="M326.91,463.24c-2.45.82-72.43.61-75.1-1.08-1-.63-1.57-10.83-1.9-23.17-.08-2.66-.13-5.4-.17-8.21-.06-3.31-.1-6.66-.12-9.91-.09-14.62.44-27.49.44-27.49h45.23l0,27.49v9.91L295,439s26.75,12.07,29.47,14.24S329.35,462.44,326.91,463.24Z" style="fill:#eb9481"></path><path d="M326.91,463.24c-2.45.82-72.43.61-75.1-1.08-1-.63-1.57-10.83-1.9-23.17-.08-2.66-.13-5.4-.17-8.21-.06-3.31-.1-6.66-.12-9.91h45.65v9.91L295,439s26.75,12.07,29.47,14.24S329.35,462.44,326.91,463.24Z" style="fill:#dbdbdb"></path><path d="M327.12,463.35c-1.59.52-31.4.63-53.1.18-5-.11-9.62-.25-13.32-.41-5.11-.23-8.54-.51-9.09-.86-1.23-.8-1.82-15.76-2.1-31.56h45.78l-.24,8.26S322,451.09,324.7,453.27,329.57,462.52,327.12,463.35Z" style="fill:#FFC727"></path><path d="M326.12,460.53c-11.8-.32-59.4-.52-71.08.06-.1,0-.1.07,0,.07,11.68.58,59.28.39,71.08.06C326.37,460.72,326.37,460.54,326.12,460.53Z" style="fill:#263238"></path><path d="M296.73,436.34c-4.64-.88-10.32-.18-13.88,3.12-.13.13,0,.32.2.27a65.36,65.36,0,0,1,13.66-2.8A.3.3,0,0,0,296.73,436.34Z" style="fill:#263238"></path><path d="M300.07,438.37c-4.64-.88-10.32-.18-13.87,3.12-.14.12,0,.32.19.27a65.63,65.63,0,0,1,13.66-2.8A.3.3,0,0,0,300.07,438.37Z" style="fill:#263238"></path><path d="M303.42,440.4c-4.64-.88-10.32-.18-13.88,3.11-.14.13,0,.33.2.28A65.36,65.36,0,0,1,303.4,441,.3.3,0,0,0,303.42,440.4Z" style="fill:#263238"></path><path d="M306.76,442.43c-4.64-.88-10.32-.18-13.87,3.11-.14.13,0,.33.19.28a65,65,0,0,1,13.66-2.8A.3.3,0,0,0,306.76,442.43Z" style="fill:#263238"></path><path d="M305.33,425.63c-1.81-2.51-5.21-1.39-7.16.23A24.89,24.89,0,0,0,291,436.47a.13.13,0,0,0,.11.17c0,.35.33.73.73.58,3.84-1.41,8.11-2.44,11.4-5C305.15,430.75,307.05,428,305.33,425.63Zm-8.12,8.27c-1.87.73-3.77,1.38-5.61,2.18,1.41-2.06,2.72-4.18,4.33-6.1a25.82,25.82,0,0,1,2.47-2.65c1.38-1.25,6.86-3.91,6,1.18C304,431.31,299.44,433,297.21,433.9Z" style="fill:#263238"></path><path d="M279.2,435.23c3.82,1.64,8.22,1.57,12.29,2,.42.05.63-.4.55-.74a.13.13,0,0,0,.07-.19,24.81,24.81,0,0,0-9.6-8.49c-2.29-1.08-5.86-1.32-7,1.57C274.45,432.09,277,434.27,279.2,435.23Zm-2.09-3.32c-2.07-4.72,3.89-3.51,5.55-2.65a28.65,28.65,0,0,1,3,1.95,73.33,73.33,0,0,1,5.71,4.84c-2-.33-4-.47-6-.72C283.07,435,278.26,434.51,277.11,431.91Z" style="fill:#263238"></path><path d="M278.09,463.61l-4.07-.08c-5-.11-9.62-.24-13.32-.41-5.11-.23-8.53-.51-9.1-.86-.93-.61-1.5-9.36-1.83-20.44Z" style="opacity:0.1"></path><path d="M236.31,417l-45.65-.57s10.5-155.64,14.4-188c0,0-7.4-17.54,6.45-44h55.56s-3.72,25.22-10.1,41.2c0,0-4.13,1.11-11.62,5.24Z" style="fill:#eb9481"></path><path d="M244.53,250.42H200.89l3.31-22s-6.63-22.32,6.33-44h56.54s-2.34,23.65-9.28,41.44l-7.1,3.15Z" style="fill:#FFC727"></path><path d="M244.53,250.42H200.89l3.31-22s-6.63-22.32,6.33-44h56.54s-2.34,23.65-9.28,41.44l-7.1,3.15Z" style="opacity:0.2"></path><path d="M250.69,229c.06-.28.63-.27.58,0-2.3,13-5.93,19.24-6.19,19.84a.09.09,0,0,1-.17,0C244.71,248.21,249.65,234.37,250.69,229Z" style="fill:#263238"></path><path d="M259.08,225a92.2,92.2,0,0,0-14.46,6.74.16.16,0,0,0,.14.29c4.87-2.09,9.84-4.09,14.59-6.45A.32.32,0,0,0,259.08,225Z" style="fill:#263238"></path><path d="M260.63,191.52c0-.16-.31-.2-.31,0,0,5.78-.33,10.87-.81,16.28-.23,2.51-2.25,16.37-6.6,15.36-.73-.17-1.1-.88-1.21-2a17.67,17.67,0,0,1,.57-4.25c.49-2.91.87-5.82,1.12-8.75a79.65,79.65,0,0,0-.17-16.41.14.14,0,0,0-.28,0,151.57,151.57,0,0,1-1.33,22.64c-.54,3.61-2.36,9,1.41,9.6s6.33-8.53,6.8-11A83,83,0,0,0,260.63,191.52Z" style="fill:#263238"></path><path d="M253,223.52a22.58,22.58,0,0,0-1,2.87,6.42,6.42,0,0,0-.41,2.36.17.17,0,0,0,.3.07,8.17,8.17,0,0,0,1-2.3c.33-.89.68-1.77,1-2.67A.48.48,0,0,0,253,223.52Z" style="fill:#263238"></path><path d="M212.53,208.49c4.11-.41,8.34-.36,12.15-2.2s6.34-5.53,8.32-9.22a30.9,30.9,0,0,0,2.73-7.24.1.1,0,0,1,.2,0,20,20,0,0,1-1.68,6.83,30.44,30.44,0,0,1-3.26,6.05,14.67,14.67,0,0,1-4.7,4.41,16.26,16.26,0,0,1-6.16,1.86,34.57,34.57,0,0,1-7.61,0A.24.24,0,0,1,212.53,208.49Z" style="fill:#263238"></path><path d="M206.87,233.06a39,39,0,0,0,1.23-6.14c.11-2.06-1-3.83-1.6-5.73-2.42-7.39-1.44-15.47,1.19-22.66a82.28,82.28,0,0,1,5.68-11.82c.06-.1.2,0,.15.09-3.6,7-6.78,14.53-7.49,22.47a30.22,30.22,0,0,0,1.06,11.39c.53,1.75,1.53,3.43,1.68,5.27a19,19,0,0,1-.9,5.73c-.52,2.3-2.14,9.24-2.84,11.58-.06.2-.42.16-.38-.06C205,241.1,206.4,235.19,206.87,233.06Z" style="fill:#263238"></path><path d="M203.73,244.72c5.13-.38,10.28-.37,15.42-.32s10.18.13,15.26.23c2.92.06,5.84.13,8.74.33a.14.14,0,1,1,0,.28c-5.12.31-10.28.27-15.42.31s-10.18,0-15.27,0c-2.92-.05-5.82-.16-8.73-.4A.2.2,0,1,1,203.73,244.72Z" style="fill:#263238"></path><path d="M266.74,464.85c-2.47.75-72.42-1.23-75-3-1-.66-1.3-10.88-1.32-23.21q0-4,0-8.22c0-3.31.08-6.66.14-9.91.28-14.61,1.72-28.7,1.72-28.7l44.63,2.38-.72,27.47-.26,9.91-.44,8.21s26.44,12.74,29.11,15S269.2,464.1,266.74,464.85Z" style="fill:#eb9481"></path><path d="M266.74,464.85c-2.47.75-72.42-1.23-75-3-1-.66-1.3-10.88-1.32-23.21q0-4,0-8.22c0-3.31.08-6.66.14-9.91l45.63,1.15-.26,9.91-.44,8.21s26.44,12.74,29.11,15S269.2,464.1,266.74,464.85Z" style="fill:#dbdbdb"></path><path d="M267,465c-1.61.48-31.41-.17-53.09-1.17-5-.23-9.61-.48-13.31-.74-5.1-.36-8.52-.73-9.06-1.1-1.21-.82-1.42-15.8-1.3-31.59L236,431.52l-.44,8.24s26.59,12.81,29.28,15.06S269.42,464.19,267,465Z" style="fill:#FFC727"></path><path d="M266,462.11c-11.78-.62-59.37-2-71.06-1.73-.1,0-.1.06,0,.07,11.67.87,59.26,1.88,71.06,1.86C266.26,462.31,266.27,462.13,266,462.11Z" style="fill:#263238"></path><path d="M237.25,437.19c-4.62-1-10.31-.44-13.95,2.76-.14.13,0,.33.19.28a65.17,65.17,0,0,1,13.72-2.45A.3.3,0,0,0,237.25,437.19Z" style="fill:#263238"></path><path d="M240.54,439.3c-4.61-1-10.31-.44-13.95,2.77-.14.12,0,.32.19.28a65.16,65.16,0,0,1,13.73-2.46A.3.3,0,0,0,240.54,439.3Z" style="fill:#263238"></path><path d="M243.83,441.42c-4.61-1-10.31-.45-14,2.76-.14.12,0,.32.19.28A65.16,65.16,0,0,1,243.8,442,.29.29,0,0,0,243.83,441.42Z" style="fill:#263238"></path><path d="M247.13,443.53c-4.62-1-10.31-.44-13.95,2.76-.14.13,0,.32.19.28a65.05,65.05,0,0,1,13.72-2.45A.3.3,0,0,0,247.13,443.53Z" style="fill:#263238"></path><path d="M246.12,426.7c-1.75-2.56-5.18-1.53-7.16.05a24.75,24.75,0,0,0-7.45,10.43c0,.09,0,.15.11.17a.58.58,0,0,0,.71.6c3.87-1.32,8.17-2.24,11.53-4.7C245.81,431.82,247.78,429.13,246.12,426.7Zm-8.33,8.06c-1.89.69-3.8,1.28-5.66,2a74.65,74.65,0,0,1,4.48-6,27,27,0,0,1,2.54-2.59c1.41-1.22,6.95-3.73,6,1.33C244.61,432.35,240,433.93,237.79,434.76Z" style="fill:#263238"></path><path d="M219.75,435.63c3.78,1.74,8.18,1.78,12.24,2.29a.57.57,0,0,0,.57-.73.12.12,0,0,0,.07-.19,24.65,24.65,0,0,0-9.38-8.72c-2.26-1.15-5.82-1.47-7,1.39C215.08,432.38,217.55,434.62,219.75,435.63Zm-2-3.37c-1.95-4.77,4-3.41,5.61-2.5a25.07,25.07,0,0,1,3,2,71.34,71.34,0,0,1,5.59,5c-2-.37-4-.57-5.95-.87C223.63,435.53,218.83,434.89,217.75,432.26Z" style="fill:#263238"></path><path d="M266,175l2.14,13.47-58.67-.12s1.68-43.29,18.1-60.07c8.21-8.4,17.52-7.48,23.29-1.26,1.46,1.57,18.71,22.8,20.34,31.92C272.59,167,266,175,266,175Z" style="fill:#37474f"></path><path d="M246.64,123.74h-13a18.4,18.4,0,0,1,1.74-.73H245A13.27,13.27,0,0,1,246.64,123.74Z" style="fill:#455a64"></path><path d="M251.23,127.43H228.36l.83-.74h21.36l.29.29Q251,127.11,251.23,127.43Z" style="fill:#455a64"></path><path d="M254.22,131.11H225.07c.18-.25.38-.49.58-.73h28Z" style="fill:#455a64"></path><path d="M257.06,134.79h-34.5l.46-.74H256.5C256.68,134.3,256.87,134.55,257.06,134.79Z" style="fill:#455a64"></path><path d="M259.78,138.48H220.54c.12-.25.24-.51.38-.75h38.33Z" style="fill:#455a64"></path><path d="M262.37,142.16H218.83c.11-.25.21-.5.32-.74h42.71C262,141.66,262.2,141.9,262.37,142.16Z" style="fill:#455a64"></path><path d="M264.81,145.83H217.37l.28-.73h46.7Z" style="fill:#455a64"></path><path d="M267.08,149.52h-51l.24-.74h50.28C266.79,149,266.93,149.27,267.08,149.52Z" style="fill:#455a64"></path><path d="M269.07,153.2H215c.06-.25.13-.49.2-.73h53.48Z" style="fill:#455a64"></path><path d="M270.63,156.88H214c.07-.24.13-.48.19-.73h56.16C270.47,156.4,270.55,156.64,270.63,156.88Z" style="fill:#455a64"></path><path d="M271.35,160.57H213.17c.05-.25.11-.49.16-.75h58C271.33,160.08,271.34,160.33,271.35,160.57Z" style="fill:#455a64"></path><path d="M271.2,163.51c0,.24-.08.49-.12.74H212.41c.05-.24.09-.5.14-.74Z" style="fill:#455a64"></path><path d="M270.27,167.19l-.27.74H211.74l.12-.74Z" style="fill:#455a64"></path><path d="M268.63,170.87c-.13.26-.27.52-.41.74H211.15c0-.24.08-.49.11-.74Z" style="fill:#455a64"></path><path d="M266,175l0,.33H210.65a6.09,6.09,0,0,1,.1-.73h55.53C266.1,174.82,266,175,266,175Z" style="fill:#455a64"></path><path d="M266.61,179h-56.4c0-.24.06-.48.08-.73h56.2Z" style="fill:#455a64"></path><path d="M267.19,182.66H209.84c0-.24,0-.49.07-.74h57.17Z" style="fill:#455a64"></path><path d="M267.78,186.34H209.57c0-.22,0-.47.05-.73h58Z" style="fill:#455a64"></path><path d="M256.13,170.67a63.29,63.29,0,0,0-9.27,1.61c-1.51.4-3,.87-4.46,1.37-.74.25-1.48.47-2.23.69a10.16,10.16,0,0,1-2.38.48.06.06,0,1,0,0,.11,17.68,17.68,0,0,0,2.3-.07,14.87,14.87,0,0,0,2.19-.43c1.54-.39,3.05-.85,4.58-1.26,3.09-.82,6.17-1.64,9.31-2.24C256.32,170.9,256.28,170.65,256.13,170.67Z" style="fill:#263238"></path><path d="M263.88,173.37a69.24,69.24,0,0,0-7.76-.3c-1.29,0-2.58.13-3.87.26-.61.07-1.23.14-1.84.23s-1.34.27-2,.35c-.07,0-.07.12,0,.12.64-.06,1.29,0,1.93,0l1.94-.07c1.29-.05,2.58-.07,3.87-.13,2.59-.11,5.16-.19,7.75-.21C264,173.59,264,173.39,263.88,173.37Z" style="fill:#263238"></path><path d="M265,145.32c-1.22-1.83-2.5-3.61-3.83-5.36-.28-.71-.6-1.41-.92-2.1a16.12,16.12,0,0,0-1.36-2.26s-.09,0-.06,0c.4.77.75,1.56,1.17,2.32.24.44.45.89.66,1.33-1.33-1.73-2.71-3.43-4.12-5.1,0,0-.06,0,0,0,2.59,3.85,5.34,7.59,7.84,11.5a109.79,109.79,0,0,1,6.71,12.1c0,.08.18,0,.16-.07A48.6,48.6,0,0,0,265,145.32Z" style="fill:#263238"></path><path d="M237.11,125.23c.22,1.17,5.41,8.89,10.7,8.87,1.72,0,2.08-9.42,2.08-9.42l.18-.69,2.58-9.63-11.11-7.8-1.61-1s-.53,2.68-1.16,6l-.09.47c0,.19-.08.37-.11.55-.1.49-.2,1-.29,1.51s-.14.77-.2,1.18-.13.81-.2,1.22A63.81,63.81,0,0,0,237.11,125.23Z" style="fill:#eb9481"></path><path d="M252.65,114.37l-1.71,6.39c-5.56,1.62-11-.14-13.45-1.16.1-1,.24-2.07.39-3.12.07-.41.13-.81.2-1.22s.13-.78.2-1.17.19-1,.29-1.52c0-.18.07-.35.11-.54s.06-.32.09-.48c.63-3.35,1.16-6,1.16-6l1.61,1Z" style="fill:#263238"></path><path d="M255.42,105.24c1.85,8.14,12.74,15.57,12.9,31.19.07,7-9.77,16.73-5.74,29.49,1.05,3.3-20.94-11.61-11.31-40.52A110.2,110.2,0,0,0,255.42,105.24Z" style="fill:#263238"></path><path d="M251.72,127c-3.79,9.57-5.79,21.77.49,30.76a30.42,30.42,0,0,0,6.85,6.5c.05,0,.09,0,.05-.07a32.06,32.06,0,0,1-6.12-5.8,21.64,21.64,0,0,1-3.43-7.2,33,33,0,0,1-.05-15.68c.61-2.87,1.53-5.64,2.4-8.45C252,127,251.77,126.9,251.72,127Z" style="fill:#263238"></path><path d="M262.56,117.29c-2.13-2.82-4.47-5.55-6-8.78,0,0-.07,0-.05,0,2.33,5.3,6.7,9.33,9.3,14.48a28,28,0,0,1,3.08,15.62,24,24,0,0,1-2.49,8.22c-.05.08.07.16.12.08a22.9,22.9,0,0,0,2.75-14.07C268.65,127.08,266,121.88,262.56,117.29Z" style="fill:#263238"></path><path d="M254.76,111.3a25.42,25.42,0,0,1-1.72,7.55c-.93,2.4-2.07,4.71-3,7.09a35.07,35.07,0,0,0-2.87,15.83,23.27,23.27,0,0,0,2.56,8.86,0,0,0,0,0,0,0c-2.6-5.09-2.83-11.19-1.75-16.7a43,43,0,0,1,2.28-7.64c.94-2.35,2-4.65,2.92-7a21.87,21.87,0,0,0,1.76-8A.09.09,0,0,0,254.76,111.3Z" style="fill:#263238"></path><path d="M255.75,114.06l2.58-.94a1.83,1.83,0,0,0,1.08-2.34h0a1.82,1.82,0,0,0-2.34-1.08l-2.58,1a1.81,1.81,0,0,0-1.08,2.33h0A1.81,1.81,0,0,0,255.75,114.06Z" style="fill:#FFC727"></path><path d="M229.56,97.87c-3.17,17.21,6.78,21,10.49,21.73,3.37.62,14.92,2.3,19.86-14.49s-2.06-23.71-9.7-25.53S232.74,80.65,229.56,97.87Z" style="fill:#eb9481"></path><path d="M234,95.65c.41-.14.81-.2,1.22-.3a2.1,2.1,0,0,1,1.31-.07.66.66,0,0,1,.34.72,1.6,1.6,0,0,1-1.27,1,2.35,2.35,0,0,1-1.69-.11A.69.69,0,0,1,234,95.65Z" style="fill:#263238"></path><path d="M246.68,95.61a10.53,10.53,0,0,0-1.06-.67,2.05,2.05,0,0,0-1.21-.49.67.67,0,0,0-.56.57,1.64,1.64,0,0,0,.87,1.38,2.44,2.44,0,0,0,1.65.44A.69.69,0,0,0,246.68,95.61Z" style="fill:#263238"></path><path d="M243.07,100.57s.09.08.08.13c-.22,1.22-.26,2.66.79,3.22,0,0,0,.08,0,.07C242.59,103.6,242.67,101.7,243.07,100.57Z" style="fill:#263238"></path><path d="M244.35,99.45c2,.14,1.58,4.12-.27,4S242.68,99.34,244.35,99.45Z" style="fill:#263238"></path><path d="M245.11,99.74c.33.27.63.7,1,.79s.89-.28,1.25-.65c0,0,.07,0,.06.05-.07.77-.44,1.52-1.27,1.55s-1.22-.71-1.33-1.5C244.84,99.84,245,99.64,245.11,99.74Z" style="fill:#263238"></path><path d="M236.29,99.55s-.11,0-.11.1c-.08,1.24-.38,2.64-1.54,2.94,0,0,0,.07,0,.07C236,102.6,236.41,100.73,236.29,99.55Z" style="fill:#263238"></path><path d="M235.31,98.15c-2-.35-2.52,3.62-.69,3.94S237,98.44,235.31,98.15Z" style="fill:#263238"></path><path d="M234.45,98.3c-.35.16-.71.5-1.09.48s-.7-.51-.92-1c0,0-.06,0-.06,0-.13.75,0,1.58.72,1.82s1.22-.36,1.51-1.09C234.66,98.46,234.58,98.23,234.45,98.3Z" style="fill:#263238"></path><path d="M242.68,111c-.31.27-.63.66-1.08.67a3.42,3.42,0,0,1-1.32-.39,0,0,0,0,0-.05.06,1.66,1.66,0,0,0,1.53.76,1.33,1.33,0,0,0,1-1A.07.07,0,0,0,242.68,111Z" style="fill:#263238"></path><path d="M237.3,105.17s-.47,1.81-.57,2.68a18.1,18.1,0,0,1,4.93,1.32c.37.17.4-.15,0-.46a7.48,7.48,0,0,0-4.09-1.53c0-.25.77-2.77.64-2.8a7.83,7.83,0,0,0-2,.21c.87-3.8,2.35-7.42,3.16-11.22,0-.14-.17-.2-.22-.08a62.45,62.45,0,0,0-3.91,11.94C235.08,105.72,236.94,105.28,237.3,105.17Z" style="fill:#263238"></path><path d="M259.16,105.44c-2.88-.16-2.74-6.24-2.74-6.24s-5.8-.75-6.61-9.35a13,13,0,0,0,1.65,7.24s-10.08-2.44-13.24-11.58c0,0,1.13,4.59,2.54,6.36,0,0-4.13-1.77-5.76-5.53,0,0-2.45,4.7-4,5.88,0,0,2.81-17.84,19.13-13.73,0,0,10.29,2.08,12.92,10.79S259.16,105.44,259.16,105.44Z" style="fill:#263238"></path><path d="M256.93,105.92s4.32-5.07,6.66-3.47-1.28,9.2-4.28,10a3,3,0,0,1-3.8-2Z" style="fill:#eb9481"></path><path d="M262.5,104.6a0,0,0,0,1,0,.08c-2.11.63-3.36,2.41-4.3,4.29a1.63,1.63,0,0,1,2.48-.21c.05,0,0,.12-.07.1a1.81,1.81,0,0,0-2.05.44,8.22,8.22,0,0,0-1.11,1.52c-.12.17-.44.05-.35-.16l0,0C257.33,108,259.69,104.59,262.5,104.6Z" style="fill:#263238"></path><path d="M257.39,111.46a.86.86,0,1,0,.95-.77A.86.86,0,0,0,257.39,111.46Z" style="fill:#fff"></path><path d="M224.44,130.87C201.93,146.66,178.88,179,181.83,188c3.3,10.05,28.69-8.54,28.88-10.13.14-1.21,12.75-21.43,22-40.45C241.25,119.83,230,127,224.44,130.87Z" style="fill:#eb9481"></path><path d="M223.92,161.07l-26.11-8.87s22-20.91,30.16-25.24c9.22-4.87,9.7.91,6.85,10.41S223.92,161.07,223.92,161.07Z" style="fill:#455a64"></path><path d="M224.77,156.42c-.85-.44-9-3.27-10.75-3.85s-9-3-10.9-3.45a.07.07,0,0,0-.05.13c1.76.79,9.06,3.26,10.85,3.88s9.9,3.25,10.82,3.41C224.82,156.56,224.83,156.45,224.77,156.42Z" style="fill:#263238"></path><path d="M232.9,145.18c-.55.74-1.08,1.49-1.62,2.24q1.09-2.5,2-5.07s-.06-.07-.09,0c-1.72,3.07-3.32,6.24-4.82,9.43s-3.09,6.2-4.35,9.42c0,.1.11.14.16.06a89,89,0,0,0,5-9.33c.54-1.09,1-2.19,1.55-3.31a17.87,17.87,0,0,0,2.22-3.35C233,145.19,232.93,145.14,232.9,145.18Z" style="fill:#263238"></path><path d="M226.1,126c-1-.86,5-2.07,6.64-1.22s10.19,14.43,11,33.61-36.81,41.29-38.77,38.74a5.78,5.78,0,0,1-.09-5.18c1.13-1.72,28.45-18.5,29.32-30.63C235,150.5,230.58,129.64,226.1,126Z" style="fill:#263238"></path><polygon points="312.28 202.07 320.05 163.97 332.24 130.17 308.4 133.48 291.89 129.18 273.01 133.85 252.25 127.89 250.54 164.36 239.67 200.65 255.22 205.48 275.68 200.4 290.95 206.5 312.28 202.07" style="fill:#dbdbdb"></polygon><polygon points="290.95 206.5 308.4 133.48 291.89 129.18 275.68 200.4 290.95 206.5" style="fill:#ebebeb"></polygon><polygon points="255.22 205.48 273.01 133.85 252.25 127.89 250.54 164.36 239.67 200.65 255.22 205.48" style="fill:#ebebeb"></polygon><path d="M182.22,189.16c3.65,3.64,13.46,6.55,43,1.17,4.09-.75,4.33-31.6-.08-31-5.56.72-23.79,4.91-25.29,5.48C188.72,169,178.57,185.53,182.22,189.16Z" style="fill:#eb9481"></path><path d="M261.84,154.93a4.81,4.81,0,0,1-.75,5.43,7.11,7.11,0,0,1,3.18,3.64c.93,2.78-3,5.46-3,5.46a8.77,8.77,0,0,1,2.74,4.38c.62,2.75-3,6-3,6a7.7,7.7,0,0,1,0,5.37c-1.92,4.56-9.37,5.75-14.1,6.56s-18.9-1.33-21.64-1.46l-3.68-30.48s18.4-9.48,24.09-9.64C250.47,150.07,260,151.66,261.84,154.93Z" style="fill:#eb9481"></path><path d="M260.79,159.91c-5.13-1.08-10.31-.58-15.5-.38a.09.09,0,0,0,0,.18c5.16-.26,10.31.5,15.47.45A.13.13,0,0,0,260.79,159.91Z" style="fill:#263238"></path><path d="M261.08,169.08a13.86,13.86,0,0,0-3.58.07c-1.26.12-2.52.25-3.78.41-2.52.31-5,.67-7.53,1.11-.11,0-.11.2,0,.18,2.51-.3,5-.57,7.55-.76,1.26-.1,2.52-.19,3.79-.27a17,17,0,0,0,3.56-.39A.18.18,0,0,0,261.08,169.08Z" style="fill:#263238"></path><path d="M260.91,179.87a9.49,9.49,0,0,0-3.22.24l-3.44.47c-2.29.31-4.58.61-6.89.83-.11,0-.1.19,0,.18,2.34-.21,4.69-.39,7-.63l3.44-.37a9,9,0,0,0,3.09-.6A.07.07,0,0,0,260.91,179.87Z" style="fill:#263238"></path><path d="M221.58,159.85c-2.66.65-5.34,1.24-8,1.85s-5.34,1.17-8,1.85a34.68,34.68,0,0,0-7.71,2.54A71.73,71.73,0,0,0,190.7,170a42.25,42.25,0,0,1,6.88-4.55,31.57,31.57,0,0,1,7.8-2.78c2.68-.62,5.36-1.19,8.06-1.66S218.85,160.14,221.58,159.85Z" style="fill:#263238"></path></g><g id="freepik--Plants--inject-94"><path d="M30,445.71H154.54a23.34,23.34,0,0,0,3.53-6.85c1.05-3.8.07-8.83-3.88-10.57-2.55-1.11-5.3-.19-7.93-.12a2.18,2.18,0,0,1-2.12-.84,2.44,2.44,0,0,1-.19-1.76c.34-1.35,1.64-2.21,2.72-2.95a.33.33,0,0,0,.06-.51,6.42,6.42,0,0,0-8-.19c-1.35-1.44-.76-3.63.13-5.21s2.49-3,3.59-4.57a6,6,0,0,0,1.21-4.31A6.64,6.64,0,0,0,141,404c-2.13-1.7-5.81-3.62-8.34-1.59-2.74,2.2-1,6.33-2.78,9a2.91,2.91,0,0,1-2.12,1.5,2.37,2.37,0,0,1-1.95-1.26c-.64-.9-1.15-2-2.24-2.37.29-2.76,1-5.46,1.27-8.23.38-4-.51-9.15-4.68-10.86a6.35,6.35,0,0,0-5.11.07,5.1,5.1,0,0,0-2.63,4.55c-.11,2.36.69,4.68.41,7-.17,1.45-.88,3-2.6,2.64a8.76,8.76,0,0,1-3.18-1.74c-1.28-.88-3.47-1.86-4.81-.55-.8.77-.68,2-1.37,2.81A3.67,3.67,0,0,1,98,406c-2.09,0-4.1-.48-6.2-.3a13.72,13.72,0,0,0-5.66,1.68,9.23,9.23,0,0,0-3.81,4.13c-.7,1.51-1.92,5-4.19,3.49A8.73,8.73,0,0,1,76,412.14c-.59-1-1.18-2-1.82-2.92a13.33,13.33,0,0,0-4.51-4.42,9,9,0,0,0-11.27,2.45,9.21,9.21,0,0,0-1.79,5.93c.14,2.45,1.81,4.53,1.91,7a3.32,3.32,0,0,1-1.32,3.07c-1.28.76-2.86.07-4.18-.23s-3.62-.14-4.22,1.46a2.24,2.24,0,0,0,.45,2.07c.28.38.62.71.87,1.12.34.57.27.82-.26,1.16-1.54,1-3.64.67-5.4.84C34.15,430.63,30.49,442.81,30,445.71Z" style="fill:#37474f"></path><path d="M118.05,425.38c1.52,6.88,3,13.64,1.25,20.33h1.43c.52-1.32,1-2.66,1.55-4,5.12-2.38,10.64-.46,16-1.13a17.59,17.59,0,0,0,11.41-6,.23.23,0,0,0-.33-.33,25.32,25.32,0,0,1-7.55,4.32c.58-.68,1.13-1.38,1.75-2,.91-.93,1.92-1.71,2.9-2.56.05-.05,0-.13-.08-.1a20.35,20.35,0,0,0-3.06,2.42,16.85,16.85,0,0,0-2.39,2.53,19.31,19.31,0,0,1-5.51.76c-4.25,0-9-.95-12.84,1.21.33-.81.66-1.62,1-2.41a72.87,72.87,0,0,1,5.26-9.62,65.61,65.61,0,0,0,5.42-9.45,38.65,38.65,0,0,0,2.57-10.1c0-.18-.24-.26-.28-.07-1.09,6.09-4,11.34-7.26,16.48,1-3,1.8-6,3-8.91.09-.21-.21-.39-.32-.18-1.73,3.49-3.59,7.38-4.11,11.29l-.66,1a68.33,68.33,0,0,0-5.84,11.51,48.81,48.81,0,0,0-1.56-12.71,70.66,70.66,0,0,1-2.08-13.39c0-.41,0-.81,0-1.21a31.82,31.82,0,0,0,3-16.72.29.29,0,0,0-.58,0,50.84,50.84,0,0,1-.69,9.3,39.59,39.59,0,0,1-1.74,6,103.74,103.74,0,0,1,1-10.79c0-.31-.45-.35-.52-.07C116,409,116.26,417.23,118.05,425.38Z" style="fill:#455a64"></path><path d="M90.38,416.1a51.82,51.82,0,0,0,3.18,5.49A24.09,24.09,0,0,0,94.83,426a16.13,16.13,0,0,0,3.3,5.16c1.71,1.81,3.42,3.37,3.92,5.79a21,21,0,0,0-2.46,8.81h1c.87-5.57,3.7-10.13,6.26-15.21,2.24-4.46,4.1-10.26,1.88-15.09-.13-.28-.54-.08-.48.2,1.52,6.45-1.19,11.86-4.2,17.41-.46.86-.94,1.74-1.4,2.64a7.73,7.73,0,0,0-1.56-3c-1.53-1.93-3.33-3.49-4.49-5.7-2.55-4.87-2.14-10.13-2.86-15.39,0-.29-.43-.17-.46.06a31.64,31.64,0,0,0,0,8.53,33,33,0,0,0-2.5-4.28A.26.26,0,0,0,90.38,416.1Z" style="fill:#455a64"></path><path d="M63.76,412.68a17.24,17.24,0,0,0,3.33,7.5c1.3,1.71,3.32,2.8,4.59,4.49,1.08,2.27,2.3,4.45,3.54,6.63s3.71,5.43,2.56,8.2a.18.18,0,0,0,.17.25,9.41,9.41,0,0,0-2.17,6h.61c.67-8.06,12.14-10.2,12.24-18.53,0-.38-.6-.47-.67-.09-.85,4.52-4.38,7.06-7.56,10a23.46,23.46,0,0,0-1.9,2c.8-1.67.22-3.52-.57-5.18-1.27-2.64-2.84-5.13-4.19-7.72a52.48,52.48,0,0,1-3.68-8.38,32.2,32.2,0,0,1-1.19-9.11c0-.18-.28-.23-.32-.05-1.07,4.5.37,9.63,2.14,13.86-.66-.62-1.38-1.21-2-1.86-2.12-2.34-3.21-5.22-4.36-8.09A.32.32,0,0,0,63.76,412.68Z" style="fill:#455a64"></path><path d="M40.65,436.91c2.72.39,5.36,1,8.13,1.18a40.54,40.54,0,0,0,8.45-.43c3.45-.53,6.92-1.34,10.34-1a30.93,30.93,0,0,1-3-1.56,18.68,18.68,0,0,1-7.61-8.84c-.13-.36.38-.5.57-.24A40.85,40.85,0,0,0,62.36,432a31.52,31.52,0,0,0,7.3,4.4,14,14,0,0,1,5.09,3.83c.35.47,2.06,2.84,1,3.35a.15.15,0,0,1-.17,0l-.07-.07a.09.09,0,0,1,0-.15c.22,0-1.82-2.87-1.86-2.9a12.52,12.52,0,0,0-2.56-2c-.48-.28-1-.53-1.45-.78-4.66-.9-9.43.8-14.06,1.36-4.85.58-10.62.53-15.2-1.38A.39.39,0,0,1,40.65,436.91Z" style="fill:#455a64"></path><path d="M101.29,443.23c1.37-2,3.61-3.12,5.62-4.38a12.84,12.84,0,0,0,5.88-7.06c.09-.27.58-.25.54.08-.78,6.34-7.34,8.17-11.64,11.68C101.48,443.72,101.1,443.5,101.29,443.23Z" style="fill:#455a64"></path><path d="M129.77,439.23c1-2.42,3.33-4.13,5.22-5.81a19.36,19.36,0,0,0,3-3.08,20,20,0,0,0,2.46-5.38.18.18,0,0,1,.35.09,16,16,0,0,1-4.08,8c-2.19,2.17-4.58,4-6.66,6.31C130,439.51,129.71,439.38,129.77,439.23Z" style="fill:#455a64"></path><path d="M123.88,415.13a.83.83,0,0,0,1.54-.21l0-.18v0a.77.77,0,0,0,0-.48.85.85,0,0,0-.63-.61A1,1,0,0,0,123.88,415.13Z" style="fill:#455a64"></path><path d="M44.8,434.51a.83.83,0,0,0,1.54-.21.57.57,0,0,0,0-.18s0,0,0,0a.77.77,0,0,0-.06-.48.83.83,0,0,0-.63-.61A1,1,0,0,0,44.8,434.51Z" style="fill:#455a64"></path><path d="M121.76,416.37a.19.19,0,0,1,0-.07h0a.54.54,0,0,1,.13-.5l.11-.08a.41.41,0,0,1,.65.16c.22.48-.33,1.11-.74.71a.91.91,0,0,1-.11-.16v-.05Z" style="fill:#455a64"></path><path d="M72.66,412.53l0-.07h0a.58.58,0,0,1,.45-.27.31.31,0,0,1,.13,0,.4.4,0,0,1,.35.56c-.17.5-1,.56-1,0a.58.58,0,0,1,0-.19v0Z" style="fill:#455a64"></path><path d="M121.53,413.35a.33.33,0,0,1,.43.15.25.25,0,0,1,0,.2.32.32,0,0,1-.62.11A.37.37,0,0,1,121.53,413.35Z" style="fill:#455a64"></path><path d="M104.18,404a.33.33,0,0,1,.43.15.25.25,0,0,1,0,.2.32.32,0,0,1-.62.11A.37.37,0,0,1,104.18,404Z" style="fill:#455a64"></path><path d="M71.06,409.69a.34.34,0,0,1,.2.41.33.33,0,0,1-.12.16.32.32,0,0,1-.52-.36A.36.36,0,0,1,71.06,409.69Z" style="fill:#455a64"></path><path d="M476.49,445.71h-133a25,25,0,0,1-3.77-7.32c-1.13-4.06-.08-9.44,4.15-11.29,2.72-1.19,5.66-.2,8.47-.13a2.34,2.34,0,0,0,2.26-.89,2.64,2.64,0,0,0,.21-1.89c-.36-1.44-1.75-2.36-2.91-3.15a.35.35,0,0,1-.06-.54,6.86,6.86,0,0,1,8.59-.21c1.44-1.54.81-3.88-.14-5.57s-2.66-3.17-3.83-4.88a6.33,6.33,0,0,1-1.3-4.6,7.11,7.11,0,0,1,2.82-4.15c2.28-1.81,6.21-3.87,8.91-1.7,2.92,2.36,1.05,6.76,3,9.64a3.17,3.17,0,0,0,2.27,1.61,2.54,2.54,0,0,0,2.08-1.35c.68-1,1.23-2.13,2.4-2.54-.32-2.95-1.08-5.83-1.36-8.79-.41-4.26.54-9.78,5-11.6a6.78,6.78,0,0,1,5.46.07,5.49,5.49,0,0,1,2.81,4.86c.11,2.52-.74,5-.44,7.53.19,1.54.94,3.17,2.78,2.81a9.41,9.41,0,0,0,3.4-1.85c1.36-.95,3.71-2,5.14-.59.84.82.73,2.12,1.46,3a3.91,3.91,0,0,0,3.07,1.08c2.23,0,4.38-.51,6.62-.32a14.5,14.5,0,0,1,6.05,1.8,9.87,9.87,0,0,1,4.07,4.41c.74,1.62,2.05,5.39,4.48,3.72a9.29,9.29,0,0,0,2.23-3c.63-1,1.26-2.11,1.95-3.12a14.1,14.1,0,0,1,4.81-4.72,9.59,9.59,0,0,1,12,2.62,9.85,9.85,0,0,1,1.92,6.33c-.15,2.62-1.94,4.84-2.05,7.44a3.55,3.55,0,0,0,1.41,3.28c1.37.81,3.07.08,4.47-.24s3.87-.16,4.51,1.56a2.36,2.36,0,0,1-.48,2.2c-.3.41-.66.77-.93,1.2-.36.61-.29.87.28,1.25,1.65,1.11,3.88.71,5.76.89C472.08,429.59,476,442.61,476.49,445.71Z" style="fill:#455a64"></path><path d="M382.43,424c-1.63,7.35-3.24,14.57-1.33,21.72h-1.53c-.56-1.42-1.1-2.85-1.66-4.27-5.47-2.55-11.36-.5-17.14-1.21-4.51-.55-9.31-2.75-12.19-6.37a.25.25,0,0,1,.36-.35,27,27,0,0,0,8.06,4.61c-.61-.72-1.2-1.47-1.87-2.15-1-1-2.05-1.82-3.09-2.73-.06-.05,0-.14.08-.1a20.85,20.85,0,0,1,3.27,2.58,18.18,18.18,0,0,1,2.56,2.7,21,21,0,0,0,5.88.82c4.53,0,9.61-1,13.72,1.28-.35-.86-.7-1.72-1.08-2.57a80,80,0,0,0-5.62-10.28,69.66,69.66,0,0,1-5.79-10.09,41.45,41.45,0,0,1-2.75-10.79c0-.2.26-.29.3-.08,1.17,6.5,4.32,12.11,7.76,17.61-1.06-3.18-1.92-6.42-3.26-9.52-.1-.22.22-.42.34-.19,1.85,3.72,3.83,7.88,4.4,12.05.23.37.46.74.7,1.11a73.87,73.87,0,0,1,6.24,12.29c-.24-4.57.74-9.38,1.67-13.57a76.08,76.08,0,0,0,2.21-14.31c0-.43,0-.86,0-1.29A34,34,0,0,1,379.46,393a.31.31,0,0,1,.62,0,55.11,55.11,0,0,0,.73,9.94,42.69,42.69,0,0,0,1.86,6.43,109.75,109.75,0,0,0-1.05-11.53c0-.33.48-.37.56-.08C384.61,406.45,384.35,415.28,382.43,424Z" style="fill:#37474f"></path><path d="M412,414.08a57.18,57.18,0,0,1-3.4,5.86,25.79,25.79,0,0,1-1.36,4.66,17.25,17.25,0,0,1-3.53,5.51c-1.83,1.93-3.65,3.6-4.19,6.19a22.11,22.11,0,0,1,2.63,9.41h-1.09c-.93-6-4-10.83-6.69-16.25-2.4-4.77-4.39-11-2-16.13.14-.29.58-.08.51.22-1.63,6.89,1.27,12.67,4.48,18.6.5.92,1,1.86,1.51,2.82a8,8,0,0,1,1.67-3.25c1.62-2.06,3.55-3.73,4.79-6.09,2.73-5.2,2.29-10.82,3.06-16.45,0-.3.46-.17.49.07a34,34,0,0,1,0,9.12,35.49,35.49,0,0,1,2.67-4.57A.28.28,0,0,1,412,414.08Z" style="fill:#37474f"></path><path d="M440.44,410.42a18.42,18.42,0,0,1-3.56,8c-1.39,1.83-3.55,3-4.9,4.8-1.15,2.42-2.47,4.75-3.78,7.08s-4,5.81-2.74,8.77c.06.15-.06.25-.19.26a10,10,0,0,1,2.32,6.37H427c-.73-8.62-13-10.9-13.09-19.79,0-.41.65-.51.72-.1.91,4.83,4.69,7.54,8.08,10.68a22.41,22.41,0,0,1,2,2.1c-.85-1.79-.24-3.76.61-5.54,1.36-2.82,3-5.49,4.48-8.25a54.7,54.7,0,0,0,3.92-8.95,34.48,34.48,0,0,0,1.28-9.74c0-.19.3-.24.34-.05,1.15,4.8-.4,10.29-2.29,14.81.71-.67,1.47-1.29,2.1-2,2.27-2.5,3.43-5.57,4.66-8.65A.34.34,0,0,1,440.44,410.42Z" style="fill:#37474f"></path><path d="M465.14,436.31c-2.92.42-5.73,1.1-8.69,1.26a43.29,43.29,0,0,1-9-.46c-3.69-.57-7.4-1.43-11.05-1a29.88,29.88,0,0,0,3.23-1.67,19.94,19.94,0,0,0,8.13-9.44c.15-.39-.4-.53-.61-.26-1.69,2.22-3.09,4.48-5.19,6.36-2.33,2.09-5,3.31-7.8,4.71a15.07,15.07,0,0,0-5.43,4.08c-.38.5-2.2,3-1.09,3.58a.17.17,0,0,0,.19,0l.07-.08a.11.11,0,0,0-.05-.17c-.24,0,1.95-3.06,2-3.09a13.72,13.72,0,0,1,2.75-2.1c.5-.3,1-.57,1.54-.83,5-1,10.08.86,15,1.45,5.19.62,11.35.57,16.25-1.47A.42.42,0,0,0,465.14,436.31Z" style="fill:#37474f"></path><path d="M400.34,443.06c-1.46-2.14-3.86-3.33-6-4.68a13.74,13.74,0,0,1-6.28-7.54c-.1-.29-.62-.27-.58.08.83,6.78,7.84,8.73,12.44,12.48C400.13,443.58,400.54,443.35,400.34,443.06Z" style="fill:#37474f"></path><path d="M369.91,438.78c-1.05-2.58-3.56-4.41-5.58-6.2a21.65,21.65,0,0,1-3.2-3.29,22.2,22.2,0,0,1-2.63-5.75.19.19,0,0,0-.36.1,16.9,16.9,0,0,0,4.35,8.57c2.34,2.33,4.9,4.28,7.12,6.75C369.72,439.08,370,439,369.91,438.78Z" style="fill:#37474f"></path><path d="M376.21,413a.89.89,0,0,1-1.65-.23.63.63,0,0,1,0-.19s0,0,0,0a.89.89,0,0,1,.06-.52.91.91,0,0,1,.67-.64C376.07,411.27,376.64,412.3,376.21,413Z" style="fill:#37474f"></path><path d="M460.7,433.74a.89.89,0,0,1-1.65-.22.68.68,0,0,1,0-.19s0,0,0,0a.86.86,0,0,1,.06-.51.92.92,0,0,1,.67-.65A1.05,1.05,0,0,1,460.7,433.74Z" style="fill:#37474f"></path><path d="M378.47,414.36a.31.31,0,0,1,0-.08h0a.59.59,0,0,0-.14-.54.36.36,0,0,0-.12-.08.44.44,0,0,0-.69.16c-.24.52.35,1.19.79.76a.62.62,0,0,0,.11-.17l0,0A0,0,0,0,1,378.47,414.36Z" style="fill:#37474f"></path><path d="M430.93,410.26l0-.07h0a.58.58,0,0,0-.48-.28l-.14,0a.44.44,0,0,0-.37.61c.19.53,1.08.6,1.09,0a.48.48,0,0,0,0-.2v0Z" style="fill:#37474f"></path><path d="M378.71,411.14a.35.35,0,0,0-.46.16.3.3,0,0,0,0,.21.34.34,0,0,0,.66.12A.38.38,0,0,0,378.71,411.14Z" style="fill:#37474f"></path><path d="M397.25,401.1a.37.37,0,0,0-.46.16.29.29,0,0,0,0,.22.34.34,0,0,0,.66.12A.41.41,0,0,0,397.25,401.1Z" style="fill:#37474f"></path><path d="M432.64,407.22a.35.35,0,0,0-.21.44.28.28,0,0,0,.13.17.34.34,0,0,0,.55-.38A.39.39,0,0,0,432.64,407.22Z" style="fill:#37474f"></path><path d="M247.93,468.71h-182a34.23,34.23,0,0,1-5.16-10c-1.54-5.54-.11-12.9,5.68-15.44,3.73-1.63,7.74-.27,11.59-.17,1.17,0,2.45-.12,3.09-1.23a3.5,3.5,0,0,0,.28-2.58c-.49-2-2.39-3.24-4-4.32a.47.47,0,0,1-.09-.73,9.39,9.39,0,0,1,11.75-.28c2-2.12,1.12-5.31-.18-7.62-1.4-2.48-3.64-4.35-5.25-6.69a8.62,8.62,0,0,1-1.77-6.29,9.66,9.66,0,0,1,3.85-5.67c3.12-2.49,8.51-5.3,12.19-2.34,4,3.23,1.45,9.26,4.07,13.19a4.35,4.35,0,0,0,3.11,2.21,3.48,3.48,0,0,0,2.84-1.85c.94-1.32,1.69-2.92,3.28-3.48-.43-4-1.47-8-1.86-12-.56-5.83.75-13.39,6.85-15.88a9.19,9.19,0,0,1,7.46.1,7.5,7.5,0,0,1,3.86,6.64c.15,3.45-1,6.85-.61,10.3.26,2.11,1.28,4.34,3.81,3.85,1.77-.34,3.2-1.53,4.65-2.53,1.86-1.3,5.07-2.72,7-.81,1.16,1.12,1,2.9,2,4.11s2.73,1.46,4.21,1.48c3,.05,6-.7,9.06-.44a19.79,19.79,0,0,1,8.27,2.46,13.41,13.41,0,0,1,5.57,6c1,2.21,2.81,7.36,6.13,5.09,1.39-1,2.21-2.75,3.06-4.16s1.72-2.89,2.66-4.27a19.42,19.42,0,0,1,6.59-6.47,13.13,13.13,0,0,1,16.47,3.59,13.48,13.48,0,0,1,2.62,8.66c-.2,3.6-2.64,6.62-2.8,10.18-.06,1.64.41,3.6,1.93,4.5,1.88,1.11,4.2.1,6.12-.34s5.29-.22,6.16,2.13a3.23,3.23,0,0,1-.65,3c-.41.56-.91,1.05-1.27,1.64-.49.83-.4,1.2.38,1.71,2.25,1.51,5.32,1,7.89,1.22C241.9,446.65,247.25,464.47,247.93,468.71Z" style="fill:#263238"></path><path d="M119.22,439c-2.22,10.06-4.42,19.94-1.81,29.73h-2.09c-.77-1.94-1.51-3.9-2.27-5.85-7.49-3.49-15.55-.68-23.46-1.65-6.17-.76-12.74-3.76-16.67-8.71a.34.34,0,0,1,.48-.49,36.82,36.82,0,0,0,11,6.31c-.84-1-1.64-2-2.55-2.94-1.33-1.35-2.81-2.49-4.24-3.74-.08-.06,0-.19.12-.14A29.22,29.22,0,0,1,82.23,455a24.46,24.46,0,0,1,3.5,3.69,28.25,28.25,0,0,0,8,1.12c6.21,0,13.16-1.4,18.78,1.76-.48-1.18-1-2.36-1.48-3.53A107.56,107.56,0,0,0,103.39,444c-2.87-4.47-5.84-8.9-7.93-13.81a56.2,56.2,0,0,1-3.76-14.76c0-.27.36-.39.41-.11,1.6,8.9,5.92,16.58,10.61,24.1-1.44-4.35-2.62-8.78-4.45-13-.13-.3.3-.57.46-.26,2.53,5.09,5.25,10.78,6,16.5.32.5.64,1,1,1.51A99.91,99.91,0,0,1,114.25,461c-.32-6.26,1-12.84,2.28-18.58,1.45-6.48,2.84-12.9,3-19.57,0-.6,0-1.18,0-1.77a46.42,46.42,0,0,1-4.41-24.45.42.42,0,0,1,.84,0,75.55,75.55,0,0,0,1,13.6,57.27,57.27,0,0,0,2.54,8.8,150.67,150.67,0,0,0-1.44-15.78c-.05-.44.65-.5.76-.1C122.22,415,121.85,427.06,119.22,439Z" style="fill:#455a64"></path><path d="M159.69,425.42a74.68,74.68,0,0,1-4.66,8,35.27,35.27,0,0,1-1.85,6.38,23.71,23.71,0,0,1-4.83,7.54c-2.5,2.64-5,4.93-5.73,8.47,2,4.09,3.57,8.43,3.6,12.88h-1.5c-1.28-8.15-5.42-14.82-9.16-22.24-3.27-6.52-6-15-2.74-22.06.18-.41.78-.11.69.29-2.23,9.42,1.74,17.33,6.14,25.45.68,1.26,1.38,2.55,2.06,3.86a11.31,11.31,0,0,1,2.28-4.45c2.22-2.81,4.86-5.09,6.55-8.32,3.74-7.12,3.14-14.82,4.19-22.51.06-.43.63-.24.67.09a46.5,46.5,0,0,1,0,12.47A47.78,47.78,0,0,1,159,425,.38.38,0,0,1,159.69,425.42Z" style="fill:#455a64"></path><path d="M198.6,420.42a25.24,25.24,0,0,1-4.87,11c-1.9,2.49-4.85,4.08-6.7,6.56-1.58,3.31-3.38,6.5-5.18,9.69-1.91,3.38-5.43,7.94-3.74,12,.08.21-.08.34-.26.36a13.75,13.75,0,0,1,3.18,8.72h-.89c-1-11.79-17.75-14.92-17.9-27.09,0-.56.88-.69,1-.13,1.25,6.61,6.41,10.31,11.06,14.61a34.31,34.31,0,0,1,2.77,2.88c-1.16-2.46-.33-5.15.84-7.58,1.85-3.86,4.14-7.51,6.13-11.29a76.61,76.61,0,0,0,5.37-12.25c1.39-4.43,1.62-8.72,1.74-13.32a.24.24,0,0,1,.47-.07c1.57,6.57-.55,14.08-3.13,20.26,1-.91,2-1.77,2.87-2.72,3.1-3.43,4.69-7.63,6.38-11.83A.46.46,0,0,1,198.6,420.42Z" style="fill:#455a64"></path><path d="M232.39,455.84c-4,.57-7.84,1.51-11.88,1.73a59.43,59.43,0,0,1-12.36-.63c-5.05-.78-10.12-2-15.11-1.43a40.79,40.79,0,0,0,4.41-2.27c4.7-2.89,9.22-7.68,11.13-12.92.2-.53-.55-.73-.83-.36-2.32,3-4.23,6.12-7.11,8.7-3.19,2.86-6.89,4.53-10.67,6.44a20.59,20.59,0,0,0-7.43,5.59c-.52.69-3,4.15-1.49,4.9a.21.21,0,0,0,.26,0l.09-.1c.06-.07,0-.21-.06-.23-.33-.06,2.66-4.19,2.71-4.23a18.66,18.66,0,0,1,3.75-2.87c.69-.41,1.4-.78,2.12-1.14,6.81-1.31,13.78,1.17,20.55,2,7.1.85,15.53.77,22.23-2A.58.58,0,0,0,232.39,455.84Z" style="fill:#455a64"></path><path d="M143.74,465.09c-2-2.93-5.29-4.57-8.23-6.41-4.16-2.61-7-5.61-8.59-10.32-.14-.4-.85-.37-.79.11,1.14,9.28,10.73,11.94,17,17.08C143.45,465.8,144,465.47,143.74,465.09Z" style="fill:#455a64"></path><path d="M102.09,459.23c-1.43-3.54-4.86-6-7.63-8.49a29.52,29.52,0,0,1-4.37-4.5c-1.75-2.37-2.61-5.13-3.6-7.87a.26.26,0,0,0-.5.14c1,4.46,2.67,8.46,6,11.73s6.7,5.86,9.73,9.23C101.84,459.64,102.19,459.46,102.09,459.23Z" style="fill:#455a64"></path><path d="M110.71,424a1.21,1.21,0,0,1-2.25-.31.78.78,0,0,1,0-.26l0-.05a1.33,1.33,0,0,1,.08-.7,1.24,1.24,0,0,1,.93-.88C110.53,421.58,111.3,423,110.71,424Z" style="fill:#37474f"></path><path d="M226.32,452.33a1.21,1.21,0,0,1-2.25-.3,1.28,1.28,0,0,1,0-.27.11.11,0,0,0,0-.05,1.24,1.24,0,0,1,.08-.7,1.26,1.26,0,0,1,.92-.88A1.43,1.43,0,0,1,226.32,452.33Z" style="fill:#37474f"></path><path d="M113.8,425.81a.42.42,0,0,0,0-.1h0a.81.81,0,0,0-.19-.74.64.64,0,0,0-.16-.11.6.6,0,0,0-.95.23c-.33.7.47,1.62,1.07,1a.63.63,0,0,0,.16-.23l0,0A.06.06,0,0,0,113.8,425.81Z" style="fill:#37474f"></path><path d="M185.59,420.2a.3.3,0,0,0,0-.1h0a.82.82,0,0,0-.66-.39.72.72,0,0,0-.19,0,.6.6,0,0,0-.51.83c.26.73,1.48.82,1.49,0a.86.86,0,0,0,0-.27,0,0,0,0,0,0,0A.05.05,0,0,0,185.59,420.2Z" style="fill:#37474f"></path><path d="M114.14,421.4a.49.49,0,0,0-.63.22.37.37,0,0,0,0,.29.47.47,0,0,0,.91.16A.54.54,0,0,0,114.14,421.4Z" style="fill:#37474f"></path><path d="M139.5,407.67a.47.47,0,0,0-.62.22.34.34,0,0,0,0,.29.46.46,0,0,0,.9.17A.54.54,0,0,0,139.5,407.67Z" style="fill:#37474f"></path><path d="M187.93,416.05a.48.48,0,0,0-.29.59.36.36,0,0,0,.18.24.47.47,0,0,0,.76-.52A.53.53,0,0,0,187.93,416.05Z" style="fill:#37474f"></path><path d="M288.42,468.71h135.7a25.58,25.58,0,0,0,3.84-7.47c1.15-4.14.08-9.63-4.23-11.52-2.78-1.21-5.77-.2-8.64-.13a2.35,2.35,0,0,1-2.31-.91,2.66,2.66,0,0,1-.21-1.92c.37-1.47,1.79-2.41,3-3.22a.36.36,0,0,0,.06-.55,7,7,0,0,0-8.76-.21c-1.47-1.57-.83-3.95.14-5.68s2.71-3.24,3.91-5a6.47,6.47,0,0,0,1.32-4.69,7.2,7.2,0,0,0-2.87-4.23c-2.33-1.85-6.34-3.95-9.09-1.74-3,2.41-1.08,6.9-3,9.83a3.17,3.17,0,0,1-2.31,1.64,2.54,2.54,0,0,1-2.12-1.37c-.7-1-1.26-2.18-2.45-2.59.32-3,1.1-6,1.39-9,.41-4.35-.56-10-5.11-11.83a6.86,6.86,0,0,0-5.56.07,5.58,5.58,0,0,0-2.87,4.95c-.12,2.57.76,5.11.45,7.68-.19,1.57-1,3.23-2.84,2.87a9.73,9.73,0,0,1-3.47-1.89c-1.38-1-3.78-2-5.24-.6-.86.83-.74,2.16-1.48,3.06a4,4,0,0,1-3.14,1.11c-2.27,0-4.46-.53-6.75-.33a14.77,14.77,0,0,0-6.17,1.83,10.1,10.1,0,0,0-4.15,4.5c-.76,1.65-2.09,5.49-4.57,3.8a9.78,9.78,0,0,1-2.28-3.1c-.64-1.08-1.28-2.16-2-3.19a14.51,14.51,0,0,0-4.91-4.82,9.79,9.79,0,0,0-12.28,2.68,10,10,0,0,0-1.95,6.45c.15,2.68,2,4.94,2.08,7.59a3.63,3.63,0,0,1-1.44,3.35c-1.39.83-3.12.08-4.55-.25s-3.95-.16-4.6,1.59a2.43,2.43,0,0,0,.49,2.25c.3.42.68.78.94,1.22.37.62.3.89-.27,1.27-1.69,1.14-4,.73-5.89.91C292.92,452.27,288.93,465.55,288.42,468.71Z" style="fill:#263238"></path><path d="M384.35,446.55c1.66,7.5,3.3,14.86,1.36,22.16h1.56c.57-1.45,1.12-2.91,1.69-4.36,5.58-2.6,11.59-.51,17.48-1.23,4.6-.57,9.5-2.8,12.43-6.5a.25.25,0,0,0-.36-.36,27.49,27.49,0,0,1-8.22,4.71c.62-.74,1.22-1.5,1.9-2.19,1-1,2.09-1.86,3.16-2.79.06-.05,0-.15-.09-.11a21.7,21.7,0,0,0-3.33,2.64,17.89,17.89,0,0,0-2.61,2.75,20.82,20.82,0,0,1-6,.83c-4.63,0-9.8-1-14,1.32.35-.88.72-1.76,1.1-2.63a80,80,0,0,1,5.73-10.48,71.1,71.1,0,0,0,5.91-10.3,42.15,42.15,0,0,0,2.8-11c0-.2-.27-.29-.3-.08-1.2,6.63-4.42,12.36-7.92,18,1.08-3.24,2-6.55,3.32-9.71.1-.23-.22-.43-.34-.2-1.89,3.8-3.91,8-4.49,12.3-.23.38-.47.75-.71,1.13A74.59,74.59,0,0,0,388.06,463c.24-4.67-.75-9.57-1.7-13.85a76.76,76.76,0,0,1-2.26-14.59c0-.44,0-.88,0-1.32A34.6,34.6,0,0,0,387.38,415a.32.32,0,0,0-.63,0,57.42,57.42,0,0,1-.75,10.14,43.26,43.26,0,0,1-1.9,6.56,114.36,114.36,0,0,1,1.07-11.77c.05-.33-.48-.37-.56-.07C382.12,428.67,382.39,437.67,384.35,446.55Z" style="fill:#455a64"></path><path d="M354.19,436.44a57.4,57.4,0,0,0,3.47,6,26.3,26.3,0,0,0,1.38,4.75,17.6,17.6,0,0,0,3.6,5.62c1.87,2,3.73,3.68,4.28,6.32a22.68,22.68,0,0,0-2.69,9.6h1.12c.95-6.08,4-11,6.83-16.58,2.44-4.86,4.47-11.18,2-16.44-.14-.31-.59-.09-.51.21,1.65,7-1.3,12.92-4.58,19-.51.93-1,1.89-1.54,2.87a8.18,8.18,0,0,0-1.7-3.31c-1.65-2.1-3.62-3.8-4.88-6.21-2.79-5.3-2.34-11-3.12-16.78-.05-.31-.47-.18-.5.07a34.89,34.89,0,0,0,0,9.3,35.71,35.71,0,0,0-2.72-4.66A.28.28,0,0,0,354.19,436.44Z" style="fill:#455a64"></path><path d="M325.19,432.71a18.72,18.72,0,0,0,3.63,8.18c1.41,1.86,3.61,3,5,4.89,1.18,2.47,2.52,4.85,3.86,7.22s4.05,5.92,2.79,8.94a.2.2,0,0,0,.19.27,10.2,10.2,0,0,0-2.36,6.5H339c.73-8.79,13.23-11.12,13.34-20.19,0-.42-.66-.52-.73-.1-.93,4.92-4.78,7.69-8.24,10.89a26.2,26.2,0,0,0-2.07,2.14c.87-1.83.24-3.83-.63-5.65-1.38-2.87-3.08-5.59-4.56-8.41a55.67,55.67,0,0,1-4-9.13,34.69,34.69,0,0,1-1.3-9.93.18.18,0,0,0-.36-.05c-1.16,4.9.41,10.5,2.34,15.1-.72-.68-1.5-1.32-2.14-2-2.31-2.55-3.49-5.68-4.75-8.82A.34.34,0,0,0,325.19,432.71Z" style="fill:#455a64"></path><path d="M300,459.12c3,.42,5.84,1.12,8.86,1.29a44.37,44.37,0,0,0,9.21-.48c3.76-.57,7.54-1.45,11.27-1.06a31.07,31.07,0,0,1-3.3-1.69,20.41,20.41,0,0,1-8.29-9.63c-.15-.4.41-.55.62-.27,1.72,2.26,3.15,4.56,5.3,6.49,2.37,2.13,5.13,3.37,7.95,4.79a15.4,15.4,0,0,1,5.54,4.17c.39.51,2.24,3.1,1.11,3.65a.17.17,0,0,1-.19,0l-.07-.08c-.05,0,0-.16,0-.17.25,0-2-3.12-2-3.16a14.17,14.17,0,0,0-2.79-2.14c-.52-.3-1.05-.58-1.58-.84-5.08-1-10.28.87-15.32,1.48-5.29.63-11.57.57-16.57-1.5A.43.43,0,0,1,300,459.12Z" style="fill:#455a64"></path><path d="M366.08,466c1.5-2.18,3.94-3.41,6.13-4.78a14,14,0,0,0,6.41-7.69c.1-.3.63-.28.59.08-.85,6.92-8,8.91-12.69,12.73C366.3,466.54,365.88,466.29,366.08,466Z" style="fill:#455a64"></path><path d="M397.12,461.64c1.07-2.64,3.62-4.5,5.69-6.32a16.36,16.36,0,0,0,5.94-9.23.2.2,0,0,1,.38.11,17.22,17.22,0,0,1-4.45,8.74c-2.38,2.37-5,4.37-7.25,6.88C397.31,462,397.05,461.81,397.12,461.64Z" style="fill:#455a64"></path><path d="M390.7,435.38a.9.9,0,0,0,1.68-.23.63.63,0,0,0,0-.19s0,0,0,0a.9.9,0,0,0-.06-.52.94.94,0,0,0-.69-.66C390.84,433.58,390.26,434.63,390.7,435.38Z" style="fill:#37474f"></path><path d="M304.53,456.5a.9.9,0,0,0,1.68-.23l0-.19s0,0,0,0a1,1,0,0,0-.06-.52,1,1,0,0,0-.69-.66A1.07,1.07,0,0,0,304.53,456.5Z" style="fill:#37474f"></path><path d="M388.39,436.73a.19.19,0,0,1,0-.07h0a.59.59,0,0,1,.14-.55.36.36,0,0,1,.12-.08.44.44,0,0,1,.71.17c.24.52-.36,1.21-.81.77a.62.62,0,0,1-.11-.17l0,0A0,0,0,0,0,388.39,436.73Z" style="fill:#37474f"></path><path d="M334.88,432.55a.16.16,0,0,1,0-.07h0a.6.6,0,0,1,.49-.29.35.35,0,0,1,.14,0,.44.44,0,0,1,.39.61c-.19.55-1.1.62-1.11,0a.51.51,0,0,1,0-.21v-.05Z" style="fill:#37474f"></path><path d="M388.14,433.44a.38.38,0,0,1,.47.17.28.28,0,0,1,0,.22.34.34,0,0,1-.67.12A.4.4,0,0,1,388.14,433.44Z" style="fill:#37474f"></path><path d="M369.24,423.21a.35.35,0,0,1,.46.17.23.23,0,0,1,0,.21.34.34,0,0,1-.67.13A.41.41,0,0,1,369.24,423.21Z" style="fill:#37474f"></path><path d="M333.14,429.45a.38.38,0,0,1,.22.45.26.26,0,0,1-.14.17.34.34,0,0,1-.56-.38A.4.4,0,0,1,333.14,429.45Z" style="fill:#37474f"></path></g></svg>
