<svg xmlns="http://www.w3.org/2000/svg" xmlns:xlink="http://www.w3.org/1999/xlink" version="1.1" width="256" height="256" viewBox="0 0 256 256" xml:space="preserve">

<defs>
</defs>
<g style="stroke: none; stroke-width: 0; stroke-dasharray: none; stroke-linecap: butt; stroke-linejoin: miter; stroke-miterlimit: 10; fill: none; fill-rule: nonzero; opacity: 1;" transform="translate(1.4065934065934016 1.4065934065934016) scale(2.81 2.81)" >
	<path d="M 74.838 67.668 V 15.203 c 0 -3.371 -2.742 -6.113 -6.113 -6.113 H 51.927 V 2.967 h 6.526 c 0.819 0 1.484 -0.664 1.484 -1.484 C 59.936 0.664 59.272 0 58.453 0 h -6.526 H 38.073 h -6.526 c -0.819 0 -1.483 0.664 -1.483 1.483 c 0 0.82 0.664 1.484 1.483 1.484 h 6.526 V 9.09 H 21.275 c -3.371 0 -6.113 2.742 -6.113 6.113 v 52.465 c 0 3.371 2.742 6.113 6.113 6.113 h 4.427 l -10.25 13.852 c -0.487 0.659 -0.348 1.588 0.31 2.076 c 0.658 0.488 1.587 0.35 2.075 -0.31 l 4.404 -5.952 h 45.516 l 4.404 5.952 c 0.292 0.393 0.74 0.601 1.194 0.601 c 0.307 0 0.616 -0.095 0.882 -0.291 c 0.659 -0.488 0.797 -1.417 0.31 -2.076 l -10.25 -13.852 h 4.428 C 72.096 73.781 74.838 71.039 74.838 67.668 z M 41.04 2.967 h 7.92 V 9.09 h -7.92 V 2.967 z M 65.563 80.479 H 24.438 l 4.956 -6.698 h 31.213 L 65.563 80.479 z M 27.898 70.814 h -6.623 c -1.735 0 -3.146 -1.411 -3.146 -3.146 V 15.203 c 0 -1.735 1.412 -3.146 3.146 -3.146 h 16.798 h 13.854 h 16.799 c 1.735 0 3.146 1.412 3.146 3.146 v 52.465 c 0 1.735 -1.411 3.146 -3.146 3.146 h -6.624 H 27.898 z" style="stroke: none; stroke-width: 1; stroke-dasharray: none; stroke-linecap: butt; stroke-linejoin: miter; stroke-miterlimit: 10; fill: rgb(0,0,0); fill-rule: nonzero; opacity: 1;" transform=" matrix(1 0 0 1 0 0) " stroke-linecap="round" />
	<path d="M 62.824 45.177 H 27.176 c -1.905 0 -3.455 -1.55 -3.455 -3.455 v -20.19 c 0 -1.905 1.55 -3.455 3.455 -3.455 h 35.648 c 1.905 0 3.455 1.55 3.455 3.455 v 20.19 C 66.279 43.628 64.729 45.177 62.824 45.177 z M 27.176 21.044 c -0.269 0 -0.488 0.219 -0.488 0.488 v 20.19 c 0 0.269 0.219 0.488 0.488 0.488 h 35.648 c 0.268 0 0.488 -0.219 0.488 -0.488 v -20.19 c 0 -0.269 -0.219 -0.488 -0.488 -0.488 H 27.176 z" style="stroke: none; stroke-width: 1; stroke-dasharray: none; stroke-linecap: butt; stroke-linejoin: miter; stroke-miterlimit: 10; fill: rgb(0,0,0); fill-rule: nonzero; opacity: 1;" transform=" matrix(1 0 0 1 0 0) " stroke-linecap="round" />
	<path d="M 30.964 65.548 c -3.755 0 -6.809 -3.055 -6.809 -6.809 c 0 -3.754 3.054 -6.809 6.809 -6.809 s 6.809 3.055 6.809 6.809 C 37.773 62.493 34.719 65.548 30.964 65.548 z M 30.964 54.897 c -2.119 0 -3.842 1.724 -3.842 3.842 c 0 2.118 1.724 3.842 3.842 3.842 s 3.842 -1.724 3.842 -3.842 C 34.806 56.621 33.083 54.897 30.964 54.897 z" style="stroke: none; stroke-width: 1; stroke-dasharray: none; stroke-linecap: butt; stroke-linejoin: miter; stroke-miterlimit: 10; fill: rgb(0,0,0); fill-rule: nonzero; opacity: 1;" transform=" matrix(1 0 0 1 0 0) " stroke-linecap="round" />
	<path d="M 59.036 65.548 c -3.754 0 -6.809 -3.055 -6.809 -6.809 c 0 -3.754 3.055 -6.809 6.809 -6.809 c 3.754 0 6.809 3.055 6.809 6.809 C 65.845 62.493 62.79 65.548 59.036 65.548 z M 59.036 54.897 c -2.118 0 -3.842 1.724 -3.842 3.842 c 0 2.118 1.724 3.842 3.842 3.842 c 2.118 0 3.842 -1.724 3.842 -3.842 C 62.878 56.621 61.154 54.897 59.036 54.897 z" style="stroke: none; stroke-width: 1; stroke-dasharray: none; stroke-linecap: butt; stroke-linejoin: miter; stroke-miterlimit: 10; fill: rgb(0,0,0); fill-rule: nonzero; opacity: 1;" transform=" matrix(1 0 0 1 0 0) " stroke-linecap="round" />
</g>
</svg>