<?xml version="1.0" encoding="UTF-8"?>
<svg id="Layer_1" data-name="Layer 1" xmlns="http://www.w3.org/2000/svg" viewBox="0 0 990 990">
  <defs>
    <style>
      .cls-1 {
        fill: #e2f2ef;
      }

      .cls-1, .cls-2 {
        stroke-width: 0px;
      }

      .cls-2 {
        fill: #00a983;
      }
    </style>
  </defs>
  <rect class="cls-1" width="990" height="990"/>
  <path class="cls-2" d="m522.92,770.67c0,15.66-12.68,28.34-28.34,28.34H28.34c-15.66,0-28.34-12.68-28.34-28.34,0-104.47,61.58-194.84,150.35-236.63-59.51-37.17-99.18-103.26-99.18-178.45,0-115.97,94.34-210.3,210.28-210.3s210.3,94.34,210.3,210.3c0,75.19-39.67,141.28-99.18,178.45,88.79,41.82,150.35,132.16,150.35,236.63Z"/>
  <path class="cls-2" d="m728.53,193.34c89.47,0,162.25,72.79,162.25,162.25,0,56.27-28.63,107.74-76.58,137.69-14.92,9.32-23.55,26.04-22.51,43.59,1.04,17.56,11.58,33.14,27.49,40.63,36.16,17.03,66.81,43.83,88.62,77.49,18.76,28.94,30.09,61.78,33.25,95.96h-425.01c3.15-34.18,14.49-67.02,33.25-95.97,21.82-33.66,52.46-60.45,88.61-77.47,15.91-7.49,26.46-23.08,27.5-40.63,1.04-17.56-7.59-34.28-22.51-43.59-47.95-29.95-76.58-81.43-76.58-137.69,0-89.47,72.77-162.25,162.23-162.25m0-48.05c-115.94,0-210.28,94.34-210.28,210.3,0,75.19,39.67,141.28,99.18,178.45-88.76,41.8-150.35,132.16-150.35,236.63,0,15.66,12.68,28.34,28.34,28.34h466.25c15.66,0,28.34-12.68,28.34-28.34,0-104.47-61.56-194.81-150.35-236.63,59.51-37.17,99.18-103.26,99.18-178.45,0-115.97-94.34-210.3-210.3-210.3h0Z"/>
  <path class="cls-2" d="m829.7,370.51c0,55.87-45.29,101.16-101.16,101.16s-101.16-45.29-101.16-101.16h202.32Z"/>
  <path class="cls-1" d="m362.62,370.51c0,55.87-45.29,101.16-101.16,101.16s-101.16-45.29-101.16-101.16h202.32Z"/>
</svg>