<?xml version="1.0" encoding="utf-8"?>
<!-- Generator: Adobe Illustrator 23.0.1, SVG Export Plug-In . SVG Version: 6.00 Build 0)  -->
<svg version="1.1" id="Layer_1" xmlns="http://www.w3.org/2000/svg" xmlns:xlink="http://www.w3.org/1999/xlink" x="0px" y="0px"
	 width="55px" height="55px" viewBox="0 0 55 55" style="enable-background:new 0 0 55 55;" xml:space="preserve">
<style type="text/css">
	.st0{fill-rule:evenodd;clip-rule:evenodd;fill:none;}
	.st1{fill:#3B73B9;}
</style>
<g id="Page-1">
	<g transform="translate(-1167.000000, -73.000000)">
		<g>
			<g id="Content" transform="translate(732.000000, 30.000000)">
				<g id="Logos" transform="translate(0.000000, 43.000000)">
					<g id="logo-ge" transform="translate(435.000000, 0.000000)">
						<rect id="bg" x="0.5" y="0" class="st0" width="53.6" height="55"/>
						<path id="Fill-1" class="st1" d="M46.5,7.9C41.2,2.6,34.8,0,27.3,0C19.8,0,13.4,2.6,8,7.9s-8,11.7-8,19.1
							c0,7.5,2.7,13.9,8,19.2s11.7,7.9,19.2,7.9c7.5,0,13.9-2.6,19.2-7.9s8-11.7,8-19.2C54.5,19.6,51.8,13.2,46.5,7.9z M45.6,45.3
							c-5,5-11.2,7.6-18.3,7.6c-7.1,0-13.2-2.5-18.3-7.6c-5.1-5-7.6-11.1-7.6-18.2c0-7.1,2.5-13.2,7.6-18.2s11.2-7.5,18.3-7.5
							c7.1,0,13.2,2.5,18.3,7.6s7.6,11.1,7.6,18.2S50.7,40.2,45.6,45.3z M47.8,14.5c-2.5-4-5.9-6.7-10.4-8c-2.2-0.6-4-1-5.5-1
							c-1.7,0-3,0.4-4.1,1.2C26.7,7.6,25.9,8,25.4,8c-1.3,0-1.9-0.6-1.9-1.8c0-0.9,0.5-1.6,1.4-2.2c1-0.6,2.2-0.9,3.8-0.9
							c2.6,0,4.5,0.3,5.8,1l0.1-0.2c-2.4-0.8-4.9-1.3-7.7-1.3c-4.6,0-8.7,1.1-12.4,3.4c-4,2.4-6.6,5.9-8,10.3c-0.7,2.1-1,3.9-1,5.5
							c0,1.6,0.4,3,1.2,4.2c0.8,1.1,1.2,1.9,1.2,2.4c0,1.2-0.6,1.8-1.8,1.8c-2.1,0-3.1-1.7-3.1-5.2c0-2,0.3-4,0.9-5.8l-0.2-0.1
							c-0.8,3.2-1.2,5.7-1.2,7.6c0,4.6,1.1,8.8,3.4,12.4C8.5,43,12,45.7,16.5,47c2.1,0.6,3.9,1,5.5,1c1.7,0,3-0.4,4.1-1.3
							c1.1-0.8,1.9-1.3,2.4-1.3c1.3,0,1.9,0.6,1.9,1.9c0,0.8-0.5,1.6-1.4,2.1c-1,0.6-2.2,0.9-3.8,0.9c-2.4,0-4.3-0.3-5.8-0.9
							l-0.1,0.2c1.8,0.8,4.3,1.2,7.7,1.2c4.6,0,8.7-1.1,12.4-3.4c4-2.4,6.6-5.9,8-10.3c0.7-2.1,1-3.9,1-5.4c0-1.7-0.4-3.1-1.2-4.2
							c-0.8-1.1-1.2-1.9-1.2-2.4c0-1.2,0.6-1.9,1.8-1.9c0.9,0,1.6,0.5,2.2,1.5c0.6,1,0.9,2.3,0.9,3.9c0,1.7-0.3,3.7-0.9,5.8l0.2,0.1
							c0.8-2.4,1.2-5,1.2-7.7C51.2,22.1,50.1,18.1,47.8,14.5z M40,38.9c-1.4,1.4-3.1,2.1-5.2,2.1c-2.5,0-4.4-0.9-5.9-2.7
							c-1.3-1.5-2-3.4-2-5.5c0-3.9,1.8-6.8,5.4-8.6c-0.3-0.2-0.5-0.5-0.8-0.9c-2.1,1.5-4.4,2.9-6.9,4.3c-0.2,3.2-0.5,5.5-1,6.8
							c-1.5,4.4-3.9,6.6-7.4,6.6c-1.4,0-2.5-0.4-3.2-1.3c-0.8-0.8-1.1-1.9-1.1-3.1c0-1.9,0.9-3.7,2.7-5.3c1-0.8,2.1-1.7,3.5-2.5
							c0.7-0.4,2.2-1.2,4.4-2.3c0.1-0.6,0.2-1.1,0.2-1.4c-0.8,0.7-1.8,1-3,1c-1.7,0-2.8-0.9-3.2-2.8c-2.5-0.2-3.7-1.5-3.8-4
							c-0.1-2.1,0.6-3.2,1.8-3.2c0.4,0,0.6,0.2,0.6,0.7c0,0-0.1,0.3-0.2,0.9c-0.1,0.5-0.2,1-0.2,1.4c0,1.5,0.6,2.2,1.7,2.2
							c0-2,0.6-4,1.9-6s2.7-2.9,4.3-2.9c1.7,0,2.6,0.8,2.6,2.4c0,1.7-0.7,3.4-2.1,5.1c-1.4,1.7-2.8,2.8-4.3,3.3
							c0.2,0.7,0.6,1.1,1.3,1.1c1.1,0,2.2-0.6,3.2-1.9c0.5-2.5,1.5-3.8,2.9-3.8c0.6,0,0.9,0.3,0.9,1c0,0.8-0.7,2-2.1,3.5
							c-0.2,0.7-0.2,1.5-0.2,2.2c2.6-1.5,4.6-2.8,6-3.8c-0.1-0.3-0.2-0.9-0.2-1.7c0-1.8,0.5-3.5,1.6-5.1c1.1-1.5,2.3-2.3,3.8-2.3
							c1.8,0,2.6,0.8,2.6,2.5c0,2.1-1.8,4.5-5.3,7.1c0.3,0.7,0.7,1.2,1.2,1.4c0.1-0.2,0.7-0.3,1.9-0.3c1.5,0,2.2,0.4,2.2,1.1
							c0,0.8-0.9,1.3-2.6,1.3c-0.4,0-0.9,0-1.6-0.1c-3.2,0.8-4.8,3.2-4.8,7.1c0,1.7,0.5,3.2,1.5,4.4c1,1.2,2.2,1.8,3.7,1.8
							c1.3,0,2.3-0.4,3.2-1.3c0.9-0.8,1.3-1.9,1.3-3.3c0.1-2.4-0.8-3.7-2.6-3.7c-1.1,0-1.7,0.5-1.7,1.6c0,0.5,0.2,1,0.5,1.5
							c0.4,0.4,0.5,0.8,0.5,1.1c0,0.6-0.4,1-1.1,1c-0.8,0-1.4-0.3-1.9-1c-0.5-0.6-0.8-1.4-0.8-2.4c0-1.1,0.4-2.1,1.3-2.9
							c0.9-0.8,1.9-1.2,3.2-1.2c1.6,0,2.8,0.6,3.7,1.7c0.9,1.1,1.4,2.5,1.4,4.2C42,35.9,41.3,37.5,40,38.9z M36.3,14.3
							c-0.6,0-1.2,0.5-1.8,1.6c-0.6,1-1,2.3-1,3.6c2.2-1.9,3.3-3.4,3.3-4.4C36.8,14.6,36.6,14.3,36.3,14.3z M23.1,14.3
							c-0.8,0-1.7,0.8-2.6,2.3c-1,1.6-1.4,3-1.4,4.2c1.3-0.6,2.3-1.6,3.2-2.8c0.9-1.2,1.3-2.3,1.3-3.2
							C23.7,14.5,23.5,14.3,23.1,14.3z M14.5,36.5c0,1.3,0.6,2,1.8,2c1.5,0,2.9-1.1,4.1-3.2c1-1.8,1.6-4,2-6.5
							C17.1,31.2,14.5,33.8,14.5,36.5L14.5,36.5z"/>
					</g>
				</g>
			</g>
		</g>
	</g>
</g>
</svg>
