<?xml version="1.0" encoding="utf-8"?>
<!-- Generator: Adobe Illustrator 23.0.1, SVG Export Plug-In . SVG Version: 6.00 Build 0)  -->
<svg version="1.1" id="Layer_1" xmlns="http://www.w3.org/2000/svg" xmlns:xlink="http://www.w3.org/1999/xlink" x="0px" y="0px"
	 width="146px" height="55px" viewBox="0 0 146 55" style="enable-background:new 0 0 146 55;" xml:space="preserve">
<style type="text/css">
	.st0{fill-rule:evenodd;clip-rule:evenodd;fill:none;}
	.st1{fill:#737373;}
	.st2{fill:#F25022;}
	.st3{fill:#7FBA00;}
	.st4{fill:#00A4EF;}
	.st5{fill:#FFB900;}
</style>
<g id="Page-1">
	<g transform="translate(-732.000000, -73.000000)">
		<g>
			<g id="Content" transform="translate(732.000000, 30.000000)">
				<g id="Logos" transform="translate(0.000000, 43.000000)">
					<g id="logo-microsoft">
						<rect id="bg-ms" y="0" class="st0" width="145.8" height="55"/>
						<path id="Shape" class="st1" d="M51.5,30.3l-0.9,2.4h-0.1c-0.1-0.5-0.4-1.4-0.8-2.4l-4.7-11.4h-4.6v18.2h3V25.9
							c0-0.7,0-1.5,0-2.5c0-0.5-0.1-0.9-0.1-1.2h0.1c0.1,0.7,0.3,1.2,0.4,1.6l5.6,13.3h2.1l5.6-13.4c0.1-0.3,0.2-0.9,0.4-1.4h0.1
							c-0.1,1.3-0.1,2.5-0.1,3.3v11.6h3.2V18.9h-4.4L51.5,30.3L51.5,30.3z M63.7,24h3.1v13.1h-3.1V24z M65.3,18.5
							c-0.5,0-1,0.2-1.3,0.5c-0.4,0.3-0.6,0.8-0.6,1.3c0,0.5,0.2,0.9,0.6,1.3c0.4,0.3,0.8,0.5,1.3,0.5s1-0.2,1.3-0.5
							c0.4-0.3,0.6-0.8,0.6-1.3S67,19.4,66.7,19C66.3,18.7,65.9,18.5,65.3,18.5L65.3,18.5z M78,23.9c-0.6-0.1-1.2-0.2-1.8-0.2
							c-1.4,0-2.7,0.3-3.8,0.9c-1.1,0.6-2,1.5-2.5,2.5c-0.6,1.1-0.9,2.3-0.9,3.8c0,1.3,0.3,2.4,0.8,3.4c0.6,1,1.3,1.8,2.4,2.3
							c1,0.5,2.2,0.8,3.5,0.8c1.5,0,2.8-0.3,3.8-0.9l0,0v-2.8l-0.1,0.1c-0.5,0.3-1,0.6-1.5,0.8c-0.6,0.2-1.1,0.3-1.5,0.3
							c-1.3,0-2.2-0.4-2.9-1.1c-0.7-0.8-1.1-1.8-1.1-3.1c0-1.3,0.4-2.4,1.1-3.2s1.7-1.2,2.9-1.2c1,0,2.1,0.3,3,1l0.1,0.1v-3l0,0
							C79.1,24.2,78.6,24,78,23.9L78,23.9z M88.4,23.8c-0.8,0-1.5,0.2-2.1,0.7c-0.5,0.4-0.9,1-1.2,1.8h0V24h-3.1v13.1H85v-6.7
							c0-1.1,0.2-2.1,0.8-2.8c0.5-0.7,1.2-1.1,2-1.1c0.3,0,0.6,0.1,0.9,0.1c0.3,0.1,0.6,0.2,0.7,0.3l0.1,0.1V24l-0.1,0
							C89.3,23.9,88.9,23.8,88.4,23.8L88.4,23.8z M96.9,23.7c-2.2,0-4,0.6-5.2,1.9c-1.3,1.3-1.9,3-1.9,5.1c0,2,0.6,3.7,1.8,4.9
							c1.2,1.2,2.9,1.8,4.9,1.8c2.2,0,3.9-0.6,5.1-1.9c1.3-1.3,1.9-3,1.9-5.1c0-2.1-0.6-3.7-1.8-4.9C100.7,24.3,99,23.7,96.9,23.7
							L96.9,23.7z M99.4,33.8c-0.6,0.7-1.5,1.1-2.6,1.1c-1.1,0-2.1-0.4-2.7-1.1c-0.7-0.7-1-1.8-1-3.1c0-1.4,0.3-2.5,1-3.2
							c0.7-0.8,1.5-1.1,2.7-1.1c1.1,0,2,0.4,2.6,1.1c0.6,0.7,1,1.8,1,3.2C100.3,31.9,100.1,33,99.4,33.8L99.4,33.8z M110.6,29.4
							c-1-0.4-1.6-0.7-1.9-1c-0.2-0.2-0.4-0.6-0.4-1c0-0.4,0.1-0.7,0.5-0.9c0.4-0.2,0.8-0.4,1.4-0.4c0.5,0,1.1,0.1,1.6,0.2
							c0.5,0.1,1,0.4,1.4,0.6l0.1,0.1v-2.9l-0.1,0c-0.4-0.1-0.8-0.3-1.4-0.4c-0.6-0.1-1.1-0.1-1.5-0.1c-1.5,0-2.7,0.4-3.7,1.1
							c-1,0.7-1.4,1.7-1.4,2.9c0,0.6,0.1,1.2,0.3,1.6c0.2,0.4,0.5,0.9,1,1.2c0.4,0.3,1.1,0.7,1.9,1.1c0.7,0.3,1.3,0.5,1.6,0.7
							c0.3,0.2,0.6,0.4,0.7,0.6c0.1,0.2,0.2,0.4,0.2,0.7c0,0.9-0.7,1.3-2.1,1.3c-0.5,0-1.1-0.1-1.7-0.3c-0.7-0.2-1.3-0.5-1.8-0.9
							l-0.1-0.1v3l0.1,0c0.5,0.2,1,0.4,1.7,0.5c0.7,0.1,1.3,0.2,1.8,0.2c1.6,0,2.9-0.4,3.9-1.1c1-0.8,1.5-1.7,1.5-3
							c0-0.9-0.2-1.7-0.8-2.2C112.7,30.5,111.8,29.9,110.6,29.4L110.6,29.4z M122.5,23.7c-2.2,0-4,0.6-5.2,1.9
							c-1.2,1.3-1.9,3-1.9,5.1c0,2,0.6,3.7,1.8,4.9c1.2,1.2,2.9,1.8,4.9,1.8c2.2,0,3.9-0.6,5.1-1.9c1.3-1.3,1.9-3,1.9-5.1
							c0-2.1-0.6-3.7-1.8-4.9C126.2,24.3,124.6,23.7,122.5,23.7L122.5,23.7z M125,33.8c-0.6,0.7-1.5,1.1-2.6,1.1
							c-1.2,0-2.1-0.4-2.7-1.1c-0.7-0.7-1-1.8-1-3.1c0-1.4,0.3-2.5,1-3.2c0.7-0.8,1.5-1.1,2.7-1.1c1.1,0,2,0.4,2.6,1.1
							c0.6,0.7,1,1.8,1,3.2C125.9,31.9,125.6,33,125,33.8L125,33.8z M145.9,26.5V24h-3.2v-3.9l-0.1,0l-3,0.9l-0.1,0v3h-4.7v-1.7
							c0-0.8,0.2-1.3,0.5-1.7c0.3-0.4,0.8-0.6,1.5-0.6c0.4,0,0.9,0.1,1.4,0.3l0.1,0.1v-2.7l-0.1,0c-0.4-0.1-1-0.2-1.8-0.2
							c-0.9,0-1.8,0.2-2.5,0.6c-0.7,0.4-1.3,0.9-1.7,1.7c-0.4,0.7-0.6,1.5-0.6,2.4V24h-2.2v2.5h2.2v10.6h3.2V26.5h4.7v6.7
							c0,2.8,1.3,4.2,4,4.2c0.4,0,0.9-0.1,1.3-0.1c0.5-0.1,0.8-0.2,1-0.3l0,0v-2.5l-0.1,0.1c-0.2,0.1-0.4,0.2-0.7,0.3
							c-0.2,0.1-0.5,0.1-0.6,0.1c-0.6,0-1.1-0.1-1.4-0.5c-0.3-0.3-0.4-0.9-0.4-1.7v-6.2H145.9L145.9,26.5z"/>
						<polygon id="Path" class="st2" points="0,12.8 14.8,12.8 14.8,27.2 0,27.2 						"/>
						<polygon class="st3" points="16.4,12.8 31.2,12.8 31.2,27.2 16.4,27.2 						"/>
						<polygon class="st4" points="0,28.7 14.8,28.7 14.8,43.2 0,43.2 						"/>
						<polygon class="st5" points="16.4,28.7 31.2,28.7 31.2,43.2 16.4,43.2 						"/>
					</g>
				</g>
			</g>
		</g>
	</g>
</g>
</svg>
